<svg xmlns="http://www.w3.org/2000/svg" width="124" height="124" viewBox="0 0 124 124">
  <g id="Grupo_979316" data-name="Grupo 979316" transform="translate(6273.826 -781.097)">
    <g id="Grupo_979315" data-name="Grupo 979315">
      <circle id="Elipse_7678" data-name="Elipse 7678" cx="50.5" cy="50.5" r="50.5" transform="translate(-6261.826 793.097)" fill="#449c6e"/>
      <rect id="Rectángulo_305813" data-name="Rectángulo 305813" width="124" height="124" transform="translate(-6273.826 781.097)" fill="none"/>
    </g>
    <g id="production" transform="translate(-6261.826 759.113)">
      <g id="Grupo_971858" data-name="Grupo 971858" transform="translate(0 49.266)">
        <g id="Grupo_971831" data-name="Grupo 971831" transform="translate(63.552 24.307)">
          <path id="Trazado_684203" data-name="Trazado 684203" d="M343.973,193.872V173.485a1,1,0,0,0-1-1H323.164a1,1,0,0,0-1,1v20.386Z" transform="translate(-322.163 -172.484)" fill="#f6a96c"/>
        </g>
        <path id="Trazado_684204" data-name="Trazado 684204" d="M328.557,172.484h-5.393a1,1,0,0,0-1,1v20.386h5.393V173.485A1,1,0,0,1,328.557,172.484Z" transform="translate(-258.611 -148.177)" fill="#ea9b58"/>
        <g id="Grupo_971832" data-name="Grupo 971832" transform="translate(70.753 24.307)">
          <path id="Trazado_684205" data-name="Trazado 684205" d="M358.669,172.484V179.7a.6.6,0,0,0,.6.6h6.206a.6.6,0,0,0,.6-.6v-7.218Z" transform="translate(-358.669 -172.484)" fill="#fd4755"/>
        </g>
        <g id="Grupo_971833" data-name="Grupo 971833" transform="translate(70.753 24.307)">
          <path id="Trazado_684206" data-name="Trazado 684206" d="M361.985,179.7v-7.218h-3.316V179.7a.6.6,0,0,0,.6.6h3.316A.6.6,0,0,1,361.985,179.7Z" transform="translate(-358.669 -172.484)" fill="#fb2b3a"/>
        </g>
        <g id="Grupo_971834" data-name="Grupo 971834" transform="translate(36.392 24.307)">
          <path id="Trazado_684207" data-name="Trazado 684207" d="M206.292,193.872V173.485a1,1,0,0,0-1-1H185.483a1,1,0,0,0-1,1v20.386Z" transform="translate(-184.482 -172.484)" fill="#f6a96c"/>
        </g>
        <path id="Trazado_684208" data-name="Trazado 684208" d="M190.875,172.484h-5.393a1,1,0,0,0-1,1v20.386h5.393V173.485A1,1,0,0,1,190.875,172.484Z" transform="translate(-148.089 -148.177)" fill="#ea9b58"/>
        <g id="Grupo_971835" data-name="Grupo 971835" transform="translate(43.593 24.307)">
          <path id="Trazado_684209" data-name="Trazado 684209" d="M220.988,172.484V179.7a.6.6,0,0,0,.6.6h6.206a.6.6,0,0,0,.6-.6v-7.218Z" transform="translate(-220.988 -172.484)" fill="#fd4755"/>
        </g>
        <g id="Grupo_971836" data-name="Grupo 971836" transform="translate(43.593 24.307)">
          <path id="Trazado_684210" data-name="Trazado 684210" d="M224.231,179.7v-7.218h-3.243V179.7a.6.6,0,0,0,.6.6h3.243A.6.6,0,0,1,224.231,179.7Z" transform="translate(-220.988 -172.484)" fill="#fb2b3a"/>
        </g>
        <g id="Grupo_971837" data-name="Grupo 971837" transform="translate(32.782 45.494)">
          <path id="Trazado_684211" data-name="Trazado 684211" d="M219.254,279.889H166.182a19.223,19.223,0,0,1,0,30.291h53.072a15.146,15.146,0,1,0,0-30.291Z" transform="translate(-166.182 -279.889)" fill="#9b8e99"/>
        </g>
        <g id="Grupo_971838" data-name="Grupo 971838" transform="translate(32.782 45.494)">
          <path id="Trazado_684212" data-name="Trazado 684212" d="M180.274,295.036a19.221,19.221,0,0,0-7.385-15.146h-6.708a19.223,19.223,0,0,1,0,30.291h6.708A19.221,19.221,0,0,0,180.274,295.036Z" transform="translate(-166.181 -279.89)" fill="#918291"/>
        </g>
        <g id="Grupo_971839" data-name="Grupo 971839" transform="translate(37.351 50.628)">
          <path id="Trazado_684213" data-name="Trazado 684213" d="M237.849,305.913h-48.5a19.209,19.209,0,0,1,0,20.024h48.5a10.012,10.012,0,0,0,0-20.024Z" transform="translate(-189.346 -305.913)" fill="#ffe177"/>
        </g>
        <g id="Grupo_971840" data-name="Grupo 971840" transform="translate(37.352 50.628)">
          <path id="Trazado_684214" data-name="Trazado 684214" d="M196.026,305.913h-6.679a19.209,19.209,0,0,1,0,20.024h6.679a19.209,19.209,0,0,0,0-20.024Z" transform="translate(-189.347 -305.913)" fill="#ffd15b"/>
        </g>
        <path id="Trazado_684215" data-name="Trazado 684215" d="M234.824,298.413H185.578a19.45,19.45,0,0,1,1.791,2.959h47.455a8.533,8.533,0,1,1,0,17.065H187.369a19.433,19.433,0,0,1-1.791,2.959h49.246a11.492,11.492,0,1,0,0-22.983Z" transform="translate(-148.97 -249.265)" fill="#aa9ea9"/>
        <g id="Grupo_971841" data-name="Grupo 971841" transform="translate(1.479 41.196)">
          <circle id="Elipse_7707" data-name="Elipse 7707" cx="19.444" cy="19.444" r="19.444" fill="#efedef"/>
        </g>
        <g id="Grupo_971842" data-name="Grupo 971842" transform="translate(6.625 0)">
          <path id="Trazado_684216" data-name="Trazado 684216" d="M34.186,68.255h4.432a.6.6,0,0,1,.6.6v23.87a19.215,19.215,0,0,1,17.249-.039V68.855a.6.6,0,0,1,.6-.6h4.511a.6.6,0,0,0,.476-.967L48.359,49.5a.6.6,0,0,0-.952,0L33.71,67.287A.6.6,0,0,0,34.186,68.255Z" transform="translate(-33.584 -49.266)" fill="#05e39c"/>
        </g>
        <g id="Grupo_971843" data-name="Grupo 971843" transform="translate(6.625 0)">
          <path id="Trazado_684217" data-name="Trazado 684217" d="M34.186,68.255h4.432a.6.6,0,0,1,.6.6v23.87a19.215,19.215,0,0,1,17.249-.039V68.855a.6.6,0,0,1,.6-.6h4.511a.6.6,0,0,0,.476-.967L48.359,49.5a.6.6,0,0,0-.952,0L33.71,67.287A.6.6,0,0,0,34.186,68.255Z" transform="translate(-33.584 -49.266)" fill="#05e39c"/>
        </g>
        <g id="Grupo_971845" data-name="Grupo 971845" transform="translate(6.625 0)">
          <g id="Grupo_971844" data-name="Grupo 971844">
            <path id="Trazado_684218" data-name="Trazado 684218" d="M44.76,90.917V67.661a3,3,0,0,1,.624-1.833l7.774-10.1-4.8-6.232a.6.6,0,0,0-.952,0L33.71,67.287a.6.6,0,0,0,.476.967h4.432a.6.6,0,0,1,.6.6v23.87A19.1,19.1,0,0,1,44.76,90.917Z" transform="translate(-33.584 -49.266)" fill="#0ed290"/>
          </g>
        </g>
        <g id="Grupo_971846" data-name="Grupo 971846" transform="translate(81.46 56.73)">
          <circle id="Elipse_7708" data-name="Elipse 7708" cx="3.909" cy="3.909" r="3.909" fill="#9b8e99"/>
        </g>
        <g id="Grupo_971847" data-name="Grupo 971847" transform="translate(81.46 56.73)">
          <path id="Trazado_684219" data-name="Trazado 684219" d="M416.166,340.758a3.907,3.907,0,0,1,2.3-3.56,3.909,3.909,0,1,0,0,7.119A3.907,3.907,0,0,1,416.166,340.758Z" transform="translate(-412.946 -336.849)" fill="#918291"/>
        </g>
        <g id="Grupo_971848" data-name="Grupo 971848" transform="translate(64.046 56.73)">
          <circle id="Elipse_7709" data-name="Elipse 7709" cx="3.909" cy="3.909" r="3.909" fill="#9b8e99"/>
        </g>
        <g id="Grupo_971849" data-name="Grupo 971849" transform="translate(64.046 56.73)">
          <path id="Trazado_684220" data-name="Trazado 684220" d="M327.888,340.758a3.907,3.907,0,0,1,2.3-3.56,3.909,3.909,0,1,0,0,7.119A3.907,3.907,0,0,1,327.888,340.758Z" transform="translate(-324.668 -336.849)" fill="#918291"/>
        </g>
        <g id="Grupo_971850" data-name="Grupo 971850" transform="translate(46.632 56.73)">
          <circle id="Elipse_7710" data-name="Elipse 7710" cx="3.909" cy="3.909" r="3.909" fill="#9b8e99"/>
        </g>
        <g id="Grupo_971851" data-name="Grupo 971851" transform="translate(46.632 56.73)">
          <path id="Trazado_684221" data-name="Trazado 684221" d="M239.61,340.758a3.907,3.907,0,0,1,2.3-3.56,3.909,3.909,0,1,0,0,7.119,3.907,3.907,0,0,1-2.3-3.56Z" transform="translate(-236.39 -336.849)" fill="#918291"/>
        </g>
        <g id="Grupo_971857" data-name="Grupo 971857" transform="translate(0 39.716)">
          <g id="Grupo_971852" data-name="Grupo 971852" transform="translate(1.479 1.479)">
            <path id="Trazado_684222" data-name="Trazado 684222" d="M15.969,277.544a19.45,19.45,0,0,1,15.209-18.98,19.444,19.444,0,1,0,0,37.96A19.45,19.45,0,0,1,15.969,277.544Z" transform="translate(-7.5 -258.1)" fill="#e5e1e5"/>
          </g>
          <g id="Grupo_971853" data-name="Grupo 971853">
            <path id="Trazado_684223" data-name="Trazado 684223" d="M20.923,292.447a20.923,20.923,0,1,1,20.923-20.924A20.947,20.947,0,0,1,20.923,292.447Zm0-38.888a17.964,17.964,0,1,0,17.964,17.964A17.985,17.985,0,0,0,20.923,253.559Z" transform="translate(0 -250.6)" fill="#fd4755"/>
          </g>
          <g id="Grupo_971854" data-name="Grupo 971854" transform="translate(7.657 7.657)">
            <path id="Trazado_684224" data-name="Trazado 684224" d="M61.8,310.829a1.48,1.48,0,0,1-1.218-2.318,10.308,10.308,0,1,0-17,0,1.479,1.479,0,1,1-2.438,1.676,13.267,13.267,0,1,1,21.876,0A1.478,1.478,0,0,1,61.8,310.829Z" transform="translate(-38.815 -289.415)" fill="#d7d0d6"/>
          </g>
          <path id="Trazado_684225" data-name="Trazado 684225" d="M100.046,289.421a3.231,3.231,0,0,1,1.479.359V278.43a1.479,1.479,0,1,0-2.959,0v11.35A3.232,3.232,0,0,1,100.046,289.421Z" transform="translate(-79.123 -271.752)" fill="#0ed290"/>
          <g id="Grupo_971855" data-name="Grupo 971855" transform="translate(15.437 28.568)">
            <path id="Trazado_684226" data-name="Trazado 684226" d="M86.628,400.618H80.853a2.6,2.6,0,0,1,0-5.2h5.775a2.6,2.6,0,0,1,0,5.2Z" transform="translate(-78.254 -395.42)" fill="#05e39c"/>
          </g>
          <g id="Grupo_971856" data-name="Grupo 971856" transform="translate(15.437 28.568)">
            <path id="Trazado_684227" data-name="Trazado 684227" d="M82.819,398.019a2.607,2.607,0,0,1,2.6-2.6H80.853a2.6,2.6,0,1,0,0,5.2h4.565A2.607,2.607,0,0,1,82.819,398.019Z" transform="translate(-78.254 -395.42)" fill="#0ed290"/>
          </g>
        </g>
      </g>
      <g id="Grupo_971859" data-name="Grupo 971859" transform="translate(17.471 106.453)">
        <circle id="Elipse_7711" data-name="Elipse 7711" cx="3.452" cy="3.452" r="3.452" fill="#05e39c"/>
      </g>
    </g>
  </g>
</svg>
