<svg xmlns="http://www.w3.org/2000/svg" width="507.137" height="615.117" viewBox="0 0 507.137 615.117">
  <g id="Grupo_979449" data-name="Grupo 979449" transform="translate(-180 -13332)">
    <g id="Grupo_979312" data-name="Grupo 979312" transform="translate(-275.568 13173.568)">
      <path id="Trazado_691340" data-name="Trazado 691340" d="M701.779,158.432c61.513,0,54.492,158.03,98.9,206.2,58.775,63.758,159.89,32.19,159.89,141.613,0,192.088-131.156,261.684-274.082,261.684S421.607,661.393,464.166,469.807,558.853,158.432,701.779,158.432Z" transform="translate(0 0)" fill="#e9eef7" fill-rule="evenodd"/>
    </g>
    <g id="Grupo_979402" data-name="Grupo 979402" transform="translate(436.976 13647)">
      <g id="Grupo_979366" data-name="Grupo 979366" transform="translate(0.816 50.399)">
        <path id="Trazado_691389" data-name="Trazado 691389" d="M1548.652,914.374l12.91,7.508a9.175,9.175,0,0,1,3.308,12.512l-2.848,4.9c-3.363,5.778-1.9,8.393-.853,9.329,2.876,2.571,5.537,5.361,8.206,8.139.787.818,3.281,3.609,9.843-.207l4.5-2.615a9.179,9.179,0,0,1,12.512,3.312l7.509,12.906a9.182,9.182,0,0,1-3.312,12.515l-4.458,2.588c-6.153,3.577-6,5.413-5.218,8.023,1.071,3.58,2.221,7.166,3,10.875.7,3.3.382,5.659,8.756,5.659h5.128a9.166,9.166,0,0,1,9.149,9.153V1033.9a9.167,9.167,0,0,1-9.149,9.153h-5.128c-8.374,0-8.058,2.361-8.756,5.658-.783,3.709-1.933,7.294-3,10.875-.779,2.61-.935,4.442,5.218,8.024l4.458,2.587a9.179,9.179,0,0,1,3.312,12.512l-7.509,12.91a9.179,9.179,0,0,1-12.512,3.312l-4.5-2.615c-6.562-3.818-9.056-1.025-9.843-.206-2.669,2.778-5.33,5.572-8.206,8.14-1.044.935-2.509,3.549.853,9.328l2.848,4.9a9.175,9.175,0,0,1-3.308,12.512l-12.91,7.5a9.176,9.176,0,0,1-12.512-3.308l-2.84-4.886c-3.414-5.868-6.773-5.634-8.191-5.182-4.115,1.309-7.918,2.159-12.165,3.266-1.551.4-4.208,1.527-4.208,8.518v5.241a9.172,9.172,0,0,1-9.153,9.153h-14.932a9.172,9.172,0,0,1-9.153-9.153V1136.9c0-6.99-2.654-8.117-4.208-8.518-4.247-1.107-8.047-1.956-12.166-3.266-1.418-.451-4.777-.686-8.187,5.182l-2.844,4.886a9.174,9.174,0,0,1-12.512,3.308l-12.906-7.5a9.18,9.18,0,0,1-3.312-12.512l2.849-4.9c3.363-5.779,1.9-8.393.853-9.328-2.872-2.568-5.533-5.362-8.206-8.14-.787-.818-3.281-3.612-9.843.206l-4.5,2.615a9.181,9.181,0,0,1-12.512-3.312l-7.505-12.91a9.175,9.175,0,0,1,3.308-12.512l4.458-2.587c6.152-3.582,6-5.413,5.218-8.024-1.072-3.581-2.221-7.166-3-10.875-.7-3.3-.382-5.658-8.752-5.658H1376.6a9.17,9.17,0,0,1-9.153-9.153v-14.932a9.169,9.169,0,0,1,9.153-9.153h5.128c8.37,0,8.054-2.362,8.752-5.659.783-3.709,1.933-7.295,3-10.875.779-2.611.935-4.447-5.218-8.023l-4.458-2.588a9.178,9.178,0,0,1-3.308-12.515L1388,957.252a9.181,9.181,0,0,1,12.512-3.312l4.5,2.615c6.562,3.815,9.056,1.025,9.843.207,2.673-2.778,5.334-5.568,8.206-8.139,1.044-.936,2.51-3.55-.853-9.329l-2.849-4.9a9.181,9.181,0,0,1,3.312-12.512l12.906-7.508a9.179,9.179,0,0,1,12.512,3.312l2.844,4.886c3.41,5.869,6.769,5.634,8.187,5.182,4.119-1.309,7.918-2.158,12.166-3.265,1.554-.4,4.208-1.531,4.208-8.518V910.73a9.17,9.17,0,0,1,9.153-9.153h14.932a9.17,9.17,0,0,1,9.153,9.153v5.241c0,6.987,2.657,8.117,4.208,8.518,4.247,1.107,8.051,1.956,12.165,3.265,1.418.452,4.777.686,8.191-5.182l2.84-4.886a9.18,9.18,0,0,1,12.512-3.312ZM1492.115,953.2a73.233,73.233,0,1,0,73.233,73.234A73.234,73.234,0,0,0,1492.115,953.2Z" transform="translate(-1367.443 -901.577)" fill="#f47a44" fill-rule="evenodd"/>
      </g>
      <g id="Grupo_979401" data-name="Grupo 979401" transform="translate(0 0)">
        <g id="Grupo_979389" data-name="Grupo 979389">
          <g id="Grupo_979367" data-name="Grupo 979367" transform="translate(57.855 64.08)">
            <path id="Trazado_691390" data-name="Trazado 691390" d="M1515.868,933.882a97.789,97.789,0,0,1,20.32-4.182q1.631,26.092,25.94-.366c15.606,1.375,18.661,1.59,27.32,4.535,18.739,18.785,20.461,40.467,30.253,65.242-10.844.506-15.707,1.878-23.08,4.637q-2.373-8.909-3.975-14.336.45,49,.343,67.151c-35.865,14.916-65.405,9.808-77.469-1.812q-.251-43.563-.69-68.967a80.712,80.712,0,0,1-11.932,12.341c-8.795-10.579-14.749-14.838-19.736-21.077C1494.2,958.024,1510.015,940.33,1515.868,933.882Z" transform="translate(-1483.163 -929.334)" fill="#619fdf" fill-rule="evenodd"/>
          </g>
          <g id="Grupo_979368" data-name="Grupo 979368" transform="translate(0 83.875)">
            <path id="Trazado_691391" data-name="Trazado 691391" d="M1384.072,986.065q28.26,12.321,39.574,20.364l3.347-5.2c3.117,3.277,6.675,6.488,11.015,11.152a60.235,60.235,0,0,1-13.334,11.094q-19.64-2.2-43.412-31.212-7.389-1.549-10.88-5.626-.187-3.735,3.589-7.494-9.855-6.739-7.844-9.648Q1381.564,979.517,1384.072,986.065Z" transform="translate(-1365.787 -969.493)" fill="#ffb17d" fill-rule="evenodd"/>
          </g>
          <g id="Grupo_979369" data-name="Grupo 979369" transform="translate(85.646 189.497)">
            <path id="Trazado_691392" data-name="Trazado 691392" d="M1544.112,1183.779c.709,2.825-2.225,19.413-2.712,28.067a187.056,187.056,0,0,0-1.854,19.144,73.234,73.234,0,0,0,88.5-6.721,51.078,51.078,0,0,0-2.21-12.228c-3.047-9.921-3.437-18.727-4.255-26.45Q1576.7,1201.273,1544.112,1183.779Z" transform="translate(-1539.545 -1183.779)" fill="#4f8dcb" fill-rule="evenodd"/>
          </g>
          <g id="Grupo_979370" data-name="Grupo 979370" transform="translate(74.482 101.156)">
            <path id="Trazado_691393" data-name="Trazado 691393" d="M1604.577,1061.523c1.921.3,3.741.565,5.448.8q.135,21.614.074,32.381a22.235,22.235,0,0,1-5.938,1.948c.012-.927.288-3.067.3-3.978q.181-16.53.121-31.154Zm-87.681-28.874q7.919-6.921,15.08-22.484a91.825,91.825,0,0,0-.643,14.507,78.918,78.918,0,0,1-11.331,11.6q-1.613-1.941-3.105-3.62Zm86.189-28.095q3.49,11.783,6.667,23,.088,9.469.153,17.788c-1.535-.152-3.336-.257-5.471-.312Q1604.1,1022.038,1603.085,1004.554Z" transform="translate(-1516.896 -1004.554)" fill="#4f8dcb" fill-rule="evenodd"/>
          </g>
          <g id="Grupo_979371" data-name="Grupo 979371" transform="translate(85.646 217.564)">
            <path id="Trazado_691394" data-name="Trazado 691394" d="M1541.4,1240.722q31.569,30.884,84.436.195a51.078,51.078,0,0,1,2.21,12.228,73.234,73.234,0,0,1-88.5,6.721A187.053,187.053,0,0,1,1541.4,1240.722Z" transform="translate(-1539.545 -1240.722)" fill="#4567c5" fill-rule="evenodd"/>
          </g>
          <g id="Grupo_979372" data-name="Grupo 979372" transform="translate(115.137 78.463)">
            <path id="Trazado_691395" data-name="Trazado 691395" d="M1600.693,958.517a1.47,1.47,0,0,0-1.313,1.555,1.37,1.37,0,0,0,1.454,1.341,1.474,1.474,0,0,0,1.317-1.559A1.369,1.369,0,0,0,1600.693,958.517Z" transform="translate(-1599.377 -958.513)" fill="#4f8dcb" fill-rule="evenodd"/>
          </g>
          <g id="Grupo_979373" data-name="Grupo 979373" transform="translate(105.079 60.593)">
            <path id="Trazado_691396" data-name="Trazado 691396" d="M1600.274,952.176q10.912-11.778,15.15-23.052c-1.586-3-4.087-6.017-5.841-6.866-8.46,8.83-13.841,13.767-19,16.771l-.086.051c-.07-.234-.136-.471-.207-.709-1.364-4.66-3.339-10.065-4.2-15.446-2.428,1.726-3.3,4.345-4.629,6.979q-3.244,8.732-2.261,20.768a62.267,62.267,0,0,1,4.8-5.946,35.3,35.3,0,0,1,6.5-5.646,34.4,34.4,0,0,1,5.5,6.086A56.977,56.977,0,0,1,1600.274,952.176Z" transform="translate(-1578.972 -922.258)" fill="#4f8dcb" fill-rule="evenodd"/>
          </g>
          <g id="Grupo_979374" data-name="Grupo 979374" transform="translate(99.976 15.449)">
            <path id="Trazado_691397" data-name="Trazado 691397" d="M1604.243,875.865a20.652,20.652,0,0,1-3.316-6.519q.713-2.174,1.469-5.5,13.888-9.878,3.546-14.246-2.034,1.2-4.968,7.24c-1.629-.032-.1-4.283-.97-5.865,1.8-6.765.152-8.807.651-13.007-4.781-6.784-16.37-8.6-30.67-6.437-1.212,13.178-5.281,44.27,10.653,43.264l.117,1.735c.858,5.385,2.833,10.786,4.193,15.446l.3.659C1590.4,889.632,1595.783,884.7,1604.243,875.865Z" transform="translate(-1568.618 -830.67)" fill="#ffb17d" fill-rule="evenodd"/>
          </g>
          <g id="Grupo_979375" data-name="Grupo 979375" transform="translate(94.106)">
            <path id="Trazado_691398" data-name="Trazado 691398" d="M1564.685,816.707c14.3-2.163,25.148-1.415,29.93,5.369-.5,4.2.67,6.772-1.126,13.533.873,1.583-.183,5.308,1.446,5.339q2.934-6.038,4.968-7.24,10.345,4.366-3.546,14.246-.76,3.321-1.469,5.5c16.265-9.558,23.388-32.709,8.565-43.568-3.008-19.191-30.593-1.578-44.8-10.556C1553.256,807.137,1560.348,816.629,1564.685,816.707Z" transform="translate(-1556.709 -799.328)" fill="#284190" fill-rule="evenodd"/>
          </g>
          <g id="Grupo_979376" data-name="Grupo 979376" transform="translate(111.995 58.235)">
            <path id="Trazado_691399" data-name="Trazado 691399" d="M1603.819,917.476a45.9,45.9,0,0,1-10.817,1.34l.117,1.735c.168,1.044.374,2.088.612,3.128.031-.011.062-.019.094-.031Q1600.844,921.193,1603.819,917.476Z" transform="translate(-1593.002 -917.476)" fill="#ef8161" fill-rule="evenodd"/>
          </g>
          <g id="Grupo_979377" data-name="Grupo 979377" transform="translate(141.289 11.856)">
            <path id="Trazado_691400" data-name="Trazado 691400" d="M1653.537,828.686q-2.04-2.911-.312-5.069a7.791,7.791,0,0,1,7.882,2.319Q1658.818,825.356,1653.537,828.686Z" transform="translate(-1652.434 -823.381)" fill="#284190" fill-rule="evenodd"/>
          </g>
          <g id="Grupo_979378" data-name="Grupo 979378" transform="translate(139.045 4.723)">
            <path id="Trazado_691401" data-name="Trazado 691401" d="M1647.882,815.343c1.332,1.492,2.56,1.824,3.67.986a8.727,8.727,0,0,0-1.211-7.419Q1650.627,811.061,1647.882,815.343Z" transform="translate(-1647.882 -808.91)" fill="#284190" fill-rule="evenodd"/>
          </g>
          <g id="Grupo_979379" data-name="Grupo 979379" transform="translate(98.601 8.892)">
            <path id="Trazado_691402" data-name="Trazado 691402" d="M1579.379,824.834q-.175-6.231-4.855-7.467-7.9,3.63-8.694,11.492Q1568.461,825.645,1579.379,824.834Z" transform="translate(-1565.83 -817.368)" fill="#284190" fill-rule="evenodd"/>
          </g>
          <g id="Grupo_979380" data-name="Grupo 979380" transform="translate(111.856 0.85)">
            <path id="Trazado_691403" data-name="Trazado 691403" d="M1602.57,801.936c-.631,1.765.2,4.076-2.3,4.617-1.652,7.614-7.661-2.661-7.544-5.5Q1594.319,802.25,1602.57,801.936Z" transform="translate(-1592.722 -801.052)" fill="#284190" fill-rule="evenodd"/>
          </g>
          <g id="Grupo_979381" data-name="Grupo 979381" transform="translate(114.479 88.55)">
            <path id="Trazado_691404" data-name="Trazado 691404" d="M1599.361,978.983a1.471,1.471,0,0,0-1.318,1.555,1.367,1.367,0,0,0,1.458,1.336,1.464,1.464,0,0,0,1.317-1.555A1.372,1.372,0,0,0,1599.361,978.983Z" transform="translate(-1598.041 -978.979)" fill="#4f8dcb" fill-rule="evenodd"/>
          </g>
          <g id="Grupo_979382" data-name="Grupo 979382" transform="translate(113.824 98.639)">
            <path id="Trazado_691405" data-name="Trazado 691405" d="M1598.033,999.451a1.473,1.473,0,0,0-1.318,1.555,1.376,1.376,0,0,0,1.458,1.341,1.477,1.477,0,0,0,1.317-1.559A1.372,1.372,0,0,0,1598.033,999.451Z" transform="translate(-1596.713 -999.447)" fill="#4f8dcb" fill-rule="evenodd"/>
          </g>
          <g id="Grupo_979387" data-name="Grupo 979387" transform="translate(100.853 96.784)">
            <g id="Grupo_979383" data-name="Grupo 979383" transform="translate(0 3.299)">
              <path id="Trazado_691406" data-name="Trazado 691406" d="M1623.581,1002.514l-47.652,9.68a6.927,6.927,0,0,0-5.393,8.14l13.311,65.506a6.918,6.918,0,0,0,8.136,5.385l47.655-9.68a6.921,6.921,0,0,0,5.389-8.136l-13.307-65.506A6.923,6.923,0,0,0,1623.581,1002.514Z" transform="translate(-1570.399 -1002.376)" fill="#1e77d0" fill-rule="evenodd"/>
            </g>
            <g id="Grupo_979384" data-name="Grupo 979384" transform="translate(1.951 5.248)">
              <path id="Trazado_691407" data-name="Trazado 691407" d="M1625.978,1006.429l-47.652,9.684a4.962,4.962,0,0,0-3.869,5.837l13.307,65.506a4.972,4.972,0,0,0,5.84,3.865l47.652-9.679a4.968,4.968,0,0,0,3.865-5.841l-13.307-65.506A4.968,4.968,0,0,0,1625.978,1006.429Z" transform="translate(-1574.358 -1006.33)" fill="#86bdf4" fill-rule="evenodd"/>
            </g>
            <g id="Grupo_979385" data-name="Grupo 979385" transform="translate(5.336 6.354)">
              <rect id="Rect치ngulo_341698" data-name="Rect치ngulo 341698" width="50.45" height="68.956" transform="translate(0 10.435) rotate(-11.937)" fill="#86bdf4"/>
            </g>
            <g id="Grupo_979386" data-name="Grupo 979386" transform="translate(15.205)">
              <path id="Trazado_691408" data-name="Trazado 691408" d="M1626.629,998.571l-8.382,1.7-.358-1.765a3.541,3.541,0,0,0-4.162-2.755h0a3.536,3.536,0,0,0-2.751,4.158l.359,1.769-8.382,1.7a2.139,2.139,0,0,0-1.664,2.514l.811,3.982a2.129,2.129,0,0,0,2.509,1.66l23.677-4.809a2.137,2.137,0,0,0,1.664-2.513l-.807-3.978a2.142,2.142,0,0,0-2.513-1.664Zm-12.481-.752a1.561,1.561,0,1,1-1.22,1.839A1.558,1.558,0,0,1,1614.149,997.819Z" transform="translate(-1601.247 -995.683)" fill="#1e77d0" fill-rule="evenodd"/>
            </g>
          </g>
          <g id="Grupo_979388" data-name="Grupo 979388" transform="translate(105.362 134.067)">
            <path id="Trazado_691409" data-name="Trazado 691409" d="M1664.941,1071.331a54.9,54.9,0,0,1,1.021,22.733c-4.263,6.492-21.459,2.864-65.728-4.906-1.59,1.523-4.875,3.035-9.855,2.361-4.637-1.212-4.855-2.482-10.049-7.622q-1.888-6,.775-9.165c5.849,3.612,8.927,5.529,15.513,5.759q-2.631-7.1-.791-9.169,3.372,2.841,4.388,8.53c34.905-1.59,44.113-1.38,48.758,1.18-.506-2.3-.947-4.321-1.34-6.067A59.081,59.081,0,0,1,1664.941,1071.331Z" transform="translate(-1579.546 -1071.323)" fill="#ffb17d" fill-rule="evenodd"/>
          </g>
        </g>
        <g id="Grupo_979400" data-name="Grupo 979400" transform="translate(100.09 23.675)">
          <g id="Grupo_979392" data-name="Grupo 979392" transform="translate(18.21 3.574)">
            <g id="Grupo_979390" data-name="Grupo 979390" transform="translate(0.002 0.004)">
              <path id="Trazado_691410" data-name="Trazado 691410" d="M1607.292,854.631c.916-.121,1.735.736,1.828,1.913a2.082,2.082,0,0,1-1.485,2.361c-.916.121-1.73-.737-1.828-1.917A2.081,2.081,0,0,1,1607.292,854.631Z" transform="translate(-1605.798 -854.62)" fill="#badaf9" fill-rule="evenodd"/>
            </g>
            <g id="Grupo_979391" data-name="Grupo 979391">
              <path id="Trazado_691411" data-name="Trazado 691411" d="M1607.633,858.9a2.084,2.084,0,0,0,1.489-2.362c-.1-1.177-.916-2.038-1.832-1.917a1.522,1.522,0,0,0-.978.584l.125-.035c.3-.043.56.238.592.62a.677.677,0,0,1-.484.768c-.3.039-.561-.242-.592-.623v-.082a2.757,2.757,0,0,0-.152,1.13C1605.9,858.165,1606.717,859.023,1607.633,858.9Z" transform="translate(-1605.795 -854.612)" fill="#125aa2" fill-rule="evenodd"/>
            </g>
          </g>
          <g id="Grupo_979393" data-name="Grupo 979393" transform="translate(15.676)">
            <path id="Trazado_691412" data-name="Trazado 691412" d="M1601.793,849.531a1.144,1.144,0,0,0-.125.121,3.619,3.619,0,0,1,.374-.62,1.083,1.083,0,0,0-.241.23,1.66,1.66,0,0,0-.191.358,1.653,1.653,0,0,1,.059-.382.934.934,0,0,0-.133.417,1.547,1.547,0,0,1,.184-.814,1.3,1.3,0,0,0-.339.74.926.926,0,0,1-.047-.343.641.641,0,0,0-.07.37l-.117-.16c.02.1.051.129.062.207a1.577,1.577,0,0,1-.549-1,1.326,1.326,0,0,0,.191.417,2.451,2.451,0,0,1-.07-.67,4.378,4.378,0,0,1,.09.518,1.349,1.349,0,0,0,.191.46,2.115,2.115,0,0,1-.07-1.017l.011.093a3.014,3.014,0,0,0,.039.557c.047-.323.016-.624.281-.869a2.84,2.84,0,0,0-.167.374c.148-.148.2-.425.441-.456a3,3,0,0,0-.312.382.725.725,0,0,0-.156.541,1.277,1.277,0,0,1,.893-1.017c-.113.059-.452.308-.484.452l0,.027c.023.16.019-.144.008.035a1.042,1.042,0,0,0-.222.288,1.252,1.252,0,0,0-.082.21.759.759,0,0,0-.031.129.128.128,0,0,0,0,.059l.008.039a1.457,1.457,0,0,1,.514-.834,2.085,2.085,0,0,1,.767-.405c-.007.007-.011.007-.015.012l-.187.09a1.7,1.7,0,0,0-1.014,1.075c.028-.023,0,.008.043-.05.008-.012.008-.016.02-.032a2.581,2.581,0,0,1,.327-.479,2.312,2.312,0,0,1,.472-.382,2.778,2.778,0,0,1,1.177-.323,4.818,4.818,0,0,0-.81.222,1.583,1.583,0,0,0-.686.453,2.746,2.746,0,0,0,.284-.133,5.851,5.851,0,0,1,2.135-.608,4.744,4.744,0,0,0-1.157.4l.225-.047c-.062.032-.117.063-.183.1s-.113.055-.179.09a2.567,2.567,0,0,0-.939.818c.086-.078.187-.164.281-.238s.191-.152.3-.226a4.945,4.945,0,0,1,.623-.393,6.045,6.045,0,0,1,1.4-.515.479.479,0,0,0-.2.121,16.731,16.731,0,0,1,2.132-.4c-.223.078-.593.109-.846.183l-.23.089c.136,0,.581-.117.763-.148a10.46,10.46,0,0,1,2.4-.281,4.114,4.114,0,0,1,2.915.9,2.847,2.847,0,0,1,.269.261,4.945,4.945,0,0,0-1.344-.783,8.325,8.325,0,0,1,2.1,1.574c-.156-.1-.381-.312-.557-.448-.2-.152-.4-.292-.608-.428a5.473,5.473,0,0,0-1.453-.706,5.424,5.424,0,0,0,.549.316,19.7,19.7,0,0,1,2.949,2.03c.109.09.328.315.406.37-.1-.039-.479-.343-.608-.429a7.265,7.265,0,0,0-2.136-1.122,18.2,18.2,0,0,1,2.171,1.2L1612,849.45a6.328,6.328,0,0,0-1.473-.518,12.136,12.136,0,0,1,2.767,1.282c-.2-.07-.491-.238-.71-.331-.257-.113-.506-.214-.771-.308a8.146,8.146,0,0,0-1.66-.436,8.978,8.978,0,0,0-2.217-.016c-.21.02-.495.07-.7.07a2.57,2.57,0,0,1,.62-.117,10.047,10.047,0,0,1,1.285-.1c.172,0,.526.039.667.015a10.011,10.011,0,0,0-1.36-.133.124.124,0,0,0,.055-.011.186.186,0,0,0,.054-.028,4.273,4.273,0,0,0-1.052.137c-.3.074-.9.308-.931.315a2.2,2.2,0,0,0,.2-.148l-.729.172.9-.331a5.348,5.348,0,0,0-.6.16c-.214.055-.655.164-.85.238a3.151,3.151,0,0,1-.907.156,4.155,4.155,0,0,1,.5-.179l.488-.172a2.346,2.346,0,0,0,.246-.1,7.226,7.226,0,0,1,.693-.3,5.218,5.218,0,0,1,2.1-.413,4.457,4.457,0,0,0-2.186.354l-.975.4c-.085.028-.151.07-.237.105a7.478,7.478,0,0,1-.729.269l.016-.051a.02.02,0,0,1,0-.011v-.008c0-.008,0-.008,0-.012a1.543,1.543,0,0,1-.455.167c.234-.226.822-.405,1.021-.693a3.36,3.36,0,0,0-.624.366c-.067.043-.132.07-.195.109a2.537,2.537,0,0,1,.725-.7l.288-.175a1.413,1.413,0,0,0-.7.405,4.951,4.951,0,0,0-.491.538.43.43,0,0,1-.031.035c-.035.039-.02.019-.051.027l.222-.374c-.039.074-.343.378-.355.48a1.9,1.9,0,0,1,.242-.507l-.14.1a3.654,3.654,0,0,1,1.1-.888,2.356,2.356,0,0,0-1.149.807c-.1.144-.176.331-.273.448l.105-.3-.012.012-.16.191a1.973,1.973,0,0,1,.526-.814.615.615,0,0,0-.253.168,1.64,1.64,0,0,0-.2.23,2.839,2.839,0,0,0-.315.6,1.038,1.038,0,0,1,.078-.366c-.062.024-.008,0-.066.036a.959.959,0,0,0-.23.315l.039-.226-.152.226a3.877,3.877,0,0,1,.145-.495.825.825,0,0,0-.242.405.53.53,0,0,1,.035-.273l-.175.183c-.043.059-.086.137-.129.191a1.9,1.9,0,0,1,.218-.456c-.187.121-.249.3-.386.5a1.642,1.642,0,0,1,.331-.705c-.207.031-.331.573-.428.686l0-.238c-.019.019-.007.008-.039.043l-.125.23.016-.3c-.082.082-.09.179-.148.3a1.788,1.788,0,0,1,.039-.385c-.039.023-.008,0-.059.043-.086.085-.125.21-.207.3l.094-.242c-.035.016-.012.008-.047.027Z" transform="translate(-1600.655 -847.36)" fill="#125aa2" fill-rule="evenodd"/>
          </g>
          <g id="Grupo_979396" data-name="Grupo 979396" transform="translate(3.654 3.095)">
            <g id="Grupo_979394" data-name="Grupo 979394" transform="translate(0.001 0.003)">
              <path id="Trazado_691413" data-name="Trazado 691413" d="M1577.648,853.658a2.083,2.083,0,0,0-1.376,2.354c.086,1.185.846,2.038,1.7,1.917a2.078,2.078,0,0,0,1.375-2.354C1579.254,854.39,1578.5,853.533,1577.648,853.658Z" transform="translate(-1576.265 -853.646)" fill="#badaf9" fill-rule="evenodd"/>
            </g>
            <g id="Grupo_979395" data-name="Grupo 979395">
              <path id="Trazado_691414" data-name="Trazado 691414" d="M1577.968,857.933c-.85.117-1.61-.74-1.7-1.925a2.084,2.084,0,0,1,1.376-2.358,1.2,1.2,0,0,1,.974.316l-.117,0a.684.684,0,0,0-.448.768c.031.381.277.659.554.619s.471-.382.444-.767l-.008-.078a2.729,2.729,0,0,1,.3,1.068A2.089,2.089,0,0,1,1577.968,857.933Z" transform="translate(-1576.264 -853.639)" fill="#125aa2" fill-rule="evenodd"/>
            </g>
          </g>
          <g id="Grupo_979397" data-name="Grupo 979397" transform="translate(0 0.288)">
            <path id="Trazado_691415" data-name="Trazado 691415" d="M1577.462,850.089a1.385,1.385,0,0,1,.094.121,4.319,4.319,0,0,0-.281-.616.977.977,0,0,1,.179.226,2.615,2.615,0,0,1,.144.359,2.732,2.732,0,0,0-.051-.382,1.252,1.252,0,0,1,.1.417,1.977,1.977,0,0,0-.148-.811,1.489,1.489,0,0,1,.257.736,1.146,1.146,0,0,0,.028-.343.9.9,0,0,1,.059.37l.082-.156c-.016.093-.035.125-.043.2a1.828,1.828,0,0,0,.377-1.005,1.847,1.847,0,0,1-.128.421,3.362,3.362,0,0,0,.034-.67c-.042.148-.027.355-.054.522a1.629,1.629,0,0,1-.129.456,3.029,3.029,0,0,0,.035-1.017l-.011.1a4.414,4.414,0,0,1-.016.549,1.561,1.561,0,0,0-.218-.865,3.772,3.772,0,0,1,.129.374c-.1-.148-.152-.42-.323-.452a3.378,3.378,0,0,1,.229.382.931.931,0,0,1,.121.538c-.121-.592-.363-.9-.655-1.013a1.19,1.19,0,0,1,.354.452l0,.027c-.015.156-.019-.143,0,.036a1.066,1.066,0,0,1,.16.288,1.772,1.772,0,0,1,.066.207c.008.035.02.1.023.129v.062l-.007.035a1.634,1.634,0,0,0-.382-.83,1.356,1.356,0,0,0-.558-.4s.008.007.012.007l.133.09a1.619,1.619,0,0,1,.748,1.068c-.019-.019,0,.008-.031-.047l-.016-.031a3,3,0,0,0-.241-.475,2,2,0,0,0-.347-.382,1.568,1.568,0,0,0-.849-.319,2.842,2.842,0,0,1,.588.218,1.228,1.228,0,0,1,.495.452,1.616,1.616,0,0,1-.2-.132,3.331,3.331,0,0,0-1.539-.6,2.844,2.844,0,0,1,.834.394l-.164-.047c.046.031.086.066.132.1a.771.771,0,0,1,.129.09,2.234,2.234,0,0,1,.69.814c-.062-.078-.14-.164-.206-.238s-.137-.152-.214-.226a3.454,3.454,0,0,0-.452-.39,3.575,3.575,0,0,0-1.01-.51.348.348,0,0,1,.145.125,9.173,9.173,0,0,0-1.528-.4c.16.078.426.105.6.179l.168.09a3.58,3.58,0,0,1-.546-.148,5.539,5.539,0,0,0-1.726-.269,2.378,2.378,0,0,0-1.291.265,3.12,3.12,0,0,0-.779.647,2.46,2.46,0,0,0-.187.257c.176-.125.561-.67.951-.787a6.373,6.373,0,0,0-1.473,1.582c.109-.1.269-.315.389-.452.14-.156.28-.288.429-.428a3.579,3.579,0,0,1,1.025-.709,3.979,3.979,0,0,1-.386.319,14.608,14.608,0,0,0-2.073,2.034c-.078.094-.226.32-.284.374a5.121,5.121,0,0,0,.428-.436,4.832,4.832,0,0,1,1.5-1.122,12.8,12.8,0,0,0-1.531,1.2l.9-.651a3.633,3.633,0,0,1,1.044-.522,7.93,7.93,0,0,0-1.957,1.285,6.007,6.007,0,0,0,.5-.331c.183-.113.359-.214.545-.308a4.393,4.393,0,0,1,1.181-.444,4.7,4.7,0,0,1,1.586-.024,3.865,3.865,0,0,0,.5.07,1.473,1.473,0,0,0-.44-.117,5.329,5.329,0,0,0-.923-.093,3.351,3.351,0,0,1-.48.015,5.193,5.193,0,0,1,.971-.136c-.028,0-.012,0-.039-.012a.137.137,0,0,1-.035-.024,2.272,2.272,0,0,1,.752.129c.214.074.651.308.674.312a1.039,1.039,0,0,1-.145-.148l.522.175-.647-.335a3.915,3.915,0,0,1,.429.16,6.547,6.547,0,0,1,.612.238,1.8,1.8,0,0,0,.651.152,2.807,2.807,0,0,0-.362-.179l-.347-.168c-.066-.039-.125-.054-.179-.093a3.531,3.531,0,0,0-.5-.3c-.308-.172-1.192-.534-1.511-.405.413-.187,1.27.179,1.57.343l.7.4c.062.028.11.067.172.1a4.141,4.141,0,0,0,.53.269l-.011-.05a.056.056,0,0,1-.008-.012v-.02a1.027,1.027,0,0,0,.327.168c-.172-.226-.593-.405-.744-.69a2.259,2.259,0,0,1,.452.362c.051.039.1.07.144.109a2.252,2.252,0,0,0-.534-.7l-.207-.176c.171.02.378.246.51.406a4.113,4.113,0,0,1,.358.538c.012.02.012.016.024.035.023.035.012.02.035.027l-.164-.378a3.3,3.3,0,0,1,.261.48,2.111,2.111,0,0,0-.183-.507l.1.1a3.158,3.158,0,0,0-.8-.888c.237.035.67.5.834.8.074.148.132.327.2.448l-.082-.3a.014.014,0,0,1,.011.008l.121.191a2.187,2.187,0,0,0-.4-.81.457.457,0,0,1,.187.164,1.82,1.82,0,0,1,.148.23,3.537,3.537,0,0,1,.234.6,1.408,1.408,0,0,0-.062-.358c.047.015,0-.008.05.031a1.151,1.151,0,0,1,.172.315l-.035-.226.117.222a4.447,4.447,0,0,0-.117-.491.892.892,0,0,1,.183.4.888.888,0,0,0-.031-.273l.128.183c.031.062.063.133.1.187a2.052,2.052,0,0,0-.167-.448,1.63,1.63,0,0,1,.289.495,2.226,2.226,0,0,0-.25-.705c.148.035.246.573.315.682l0-.23c.011.012,0,0,.023.035l.1.234-.015-.3a1.37,1.37,0,0,1,.109.3,2.415,2.415,0,0,0-.035-.386c.031.02.007,0,.042.043.066.086.094.21.152.3l-.07-.238c.023.015.012,0,.035.023Z" transform="translate(-1568.851 -847.944)" fill="#125aa2" fill-rule="evenodd"/>
          </g>
          <g id="Grupo_979398" data-name="Grupo 979398" transform="translate(7.456 6.499)">
            <path id="Trazado_691416" data-name="Trazado 691416" d="M1587.693,872.728a.365.365,0,0,1-.206-.062,2.808,2.808,0,0,0-.6-.062c-.935-.036-2.681-.109-2.9-2.237-.082-.811,2.584-8.958,3.355-9.714a.372.372,0,0,1,.522.53c-.612.6-3.161,8.347-3.137,9.114.145,1.372,1.037,1.52,2.195,1.567a1.943,1.943,0,0,1,.986.187.37.37,0,0,1-.207.678Z" transform="translate(-1583.977 -860.546)" fill="#fb9674"/>
          </g>
          <g id="Grupo_979399" data-name="Grupo 979399" transform="translate(7.248 22.371)">
            <path id="Trazado_691417" data-name="Trazado 691417" d="M1597.174,892.747q-11.691,8-13.619,1.04Q1592.047,894.629,1597.174,892.747Z" transform="translate(-1583.555 -892.747)" fill="#fff" fill-rule="evenodd"/>
          </g>
        </g>
      </g>
    </g>
    <g id="Grupo_979446" data-name="Grupo 979446" transform="translate(180 13468)">
      <g id="Grupo_979437" data-name="Grupo 979437" transform="translate(0 63.287)">
        <g id="Grupo_979403" data-name="Grupo 979403" transform="translate(0 80.398)">
          <path id="Trazado_691418" data-name="Trazado 691418" d="M705.1,966.4l-10.25,5.963a7.286,7.286,0,0,0-2.628,9.934l2.262,3.89c2.671,4.589,1.507,6.666.676,7.409-2.278,2.039-4.395,4.257-6.514,6.465-.626.65-2.6,2.867-7.814-.165l-3.577-2.073a7.286,7.286,0,0,0-9.937,2.628l-5.96,10.25a7.286,7.286,0,0,0,2.628,9.937l3.54,2.056c4.886,2.844,4.761,4.3,4.142,6.37-.851,2.847-1.763,5.694-2.386,8.635-.552,2.625-.3,4.5-6.952,4.5h-4.072a7.282,7.282,0,0,0-7.269,7.269v11.858a7.282,7.282,0,0,0,7.269,7.269h4.072c6.649,0,6.4,1.878,6.952,4.5.623,2.944,1.534,5.792,2.386,8.635.619,2.073.744,3.53-4.142,6.374l-3.54,2.053a7.291,7.291,0,0,0-2.628,9.941l5.96,10.25a7.289,7.289,0,0,0,9.937,2.628l3.577-2.076c5.209-3.029,7.188-.811,7.814-.161,2.12,2.2,4.236,4.422,6.514,6.464.831.74,2,2.816-.676,7.406l-2.262,3.89a7.289,7.289,0,0,0,2.628,9.938l10.25,5.959a7.29,7.29,0,0,0,9.94-2.625l2.255-3.883c2.712-4.657,5.377-4.476,6.5-4.115,3.268,1.039,6.286,1.713,9.661,2.595,1.232.316,3.341,1.214,3.341,6.763v4.163a7.284,7.284,0,0,0,7.269,7.269h11.859a7.284,7.284,0,0,0,7.268-7.269v-4.163c0-5.549,2.11-6.447,3.341-6.763,3.372-.882,6.394-1.555,9.661-2.595,1.127-.36,3.8-.542,6.5,4.115l2.255,3.883a7.289,7.289,0,0,0,9.94,2.625l10.25-5.959a7.289,7.289,0,0,0,2.628-9.937l-2.265-3.89c-2.668-4.59-1.5-6.666-.676-7.406,2.281-2.042,4.4-4.26,6.518-6.464.626-.65,2.6-2.867,7.817.161l3.574,2.076a7.29,7.29,0,0,0,9.937-2.628l5.963-10.25a7.3,7.3,0,0,0-2.631-9.941l-3.54-2.053c-4.886-2.844-4.761-4.3-4.143-6.374.851-2.843,1.764-5.69,2.386-8.635.552-2.618.3-4.5,6.952-4.5h4.072a7.281,7.281,0,0,0,7.268-7.269v-11.858a7.282,7.282,0,0,0-7.268-7.269h-4.072c-6.649,0-6.4-1.871-6.952-4.5-.622-2.941-1.535-5.788-2.386-8.635-.619-2.073-.744-3.526,4.143-6.37l3.54-2.056a7.291,7.291,0,0,0,2.631-9.937l-5.963-10.25a7.286,7.286,0,0,0-9.937-2.628l-3.574,2.073c-5.213,3.032-7.191.815-7.817.165-2.12-2.207-4.237-4.425-6.518-6.465-.828-.744-1.992-2.82.676-7.409l2.265-3.89a7.286,7.286,0,0,0-2.628-9.934L794.9,966.4a7.292,7.292,0,0,0-9.94,2.631l-2.255,3.877c-2.709,4.661-5.377,4.476-6.5,4.119-3.267-1.043-6.289-1.716-9.661-2.591-1.231-.323-3.341-1.218-3.341-6.77V963.5a7.281,7.281,0,0,0-7.268-7.269H744.068A7.282,7.282,0,0,0,736.8,963.5v4.16c0,5.552-2.11,6.447-3.341,6.77-3.375.875-6.393,1.548-9.661,2.591-1.127.357-3.793.542-6.5-4.119l-2.255-3.877a7.293,7.293,0,0,0-9.94-2.631ZM750,997.235a58.157,58.157,0,1,1-58.159,58.155A58.158,58.158,0,0,1,750,997.235Z" transform="translate(-650.986 -956.235)" fill="#619fdf" fill-rule="evenodd"/>
        </g>
        <g id="Grupo_979430" data-name="Grupo 979430" transform="translate(24.764)">
          <g id="Grupo_979418" data-name="Grupo 979418">
            <g id="Grupo_979414" data-name="Grupo 979414">
              <g id="Grupo_979404" data-name="Grupo 979404" transform="translate(42.864 20.656)">
                <path id="Trazado_691419" data-name="Trazado 691419" d="M809.862,865.8c2.524.182,6.5-.306,7.208-1.2a31.982,31.982,0,0,0,5.233-9.2q-.787-2.241-1.646-5.654-14.583-9.9-3.988-14.651,2.14,1.191,5.3,7.373a4.342,4.342,0,0,0,3.833-2.584,127.486,127.486,0,0,1-3.92-16.937c4.792-7.117,15.991-8.133,30.824-6.212q1.035,5.921,1.7,12.545c1.844,1.7,7.218,30.151-11.007,31.306a22.661,22.661,0,0,0,.209,4.923,3.64,3.64,0,0,0,2,1.259h0Q846.038,881.307,809.862,865.8Z" transform="translate(-809.862 -815.884)" fill="#ffb17d" fill-rule="evenodd"/>
              </g>
              <g id="Grupo_979405" data-name="Grupo 979405" transform="translate(34.125)">
                <path id="Trazado_691420" data-name="Trazado 691420" d="M840.918,788.868c-14.833-1.925-26.036-.905-30.824,6.212a127.962,127.962,0,0,0,3.917,16.937,4.333,4.333,0,0,1-3.829,2.584q-3.17-6.178-5.3-7.373-10.59,4.75,3.988,14.651.858,3.418,1.642,5.654c-8.742-1.962-16.058-9.779-17.091-13.164-10.2-20.11,1.174-28.6,7.265-31.7,5.027-9.3,19.184-6.976,29.808-7.184a15.963,15.963,0,0,0,13.47-8.127C851.555,774.179,845.41,788.689,840.918,788.868Z" transform="translate(-789.331 -767.358)" fill="#284190" fill-rule="evenodd"/>
              </g>
              <g id="Grupo_979406" data-name="Grupo 979406" transform="translate(0 70.576)">
                <path id="Trazado_691421" data-name="Trazado 691421" d="M883.891,968.429q-11.009,47.144-38.681,73.17-9.975-3.023-17.694-13.628.323,26.641-.9,53.094a58.061,58.061,0,0,1-33.768,18.468,122.9,122.9,0,0,1-20.658-4.92l-9.042-11.132c-2.322-.451-7.6,2.113-10.125,6.023-21.167-16.155-35.441-33.516-43.86-50.766q3.412-55.584,15.1-87.71,5.911-9.091,27.761-17.869,36.177,15.5,35.747.966,10.641,3.488,28.23,12.356,14.663,11.146,24.979,60.39,16.783-21.034,34.825-44.6,4.013,1.136,8.083,6.155Zm-125.615,105q10.524-34.607-11.619-85.4-5.578,25.061-12.051,49.329Q742.127,1040.934,758.276,1073.433Z" transform="translate(-709.163 -933.16)" fill="#f47a44" fill-rule="evenodd"/>
              </g>
              <g id="Grupo_979407" data-name="Grupo 979407" transform="translate(43.386 226.921)">
                <path id="Trazado_691422" data-name="Trazado 691422" d="M825.881,1309q2.267-1.5,4.849-3.432a122.919,122.919,0,0,0,20.658,4.92A58.554,58.554,0,0,1,825.881,1309Zm-14.793-6.606.475-1.935c.35.9.67,1.831.952,2.8Q811.793,1302.836,811.088,1302.39Z" transform="translate(-811.088 -1300.455)" fill="#3b5bb2" fill-rule="evenodd"/>
              </g>
              <g id="Grupo_979408" data-name="Grupo 979408" transform="translate(43.86 220.846)">
                <path id="Trazado_691423" data-name="Trazado 691423" d="M831.37,1297.367q-2.589,1.923-4.849,3.433a57.72,57.72,0,0,1-13.366-5.741c-.283-.969-.6-1.9-.952-2.8,2.53-3.91,7.8-6.474,10.125-6.023Z" transform="translate(-812.203 -1286.184)" fill="#ffb17d" fill-rule="evenodd"/>
              </g>
              <g id="Grupo_979409" data-name="Grupo 979409" transform="translate(113.043 111.081)">
                <path id="Trazado_691424" data-name="Trazado 691424" d="M980.041,1082.624q-1.1-33.123-5.31-54.306,10.711,44.985,20.763,59.7,6.345-.2,16.088-7.527a112.019,112.019,0,0,1-13.847,15.758Q987.76,1093.229,980.041,1082.624Z" transform="translate(-974.731 -1028.318)" fill="#ef6a30" fill-rule="evenodd"/>
              </g>
              <g id="Grupo_979410" data-name="Grupo 979410" transform="translate(37.494 125.447)">
                <path id="Trazado_691425" data-name="Trazado 691425" d="M813.738,1157.517a89.015,89.015,0,0,0-4.873-10.048q10.524-34.607-11.619-85.4,32.208,45.792,18.265,97.634Z" transform="translate(-797.246 -1062.066)" fill="#ef6a30" fill-rule="evenodd"/>
              </g>
              <g id="Grupo_979411" data-name="Grupo 979411" transform="translate(66.652 63.314)">
                <path id="Trazado_691426" data-name="Trazado 691426" d="M865.746,916.1a25.009,25.009,0,0,0,9.749,2.046,29.753,29.753,0,0,0,.071,4A15.356,15.356,0,0,1,865.746,916.1Z" transform="translate(-865.746 -916.1)" fill="#ef8161" fill-rule="evenodd"/>
              </g>
              <g id="Grupo_979412" data-name="Grupo 979412" transform="translate(58.179 232.029)">
                <path id="Trazado_691427" data-name="Trazado 691427" d="M845.84,1315.889q2.267-1.51,4.849-3.432,2.711.873,5.33,1.619a39.64,39.64,0,0,1-3.594,3.294A58.291,58.291,0,0,1,845.84,1315.889Z" transform="translate(-845.84 -1312.456)" fill="#4a75ca" fill-rule="evenodd"/>
              </g>
              <g id="Grupo_979413" data-name="Grupo 979413" transform="translate(166.645 72.43)">
                <path id="Trazado_691428" data-name="Trazado 691428" d="M1108.74,970.931c.447-1.117,2.265-4.61,4.038-8.978q6.612-3.4,10.556-14.84a13.269,13.269,0,0,0-9.978-9.6q-2.574,9.484-7.676,13.944,1.262-9.9-3.264-6.2a4.405,4.405,0,0,1,.067,3.2q-3.069,5.008.545,11.4c-.922,1.928-1.921,3.873-2.372,4.927C1103.4,965.655,1105.96,967.569,1108.74,970.931Z" transform="translate(-1100.657 -937.516)" fill="#ffb17d" fill-rule="evenodd"/>
              </g>
            </g>
            <g id="Grupo_979415" data-name="Grupo 979415" transform="translate(30.279 13.529)">
              <path id="Trazado_691429" data-name="Trazado 691429" d="M793.743,810.083q6.431-3.286,4.546-7.935-9.186-4.982-17.993-1.713Q785.465,801.087,793.743,810.083Z" transform="translate(-780.296 -799.141)" fill="#284190" fill-rule="evenodd"/>
            </g>
            <g id="Grupo_979416" data-name="Grupo 979416" transform="translate(42.981 10.385)">
              <path id="Trazado_691430" data-name="Trazado 691430" d="M813.61,797.933q-2.175,1.666-3.459.259a7.963,7.963,0,0,1,2.356-6.437Q811.885,793.632,813.61,797.933Z" transform="translate(-810.136 -791.755)" fill="#284190" fill-rule="evenodd"/>
            </g>
            <g id="Grupo_979417" data-name="Grupo 979417" transform="translate(59.791 9.624)">
              <path id="Trazado_691431" data-name="Trazado 691431" d="M869.474,789.968q9.485,4.84,6.707,11.707-13.553,7.354-26.554,2.531Q857.264,803.242,869.474,789.968Z" transform="translate(-849.627 -789.968)" fill="#284190" fill-rule="evenodd"/>
            </g>
          </g>
          <g id="Grupo_979429" data-name="Grupo 979429" transform="translate(58.357 27.248)">
            <g id="Grupo_979421" data-name="Grupo 979421" transform="translate(8.059 5.506)">
              <g id="Grupo_979419" data-name="Grupo 979419" transform="translate(0.003 0)">
                <path id="Trazado_691432" data-name="Trazado 691432" d="M866.981,844.308c-.989-.051-1.787,1.043-1.78,2.44s.814,2.574,1.8,2.625,1.784-1.04,1.777-2.437S867.967,844.361,866.981,844.308Z" transform="translate(-865.201 -844.306)" fill="#badaf9" fill-rule="evenodd"/>
              </g>
              <g id="Grupo_979420" data-name="Grupo 979420">
                <path id="Trazado_691433" data-name="Trazado 691433" d="M867,849.375c-.989-.054-1.8-1.228-1.8-2.628s.794-2.494,1.78-2.44a1.581,1.581,0,0,1,1.1.592l-.138-.034c-.323-.017-.579.337-.579.791s.262.834.586.851.578-.336.575-.79l0-.094a3.492,3.492,0,0,1,.259,1.312C868.78,848.332,867.986,849.426,867,849.375Z" transform="translate(-865.193 -844.305)" fill="#125aa2" fill-rule="evenodd"/>
              </g>
            </g>
            <g id="Grupo_979422" data-name="Grupo 979422" transform="translate(0 1.633)">
              <path id="Trazado_691434" data-name="Trazado 691434" d="M859.06,837.127a1.048,1.048,0,0,1,.145.131,3.951,3.951,0,0,0-.458-.69,1.143,1.143,0,0,1,.283.243,2.446,2.446,0,0,1,.235.4,2.889,2.889,0,0,0-.094-.444,1.264,1.264,0,0,1,.175.481,1.9,1.9,0,0,0-.269-.942,1.547,1.547,0,0,1,.427.838,1.145,1.145,0,0,0,.024-.407.8.8,0,0,1,.1.431l.111-.2c-.013.117-.04.154-.05.249a2,2,0,0,0,.5-1.235,2.03,2.03,0,0,1-.169.515,3.128,3.128,0,0,0,.01-.8c-.054.182-.013.424-.047.619a1.737,1.737,0,0,1-.161.559,2.74,2.74,0,0,0-.02-1.2l-.007.108a3.321,3.321,0,0,1,.013.659c-.077-.377-.071-.733-.38-1a3.119,3.119,0,0,1,.212.424c-.165-.162-.249-.475-.508-.488a3.284,3.284,0,0,1,.367.414.932.932,0,0,1,.219.622,1.441,1.441,0,0,0-1.047-1.107c.125.057.512.32.555.485v.03c-.01.192-.037-.165,0,.044a1.122,1.122,0,0,1,.259.316,2.025,2.025,0,0,1,.108.238.769.769,0,0,1,.04.152.257.257,0,0,1,.007.071l-.007.043a1.717,1.717,0,0,0-.622-.932,2.163,2.163,0,0,0-.855-.4s.01.011.013.011l.206.087a1.876,1.876,0,0,1,1.178,1.161c-.027-.023,0,.01-.044-.05a.22.22,0,0,1-.023-.037,2.975,2.975,0,0,0-.394-.528,2.453,2.453,0,0,0-.538-.4,2.737,2.737,0,0,0-1.286-.266,5.015,5.015,0,0,1,.885.182,1.7,1.7,0,0,1,.774.464,2.192,2.192,0,0,1-.316-.131,5.767,5.767,0,0,0-2.335-.5,4.827,4.827,0,0,1,1.268.35l-.242-.034c.067.03.124.067.2.1a1.352,1.352,0,0,1,.2.087,2.69,2.69,0,0,1,1.077.868,3.511,3.511,0,0,0-.323-.252,3.6,3.6,0,0,0-.333-.236,5.017,5.017,0,0,0-.7-.4,6.036,6.036,0,0,0-1.535-.464.492.492,0,0,1,.222.124,16.237,16.237,0,0,0-2.309-.262c.242.071.639.067.916.131l.255.084a7.434,7.434,0,0,1-.828-.1,10.2,10.2,0,0,0-2.591-.091,4.465,4.465,0,0,0-1.911.488,4.829,4.829,0,0,0-1.121.868,3.645,3.645,0,0,0-.266.326c.256-.172.794-.864,1.37-1.053a9.115,9.115,0,0,0-2.1,2.063c.161-.135.38-.407.555-.583.2-.2.4-.384.615-.569a5.768,5.768,0,0,1,1.484-.972,6.657,6.657,0,0,1-.558.427,21.881,21.881,0,0,0-2.968,2.678c-.108.118-.316.407-.4.482.1-.058.484-.454.612-.569a7.818,7.818,0,0,1,2.177-1.531,20.064,20.064,0,0,0-2.211,1.626l1.309-.885a6.551,6.551,0,0,1,1.528-.761,13.154,13.154,0,0,0-2.84,1.784c.209-.1.5-.323.73-.458.262-.158.521-.3.791-.441a8.1,8.1,0,0,1,1.736-.676,8.874,8.874,0,0,1,2.365-.243,7.132,7.132,0,0,0,.75.017,2.347,2.347,0,0,0-.666-.077,9.6,9.6,0,0,0-1.387.01c-.182.014-.559.1-.707.084a9.221,9.221,0,0,1,1.44-.292c-.047,0-.02,0-.06-.01a.112.112,0,0,1-.06-.023,4.119,4.119,0,0,1,1.137.054c.326.057.989.272,1.023.276a1.733,1.733,0,0,1-.229-.154l.794.131-.986-.3a4.919,4.919,0,0,1,.649.132,9.141,9.141,0,0,1,.932.195,3.349,3.349,0,0,0,.982.091,4.079,4.079,0,0,0-.555-.162l-.532-.151a2.311,2.311,0,0,1-.272-.091c-.252-.115-.512-.192-.77-.28a5.07,5.07,0,0,0-2.278-.272,4.31,4.31,0,0,1,2.365.2l1.077.374c.1.027.168.067.266.1a7.078,7.078,0,0,0,.8.246l-.024-.06s0-.01,0-.01,0-.007,0-.014a.012.012,0,0,1,0-.01,1.436,1.436,0,0,0,.5.148c-.266-.239-.908-.394-1.151-.71a3.421,3.421,0,0,1,.7.367c.074.044.145.067.219.108a2.824,2.824,0,0,0-.838-.751l-.323-.175a1.521,1.521,0,0,1,.787.407,5.146,5.146,0,0,1,.568.582.226.226,0,0,0,.037.04c.041.04.02.02.054.03l-.269-.424c.05.084.4.414.424.532a2.237,2.237,0,0,0-.306-.576l.158.108a3.89,3.89,0,0,0-1.248-.942,2.487,2.487,0,0,1,1.3.835c.124.162.218.37.333.5l-.141-.34a.058.058,0,0,1,.02.01l.185.209a2.323,2.323,0,0,0-.639-.905.583.583,0,0,1,.286.172,1.869,1.869,0,0,1,.235.252,3.181,3.181,0,0,1,.391.673,1.236,1.236,0,0,0-.118-.421c.071.017.01-.01.078.034a1.09,1.09,0,0,1,.272.346l-.06-.259.185.249a4.867,4.867,0,0,0-.2-.569.93.93,0,0,1,.293.451.7.7,0,0,0-.06-.317l.205.2c.051.068.1.152.155.215a2.026,2.026,0,0,0-.276-.511c.209.121.3.326.458.545a2.031,2.031,0,0,0-.417-.8c.222.02.4.64.518.764l-.023-.276a.319.319,0,0,1,.043.041l.155.262-.044-.35a1.331,1.331,0,0,1,.185.336,2.308,2.308,0,0,0-.077-.45c.047.02.01-.007.067.047.1.091.152.236.246.333l-.117-.272c.037.013.013,0,.05.027Z" transform="translate(-846.259 -835.208)" fill="#125aa2" fill-rule="evenodd"/>
            </g>
            <g id="Grupo_979425" data-name="Grupo 979425" transform="translate(23.828 3.476)">
              <g id="Grupo_979423" data-name="Grupo 979423" transform="translate(0.004 0.003)">
                <path id="Trazado_691435" data-name="Trazado 691435" d="M903.878,839.548c.915.057,1.669,1.238,1.683,2.638s-.717,2.48-1.632,2.423-1.673-1.239-1.683-2.638S902.962,839.487,903.878,839.548Z" transform="translate(-902.245 -839.545)" fill="#badaf9" fill-rule="evenodd"/>
              </g>
              <g id="Grupo_979424" data-name="Grupo 979424">
                <path id="Trazado_691436" data-name="Trazado 691436" d="M903.923,844.6c.919.06,1.649-1.027,1.635-2.423s-.767-2.584-1.686-2.642a1.242,1.242,0,0,0-1.013.468l.128-.014c.292.02.541.4.545.855s-.232.8-.532.788-.541-.4-.545-.855l0-.094a3.317,3.317,0,0,0-.222,1.279C902.251,843.366,903,844.548,903.923,844.6Z" transform="translate(-902.237 -839.538)" fill="#125aa2" fill-rule="evenodd"/>
              </g>
            </g>
            <g id="Grupo_979426" data-name="Grupo 979426" transform="translate(20.655)">
              <path id="Trazado_691437" data-name="Trazado 691437" d="M895.715,834.416a1.3,1.3,0,0,0-.087.148,4.913,4.913,0,0,1,.242-.75,1.152,1.152,0,0,0-.168.286,2.733,2.733,0,0,0-.121.434,3.269,3.269,0,0,1,.017-.455,1.755,1.755,0,0,0-.071.5,2.628,2.628,0,0,1,.084-.973,1.9,1.9,0,0,0-.205.895,1.336,1.336,0,0,1-.064-.4,1.136,1.136,0,0,0-.027.438l-.1-.179c.023.115.047.145.064.236a2.227,2.227,0,0,1-.495-1.141,2.11,2.11,0,0,0,.175.478,4.53,4.53,0,0,1-.1-.781c.057.169.06.414.1.606a2.154,2.154,0,0,0,.178.525,3.721,3.721,0,0,1-.125-1.191l.017.108a5.113,5.113,0,0,0,.067.653,2.006,2.006,0,0,1,.155-1.043,3.664,3.664,0,0,0-.1.454c.1-.185.121-.515.3-.565a3.1,3.1,0,0,0-.212.468,1.269,1.269,0,0,0-.084.646c.077-.707.31-1.1.609-1.255a1.406,1.406,0,0,0-.333.565l0,.03c.031.186.007-.168.01.044a1.328,1.328,0,0,0-.148.353,2.355,2.355,0,0,0-.05.252c0,.04-.01.114-.01.154a.452.452,0,0,0,0,.071l.01.044a2.119,2.119,0,0,1,.329-1.019,1.645,1.645,0,0,1,.559-.525s-.007.01-.01.013l-.134.117a1.931,1.931,0,0,0-.7,1.329c.017-.027,0,.01.027-.054a.385.385,0,0,1,.013-.04,3.282,3.282,0,0,1,.215-.585,2.268,2.268,0,0,1,.333-.485,1.619,1.619,0,0,1,.878-.458,3.037,3.037,0,0,0-.606.313,1.413,1.413,0,0,0-.491.582,1.664,1.664,0,0,0,.205-.181,3.515,3.515,0,0,1,1.592-.855,2.956,2.956,0,0,0-.855.545l.168-.074c-.044.041-.081.088-.131.131s-.084.071-.132.117a2.571,2.571,0,0,0-.659,1.027c.057-.1.131-.2.195-.3s.135-.192.212-.286a4.376,4.376,0,0,1,.448-.5,3.9,3.9,0,0,1,1.03-.7.4.4,0,0,0-.145.158,9.477,9.477,0,0,1,1.6-.619c-.165.108-.444.169-.629.276l-.172.117a3.522,3.522,0,0,0,.572-.225,5.461,5.461,0,0,1,1.817-.495,2.31,2.31,0,0,1,1.4.188,3.325,3.325,0,0,1,.892.68,3.189,3.189,0,0,1,.226.286c-.2-.131-.66-.734-1.084-.831a7.34,7.34,0,0,1,1.716,1.713c-.128-.108-.316-.344-.461-.492-.165-.168-.327-.313-.495-.464a3.8,3.8,0,0,0-1.161-.73,4.6,4.6,0,0,0,.441.337,16.179,16.179,0,0,1,2.4,2.188c.088.1.269.353.337.41a6.042,6.042,0,0,1-.5-.468,5.07,5.07,0,0,0-1.713-1.171,12.96,12.96,0,0,1,1.746,1.262l-1.023-.673a3.826,3.826,0,0,0-1.165-.512,8.126,8.126,0,0,1,2.207,1.32c-.161-.067-.394-.242-.565-.34-.205-.114-.4-.215-.612-.313a4.074,4.074,0,0,0-3-.266,4.527,4.527,0,0,1-.524.131,1.351,1.351,0,0,1,.461-.181,5.2,5.2,0,0,1,.976-.206,4.033,4.033,0,0,0,.512-.023,4.581,4.581,0,0,0-1.05-.068c.034-.01.017,0,.044-.017s.014-.013.037-.037a2.225,2.225,0,0,0-.794.232c-.222.108-.666.424-.69.434a1.228,1.228,0,0,0,.141-.192l-.545.255.663-.451a2.943,2.943,0,0,0-.444.229,6.22,6.22,0,0,0-.633.336,1.778,1.778,0,0,1-.683.246,2.562,2.562,0,0,1,.373-.246l.357-.235a1.263,1.263,0,0,0,.182-.128,4.636,4.636,0,0,1,.512-.4c.31-.229,1.221-.747,1.575-.626-.458-.178-1.34.337-1.646.559l-.717.541c-.067.04-.111.091-.175.138a4.716,4.716,0,0,1-.538.37l.01-.064s0-.011,0-.011,0-.01,0-.013v-.013a1.037,1.037,0,0,1-.337.229c.162-.283.6-.535.733-.882a2.321,2.321,0,0,0-.451.468c-.05.057-.1.091-.141.141a2.742,2.742,0,0,1,.5-.871l.209-.223c-.182.037-.383.324-.508.525a6.151,6.151,0,0,0-.336.663.21.21,0,0,1-.023.047c-.02.044-.01.023-.031.037l.138-.461a4.353,4.353,0,0,0-.236.593,2.5,2.5,0,0,1,.152-.616l-.1.124a3.608,3.608,0,0,1,.771-1.12,2.116,2.116,0,0,0-.818,1.026c-.071.182-.111.4-.178.548l.057-.36a.042.042,0,0,1-.01.014l-.108.232a2.759,2.759,0,0,1,.346-.99.505.505,0,0,0-.182.212,1.743,1.743,0,0,0-.135.286,4.2,4.2,0,0,0-.2.727,1.734,1.734,0,0,1,.037-.43c-.051.027-.007-.01-.051.04a1.291,1.291,0,0,0-.152.39l.01-.269-.1.276a5.7,5.7,0,0,1,.074-.6,1.242,1.242,0,0,0-.155.495,1.055,1.055,0,0,1,.007-.323l-.121.225c-.027.074-.057.165-.084.236a2.549,2.549,0,0,1,.135-.552,1.885,1.885,0,0,0-.259.616,2.625,2.625,0,0,1,.2-.858c-.155.054-.212.7-.279.838l-.014-.276a.261.261,0,0,0-.027.047l-.078.283-.01-.353a1.638,1.638,0,0,0-.095.361,3.115,3.115,0,0,1,.007-.454c-.034.027-.01-.007-.044.054-.06.1-.08.259-.135.367l.051-.286c-.024.02-.01.007-.03.037Z" transform="translate(-894.782 -831.372)" fill="#125aa2" fill-rule="evenodd"/>
            </g>
            <g id="Grupo_979427" data-name="Grupo 979427" transform="translate(19.319 8.07)">
              <path id="Trazado_691438" data-name="Trazado 691438" d="M893.122,864.657a.433.433,0,0,1-.286-.764,2.315,2.315,0,0,1,1.137-.316c1.356-.168,2.4-.43,2.426-2.07-.051-.9-3.819-9.752-4.6-10.4a.44.44,0,0,1,.559-.679c.985.814,4.933,10.132,4.913,11.095-.041,2.53-2.09,2.786-3.19,2.924a2.99,2.99,0,0,0-.707.134A.46.46,0,0,1,893.122,864.657Z" transform="translate(-891.645 -850.331)" fill="#fb9674"/>
            </g>
            <g id="Grupo_979428" data-name="Grupo 979428" transform="translate(16.486 27.296)">
              <path id="Trazado_691439" data-name="Trazado 691439" d="M884.988,895.582c5.458,2.756,8.689,2.6,10.045-.084Q888.865,896.644,884.988,895.582Z" transform="translate(-884.988 -895.498)" fill="#fb9674" fill-rule="evenodd"/>
            </g>
          </g>
        </g>
        <g id="Grupo_979436" data-name="Grupo 979436" transform="translate(67.702 152.216)">
          <g id="Grupo_979431" data-name="Grupo 979431" transform="translate(32.177 1.716)">
            <path id="Trazado_691440" data-name="Trazado 691440" d="M1014.579,1128.986H909.258a5.254,5.254,0,0,0-4.762,3.772l-18.74,71.356a2.818,2.818,0,0,0,2.783,3.773H993.86a5.261,5.261,0,0,0,4.765-3.773l18.737-71.356A2.818,2.818,0,0,0,1014.579,1128.986Z" transform="translate(-885.629 -1128.986)" fill="#a3cffb" fill-rule="evenodd"/>
          </g>
          <g id="Grupo_979432" data-name="Grupo 979432" transform="translate(29.996)">
            <path id="Trazado_691441" data-name="Trazado 691441" d="M886.58,1177.166l12.72-48.44a5.258,5.258,0,0,1,4.765-3.772h105.32c2.076,0,5.771,2.679,5.156,4.735a2.754,2.754,0,0,0-2.9-3.018H906.316a5.254,5.254,0,0,0-4.761,3.772l-18.74,71.356a2.973,2.973,0,0,0,.75,3.042c-1.736-1.121-3.389-3.284-3-4.758Z" transform="translate(-880.506 -1124.954)" fill="#619fdf" fill-rule="evenodd"/>
          </g>
          <g id="Grupo_979433" data-name="Grupo 979433" transform="translate(0 75.455)">
            <path id="Trazado_691442" data-name="Trazado 691442" d="M845.124,1307.381h105.32a4.114,4.114,0,0,0,1.154-.169c-2.1,5.435-7.79,4.63-10.015,4.61H816.717c-6.764-.286-6.589-5.031-6.68-9.6h30c-.1,1.45,1.443,3.392,3.055,4.432A2.967,2.967,0,0,0,845.124,1307.381Z" transform="translate(-810.037 -1302.219)" fill="#4f8dcb" fill-rule="evenodd"/>
          </g>
          <g id="Grupo_979434" data-name="Grupo 979434" transform="translate(38.21 31.056)">
            <path id="Trazado_691443" data-name="Trazado 691443" d="M911.419,1197.914c11.293,5.71,24.645,7.467,38.378,8.167a11.091,11.091,0,0,0-.353,1.517,9.018,9.018,0,0,0,9.059,10.714,11.925,11.925,0,0,0,11.451-9.863,10.392,10.392,0,0,0,.128-1.75c14.258.383,28.031,1.167,39.422,5.626l-7.834,29.831H899.8Z" transform="translate(-899.803 -1197.914)" fill="#4f8dcb" fill-rule="evenodd"/>
          </g>
          <g id="Grupo_979435" data-name="Grupo 979435" transform="translate(91.185 34.33)">
            <path id="Trazado_691444" data-name="Trazado 691444" d="M1032.259,1205.6a8.32,8.32,0,0,0-7.918,6.835,5.69,5.69,0,0,0,5.754,6.834,8.317,8.317,0,0,0,7.918-6.834A5.69,5.69,0,0,0,1032.259,1205.6Z" transform="translate(-1024.256 -1205.605)" fill="#4f8dcb" fill-rule="evenodd"/>
          </g>
        </g>
      </g>
      <g id="Grupo_979445" data-name="Grupo 979445" transform="translate(155.698 0)">
        <g id="Grupo_979438" data-name="Grupo 979438" transform="translate(26.781 111.125)">
          <rect id="Rect치ngulo_341699" data-name="Rect치ngulo 341699" width="35.814" height="12.37" fill="#fabea7"/>
        </g>
        <g id="Grupo_979439" data-name="Grupo 979439">
          <path id="Trazado_691445" data-name="Trazado 691445" d="M1043.868,722.92a5.9,5.9,0,0,1-3.584-5.667v-.875c-.421-24.228-21.715-31.023-23.438-57.825a40.886,40.886,0,0,1,.044-5.892c3.335-20.332,22.657-33.981,44.368-33.981,24.74,0,46.381,17.724,44.8,42.861-1.639,26.005-21.927,32.594-22.327,56.1,0,2.547-2.722,5.482-5.038,5.277Z" transform="translate(-1016.762 -618.68)" fill="#f47a44" fill-rule="evenodd"/>
        </g>
        <g id="Grupo_979440" data-name="Grupo 979440" transform="translate(2.771 2.769)">
          <path id="Trazado_691446" data-name="Trazado 691446" d="M1048.294,723.884l9.26,8.063,17.088-4.122,7.908-3.94.108.01c.818-.023,2.026-1.736,2.036-2.554.131-8.46,2.649-15.237,7.029-22.354,3.14-5.1,6.828-9.836,9.729-15.092a43.187,43.187,0,0,0,5.576-18.791,34.779,34.779,0,0,0-6.515-22.919c-8.093-11.2-21.92-17-35.515-17-19.181,0-38.3,11.724-41.616,31.548a38.307,38.307,0,0,0-.03,5.378,44.13,44.13,0,0,0,5.943,19.544c3.086,5.468,7,10.384,10.307,15.712,4.472,7.208,7.043,14.12,7.191,22.747v.875A3.1,3.1,0,0,0,1048.294,723.884Z" transform="translate(-1023.272 -625.186)" fill="#fabea7" fill-rule="evenodd"/>
        </g>
        <g id="Grupo_979441" data-name="Grupo 979441" transform="translate(14.806 2.769)">
          <path id="Trazado_691447" data-name="Trazado 691447" d="M1076.569,727.229l3.4,3.227,10.913-2.631,7.908-3.94.108.01c.818-.023,2.026-1.736,2.039-2.554.128-8.46,2.645-15.237,7.026-22.351,3.14-5.1,6.828-9.839,9.729-15.1a43.185,43.185,0,0,0,5.576-18.791,34.785,34.785,0,0,0-6.515-22.919c-8.093-11.2-21.92-17-35.515-17a47.864,47.864,0,0,0-11.986,1.535,39.3,39.3,0,0,0-17.592,27.263,44.284,44.284,0,0,0-.031,5.866,51.29,51.29,0,0,0,5.939,21.318c3.089,5.963,7,11.326,10.307,17.135,4.475,7.861,7.043,15.4,7.191,24.814v.952A3.488,3.488,0,0,0,1076.569,727.229Z" transform="translate(-1051.544 -625.186)" fill="#ffe1db" fill-rule="evenodd"/>
        </g>
        <g id="Grupo_979442" data-name="Grupo 979442" transform="translate(25.465 104.24)">
          <path id="Trazado_691448" data-name="Trazado 691448" d="M1115,885.683a5.408,5.408,0,0,1-5.364,4.863H1105.5l-1.608,2.628c-.922,1.508-1.464,1.609-3.234,1.609h-9.708c-1.77,0-2.308-.094-3.237-1.609l-1.608-2.628h-4.129a5.41,5.41,0,0,1-5.354-4.758V883.9a1.4,1.4,0,0,1,1.359-1.077h35.646a1.4,1.4,0,0,1,1.363,1.09c.014.057-.023.175.007.2v1.571Zm-36.511-12.4h34.637a1.906,1.906,0,0,1,1.9,1.9v2.948a1.908,1.908,0,0,1-1.9,1.9H1078.49a1.912,1.912,0,0,1-1.9-1.9v-2.948a1.909,1.909,0,0,1,1.9-1.9Zm.074-9.712h34.485a1.986,1.986,0,0,1,1.979,1.979v3.072a1.986,1.986,0,0,1-1.979,1.978h-34.485a1.986,1.986,0,0,1-1.978-1.978v-3.072A1.986,1.986,0,0,1,1078.563,863.568Z" transform="translate(-1076.585 -863.568)" fill="#f47a44" fill-rule="evenodd"/>
        </g>
        <g id="Grupo_979443" data-name="Grupo 979443" transform="translate(21.898 43.211)">
          <path id="Trazado_691449" data-name="Trazado 691449" d="M1085.522,781.223l-3.668-44.359h-5.31a8.315,8.315,0,0,1-5.892-2.446l.006,0a8.331,8.331,0,0,1,5.886-14.221,7.948,7.948,0,0,1,5.694,2.369,9.355,9.355,0,0,1,2.635,5.8l.414,4.755h16.253l.414-4.755a9.363,9.363,0,0,1,2.642-5.8,7.935,7.935,0,0,1,5.69-2.369,8.313,8.313,0,0,1,5.886,2.45l0,0a8.335,8.335,0,0,1-5.889,14.224h-5.313l-3.668,44.359h-3.738l3.647-44.359h-15.6l3.651,44.359Zm-3.991-48.1-.387-4.432a5.63,5.63,0,0,0-1.555-3.483,4.268,4.268,0,0,0-3.045-1.272,4.59,4.59,0,0,0-3.251,7.834h.007a4.58,4.58,0,0,0,3.244,1.353Zm23.767,0h4.987a4.585,4.585,0,0,0,3.241-7.834v-.006a4.562,4.562,0,0,0-3.241-1.346,4.253,4.253,0,0,0-3.045,1.275,5.586,5.586,0,0,0-1.555,3.48Z" transform="translate(-1068.205 -720.194)" fill="#fff" fill-rule="evenodd"/>
        </g>
        <g id="Grupo_979444" data-name="Grupo 979444" transform="translate(59.382 11.092)">
          <path id="Trazado_691450" data-name="Trazado 691450" d="M1157.7,649.231a2.338,2.338,0,0,1,1.817-4.308q1.454.616,2.753,1.316,1.337.716,2.611,1.561a2.339,2.339,0,1,1-2.584,3.9c-.72-.478-1.471-.925-2.244-1.339-.791-.424-1.578-.8-2.352-1.131Zm10.29,7.464a2.345,2.345,0,0,1,3.536-3.079,31.971,31.971,0,0,1,5.8,9.708,31.346,31.346,0,0,1,2.012,11.065,2.344,2.344,0,1,1-4.687,0,26.692,26.692,0,0,0-1.7-9.415A27.22,27.22,0,0,0,1167.986,656.694Z" transform="translate(-1156.267 -644.739)" fill="#fff" fill-rule="evenodd"/>
        </g>
      </g>
    </g>
    <g id="Grupo_979447" data-name="Grupo 979447" transform="translate(-1137.011 13141.44)">
      <path id="Trazado_691451" data-name="Trazado 691451" d="M1699.439,199.214l-8.729,5.079a6.209,6.209,0,0,0-2.24,8.464l1.926,3.314c2.276,3.908,1.285,5.676.58,6.306-1.943,1.74-3.744,3.629-5.555,5.508-.53.555-2.216,2.441-6.654-.139l-3.045-1.768a6.21,6.21,0,0,0-8.465,2.241l-5.075,8.73a6.207,6.207,0,0,0,2.237,8.464l3.013,1.75c4.166,2.423,4.059,3.661,3.529,5.429-.723,2.419-1.5,4.846-2.029,7.351-.473,2.233-.261,3.83-5.92,3.83h-3.472a6.2,6.2,0,0,0-6.188,6.192v10.1a6.2,6.2,0,0,0,6.188,6.192h3.472c5.659,0,5.447,1.6,5.92,3.83.53,2.505,1.306,4.932,2.029,7.351.53,1.768.637,3.006-3.529,5.43l-3.013,1.75a6.2,6.2,0,0,0-2.237,8.461l5.075,8.733a6.213,6.213,0,0,0,8.465,2.241l3.045-1.768c4.438-2.581,6.124-.694,6.654-.144,1.811,1.883,3.611,3.773,5.555,5.512.705.63,1.7,2.4-.58,6.306l-1.926,3.314a6.2,6.2,0,0,0,2.24,8.461l8.729,5.082a6.214,6.214,0,0,0,8.465-2.241l1.922-3.307c2.308-3.965,4.577-3.812,5.54-3.5,2.781.884,5.354,1.461,8.228,2.208,1.049.272,2.845,1.034,2.845,5.762v3.543a6.2,6.2,0,0,0,6.192,6.192h10.1a6.2,6.2,0,0,0,6.188-6.192v-3.543c0-4.728,1.8-5.491,2.849-5.762,2.874-.748,5.444-1.324,8.229-2.208.959-.308,3.232-.461,5.537,3.5l1.926,3.307a6.211,6.211,0,0,0,8.464,2.241l8.729-5.082a6.207,6.207,0,0,0,2.24-8.461l-1.929-3.314c-2.273-3.908-1.282-5.676-.576-6.306,1.943-1.739,3.744-3.629,5.551-5.512.533-.551,2.218-2.437,6.656.144l3.046,1.768a6.208,6.208,0,0,0,8.461-2.241l5.079-8.733a6.2,6.2,0,0,0-2.24-8.461l-3.014-1.75c-4.162-2.423-4.055-3.662-3.529-5.43.727-2.419,1.5-4.846,2.033-7.351.469-2.233.258-3.83,5.92-3.83h3.468a6.2,6.2,0,0,0,6.192-6.192v-10.1a6.2,6.2,0,0,0-6.192-6.192h-3.468c-5.662,0-5.451-1.6-5.92-3.83-.53-2.505-1.307-4.932-2.033-7.351-.526-1.768-.633-3.007,3.529-5.429l3.014-1.75a6.206,6.206,0,0,0,2.24-8.464l-5.079-8.73a6.206,6.206,0,0,0-8.461-2.241l-3.046,1.768c-4.438,2.581-6.123.694-6.656.139-1.808-1.879-3.608-3.769-5.551-5.508-.705-.63-1.7-2.4.576-6.306l1.929-3.314a6.212,6.212,0,0,0-2.24-8.464l-8.729-5.079a6.208,6.208,0,0,0-8.464,2.241l-1.926,3.307c-2.3,3.965-4.578,3.808-5.537,3.5-2.784-.884-5.354-1.46-8.229-2.208-1.052-.272-2.849-1.035-2.849-5.762v-3.544a6.2,6.2,0,0,0-6.188-6.192h-10.1a6.2,6.2,0,0,0-6.192,6.192V200.3c0,4.728-1.8,5.49-2.845,5.762-2.874.748-5.447,1.324-8.228,2.208-.963.3-3.232.462-5.54-3.5l-1.922-3.307a6.211,6.211,0,0,0-8.465-2.241Zm38.243,62.465a13.336,13.336,0,1,1-13.339,13.336,13.334,13.334,0,0,1,13.339-13.336Zm-41.8,13.336a2.852,2.852,0,0,1,5.7,0,36.1,36.1,0,0,0,36.1,36.1,2.852,2.852,0,0,1,0,5.7,41.8,41.8,0,0,1-41.8-41.8Zm83.055-6.732a2.843,2.843,0,1,1-5.616.891,36.123,36.123,0,0,0-29.441-29.731,2.85,2.85,0,1,1,.959-5.619,41.833,41.833,0,0,1,34.1,34.459Zm-41.252-42.8a49.534,49.534,0,1,1-49.534,49.534A49.532,49.532,0,0,1,1737.682,225.48Z" fill="#e9eef7" fill-rule="evenodd"/>
    </g>
    <g id="Grupo_979365" data-name="Grupo 979365" transform="translate(448.416 13340)">
      <g id="Grupo_979313" data-name="Grupo 979313" transform="translate(11.014 60.454)">
        <path id="Trazado_691341" data-name="Trazado 691341" d="M1300.129,358.9l-11.677,6.79a8.3,8.3,0,0,0-2.993,11.319l2.576,4.432c3.041,5.227,1.715,7.594.771,8.438-2.6,2.326-5.006,4.85-7.425,7.365-.708.74-2.965,3.267-8.9-.184l-4.074-2.366a8.306,8.306,0,0,0-11.319,3l-6.79,11.677a8.3,8.3,0,0,0,2.993,11.318l4.035,2.343c5.565,3.234,5.425,4.9,4.717,7.256-.968,3.243-2.009,6.485-2.717,9.836-.63,2.986-.345,5.123-7.915,5.123h-4.645a8.3,8.3,0,0,0-8.277,8.281v13.5a8.3,8.3,0,0,0,8.277,8.281h4.645c7.57,0,7.285,2.134,7.915,5.123.708,3.351,1.748,6.6,2.717,9.836.708,2.358.848,4.018-4.717,7.256l-4.035,2.343a8.3,8.3,0,0,0-2.993,11.319l6.79,11.676a8.3,8.3,0,0,0,11.319,2.994l4.074-2.363c5.935-3.452,8.193-.928,8.9-.189,2.419,2.515,4.825,5.042,7.425,7.369.944.844,2.27,3.207-.771,8.438l-2.576,4.428a8.3,8.3,0,0,0,2.993,11.322l11.677,6.791a8.3,8.3,0,0,0,11.318-3l2.572-4.42c3.086-5.3,6.124-5.095,7.409-4.689,3.724,1.185,7.16,1.953,11,2.953,1.4.366,3.809,1.386,3.809,7.711v4.737a8.292,8.292,0,0,0,8.277,8.281h13.509a8.3,8.3,0,0,0,8.281-8.281V560.21c0-6.325,2.4-7.345,3.8-7.711,3.845-1,7.281-1.768,11.005-2.953,1.286-.406,4.323-.615,7.409,4.689l2.571,4.42a8.3,8.3,0,0,0,11.319,3l11.676-6.791a8.3,8.3,0,0,0,2.994-11.322l-2.576-4.428c-3.042-5.231-1.716-7.594-.771-8.438,2.6-2.326,5.006-4.853,7.425-7.369.711-.74,2.965-3.263,8.9.189l4.074,2.363a8.3,8.3,0,0,0,11.318-2.994l6.79-11.676a8.3,8.3,0,0,0-2.993-11.319l-4.034-2.343c-5.565-3.238-5.425-4.9-4.717-7.256.968-3.239,2.009-6.485,2.716-9.836.631-2.989.346-5.123,7.92-5.123h4.637a8.293,8.293,0,0,0,8.281-8.281v-13.5a8.293,8.293,0,0,0-8.281-8.281h-4.637c-7.574,0-7.289-2.137-7.92-5.123-.707-3.351-1.748-6.594-2.716-9.836-.708-2.358-.848-4.022,4.717-7.256l4.034-2.343a8.3,8.3,0,0,0,2.993-11.318l-6.79-11.677a8.3,8.3,0,0,0-11.318-3l-4.074,2.366c-5.935,3.452-8.189.924-8.9.184-2.419-2.515-4.826-5.038-7.425-7.365-.945-.844-2.27-3.211.771-8.438l2.576-4.432a8.3,8.3,0,0,0-2.994-11.319l-11.676-6.79a8.3,8.3,0,0,0-11.319,2.993l-2.571,4.42c-3.086,5.308-6.123,5.1-7.409,4.689-3.724-1.185-7.16-1.949-11.005-2.949-1.4-.365-3.8-1.386-3.8-7.71V355.6a8.3,8.3,0,0,0-8.281-8.277h-13.509a8.293,8.293,0,0,0-8.277,8.277v4.741c0,6.324-2.407,7.345-3.809,7.71-3.845,1-7.28,1.764-11,2.949-1.286.41-4.324.619-7.409-4.689l-2.572-4.42a8.3,8.3,0,0,0-11.318-2.993Zm51.145,35.129a66.248,66.248,0,1,1-66.249,66.249A66.249,66.249,0,0,1,1351.274,394.03Z" transform="translate(-1238.489 -347.325)" fill="#619fdf" fill-rule="evenodd"/>
      </g>
      <g id="Grupo_979364" data-name="Grupo 979364" transform="translate(0 0)">
        <g id="Grupo_979353" data-name="Grupo 979353">
          <g id="Grupo_979314" data-name="Grupo 979314" transform="translate(85.464 177.071)">
            <path id="Trazado_691342" data-name="Trazado 691342" d="M1393.637,576.773l-6.7,36.487s-.772,5.376-1.968,13.882a66.314,66.314,0,0,0,65.513,6.4l5.995-15.473Z" transform="translate(-1384.97 -576.773)" fill="#3b5bb2" fill-rule="evenodd"/>
          </g>
          <g id="Grupo_979315" data-name="Grupo 979315" transform="translate(91.499 183.44)">
            <path id="Trazado_691343" data-name="Trazado 691343" d="M1444.453,603.162l17.964,20.946,1.824,11.355A66.34,66.34,0,0,1,1404.3,640.7l-7.461-22.641,1.5-28.756Z" transform="translate(-1396.844 -589.304)" fill="#4567c5" fill-rule="evenodd"/>
          </g>
          <g id="Grupo_979316" data-name="Grupo 979316" transform="translate(83.329 76.064)">
            <path id="Trazado_691344" data-name="Trazado 691344" d="M1433.149,378.038l21.48,1.282s5.7,7.047,5.895,7.088c2.258.442-7.807,89.472-9.832,122.476-2.025,33.044-10.359,23.79-10.359,23.79s-22.943,8.49-43.94,2.2c-21.833-6.53-14.4-34.165-14.4-34.165s13.637-60.515,21.106-79.018C1410.56,403.11,1433.149,378.038,1433.149,378.038Z" transform="translate(-1380.77 -378.038)" fill="#fdfdfd" fill-rule="evenodd"/>
          </g>
          <g id="Grupo_979317" data-name="Grupo 979317" transform="translate(0.005 55.084)">
            <path id="Trazado_691345" data-name="Trazado 691345" d="M1226.213,356.755c.358-1.081,3.974-7.771,3.974-7.771s.185-11.09-.124-11.25c-6.176-2.6-12.38.161-13.227,6.485l0,.2a32.09,32.09,0,0,0,16.172,28.6c2.315,1.281,4.761,2.647,7.273,4.046a48.578,48.578,0,0,1,2.3-13.974C1233.358,359.881,1226.085,357.157,1226.213,356.755Z" transform="translate(-1216.827 -336.759)" fill="#ffb17d" fill-rule="evenodd"/>
          </g>
          <g id="Grupo_979318" data-name="Grupo 979318" transform="translate(22.345 76.085)">
            <path id="Trazado_691346" data-name="Trazado 691346" d="M1358.4,378.095c0-.6-67.442,17.546-67.442,17.546s-9.808-4.118-27.242-10.246a62.412,62.412,0,0,0-2.937,16.663c16.189,9.29,20.789,15.811,25.382,17.012,8.559,2.162,57.337-5.006,57.337-5.006S1358.4,378.537,1358.4,378.095Z" transform="translate(-1260.782 -378.08)" fill="#fb9674" fill-rule="evenodd"/>
          </g>
          <g id="Grupo_979319" data-name="Grupo 979319" transform="translate(75.31 75.666)">
            <path id="Trazado_691347" data-name="Trazado 691347" d="M1365.5,516.51c.185-.964,1.824-46.344,12.565-83.791,8.325-29.034,25.281-51.824,31.228-54.986,2.2-1.2,18.639.237,18.639.237l-8.6,7.569c-30.9,30.376-32.706,117.249-32.8,149.991a66.468,66.468,0,0,1-21.54-15.4C1365.125,518.969,1365.289,517.767,1365.5,516.51Z" transform="translate(-1364.992 -377.255)" fill="#fb9674" fill-rule="evenodd"/>
          </g>
          <g id="Grupo_979320" data-name="Grupo 979320" transform="translate(10.38 39.713)">
            <path id="Trazado_691348" data-name="Trazado 691348" d="M1318.753,312.548,1315.976,420.5l-78.736-8.542,1.848-34.94-.643-70.5Z" transform="translate(-1237.24 -306.517)" fill="#fff" fill-rule="evenodd"/>
          </g>
          <g id="Grupo_979321" data-name="Grupo 979321" transform="translate(10.38 40.673)">
            <path id="Trazado_691349" data-name="Trazado 691349" d="M1314.329,421.248l-77.089-8.361,1.848-34.94-.635-69.539,78.628,5.906Z" transform="translate(-1237.24 -308.407)" fill="#f47a44" fill-rule="evenodd"/>
          </g>
          <g id="Grupo_979322" data-name="Grupo 979322" transform="translate(110.676 77.346)">
            <path id="Trazado_691350" data-name="Trazado 691350" d="M1481.088,380.56s20.841,3.443,26.551,8.65c3.624,3.283-2.913,42.012-2.913,42.012s-11.833,37.407-12.765,48.742c-1.43,17.583-1.876,34.47-2.118,47.77a66.324,66.324,0,0,1-54.077,14.059C1425.856,489.31,1481.088,380.56,1481.088,380.56Z" transform="translate(-1434.575 -380.56)" fill="#fb9674" fill-rule="evenodd"/>
          </g>
          <g id="Grupo_979323" data-name="Grupo 979323" transform="translate(81.871 82.864)">
            <path id="Trazado_691351" data-name="Trazado 691351" d="M1474.007,435s-40.147,56.236-50.939,59.88c-10.8,3.6-29.6-71.652-29.6-71.652s-14.188-15.823-15.381-16.341c-2.146,6.513,15.493,8.345,11.173.482l4.328-9.487c-5.332-7.9,1.7-9.731,6.248,1.193,3.813,9.133,5.565,21.87,7.458,24.55l19.515,29.319,27.383-39.091Z" transform="translate(-1377.9 -391.418)" fill="#ffb17d" fill-rule="evenodd"/>
          </g>
          <g id="Grupo_979324" data-name="Grupo 979324" transform="translate(2.252 55.872)">
            <path id="Trazado_691352" data-name="Trazado 691352" d="M1221.718,344.464a26.18,26.18,0,0,1-.466-4.167c.04-1.519,9.76-3.484,12.291-.2C1236.074,343.342,1226.363,343.7,1221.718,344.464Z" transform="translate(-1221.25 -338.311)" fill="#ffb17d" fill-rule="evenodd"/>
          </g>
          <g id="Grupo_979325" data-name="Grupo 979325" transform="translate(0 61.264)">
            <path id="Trazado_691353" data-name="Trazado 691353" d="M1218.109,355.285a14.217,14.217,0,0,1-1.29-4.4c.044-1.523,12.741-3.447,15.272-.161S1222.749,354.565,1218.109,355.285Z" transform="translate(-1216.818 -348.919)" fill="#ffb17d" fill-rule="evenodd"/>
          </g>
          <g id="Grupo_979326" data-name="Grupo 979326" transform="translate(2.487 66.355)">
            <path id="Trazado_691354" data-name="Trazado 691354" d="M1223.006,365.338s-1.338-2.921-1.293-4.444c.044-1.483,9.763-3.443,12.295-.2C1236.539,363.976,1227.643,364.579,1223.006,365.338Z" transform="translate(-1221.712 -358.936)" fill="#ffb17d" fill-rule="evenodd"/>
          </g>
          <g id="Grupo_979327" data-name="Grupo 979327" transform="translate(80.021 83.293)">
            <path id="Trazado_691355" data-name="Trazado 691355" d="M1395.374,399.69l-2.817-1.121a8.793,8.793,0,0,1-2.306-1.081c-2.913-1.764-10.924-6.449-12.158-4.927-1.51,1.881,10.844,8.933,10.844,8.933s-13.829-6.891-14.642-4.368,13.44,8.852,13.44,8.852-12.665-4.846-13.36-3.484,13.947,10.893,13.947,10.893-12-7.329-13.83-6.047c-1.82,1.242,18.6,21.468,18.6,21.468Z" transform="translate(-1374.262 -392.262)" fill="#ffb17d" fill-rule="evenodd"/>
          </g>
          <g id="Grupo_979328" data-name="Grupo 979328" transform="translate(3.115 72.077)">
            <path id="Trazado_691356" data-name="Trazado 691356" d="M1223.613,370.874s8.393-1.68,9.844.241-8.462,5.368-8.462,5.368l.225,2.563S1221.456,373.277,1223.613,370.874Z" transform="translate(-1222.946 -370.194)" fill="#ffb17d" fill-rule="evenodd"/>
          </g>
          <g id="Grupo_979329" data-name="Grupo 979329" transform="translate(121.228 126.06)">
            <path id="Trazado_691357" data-name="Trazado 691357" d="M1508.361,500.373l-32.071,31.035c-5.268,4.5-6.866,6.787-13.428,9.093l-7.526-2.9c19.893-24.1,36.258-22.175,59.917-61.2-.2,1.237-.318,1.949-.318,1.949S1511.62,488.829,1508.361,500.373Z" transform="translate(-1455.336 -476.406)" fill="#f47a44" fill-rule="evenodd"/>
          </g>
          <g id="Grupo_979330" data-name="Grupo 979330" transform="translate(98.606 83.709)">
            <path id="Trazado_691358" data-name="Trazado 691358" d="M1422.5,419.877l-11.673,12.9s15.043,67.606,26.3,68c11.266.361,50.289-53.905,58.739-69.688,8.45-15.739,6.649-31.8-1.04-36.845-7.69-5.006-18.945,7.409-23.525,12.733-4.573,5.368-28.307,46.781-28.307,46.781Z" transform="translate(-1410.828 -393.081)" fill="#fb9674" fill-rule="evenodd"/>
          </g>
          <g id="Grupo_979351" data-name="Grupo 979351" transform="translate(103.761)">
            <g id="Grupo_979331" data-name="Grupo 979331" transform="translate(0 1.859)">
              <path id="Trazado_691359" data-name="Trazado 691359" d="M1464.494,262.029s-2.141,28.909-3.89,40.035c-.88,5.593-1.338,10.145-5.645,13.05,0,0,8.418,2.825,11.893,1.109a8.151,8.151,0,0,1-1.494,1.435s9.555,2.567,14.228.474c6.971-2.7,21.685-84.847-8.835-84.831,0,0-26.205-8.43-30.135,18.282-7.618,31.051-16.309,57.349-19.644,62.29,2.611,2.415,11.178-1.571,12.648-3.849,1.3-2.013,2.327-4.468,2.7-5.067,0,0-2.681,7.309-3.222,7.667,0,0,11.081,1.266,16.51-1.157C1455.015,309.044,1464.566,267.747,1464.494,262.029Z" transform="translate(-1420.971 -232.039)" fill="#284190" fill-rule="evenodd"/>
            </g>
            <g id="Grupo_979332" data-name="Grupo 979332" transform="translate(18.049 0.766)">
              <path id="Trazado_691360" data-name="Trazado 691360" d="M1485.758,273.111s7.755-7.679,10.9-15.064c2.238-5.268,4.13-26.257-17-28.041a28.527,28.527,0,0,0-12.536,1.7c-5.131,1.981-13.031,6.983-9.945,26.39l.478,6.428Z" transform="translate(-1456.483 -229.889)" fill="#284190" fill-rule="evenodd"/>
            </g>
            <g id="Grupo_979333" data-name="Grupo 979333" transform="translate(26.831 37.077)">
              <path id="Trazado_691361" data-name="Trazado 691361" d="M1500.993,301.331l1.64,40.128s-23.722,23.228-27.966,19.7,7.783-21.532,8.4-24.208-.5-32.064-.5-32.064Z" transform="translate(-1473.762 -301.331)" fill="#ffb17d" fill-rule="evenodd"/>
            </g>
            <g id="Grupo_979334" data-name="Grupo 979334" transform="translate(35.33 37.077)">
              <path id="Trazado_691362" data-name="Trazado 691362" d="M1490.483,338.795a10.243,10.243,0,0,0,.8-1.84c.619-2.684-.5-32.064-.5-32.064l18.427-3.56.546,13.28A66.861,66.861,0,0,1,1490.483,338.795Z" transform="translate(-1490.483 -301.331)" fill="#ef8161" fill-rule="evenodd"/>
            </g>
            <g id="Grupo_979335" data-name="Grupo 979335" transform="translate(16.308 13.314)">
              <path id="Trazado_691363" data-name="Trazado 691363" d="M1453.741,272c-1.261,5.834-.972,14.891,2.523,23.65,6.389,16.007,30.521,9.812,33.7-10.178,4.75-12.781.495-26.157-9.51-29.878S1456.052,258.563,1453.741,272Z" transform="translate(-1453.057 -254.576)" fill="#ffb17d" fill-rule="evenodd"/>
            </g>
            <g id="Grupo_979336" data-name="Grupo 979336" transform="translate(25.302 72.556)">
              <path id="Trazado_691364" data-name="Trazado 691364" d="M1478.455,371.378c-5.2,9.691-7.2,15.919-7.638,20.037a5.81,5.81,0,0,0,.832,4.288,3.7,3.7,0,0,0,3.873,1.129c2.375-.442,5.822-2.383,10.286-5.854h0c3.576-2.7,8.727-7.594,14.722-13.291l2.037-1.937-2.089-1.575-1.728,1.639c-5.935,5.646-11.038,10.495-14.5,13.107l-.017.012c-4.138,3.222-7.216,5-9.189,5.368-.7.133-1.169.06-1.382-.2a3.557,3.557,0,0,1-.281-2.4c.361-3.4,2.728-9.434,6.794-17.414a29.228,29.228,0,0,0,1.434-3.146Z" transform="translate(-1470.754 -371.137)" fill="#f47a44" fill-rule="evenodd"/>
            </g>
            <g id="Grupo_979337" data-name="Grupo 979337" transform="translate(16.02 4.165)">
              <path id="Trazado_691365" data-name="Trazado 691365" d="M1468.948,241.96c-14.417,4.528-11.588,10.523-16.434,16.534,0,0-.8-13.971,6.823-19.813C1467.425,232.474,1468.948,241.96,1468.948,241.96Z" transform="translate(-1452.49 -236.575)" fill="#284190" fill-rule="evenodd"/>
            </g>
            <g id="Grupo_979338" data-name="Grupo 979338" transform="translate(30.919 3.921)">
              <path id="Trazado_691366" data-name="Trazado 691366" d="M1481.8,240.7s.49,20.821,12.665,30.251c0,0-10.841-15.22-9.009-28.467S1481.8,240.7,1481.8,240.7Z" transform="translate(-1481.804 -236.095)" fill="#284190" fill-rule="evenodd"/>
            </g>
            <g id="Grupo_979339" data-name="Grupo 979339" transform="translate(25.948 7.56)">
              <path id="Trazado_691367" data-name="Trazado 691367" d="M1473.74,243.4q2.8-.6,3.391,1.3a8.325,8.325,0,0,1-5.107,5.051Q1473.453,248.25,1473.74,243.4Z" transform="translate(-1472.024 -243.256)" fill="#284190" fill-rule="evenodd"/>
            </g>
            <g id="Grupo_979340" data-name="Grupo 979340" transform="translate(45.35 1.625)">
              <path id="Trazado_691368" data-name="Trazado 691368" d="M1512.57,236.888q-3.121-1.7-2.134-3.969a10.333,10.333,0,0,1,8.888-.6Q1516.769,232.568,1512.57,236.888Z" transform="translate(-1510.199 -231.579)" fill="#284190" fill-rule="evenodd"/>
            </g>
            <g id="Grupo_979341" data-name="Grupo 979341" transform="translate(30.183 3.684)">
              <path id="Trazado_691369" data-name="Trazado 691369" d="M1481.281,238.56s2.716,20.4,12.87,25.663,15.518,3.452,15.518,3.452a31.4,31.4,0,0,1-5.842-20.367S1488.642,230.838,1481.281,238.56Z" transform="translate(-1480.811 -236.057)" fill="#284190" fill-rule="evenodd"/>
              <path id="Trazado_691370" data-name="Trazado 691370" d="M1506.574,267.994h0c-2.62,0-7.019-.659-13.083-3.805-10.241-5.3-12.993-25.156-13.106-26l-.028-.213.149-.152a6.928,6.928,0,0,1,5.2-2.2c7.8,0,17.579,10.5,17.988,10.949l.133.141-.016.2a31.177,31.177,0,0,0,5.746,20.054l.4.494-.6.2A9.51,9.51,0,0,1,1506.574,267.994ZM1481.3,238.285c.329,2.177,3.323,20.307,12.6,25.116,5.906,3.062,10.15,3.7,12.673,3.7h0a11.217,11.217,0,0,0,1.884-.144,32.274,32.274,0,0,1-5.545-19.921c-1.193-1.254-10.257-10.523-17.2-10.523A6.074,6.074,0,0,0,1481.3,238.285Z" transform="translate(-1480.356 -235.629)" fill="#284190"/>
            </g>
            <g id="Grupo_979342" data-name="Grupo 979342" transform="translate(41.976 44.044)">
              <path id="Trazado_691371" data-name="Trazado 691371" d="M1511.415,325.542c-.017-.333-.024-.651-.033-.968a23.243,23.243,0,0,0,2.849-9.065c3.137-1.7,8.333,1.563,12.781,4.122-2.346,19.724-6.85,39.2-8.337,40.377-3.1,2.455-8.84.764-8.84.764a10.044,10.044,0,0,0,1.053-1.535c-2.314,1.981-7.328-.056-7.328-.056,2.941-3.223,3.624-7.723,4.657-13.28C1509.1,341.132,1510.318,333.12,1511.415,325.542Z" transform="translate(-1503.56 -315.039)" fill="#284190" fill-rule="evenodd"/>
            </g>
            <g id="Grupo_979343" data-name="Grupo 979343" transform="translate(49.489 37.725)">
              <path id="Trazado_691372" data-name="Trazado 691372" d="M1518.467,307.957c-.587,3.359.944,6.437,3.423,6.871s4.966-1.94,5.553-5.3-.944-6.437-3.423-6.871S1519.057,304.594,1518.467,307.957Z" transform="translate(-1518.342 -302.606)" fill="#ffb17d" fill-rule="evenodd"/>
            </g>
            <g id="Grupo_979344" data-name="Grupo 979344" transform="translate(49.308 31.531)">
              <path id="Trazado_691373" data-name="Trazado 691373" d="M1525.488,293.16q-3.676-4.23-6.83-1.936-2.031,7.853,2.081,13.878Q1520.262,301.087,1525.488,293.16Z" transform="translate(-1517.987 -290.418)" fill="#284190" fill-rule="evenodd"/>
            </g>
            <g id="Grupo_979345" data-name="Grupo 979345" transform="translate(16.365 10.618)">
              <path id="Trazado_691374" data-name="Trazado 691374" d="M1461.5,255.445q-.289-8.179-3.246-5.521a67.676,67.676,0,0,0-5.087,23.409Q1454.719,266.6,1461.5,255.445Z" transform="translate(-1453.17 -249.272)" fill="#284190" fill-rule="evenodd"/>
            </g>
            <g id="Grupo_979346" data-name="Grupo 979346" transform="translate(22.26 5.393)">
              <path id="Trazado_691375" data-name="Trazado 691375" d="M1481.486,245.443q4.207-7.022.281-6.4a67.678,67.678,0,0,0-17,16.884C1470.031,252.917,1481.093,249.992,1481.486,245.443Z" transform="translate(-1464.768 -238.992)" fill="#284190" fill-rule="evenodd"/>
            </g>
            <g id="Grupo_979347" data-name="Grupo 979347" transform="translate(46.64)">
              <path id="Trazado_691376" data-name="Trazado 691376" d="M1513.5,234.709c1.008-.422,1.64-1.438,1.885-3.042q-.753-3.568-2.652-3.262Q1513.473,229.417,1513.5,234.709Z" transform="translate(-1512.737 -228.381)" fill="#284190" fill-rule="evenodd"/>
            </g>
            <g id="Grupo_979348" data-name="Grupo 979348" transform="translate(24.18 94.697)">
              <path id="Trazado_691377" data-name="Trazado 691377" d="M1472.8,414.842c-1.327-.555-3.045.551-3.849,2.471s-.386,3.925.936,4.48,3.046-.555,3.853-2.475S1474.126,415.392,1472.8,414.842Z" transform="translate(-1468.546 -414.698)" fill="#f47a44" fill-rule="evenodd"/>
            </g>
            <g id="Grupo_979349" data-name="Grupo 979349" transform="translate(22.847 100.518)">
              <path id="Trazado_691378" data-name="Trazado 691378" d="M1468.55,426.24c-.816-.342-1.88.342-2.375,1.527s-.237,2.419.578,2.76,1.876-.342,2.374-1.527S1469.365,426.581,1468.55,426.24Z" transform="translate(-1465.922 -426.152)" fill="#f47a44" fill-rule="evenodd"/>
            </g>
            <g id="Grupo_979350" data-name="Grupo 979350" transform="translate(21.461 104.172)">
              <path id="Trazado_691379" data-name="Trazado 691379" d="M1465.5,433.42c-.715-.3-1.647.3-2.085,1.338s-.2,2.125.51,2.423,1.647-.3,2.081-1.338S1466.217,433.717,1465.5,433.42Z" transform="translate(-1463.197 -433.342)" fill="#f47a44" fill-rule="evenodd"/>
            </g>
          </g>
          <g id="Grupo_979352" data-name="Grupo 979352" transform="translate(97.059 82.38)">
            <path id="Trazado_691380" data-name="Trazado 691380" d="M1409.717,428.761l-1.933,2.451s11.737,48.718,21.995,63.106c-10-15.879-20.447-62.829-20.447-62.829l.86-.952c-.293-1.11-.129-.583-.474-1.776Zm86.688-32.719a12.366,12.366,0,0,0-3.958-4.412c-7.69-5.006-18.949,7.413-23.525,12.737-4.472,5.244-27.246,44.929-28.266,46.709l.844,1.4s23.734-41.413,28.307-46.781c4.576-5.324,15.835-17.74,23.525-12.733a11.4,11.4,0,0,1,2.877,2.745Z" transform="translate(-1407.784 -390.465)" fill="#f47a44" fill-rule="evenodd"/>
          </g>
        </g>
        <g id="Grupo_979363" data-name="Grupo 979363" transform="translate(122.979 29.534)">
          <g id="Grupo_979354" data-name="Grupo 979354" transform="translate(4.549 2.686)">
            <path id="Trazado_691381" data-name="Trazado 691381" d="M1468.85,295.086a1.5,1.5,0,0,1-1.109-1.752c.073-.912.684-1.607,1.37-1.555a1.5,1.5,0,0,1,1.109,1.752C1470.147,294.447,1469.532,295.141,1468.85,295.086Z" transform="translate(-1467.733 -291.776)" fill="#125aa2" fill-rule="evenodd"/>
          </g>
          <g id="Grupo_979361" data-name="Grupo 979361">
            <g id="Grupo_979355" data-name="Grupo 979355" transform="translate(16.056 2.943)">
              <path id="Trazado_691382" data-name="Trazado 691382" d="M1490.373,294.012c6.553-.763,5.693-.663,10.234,2.945-1.266-3.391-4.11-4.866-7.53-4.657C1491.478,292.4,1491.217,292.3,1490.373,294.012Z" transform="translate(-1490.373 -292.281)" fill="#125aa2" fill-rule="evenodd"/>
            </g>
            <g id="Grupo_979356" data-name="Grupo 979356" transform="translate(18.408 5.123)">
              <path id="Trazado_691383" data-name="Trazado 691383" d="M1495.9,299.834c.659.141,1.35-.466,1.543-1.362a1.487,1.487,0,0,0-.839-1.88c-.659-.145-1.35.466-1.547,1.362A1.5,1.5,0,0,0,1495.9,299.834Z" transform="translate(-1495.002 -296.57)" fill="#125aa2" fill-rule="evenodd"/>
            </g>
            <g id="Grupo_979357" data-name="Grupo 979357">
              <path id="Trazado_691384" data-name="Trazado 691384" d="M1468.836,290.156c-5.36-3.355-4.658-2.913-10.053-1.467a6.538,6.538,0,0,1,8.41-1.189C1468.539,288.236,1468.8,288.251,1468.836,290.156Z" transform="translate(-1458.783 -286.49)" fill="#125aa2" fill-rule="evenodd"/>
            </g>
            <g id="Grupo_979358" data-name="Grupo 979358" transform="translate(7.975 7.706)">
              <path id="Trazado_691385" data-name="Trazado 691385" d="M1478.131,311.771a.431.431,0,0,1-.1-.008l-1.438-.31a2.8,2.8,0,0,1-1.9-.94,2.481,2.481,0,0,1-.041-1.941,11.776,11.776,0,0,1,.751-1.908,25.365,25.365,0,0,0,1.687-4.649.515.515,0,0,1,.587-.354.485.485,0,0,1,.354.587,26.635,26.635,0,0,1-1.748,4.814,11.25,11.25,0,0,0-.691,1.744c-.161.643-.185,1.025-.076,1.2.129.213.611.353,1.29.5l1.43.31a.483.483,0,0,1-.1.956Z" transform="translate(-1474.475 -301.652)" fill="#fb9674"/>
            </g>
            <g id="Grupo_979359" data-name="Grupo 979359" transform="translate(5.8 22.457)">
              <path id="Trazado_691386" data-name="Trazado 691386" d="M1480.165,331.579c-6.473.3-11.2-1.434-9.687-.739C1471.948,332.628,1476.312,333.078,1480.165,331.579Z" transform="translate(-1470.195 -330.674)" fill="#fff" fill-rule="evenodd"/>
            </g>
            <g id="Grupo_979360" data-name="Grupo 979360" transform="translate(5.754 2.736)">
              <path id="Trazado_691387" data-name="Trazado 691387" d="M1470.5,291.875c.12.028.161.321.089.659s-.233.587-.357.562-.161-.321-.089-.659S1470.373,291.851,1470.5,291.875Z" transform="translate(-1470.104 -291.874)" fill="#a3cffb" fill-rule="evenodd"/>
            </g>
          </g>
          <g id="Grupo_979362" data-name="Grupo 979362" transform="translate(19.142 5.275)">
            <path id="Trazado_691388" data-name="Trazado 691388" d="M1496.834,296.871c.12.028.161.321.088.659s-.233.587-.353.563-.161-.321-.089-.659S1496.714,296.847,1496.834,296.871Z" transform="translate(-1496.445 -296.87)" fill="#a3cffb" fill-rule="evenodd"/>
          </g>
        </g>
      </g>
    </g>
    <g id="Grupo_979448" data-name="Grupo 979448" transform="translate(-497.534 13063.623)">
      <path id="Trazado_691452" data-name="Trazado 691452" d="M738.048,317.232l-5.4,3.142a3.841,3.841,0,0,0-1.387,5.236l1.192,2.05c1.409,2.418.8,3.513.358,3.9-1.2,1.075-2.316,2.242-3.434,3.407-.329.344-1.372,1.51-4.118-.087l-1.884-1.093a3.84,3.84,0,0,0-5.236,1.384l-3.142,5.4a3.842,3.842,0,0,0,1.387,5.238l1.864,1.08c2.576,1.5,2.509,2.267,2.183,3.36-.447,1.5-.929,3-1.256,4.549-.292,1.382-.161,2.368-3.664,2.368h-2.146a3.838,3.838,0,0,0-3.83,3.832v6.247a3.836,3.836,0,0,0,3.83,3.829h2.146c3.5,0,3.372.989,3.664,2.371.326,1.55.808,3.051,1.256,4.549.326,1.093.393,1.861-2.183,3.359l-1.864,1.083A3.838,3.838,0,0,0,715,387.678l3.142,5.4a3.84,3.84,0,0,0,5.236,1.384l1.884-1.093c2.747-1.6,3.79-.43,4.118-.087,1.118,1.162,2.233,2.331,3.434,3.407.438.391,1.051,1.483-.358,3.9l-1.192,2.049a3.841,3.841,0,0,0,1.387,5.236l5.4,3.142a3.842,3.842,0,0,0,5.236-1.387l1.189-2.042c1.427-2.457,2.833-2.361,3.426-2.171,1.723.549,3.315.9,5.09,1.365.65.17,1.762.643,1.762,3.567v2.193a3.837,3.837,0,0,0,3.829,3.829h6.25a3.837,3.837,0,0,0,3.829-3.829v-2.193c0-2.925,1.113-3.4,1.763-3.567,1.777-.46,3.367-.816,5.09-1.365.593-.19,2-.287,3.426,2.171l1.189,2.042a3.842,3.842,0,0,0,5.236,1.387l5.4-3.142a3.841,3.841,0,0,0,1.387-5.236l-1.194-2.049c-1.406-2.42-.793-3.513-.356-3.9,1.2-1.075,2.316-2.245,3.434-3.407.329-.344,1.374-1.51,4.119.087l1.883,1.093a3.84,3.84,0,0,0,5.236-1.384l3.142-5.4a3.841,3.841,0,0,0-1.387-5.236l-1.864-1.083c-2.576-1.5-2.509-2.267-2.183-3.359.448-1.5.929-3,1.256-4.549.292-1.382.161-2.371,3.664-2.371h2.146a3.834,3.834,0,0,0,3.829-3.829V361a3.836,3.836,0,0,0-3.829-3.832H807.9c-3.5,0-3.372-.986-3.664-2.368-.326-1.553-.808-3.051-1.256-4.549-.326-1.093-.393-1.862,2.183-3.36l1.864-1.08a3.844,3.844,0,0,0,1.387-5.238l-3.142-5.4a3.84,3.84,0,0,0-5.236-1.384l-1.883,1.093c-2.745,1.6-3.79.43-4.119.087-1.118-1.165-2.23-2.331-3.434-3.407-.437-.391-1.051-1.486.356-3.9l1.194-2.05a3.841,3.841,0,0,0-1.387-5.236l-5.4-3.142a3.843,3.843,0,0,0-5.236,1.384l-1.189,2.047c-1.426,2.452-2.833,2.356-3.426,2.168-1.723-.549-3.313-.9-5.09-1.367-.65-.168-1.763-.64-1.763-3.565v-2.193a3.837,3.837,0,0,0-3.829-3.829h-6.25a3.837,3.837,0,0,0-3.829,3.829V317.9c0,2.925-1.112,3.4-1.762,3.565-1.775.464-3.367.818-5.09,1.367-.593.188-2,.284-3.426-2.168l-1.189-2.047a3.844,3.844,0,0,0-5.236-1.384Zm23.658,38.645a8.251,8.251,0,1,1-8.252,8.249,8.249,8.249,0,0,1,8.252-8.249Zm-25.864,8.252a1.765,1.765,0,1,1,3.53,0,22.329,22.329,0,0,0,22.333,22.331,1.766,1.766,0,0,1,0,3.533,25.866,25.866,0,0,1-25.864-25.864Zm51.386-4.168a1.759,1.759,0,1,1-3.473.554,22.356,22.356,0,0,0-18.218-18.4,1.763,1.763,0,0,1,.594-3.475,25.889,25.889,0,0,1,21.1,21.317Zm-25.522-26.479a30.646,30.646,0,1,1-30.645,30.647A30.648,30.648,0,0,1,761.706,333.481Z" fill="#619fdf" fill-rule="evenodd"/>
    </g>
  </g>
</svg>
