<svg xmlns="http://www.w3.org/2000/svg" width="124" height="124" viewBox="0 0 124 124">
  <g id="Grupo_978929" data-name="Grupo 978929" transform="translate(-1063 -16281.055)">
    <circle id="Elipse_7767" data-name="Elipse 7767" cx="50.5" cy="50.5" r="50.5" transform="translate(1075 16293)" fill="#449c6e"/>
    <rect id="Rectángulo_341429" data-name="Rectángulo 341429" width="124" height="124" transform="translate(1063 16281.055)" fill="none"/>
    <g id="infraestructura" transform="translate(1074.853 16298.852)">
      <g id="Grupo_978901" data-name="Grupo 978901" transform="translate(16 16)">
        <g id="Grupo_978882" data-name="Grupo 978882" transform="translate(0 0)">
          <path id="Trazado_690670" data-name="Trazado 690670" d="M60.885,20.6H17.151A1.151,1.151,0,0,1,16,19.453v-2.3A1.151,1.151,0,0,1,17.151,16H60.885a1.151,1.151,0,0,1,1.151,1.151v2.3A1.151,1.151,0,0,1,60.885,20.6Z" transform="translate(-16 -16)" fill="#faa019"/>
        </g>
        <g id="Grupo_978883" data-name="Grupo 978883" transform="translate(32.225 0)">
          <path id="Trazado_690671" data-name="Trazado 690671" d="M241.151,20.6H252.66a1.151,1.151,0,0,0,1.151-1.151v-2.3A1.151,1.151,0,0,0,252.66,16H241.151A1.151,1.151,0,0,0,240,17.151v2.3A1.151,1.151,0,0,0,241.151,20.6Z" transform="translate(-240 -16)" fill="#f06423"/>
        </g>
        <g id="Grupo_978884" data-name="Grupo 978884" transform="translate(2.302 4.604)">
          <path id="Trazado_690672" data-name="Trazado 690672" d="M32,48H73.432V96.337H32Z" transform="translate(-32 -48)" fill="#a5c3dc"/>
        </g>
        <g id="Grupo_978885" data-name="Grupo 978885" transform="translate(2.302 6.905)">
          <path id="Trazado_690673" data-name="Trazado 690673" d="M32,64H61.923v46.035H32Z" transform="translate(-32 -64)" fill="#d7e6f0"/>
        </g>
        <g id="Grupo_978888" data-name="Grupo 978888" transform="translate(6.905 20.716)">
          <g id="Grupo_978886" data-name="Grupo 978886">
            <path id="Trazado_690674" data-name="Trazado 690674" d="M72.056,169.207H65.151A1.151,1.151,0,0,1,64,168.056v-6.905A1.151,1.151,0,0,1,65.151,160h6.905a1.151,1.151,0,0,1,1.151,1.151v6.905A1.151,1.151,0,0,1,72.056,169.207Z" transform="translate(-64 -160)" fill="#5ad7ff"/>
          </g>
          <g id="Grupo_978887" data-name="Grupo 978887">
            <path id="Trazado_690675" data-name="Trazado 690675" d="M66.3,168.056v-6.905A1.151,1.151,0,0,1,67.453,160h-2.3A1.151,1.151,0,0,0,64,161.151v6.905a1.151,1.151,0,0,0,1.151,1.151h2.3A1.151,1.151,0,0,1,66.3,168.056Z" transform="translate(-64 -160)" fill="#23aae6"/>
          </g>
        </g>
        <g id="Grupo_978891" data-name="Grupo 978891" transform="translate(18.414 20.716)">
          <g id="Grupo_978889" data-name="Grupo 978889">
            <path id="Trazado_690676" data-name="Trazado 690676" d="M152.056,169.207h-6.905A1.151,1.151,0,0,1,144,168.056v-6.905A1.151,1.151,0,0,1,145.151,160h6.905a1.151,1.151,0,0,1,1.151,1.151v6.905A1.151,1.151,0,0,1,152.056,169.207Z" transform="translate(-144 -160)" fill="#5ad7ff"/>
          </g>
          <g id="Grupo_978890" data-name="Grupo 978890">
            <path id="Trazado_690677" data-name="Trazado 690677" d="M146.3,168.056v-6.905A1.151,1.151,0,0,1,147.453,160h-2.3A1.151,1.151,0,0,0,144,161.151v6.905a1.151,1.151,0,0,0,1.151,1.151h2.3A1.151,1.151,0,0,1,146.3,168.056Z" transform="translate(-144 -160)" fill="#23aae6"/>
          </g>
        </g>
        <g id="Grupo_978894" data-name="Grupo 978894" transform="translate(6.905 9.207)">
          <g id="Grupo_978892" data-name="Grupo 978892">
            <path id="Trazado_690678" data-name="Trazado 690678" d="M72.056,89.207H65.151A1.151,1.151,0,0,1,64,88.056V81.151A1.151,1.151,0,0,1,65.151,80h6.905a1.151,1.151,0,0,1,1.151,1.151v6.905A1.151,1.151,0,0,1,72.056,89.207Z" transform="translate(-64 -80)" fill="#5ad7ff"/>
          </g>
          <g id="Grupo_978893" data-name="Grupo 978893">
            <path id="Trazado_690679" data-name="Trazado 690679" d="M66.3,88.056V81.151A1.151,1.151,0,0,1,67.453,80h-2.3A1.151,1.151,0,0,0,64,81.151v6.905a1.151,1.151,0,0,0,1.151,1.151h2.3A1.151,1.151,0,0,1,66.3,88.056Z" transform="translate(-64 -80)" fill="#23aae6"/>
          </g>
        </g>
        <g id="Grupo_978897" data-name="Grupo 978897" transform="translate(18.414 9.207)">
          <g id="Grupo_978895" data-name="Grupo 978895">
            <path id="Trazado_690680" data-name="Trazado 690680" d="M152.056,89.207h-6.905A1.151,1.151,0,0,1,144,88.056V81.151A1.151,1.151,0,0,1,145.151,80h6.905a1.151,1.151,0,0,1,1.151,1.151v6.905A1.151,1.151,0,0,1,152.056,89.207Z" transform="translate(-144 -80)" fill="#5ad7ff"/>
          </g>
          <g id="Grupo_978896" data-name="Grupo 978896">
            <path id="Trazado_690681" data-name="Trazado 690681" d="M146.3,88.056V81.151A1.151,1.151,0,0,1,147.453,80h-2.3A1.151,1.151,0,0,0,144,81.151v6.905a1.151,1.151,0,0,0,1.151,1.151h2.3A1.151,1.151,0,0,1,146.3,88.056Z" transform="translate(-144 -80)" fill="#23aae6"/>
          </g>
        </g>
        <g id="Grupo_978898" data-name="Grupo 978898" transform="translate(0 48.337)">
          <path id="Trazado_690682" data-name="Trazado 690682" d="M16,352H85.053v4.6H16Z" transform="translate(-16 -352)" fill="#555a6e"/>
        </g>
        <g id="Grupo_978899" data-name="Grupo 978899" transform="translate(6.905 32.225)">
          <path id="Trazado_690683" data-name="Trazado 690683" d="M82.414,240H66.3a2.3,2.3,0,0,0-2.3,2.3v13.427H84.716V242.3A2.3,2.3,0,0,0,82.414,240Z" transform="translate(-64 -240)" fill="#5ad7ff"/>
        </g>
        <g id="Grupo_978900" data-name="Grupo 978900" transform="translate(6.905 32.225)">
          <path id="Trazado_690684" data-name="Trazado 690684" d="M68.6,240H66.3a2.3,2.3,0,0,0-2.3,2.3v13.427h2.3V242.3A2.3,2.3,0,0,1,68.6,240Z" transform="translate(-64 -240)" fill="#23aae6"/>
        </g>
      </g>
      <g id="Grupo_978902" data-name="Grupo 978902" transform="translate(52.828 29.811)">
        <path id="Trazado_690685" data-name="Trazado 690685" d="M301.923,146.527H272V114.3a2.3,2.3,0,0,1,2.3-2.3h25.32a2.3,2.3,0,0,1,2.3,2.3Z" transform="translate(-272 -112)" fill="#a5c3dc"/>
      </g>
      <g id="Grupo_978903" data-name="Grupo 978903" transform="translate(52.828 29.811)">
        <path id="Trazado_690686" data-name="Trazado 690686" d="M292.716,146.527H272V114.3a2.3,2.3,0,0,1,2.3-2.3h16.112a2.3,2.3,0,0,1,2.3,2.3Z" transform="translate(-272 -112)" fill="#d7e6f0"/>
      </g>
      <g id="Grupo_978912" data-name="Grupo 978912" transform="translate(55.13 34.414)">
        <g id="Grupo_978904" data-name="Grupo 978904">
          <path id="Trazado_690687" data-name="Trazado 690687" d="M293.754,150.905h-4.6A1.151,1.151,0,0,1,288,149.754v-4.6A1.151,1.151,0,0,1,289.151,144h4.6a1.151,1.151,0,0,1,1.151,1.151v4.6A1.151,1.151,0,0,1,293.754,150.905Z" transform="translate(-288 -144)" fill="#5ad7ff"/>
        </g>
        <g id="Grupo_978905" data-name="Grupo 978905">
          <path id="Trazado_690688" data-name="Trazado 690688" d="M290.3,149.754v-4.6A1.151,1.151,0,0,1,291.453,144h-2.3A1.151,1.151,0,0,0,288,145.151v4.6a1.151,1.151,0,0,0,1.151,1.151h2.3A1.151,1.151,0,0,1,290.3,149.754Z" transform="translate(-288 -144)" fill="#23aae6"/>
        </g>
        <g id="Grupo_978906" data-name="Grupo 978906" transform="translate(9.207)">
          <path id="Trazado_690689" data-name="Trazado 690689" d="M357.754,150.905h-4.6A1.151,1.151,0,0,1,352,149.754v-4.6A1.151,1.151,0,0,1,353.151,144h4.6a1.151,1.151,0,0,1,1.151,1.151v4.6A1.151,1.151,0,0,1,357.754,150.905Z" transform="translate(-352 -144)" fill="#5ad7ff"/>
        </g>
        <g id="Grupo_978907" data-name="Grupo 978907" transform="translate(9.207)">
          <path id="Trazado_690690" data-name="Trazado 690690" d="M354.3,149.754v-4.6A1.151,1.151,0,0,1,355.453,144h-2.3A1.151,1.151,0,0,0,352,145.151v4.6a1.151,1.151,0,0,0,1.151,1.151h2.3A1.151,1.151,0,0,1,354.3,149.754Z" transform="translate(-352 -144)" fill="#23aae6"/>
        </g>
        <g id="Grupo_978908" data-name="Grupo 978908" transform="translate(0 9.207)">
          <path id="Trazado_690691" data-name="Trazado 690691" d="M293.754,214.905h-4.6A1.151,1.151,0,0,1,288,213.754v-4.6A1.151,1.151,0,0,1,289.151,208h4.6a1.151,1.151,0,0,1,1.151,1.151v4.6A1.151,1.151,0,0,1,293.754,214.905Z" transform="translate(-288 -208)" fill="#5ad7ff"/>
        </g>
        <g id="Grupo_978909" data-name="Grupo 978909" transform="translate(0 9.207)">
          <path id="Trazado_690692" data-name="Trazado 690692" d="M290.3,213.754v-4.6A1.151,1.151,0,0,1,291.453,208h-2.3A1.151,1.151,0,0,0,288,209.151v4.6a1.151,1.151,0,0,0,1.151,1.151h2.3A1.151,1.151,0,0,1,290.3,213.754Z" transform="translate(-288 -208)" fill="#23aae6"/>
        </g>
        <g id="Grupo_978910" data-name="Grupo 978910" transform="translate(9.207 9.207)">
          <path id="Trazado_690693" data-name="Trazado 690693" d="M357.754,214.905h-4.6A1.151,1.151,0,0,1,352,213.754v-4.6A1.151,1.151,0,0,1,353.151,208h4.6a1.151,1.151,0,0,1,1.151,1.151v4.6A1.151,1.151,0,0,1,357.754,214.905Z" transform="translate(-352 -208)" fill="#5ad7ff"/>
        </g>
        <g id="Grupo_978911" data-name="Grupo 978911" transform="translate(9.207 9.207)">
          <path id="Trazado_690694" data-name="Trazado 690694" d="M354.3,213.754v-4.6A1.151,1.151,0,0,1,355.453,208h-2.3A1.151,1.151,0,0,0,352,209.151v4.6a1.151,1.151,0,0,0,1.151,1.151h2.3A1.151,1.151,0,0,1,354.3,213.754Z" transform="translate(-352 -208)" fill="#23aae6"/>
        </g>
      </g>
      <g id="Grupo_978918" data-name="Grupo 978918" transform="translate(26.358 41.319)">
        <g id="Grupo_978913" data-name="Grupo 978913" transform="translate(0)">
          <path id="Trazado_690695" data-name="Trazado 690695" d="M133.5,209.492a2.848,2.848,0,0,1-2.66-1.836q-.184-.484-.4-.954a2.851,2.851,0,0,1,.578-3.191h0a2.849,2.849,0,0,0,0-4.029l-2.156-2.156a2.84,2.84,0,0,0-2.014-.834h-4.613a2.839,2.839,0,0,0-2.014.834h0q-.08.08-.164.152a2.846,2.846,0,0,1-1.767-2.631A2.849,2.849,0,0,0,115.441,192h-7.1a2.849,2.849,0,0,0-2.849,2.849,2.846,2.846,0,0,1-1.767,2.631q-.085-.072-.164-.152h0a2.84,2.84,0,0,0-2.014-.834H97.5a2.839,2.839,0,0,0-2.014.834l-2.156,2.156a2.849,2.849,0,0,0,0,4.029h0a2.851,2.851,0,0,1,.578,3.191q-.212.47-.4.954a2.848,2.848,0,0,1-2.66,1.836A2.849,2.849,0,0,0,88,212.34v3.05a2.849,2.849,0,0,0,2.849,2.849,2.848,2.848,0,0,1,2.66,1.836q.184.484.4.954a2.851,2.851,0,0,1-.578,3.191h0a2.849,2.849,0,0,0,0,4.029l2.156,2.156a2.84,2.84,0,0,0,2.014.834h4.049a2.84,2.84,0,0,0,2.014-.834h0q.08-.08.164-.152a2.846,2.846,0,0,1,1.767,2.631,2.849,2.849,0,0,0,2.849,2.849H115.2a3.066,3.066,0,0,0,3.092-2.849,2.846,2.846,0,0,1,1.767-2.631q.085.072.164.152h0a2.84,2.84,0,0,0,2.014.834h4.613a2.839,2.839,0,0,0,2.014-.834l2.156-2.156a2.849,2.849,0,0,0,0-4.029h0a2.851,2.851,0,0,1-.578-3.191q.212-.47.4-.954a2.848,2.848,0,0,1,2.66-1.836,2.849,2.849,0,0,0,2.849-2.849v-3.05a2.849,2.849,0,0,0-2.849-2.849Z" transform="translate(-88 -191.998)" fill="#f06423"/>
        </g>
        <g id="Grupo_978915" data-name="Grupo 978915" transform="translate(0)">
          <g id="Grupo_978914" data-name="Grupo 978914">
            <path id="Trazado_690696" data-name="Trazado 690696" d="M131.734,215.39v-3.05a2.849,2.849,0,0,0-2.849-2.849,2.848,2.848,0,0,1-2.66-1.836q-.184-.484-.4-.954a2.851,2.851,0,0,1,.578-3.191h0a2.849,2.849,0,0,0,0-4.029l-2.156-2.156a2.849,2.849,0,0,0-4.029,0h0a2.851,2.851,0,0,1-3.191.578q-.47-.212-.954-.4a2.848,2.848,0,0,1-1.836-2.66A2.849,2.849,0,0,0,111.392,192h-3.05a2.849,2.849,0,0,0-2.849,2.849,2.848,2.848,0,0,1-1.836,2.66q-.484.184-.954.4a2.851,2.851,0,0,1-3.191-.578h0a2.849,2.849,0,0,0-4.029,0l-2.156,2.156a2.849,2.849,0,0,0,0,4.029h0a2.851,2.851,0,0,1,.578,3.191q-.212.47-.4.954a2.848,2.848,0,0,1-2.66,1.836A2.849,2.849,0,0,0,88,212.34v3.05a2.849,2.849,0,0,0,2.849,2.849,2.848,2.848,0,0,1,2.66,1.836q.184.484.4.954a2.851,2.851,0,0,1-.578,3.191h0a2.849,2.849,0,0,0,0,4.029l2.156,2.156a2.849,2.849,0,0,0,4.029,0h0a2.851,2.851,0,0,1,3.191-.578q.47.212.954.4a2.848,2.848,0,0,1,1.836,2.66,2.849,2.849,0,0,0,2.849,2.849h3.05a2.849,2.849,0,0,0,2.849-2.849,2.848,2.848,0,0,1,1.836-2.66q.484-.184.954-.4a2.851,2.851,0,0,1,3.191.578h0a2.849,2.849,0,0,0,4.029,0l2.156-2.156a2.848,2.848,0,0,0,0-4.029h0a2.851,2.851,0,0,1-.578-3.191q.212-.47.4-.954a2.848,2.848,0,0,1,2.66-1.836,2.849,2.849,0,0,0,2.849-2.849Z" transform="translate(-88 -191.998)" fill="#faa019"/>
          </g>
        </g>
        <g id="Grupo_978916" data-name="Grupo 978916" transform="translate(10.313 10.313)">
          <circle id="Elipse_7777" data-name="Elipse 7777" cx="11.554" cy="11.554" r="11.554" fill="#d7e6f0"/>
        </g>
        <g id="Grupo_978917" data-name="Grupo 978917" transform="translate(12.66 14.962)">
          <path id="Trazado_690697" data-name="Trazado 690697" d="M181.755,309.811a2.294,2.294,0,0,1-1.627-.674l-3.453-3.453a2.3,2.3,0,1,1,3.255-3.255l1.825,1.825,7.58-7.579a2.3,2.3,0,0,1,3.255,3.255l-9.207,9.207a2.3,2.3,0,0,1-1.628.674Z" transform="translate(-176 -296)" fill="#91c83c"/>
        </g>
      </g>
    </g>
  </g>
</svg>
