<svg xmlns="http://www.w3.org/2000/svg" width="124" height="124" viewBox="0 0 124 124">
  <g id="Grupo_978932" data-name="Grupo 978932" transform="translate(6585.01 -4588.151)">
    <circle id="Elipse_7771" data-name="Elipse 7771" cx="50.5" cy="50.5" r="50.5" transform="translate(-6573 4600)" fill="#449c6e"/>
    <rect id="Rectángulo_341437" data-name="Rectángulo 341437" width="124" height="124" transform="translate(-6585.01 4588.151)" fill="none"/>
    <g id="huella-dactilar" transform="translate(-6557.37 4614.635)">
      <g id="Grupo_978926" data-name="Grupo 978926" transform="translate(0.117 0)">
        <path id="Trazado_690731" data-name="Trazado 690731" d="M120.769,140.391a1.187,1.187,0,0,1-.532-2.248,16.314,16.314,0,0,1,5.119-1.587,1.187,1.187,0,0,1,.316,2.352,13.924,13.924,0,0,0-4.373,1.357A1.177,1.177,0,0,1,120.769,140.391Zm0,0" transform="translate(-102.972 -117.562)" fill="#fff"/>
        <path id="Trazado_690732" data-name="Trazado 690732" d="M53.158,375.716a1.187,1.187,0,0,1-1.126-.813,14.109,14.109,0,0,1-.715-4.455v-3.1a1.186,1.186,0,1,1,2.373,0v3.026a11.857,11.857,0,0,0,.593,3.779,1.187,1.187,0,0,1-1.126,1.56Zm0,0" transform="translate(-44.197 -315.251)" fill="#fff"/>
        <path id="Trazado_690733" data-name="Trazado 690733" d="M52.5,188.349a1.186,1.186,0,0,1-1.186-1.186V177.016a19.448,19.448,0,0,1,.937-6.011,18.674,18.674,0,0,1,3.164-5.981,17.49,17.49,0,0,1,2.234-2.373,1.186,1.186,0,0,1,1.566,1.779,15.3,15.3,0,0,0-1.935,2.06,16.355,16.355,0,0,0-2.764,5.236,17.128,17.128,0,0,0-.83,5.29v10.147A1.186,1.186,0,0,1,52.5,188.349Zm0,0" transform="translate(-44.197 -139.809)" fill="#fff"/>
        <path id="Trazado_690734" data-name="Trazado 690734" d="M211.242,148.455a1.186,1.186,0,0,1-1.068-.656,16.185,16.185,0,0,0-12.052-8.907,1.187,1.187,0,1,1,.339-2.35,18.562,18.562,0,0,1,13.848,10.193,1.186,1.186,0,0,1-1.068,1.72Zm0,0" transform="translate(-169.714 -117.546)" fill="#fff"/>
        <path id="Trazado_690735" data-name="Trazado 690735" d="M134.352,244.947a111.585,111.585,0,0,1-9.626-7.064,13.988,13.988,0,0,1-5.136-10.86c-.012-2.833-.012-5.516-.012-7.736V213.7a4.171,4.171,0,0,1,.038-.643,8.541,8.541,0,0,1,2.036-5.046,8.85,8.85,0,0,1,5.3-3.073,8.128,8.128,0,0,1,1.534-.136,8.941,8.941,0,0,1,8.893,8.627,2.522,2.522,0,0,1,.013.272v5.968a11.018,11.018,0,0,0,1.068,4.8,1.187,1.187,0,1,1-2.15,1.006,13.234,13.234,0,0,1-1.293-5.724V213.7a.726.726,0,0,1-.011-.178,6.553,6.553,0,0,0-6.526-6.348,5.743,5.743,0,0,0-1.1.1,6.506,6.506,0,0,0-3.907,2.262,6.321,6.321,0,0,0-1.5,3.771,2.415,2.415,0,0,0-.017.4v5.588c0,2.218,0,4.9.012,7.66a11.665,11.665,0,0,0,4.271,9.1,109.248,109.248,0,0,0,9.385,6.89Zm0,0" transform="translate(-102.967 -176.323)" fill="#fff"/>
        <path id="Trazado_690736" data-name="Trazado 690736" d="M166.767,270.937a1.178,1.178,0,0,1-.746-.264l-.276-.224c-.265-.213-.571-.463-.916-.737a1.049,1.049,0,0,1-.119-.106c-1.457-1.177-3.538-2.864-5.834-4.73a13.923,13.923,0,0,1-5.153-10.824v-1.558c-.007-2.346-.007-4.484-.007-6.138v-3.322a4.146,4.146,0,0,1,3.9-4.133,4.07,4.07,0,0,1,3.028,1.131,4.42,4.42,0,0,1,1.38,3.193V245.1c0,1.477,0,3.628-.012,6.108v.137a11.593,11.593,0,0,0,4.246,8.912l1.255,1.024a1.186,1.186,0,0,1-1.5,1.84l-1.254-1.024a13.967,13.967,0,0,1-5.116-10.739v-.138c.012-2.491.012-4.639.012-6.114v-1.88a2.032,2.032,0,0,0-.639-1.469,1.662,1.662,0,0,0-1.263-.484,1.791,1.791,0,0,0-1.152.519,1.765,1.765,0,0,0-.518,1.245v3.322c0,1.651,0,3.785.012,6.131v1.565a11.555,11.555,0,0,0,4.279,8.983c2.349,1.91,4.474,3.633,5.932,4.813a1.047,1.047,0,0,1,.1.093c.306.246.583.475.823.666l.274.222a1.186,1.186,0,0,1-.745,2.1Zm0,0" transform="translate(-132.358 -205.679)" fill="#fff"/>
        <path id="Trazado_690737" data-name="Trazado 690737" d="M61.034,6.312a1.187,1.187,0,0,1-.546-2.24A36.241,36.241,0,0,1,85.023.859a1.187,1.187,0,0,1-.518,2.316,33.867,33.867,0,0,0-22.925,3A1.186,1.186,0,0,1,61.034,6.312Zm0,0" transform="translate(-51.542 0)" fill="#fff"/>
        <path id="Trazado_690738" data-name="Trazado 690738" d="M270.772,21.886a1.185,1.185,0,0,1-.609-.168,34.244,34.244,0,0,0-4.586-2.294,1.186,1.186,0,0,1,.9-2.195,36.426,36.426,0,0,1,4.906,2.452,1.187,1.187,0,0,1-.611,2.2Zm0,0" transform="translate(-228.057 -14.767)" fill="#fff"/>
        <path id="Trazado_690739" data-name="Trazado 690739" d="M18.363,45.994a1.187,1.187,0,0,1-.848-2.017,33.1,33.1,0,0,1,32-8.753,1.186,1.186,0,1,1-.613,2.291,30.74,30.74,0,0,0-29.695,8.123A1.187,1.187,0,0,1,18.363,45.994Zm0,0" transform="translate(-14.804 -29.382)" fill="#fff"/>
        <path id="Trazado_690740" data-name="Trazado 690740" d="M278.886,63.064a1.186,1.186,0,0,1-.911-.426,32.544,32.544,0,0,0-12.591-9.155,1.187,1.187,0,1,1,.9-2.2A34.931,34.931,0,0,1,279.8,61.117a1.187,1.187,0,0,1-.911,1.947Zm0,0" transform="translate(-227.866 -44.08)" fill="#fff"/>
        <path id="Trazado_690741" data-name="Trazado 690741" d="M69.562,82.693a1.187,1.187,0,0,1-.633-2.19,30.714,30.714,0,0,1,8.639-3.7,1.186,1.186,0,1,1,.594,2.3,28.375,28.375,0,0,0-7.972,3.415A1.191,1.191,0,0,1,69.562,82.693Zm0,0" transform="translate(-58.884 -66.082)" fill="#fff"/>
        <path id="Trazado_690742" data-name="Trazado 690742" d="M1.3,131.458a1.186,1.186,0,0,1-1.122-1.571,25.967,25.967,0,0,1,6.214-9.938,1.187,1.187,0,0,1,1.683,1.673,23.617,23.617,0,0,0-5.651,9.04A1.187,1.187,0,0,1,1.3,131.458Zm0,0" transform="translate(-0.117 -102.982)" fill="#fff"/>
        <path id="Trazado_690743" data-name="Trazado 690743" d="M204.233,84.865a1.187,1.187,0,0,1-1.068-.665A25.156,25.156,0,0,0,180.5,70.626a1.186,1.186,0,0,1,0-2.373,27.536,27.536,0,0,1,24.8,14.9,1.187,1.187,0,0,1-1.068,1.709Zm0,0" transform="translate(-154.4 -58.761)" fill="#fff"/>
        <path id="Trazado_690744" data-name="Trazado 690744" d="M294.967,160.368a1.187,1.187,0,0,1-1.012-.565,21.432,21.432,0,0,0-3.373-4.182,1.186,1.186,0,1,1,1.649-1.706,23.858,23.858,0,0,1,3.747,4.65,1.186,1.186,0,0,1-1.011,1.8Zm0,0" transform="translate(-249.879 -132.224)" fill="#fff"/>
        <path id="Trazado_690745" data-name="Trazado 690745" d="M18.38,130.831a1.187,1.187,0,0,1-1.187-1.1c-.009-.151-.009-1.575-.009-4.229,0-.4.012-.809.025-1.2a22.355,22.355,0,0,1,2.111-8.361,23.7,23.7,0,0,1,22.26-13.566,1.186,1.186,0,0,1,1.154,1.217,1.2,1.2,0,0,1-1.217,1.155,21.314,21.314,0,0,0-20.045,12.2,19.964,19.964,0,0,0-1.893,7.458c-.01.338-.022.712-.022,1.1,0,.2,0,3.779.01,4.1a1.186,1.186,0,0,1-1.126,1.234Zm0,0" transform="translate(-14.811 -88.124)" fill="#fff"/>
        <path id="Trazado_690746" data-name="Trazado 690746" d="M229.209,112.543a1.185,1.185,0,0,1-.712-.237,15.9,15.9,0,0,0-5.182-2.6l-.347-.091a1.186,1.186,0,0,1,.617-2.291l.366.1a18.286,18.286,0,0,1,5.969,2.983,1.186,1.186,0,0,1-.712,2.136Zm0,0" transform="translate(-191.241 -92.372)" fill="#fff"/>
        <path id="Trazado_690747" data-name="Trazado 690747" d="M100.874,218.016a1.179,1.179,0,0,1-.739-.259c-.98-.779-2.321-1.746-3.74-2.769-1.8-1.3-3.844-2.772-5.683-4.246a13.875,13.875,0,0,1-5.262-10.868V184.308a12.734,12.734,0,0,1,.118-1.767,13.059,13.059,0,0,1,1.83-5.189,13.787,13.787,0,0,1,4.367-4.453,14.278,14.278,0,0,1,9.163-2.16c6.022.639,10.24,5.6,11.747,10.233a1.186,1.186,0,0,1-2.254.736c-1.228-3.779-4.8-8.08-9.737-8.608a11.916,11.916,0,0,0-7.641,1.8,11.414,11.414,0,0,0-3.619,3.688,10.739,10.739,0,0,0-1.5,4.272,10.571,10.571,0,0,0-.1,1.447v15.508a11.538,11.538,0,0,0,4.373,9.075c1.792,1.437,3.809,2.891,5.587,4.172,1.443,1.041,2.8,2.017,3.83,2.84a1.186,1.186,0,0,1-.739,2.114Zm0,0" transform="translate(-73.584 -146.933)" fill="#fff"/>
      </g>
      <path id="Trazado_690748" data-name="Trazado 690748" d="M290.25,253.674v-26.1a14.238,14.238,0,0,1,14.238-14.238h1.187a14.238,14.238,0,0,1,14.238,14.238v26.1Zm0,0" transform="translate(-249.792 -183.67)" fill="#fdd7ad"/>
      <path id="Trazado_690749" data-name="Trazado 690749" d="M327.089,259.13a30.071,30.071,0,0,1-7.964-1.077,3.365,3.365,0,0,1-2.344-2.957l-.949-9.355a3.586,3.586,0,0,1,1.227-3.1,15.528,15.528,0,0,1,20.06,0,3.585,3.585,0,0,1,1.223,3.11l-.949,9.356a3.365,3.365,0,0,1-2.341,2.953A30.066,30.066,0,0,1,327.089,259.13Zm0,0" transform="translate(-271.8 -205.737)" fill="#f09372"/>
      <path id="Trazado_690750" data-name="Trazado 690750" d="M344.56,235.335c0,.059-.012.119-.012.166L343.5,247.022a1.234,1.234,0,0,1-.8,1.115c-.225.083-.463.142-.688.213h-.012a28.814,28.814,0,0,1-4.687.89c-.628.059-1.257.106-1.9.13-.32.012-.629.012-.949.012s-.64,0-.961-.012q-.552-.018-1.1-.071c-.569-.047-1.139-.107-1.7-.19-.356-.036-.7-.1-1.056-.154-.9-.154-1.815-.356-2.717-.606h-.012c-.225-.071-.463-.13-.688-.213a1.234,1.234,0,0,1-.8-1.115L324.4,235.5a1.363,1.363,0,0,1,.4-1.151,15.1,15.1,0,0,1,4.568-2.943,13.408,13.408,0,0,1,10.2,0,15.1,15.1,0,0,1,4.568,2.943A1.323,1.323,0,0,1,344.56,235.335Zm0,0" transform="translate(-279.185 -198.363)" fill="#f9eab0"/>
      <path id="Trazado_690751" data-name="Trazado 690751" d="M368.008,429.041H359.7a1.186,1.186,0,1,1,0-2.373h8.305a1.186,1.186,0,1,1,0,2.373Zm0,0" transform="translate(-308.566 -367.342)" fill="#f09372"/>
      <path id="Trazado_690752" data-name="Trazado 690752" d="M368.008,463.174H359.7a1.186,1.186,0,1,1,0-2.373h8.305a1.186,1.186,0,1,1,0,2.373Zm0,0" transform="translate(-308.566 -396.729)" fill="#f09372"/>
      <path id="Trazado_690753" data-name="Trazado 690753" d="M357.8,321.955a28.818,28.818,0,0,1-4.687.89c-.628.059-1.257.106-1.9.13-.32.012-.629.012-.949.012s-.64,0-.961-.012q-.552-.018-1.1-.071c-.569-.047-1.139-.107-1.7-.19-.13-.012-.249-.036-.38-.048l-.676-.106a27.824,27.824,0,0,1-2.717-.606,7.712,7.712,0,0,1,15.068,0Zm0,0" transform="translate(-294.975 -271.968)" fill="#f5efca"/>
    </g>
  </g>
</svg>
