<svg xmlns="http://www.w3.org/2000/svg" width="124" height="124" viewBox="0 0 124 124">
  <g id="Grupo_978930" data-name="Grupo 978930" transform="translate(7224.01 -4588.151)">
    <rect id="Rectángulo_341436" data-name="Rectángulo 341436" width="124" height="124" transform="translate(-7224.01 4588.151)" fill="none"/>
    <g id="prueba" transform="translate(-7212.01 4600.151)">
      <path id="Trazado_690698" data-name="Trazado 690698" d="M101,50.5a50.278,50.278,0,0,1-9.894,30.028,50.8,50.8,0,0,1-7.833,8.393,50.462,50.462,0,0,1-65.547,0,50.8,50.8,0,0,1-7.833-8.393A50.494,50.494,0,0,1,50.5,0c.066,0,.132,0,.2,0A50.22,50.22,0,0,1,76.618,7.27,50.516,50.516,0,0,1,101,50.5Z" fill="#449c6e"/>
      <path id="Trazado_690699" data-name="Trazado 690699" d="M122.426,43.52A43.329,43.329,0,0,1,113.9,69.4a43.8,43.8,0,0,1-6.75,7.233A43.524,43.524,0,1,1,78.906,0c.057,0,.114,0,.17,0a43.277,43.277,0,0,1,22.337,6.263A43.534,43.534,0,0,1,122.426,43.52Z" transform="translate(-28.406)" fill="#449c6e"/>
      <path id="Trazado_690700" data-name="Trazado 690700" d="M131.366,44.358v65.753a50.8,50.8,0,0,1-7.833,8.393,50.462,50.462,0,0,1-65.547,0,50.8,50.8,0,0,1-7.833-8.393V44.358a7.5,7.5,0,0,1,7.5-7.5h66.2A7.5,7.5,0,0,1,131.366,44.358Z" transform="translate(-40.26 -29.583)" fill="#343a6e"/>
      <path id="Trazado_690701" data-name="Trazado 690701" d="M155.407,127.266v60.019a50.462,50.462,0,0,1-65.547,0V127.266a4.729,4.729,0,0,1,4.728-4.73h56.088A4.73,4.73,0,0,1,155.407,127.266Z" transform="translate(-72.134 -98.364)" fill="#f0f0f0"/>
      <path id="Trazado_690702" data-name="Trazado 690702" d="M194.314,9.289V22.567a4.49,4.49,0,0,1-4.491,4.491H158.611a4.49,4.49,0,0,1-4.491-4.491V9.289A4.49,4.49,0,0,1,158.611,4.8h7.857A8.654,8.654,0,0,1,181.45,3.9c.017.025.031.047.045.072.122.188.237.381.342.579.047.087.091.169.128.243h7.857A4.49,4.49,0,0,1,194.314,9.289Z" transform="translate(-123.717 -0.001)" fill="#f2ae5a"/>
      <path id="Trazado_690703" data-name="Trazado 690703" d="M206.895,9.289V22.567a4.49,4.49,0,0,1-4.491,4.491H174.284a4.49,4.49,0,0,1-4.491-4.491V9.289A4.49,4.49,0,0,1,174.284,4.8h4.766A8.654,8.654,0,0,1,194.031,3.9c.017.025.031.047.045.072.132.212.247.408.342.579.047.087.091.169.128.243H202.4A4.49,4.49,0,0,1,206.895,9.289Z" transform="translate(-136.299 -0.001)" fill="#f9df73"/>
      <circle id="Elipse_7778" data-name="Elipse 7778" cx="2.989" cy="2.989" r="2.989" transform="translate(47.511 4.075)" fill="#343a6e"/>
      <path id="Trazado_690704" data-name="Trazado 690704" d="M213.026,86.114H190.765A2.164,2.164,0,0,1,188.6,83.95h0a2.164,2.164,0,0,1,2.164-2.164h22.261a2.164,2.164,0,0,1,2.164,2.164h0A2.164,2.164,0,0,1,213.026,86.114Z" transform="translate(-151.397 -65.652)" fill="#f2ae5a"/>
      <path id="Trazado_690705" data-name="Trazado 690705" d="M128.94,195.022H115.954a2.061,2.061,0,0,1-2.061-2.061V179.975a2.061,2.061,0,0,1,2.061-2.061H128.94A2.061,2.061,0,0,1,131,179.975v12.986A2.061,2.061,0,0,1,128.94,195.022ZM118.016,190.9h8.863v-8.863h-8.863Z" transform="translate(-91.426 -142.818)" fill="#5897d1"/>
      <g id="Grupo_978919" data-name="Grupo 978919" transform="translate(43.286 37.57)">
        <path id="Trazado_690706" data-name="Trazado 690706" d="M234.475,194.576H221.489a2.061,2.061,0,0,1,0-4.122h12.986a2.061,2.061,0,0,1,0,4.122Z" transform="translate(-219.428 -190.454)" fill="#484b7f"/>
        <path id="Trazado_690707" data-name="Trazado 690707" d="M250.553,235.327H221.49a2.061,2.061,0,1,1,0-4.122h29.063a2.061,2.061,0,1,1,0,4.122Z" transform="translate(-219.429 -223.166)" fill="#484b7f"/>
      </g>
      <path id="Trazado_690708" data-name="Trazado 690708" d="M128.94,307.871H115.954a2.061,2.061,0,0,1-2.061-2.061V292.824a2.061,2.061,0,0,1,2.061-2.061H128.94A2.061,2.061,0,0,1,131,292.824V305.81A2.061,2.061,0,0,1,128.94,307.871Zm-10.924-4.122h8.863v-8.863h-8.863Z" transform="translate(-91.426 -233.405)" fill="#5897d1"/>
      <g id="Grupo_978920" data-name="Grupo 978920" transform="translate(43.286 59.831)">
        <path id="Trazado_690709" data-name="Trazado 690709" d="M234.475,307.424H221.489a2.061,2.061,0,0,1,0-4.122h12.986a2.061,2.061,0,0,1,0,4.122Z" transform="translate(-219.428 -303.302)" fill="#484b7f"/>
        <path id="Trazado_690710" data-name="Trazado 690710" d="M250.553,348.175H221.49a2.061,2.061,0,1,1,0-4.122h29.063a2.061,2.061,0,1,1,0,4.122Z" transform="translate(-219.429 -336.014)" fill="#484b7f"/>
      </g>
      <path id="Trazado_690711" data-name="Trazado 690711" d="M128.94,403.613H115.954a2.062,2.062,0,0,0-2.061,2.061V416.5a50.2,50.2,0,0,0,7.674,4.217h7.373A2.062,2.062,0,0,0,131,418.66V405.674A2.062,2.062,0,0,0,128.94,403.613ZM126.879,416.6h-8.863v-8.863h8.863Z" transform="translate(-91.426 -323.994)" fill="#5897d1"/>
      <g id="Grupo_978921" data-name="Grupo 978921" transform="translate(43.286 82.092)">
        <path id="Trazado_690712" data-name="Trazado 690712" d="M234.475,420.273H221.489a2.061,2.061,0,1,1,0-4.122h12.986a2.061,2.061,0,1,1,0,4.122Z" transform="translate(-219.428 -416.151)" fill="#484b7f"/>
        <path id="Trazado_690713" data-name="Trazado 690713" d="M250.553,461.024H221.49a2.061,2.061,0,1,1,0-4.122h29.063a2.061,2.061,0,1,1,0,4.122Z" transform="translate(-219.429 -448.863)" fill="#484b7f"/>
      </g>
      <path id="Trazado_690714" data-name="Trazado 690714" d="M121.506,287.561a2.061,2.061,0,0,1-1.714-.918l-6.6-9.894a2.061,2.061,0,1,1,3.43-2.286l4.577,6.865,5.862-12.375a2.061,2.061,0,1,1,3.726,1.765l-7.42,15.665a2.062,2.062,0,0,1-1.713,1.174Q121.58,287.561,121.506,287.561Z" transform="translate(-90.588 -214.95)" fill="#ef487d"/>
    </g>
  </g>
</svg>
