<svg xmlns="http://www.w3.org/2000/svg" width="100" height="100" viewBox="0 0 100 100">
  <g id="c2" transform="translate(-750 -2561)">
    <circle id="Elipse_7857" data-name="Elipse 7857" cx="50" cy="50" r="50" transform="translate(750 2561)" fill="#449c6e"/>
    <g id="analytics" transform="translate(771.932 2547.294)">
      <path id="Trazado_691711" data-name="Trazado 691711" d="M70.305,50.682l-3.074,3.4-47.146-.752-1.936-2.646,1.9-2.7a1.077,1.077,0,0,1,.881-.457h46.59a1.078,1.078,0,0,1,.881.457Z" transform="translate(-16.159 -6.678)" fill="#dd636e"/>
      <path id="Trazado_691712" data-name="Trazado 691712" d="M448.735,47.984a1.077,1.077,0,0,0-.881-.457h-2.538a1.078,1.078,0,0,1,.881.457l1.9,2.7.894,2.146,1.644-2.146Z" transform="translate(-396.492 -6.678)" fill="#da4a54"/>
      <path id="Trazado_691713" data-name="Trazado 691713" d="M61.635,118.863H7.856a.356.356,0,0,1-.356-.356V76.66a.356.356,0,0,1,.356-.356H61.635a.356.356,0,0,1,.356.356v41.847A.356.356,0,0,1,61.635,118.863Z" transform="translate(-6.678 -32.3)" fill="#f6f9f9"/>
      <path id="Trazado_691714" data-name="Trazado 691714" d="M483.485,76.3H481.3a.356.356,0,0,1,.356.356v41.847a.356.356,0,0,1-.356.356h2.188a.356.356,0,0,0,.356-.356V76.66A.356.356,0,0,0,483.485,76.3Z" transform="translate(-428.528 -32.3)" fill="#dae4ea"/>
      <g id="Grupo_979569" data-name="Grupo 979569" transform="translate(13.917 57.242)">
        <path id="Trazado_691715" data-name="Trazado 691715" d="M126.934,257.043h5.511v8.074h-5.511Z" transform="translate(-126.934 -250.465)" fill="#f9ef63"/>
        <path id="Trazado_691716" data-name="Trazado 691716" d="M156.068,257.043h2.317v8.074h-2.317Z" transform="translate(-152.874 -250.465)" fill="#f6e738"/>
        <path id="Trazado_691717" data-name="Trazado 691717" d="M222.111,197.043h5.511V211.7h-5.511Z" transform="translate(-211.676 -197.043)" fill="#b3e59f"/>
        <path id="Trazado_691718" data-name="Trazado 691718" d="M251.246,197.043h2.317V211.7h-2.317Z" transform="translate(-237.616 -197.043)" fill="#95d6a4"/>
        <path id="Trazado_691719" data-name="Trazado 691719" d="M317.289,257.043H322.8v8.074h-5.511Z" transform="translate(-296.418 -250.465)" fill="#dd636e"/>
        <path id="Trazado_691720" data-name="Trazado 691720" d="M346.423,257.043h2.317v8.074h-2.317Z" transform="translate(-322.358 -250.465)" fill="#da4a54"/>
      </g>
      <g id="Grupo_979570" data-name="Grupo 979570" transform="translate(0 40.027)">
        <path id="Trazado_691721" data-name="Trazado 691721" d="M55.313,43.182h-.741l-1.657-2.35a1.9,1.9,0,0,0-1.553-.805H43.335a.822.822,0,0,0,0,1.645h8.028a.255.255,0,0,1,.209.108l.989,1.4H3.576l.989-1.4a.256.256,0,0,1,.209-.108H40.047a.822.822,0,1,0,0-1.645H4.773a1.9,1.9,0,0,0-1.553.805l-1.657,2.35H.822A.822.822,0,0,0,0,44V86.563a.822.822,0,0,0,.822.822H6.709a.822.822,0,1,0,0-1.645H1.645V44.827H54.491V85.741H10a.822.822,0,1,0,0,1.645H55.313a.822.822,0,0,0,.822-.822V44A.822.822,0,0,0,55.313,43.182Z" transform="translate(0 -40.027)"/>
        <path id="Trazado_691722" data-name="Trazado 691722" d="M235.93,106.961H224.271a.822.822,0,1,0,0,1.645H235.93a.822.822,0,0,0,0-1.645Z" transform="translate(-198.95 -99.622)"/>
        <path id="Trazado_691723" data-name="Trazado 691723" d="M171.188,108.606a.822.822,0,1,0,0-1.645h-3.152a.822.822,0,0,0,0,1.645Z" transform="translate(-148.88 -99.622)"/>
        <path id="Trazado_691724" data-name="Trazado 691724" d="M75.269,173.183a.822.822,0,0,0-.822.822v19.671a.822.822,0,0,0,.822.822h38.166a.822.822,0,1,0,0-1.645H76.092V174.005A.822.822,0,0,0,75.269,173.183Z" transform="translate(-66.285 -158.584)"/>
        <path id="Trazado_691725" data-name="Trazado 691725" d="M119.435,250.365v8.074a.822.822,0,0,0,.822.822h5.511a.822.822,0,0,0,.822-.822v-8.074a.822.822,0,0,0-.822-.822h-5.511A.822.822,0,0,0,119.435,250.365Zm1.645.822h3.867v6.429H121.08Z" transform="translate(-106.34 -226.572)"/>
        <path id="Trazado_691726" data-name="Trazado 691726" d="M309.789,250.365v8.074a.822.822,0,0,0,.822.822h5.512a.822.822,0,0,0,.822-.822v-8.074a.822.822,0,0,0-.822-.822h-5.512A.822.822,0,0,0,309.789,250.365Zm1.645.822H315.3v6.429h-3.867Z" transform="translate(-275.824 -226.572)"/>
        <path id="Trazado_691727" data-name="Trazado 691727" d="M215.433,201.165a.822.822,0,0,0-.822.822v3.031a.822.822,0,0,0,.822.822h5.511a.822.822,0,0,0,.822-.822V190.365a.822.822,0,0,0-.822-.822h-5.511a.822.822,0,0,0-.822.822V198.7a.822.822,0,0,0,1.645,0v-7.512h3.867V204.2h-3.867v-2.208A.822.822,0,0,0,215.433,201.165Z" transform="translate(-191.081 -173.15)"/>
        <path id="Trazado_691728" data-name="Trazado 691728" d="M370.608,171.9h-7.683a.823.823,0,0,0-.582.241l-2.046,2.046a.822.822,0,0,0,1.163,1.163l1.805-1.805h7.343a.822.822,0,1,0,0-1.644Z" transform="translate(-320.58 -157.441)"/>
        <path id="Trazado_691729" data-name="Trazado 691729" d="M441.614,194.013h-.986a.822.822,0,1,0,0,1.645h.986a.822.822,0,1,0,0-1.645Z" transform="translate(-391.586 -177.13)"/>
        <path id="Trazado_691730" data-name="Trazado 691730" d="M394.708,194.013h-3a.822.822,0,0,0,0,1.645h3a.822.822,0,0,0,0-1.645Z" transform="translate(-348.029 -177.13)"/>
        <path id="Trazado_691731" data-name="Trazado 691731" d="M441.614,218.269h-.986a.822.822,0,1,0,0,1.645h.986a.822.822,0,1,0,0-1.645Z" transform="translate(-391.586 -198.727)"/>
        <path id="Trazado_691732" data-name="Trazado 691732" d="M394.708,218.269h-3a.822.822,0,0,0,0,1.645h3a.822.822,0,0,0,0-1.645Z" transform="translate(-348.029 -198.727)"/>
        <path id="Trazado_691733" data-name="Trazado 691733" d="M78.558,403.662a.822.822,0,0,0-.822-.822H75.269a.822.822,0,1,0,0,1.645h2.466A.822.822,0,0,0,78.558,403.662Z" transform="translate(-66.285 -363.061)"/>
        <path id="Trazado_691734" data-name="Trazado 691734" d="M138.143,402.84a.822.822,0,1,0,0,1.645h2.466a.822.822,0,1,0,0-1.645Z" transform="translate(-122.265 -363.061)"/>
        <path id="Trazado_691735" data-name="Trazado 691735" d="M201.017,402.84a.822.822,0,1,0,0,1.645h2.466a.822.822,0,1,0,0-1.645Z" transform="translate(-178.246 -363.061)"/>
      </g>
    </g>
  </g>
</svg>
