<svg xmlns="http://www.w3.org/2000/svg" width="100" height="100" viewBox="0 0 100 100">
  <g id="c4" transform="translate(3260 9028)">
    <circle id="Elipse_7859" data-name="Elipse 7859" cx="50" cy="50" r="50" transform="translate(-3260 -9028)" fill="#449c6e"/>
    <g id="budget" transform="translate(-3242 -9010)">
      <path id="Trazado_691764" data-name="Trazado 691764" d="M185.405,136.416c-1.806-1.852-3.48-1.668-5.058,0-1.551-1.889-3.256-1.625-5.058,0a5.176,5.176,0,0,0-5.163-.74.815.815,0,0,0-.011,1.493,8.8,8.8,0,0,1,4.619,4.86l1.92,1.3h7.767l1.54-1.3a8.8,8.8,0,0,1,4.619-4.86.815.815,0,0,0-.011-1.493A5.176,5.176,0,0,0,185.405,136.416Z" transform="translate(-148.587 -118.335)" fill="#b3e59f"/>
      <path id="Trazado_691765" data-name="Trazado 691765" d="M274.4,137.059a4.819,4.819,0,0,0-3.348-.159c.152.048.3.1.433.159a.815.815,0,0,1,.011,1.493,8.8,8.8,0,0,0-4.619,4.86l-1.54,1.3h2.915l1.54-1.3a8.8,8.8,0,0,1,4.619-4.86A.815.815,0,0,0,274.4,137.059Z" transform="translate(-232.414 -119.718)" fill="#95d6a4"/>
      <path id="Trazado_691766" data-name="Trazado 691766" d="M178.827,190.718H167.48c-4.085,5.786-6.163,11.585-6.057,16.834a4.248,4.248,0,0,0,3.612,4.1l.29.043a14.57,14.57,0,0,1,4.384,1.384,8.418,8.418,0,0,0,6.889,0,14.569,14.569,0,0,1,4.384-1.384l.29-.043a4.248,4.248,0,0,0,3.612-4.1c.106-5.249-1.972-11.048-6.057-16.834Z" transform="translate(-141.394 -167.057)" fill="#b3e59f"/>
      <path id="Trazado_691767" data-name="Trazado 691767" d="M251.382,190.718h-2.915c4.085,5.786,6.163,11.585,6.057,16.834a4.248,4.248,0,0,1-3.612,4.1l-.29.043a14.57,14.57,0,0,0-4.384,1.384,7.048,7.048,0,0,1-1.987.619,8.975,8.975,0,0,0,1.458.117,7.841,7.841,0,0,0,3.444-.737,14.57,14.57,0,0,1,4.384-1.384l.29-.043a4.248,4.248,0,0,0,3.612-4.1c.106-5.248-1.972-11.048-6.057-16.834Z" transform="translate(-213.949 -167.057)" fill="#95d6a4"/>
      <g id="Grupo_979583" data-name="Grupo 979583" transform="translate(0.93 0.93)">
        <circle id="Elipse_7864" data-name="Elipse 7864" cx="3.031" cy="3.031" r="3.031" transform="translate(27.799)" fill="#f9ef63"/>
        <circle id="Elipse_7865" data-name="Elipse 7865" cx="3.031" cy="3.031" r="3.031" transform="translate(47.455 8.142)" fill="#f9ef63"/>
        <circle id="Elipse_7866" data-name="Elipse 7866" cx="3.031" cy="3.031" r="3.031" transform="translate(55.597 27.799)" fill="#f9ef63"/>
        <circle id="Elipse_7867" data-name="Elipse 7867" cx="3.031" cy="3.031" r="3.031" transform="translate(47.455 47.455)" fill="#f9ef63"/>
        <circle id="Elipse_7868" data-name="Elipse 7868" cx="3.031" cy="3.031" r="3.031" transform="translate(27.799 55.597)" fill="#f9ef63"/>
        <circle id="Elipse_7869" data-name="Elipse 7869" cx="3.031" cy="3.031" r="3.031" transform="translate(8.142 47.455)" fill="#f9ef63"/>
        <circle id="Elipse_7870" data-name="Elipse 7870" cx="3.031" cy="3.031" r="3.031" transform="translate(0 27.799)" fill="#f9ef63"/>
        <circle id="Elipse_7871" data-name="Elipse 7871" cx="3.031" cy="3.031" r="3.031" transform="translate(8.142 8.142)" fill="#f9ef63"/>
      </g>
      <g id="Grupo_979584" data-name="Grupo 979584" transform="translate(0 0)">
        <path id="Trazado_691768" data-name="Trazado 691768" d="M174.449,136.357a.93.93,0,1,0,0-1.861h-.741a7.88,7.88,0,0,1,3.488-3.046,1.746,1.746,0,0,0-.027-3.2,5.918,5.918,0,0,0-5.415.431A4.145,4.145,0,0,0,169.1,127.6h-.025a3.963,3.963,0,0,0-2.448.953,3.635,3.635,0,0,0-2.13-.943,4.425,4.425,0,0,0-3.043,1.093,5.926,5.926,0,0,0-5.448-.45,1.746,1.746,0,0,0-.027,3.2,7.914,7.914,0,0,1,3.48,3.046h-.734a.93.93,0,0,0,0,1.861h.437a34.867,34.867,0,0,0-4.13,8.595.931.931,0,0,0,1.778.551,33.969,33.969,0,0,1,4.591-9.145h10.376c3.772,5.468,5.711,10.952,5.611,15.885a3.305,3.305,0,0,1-2.821,3.2l-.286.043a15.483,15.483,0,0,0-4.664,1.472,7.5,7.5,0,0,1-6.058,0,15.484,15.484,0,0,0-4.664-1.472l-.285-.042a3.306,3.306,0,0,1-2.822-3.2,19.509,19.509,0,0,1,.214-3.231.93.93,0,0,0-1.841-.272,21.369,21.369,0,0,0-.233,3.54,5.163,5.163,0,0,0,4.4,5l.294.044a13.621,13.621,0,0,1,4.1,1.3,9.34,9.34,0,0,0,7.719,0,13.62,13.62,0,0,1,4.1-1.3l.295-.044a5.162,5.162,0,0,0,4.4-5c.1-5-1.7-10.476-5.233-15.922h.437Zm-17.467-6.492a4.349,4.349,0,0,1,4.018.748.931.931,0,0,0,1.15-.076,3.229,3.229,0,0,1,2.2-1.076,2.267,2.267,0,0,1,1.513.976.93.93,0,0,0,1.395.049,2.709,2.709,0,0,1,1.823-1.03,2.79,2.79,0,0,1,1.893,1.04.931.931,0,0,0,1.193.117,4.349,4.349,0,0,1,4.017-.748,9.8,9.8,0,0,0-4.6,4.631h-1.075a.4.4,0,0,1,.2-.251.93.93,0,0,0-.866-1.647,2.38,2.38,0,0,0-1.231,1.9h-1.1v-.834a.93.93,0,1,0-1.861,0v.834h-1.1a2.38,2.38,0,0,0-1.231-1.9.93.93,0,1,0-.866,1.647.4.4,0,0,1,.2.251h-1.075A9.8,9.8,0,0,0,156.982,129.865Z" transform="translate(-134.826 -111.765)"/>
        <path id="Trazado_691769" data-name="Trazado 691769" d="M227.206,249.719a.93.93,0,0,0,.93.93h.817c.043.538-.04.776-.537,1.444l-.623.784a.93.93,0,0,0,.72,1.509l4.9.043h.008a.93.93,0,0,0,.008-1.861l-3.073-.027a3.154,3.154,0,0,0,.461-1.892h.76a.93.93,0,0,0,0-1.861h-1.227a3.079,3.079,0,0,1-.5-1.39v-.007a.634.634,0,0,1,.364-.607,1.753,1.753,0,0,1,1.554-.016,1.386,1.386,0,0,1,.619.673.931.931,0,1,0,1.79-.508,3.166,3.166,0,0,0-1.443-1.755,3.592,3.592,0,0,0-3.436-.014,2.5,2.5,0,0,0-1.31,2.224v.013a3.876,3.876,0,0,0,.288,1.387h-.138a.931.931,0,0,0-.93.931Z" transform="translate(-199.018 -214.372)"/>
        <path id="Trazado_691770" data-name="Trazado 691770" d="M241.83,73.416a.93.93,0,0,0,.93-.93v-.627a.931.931,0,0,0,.766-1.613l-1.077-.961a.93.93,0,0,0-1.239,0l-1.077.961a.931.931,0,0,0,.766,1.613v.627a.93.93,0,0,0,.93.93Z" transform="translate(-210.07 -60.482)"/>
        <path id="Trazado_691771" data-name="Trazado 691771" d="M362.035,124.664a.928.928,0,0,0,.658-.273l.443-.443a.931.931,0,0,0,1.682-.6l-.082-1.44a.931.931,0,0,0-.876-.876l-1.44-.082a.931.931,0,0,0-.6,1.682l-.443.443a.93.93,0,0,0,.658,1.588Z" transform="translate(-316.305 -105.943)"/>
        <path id="Trazado_691772" data-name="Trazado 691772" d="M386.475,65.629a3.961,3.961,0,1,0,2.8,6.762h0a3.961,3.961,0,0,0-2.8-6.762Zm1.485,5.446a2.1,2.1,0,1,1,0-2.97A2.1,2.1,0,0,1,387.96,71.075Z" transform="translate(-335.059 -57.487)"/>
        <path id="Trazado_691773" data-name="Trazado 691773" d="M407.747,241.828a.93.93,0,0,0,.93.93h.627a.93.93,0,0,0,1.613.766l.961-1.077a.931.931,0,0,0,0-1.239l-.961-1.077a.93.93,0,0,0-1.613.766h-.627A.931.931,0,0,0,407.747,241.828Z" transform="translate(-357.161 -210.069)"/>
        <path id="Trazado_691774" data-name="Trazado 691774" d="M452.105,224.072a3.961,3.961,0,1,0,3.961,3.961A3.965,3.965,0,0,0,452.105,224.072Zm0,6.061a2.1,2.1,0,1,1,2.1-2.1A2.1,2.1,0,0,1,452.105,230.133Z" transform="translate(-392.547 -196.273)"/>
        <path id="Trazado_691775" data-name="Trazado 691775" d="M364.736,363.86l.082-1.44a.931.931,0,0,0-1.682-.6l-.443-.443a.93.93,0,1,0-1.316,1.316l.443.443a.931.931,0,0,0,.546,1.684c.044,0,.2-.01,1.494-.083A.931.931,0,0,0,364.736,363.86Z" transform="translate(-316.305 -316.306)"/>
        <path id="Trazado_691776" data-name="Trazado 691776" d="M241.829,407.747a.93.93,0,0,0-.93.93v.627a.93.93,0,0,0-.766,1.613l1.077.961a.93.93,0,0,0,1.239,0l1.076-.961a.93.93,0,0,0-.765-1.613v-.627A.931.931,0,0,0,241.829,407.747Z" transform="translate(-210.069 -357.161)"/>
        <path id="Trazado_691777" data-name="Trazado 691777" d="M228.033,448.144a3.961,3.961,0,1,0,3.961,3.961A3.966,3.966,0,0,0,228.033,448.144Zm0,6.061a2.1,2.1,0,1,1,2.1-2.1A2.1,2.1,0,0,1,228.033,454.205Z" transform="translate(-196.273 -392.547)"/>
        <path id="Trazado_691778" data-name="Trazado 691778" d="M123.077,361.377l-.444.444a.93.93,0,0,0-1.682.6l.082,1.44a.93.93,0,0,0,.876.876l1.44.082a.931.931,0,0,0,.6-1.682l.443-.443a.93.93,0,0,0-1.316-1.316Z" transform="translate(-105.944 -316.306)"/>
        <path id="Trazado_691779" data-name="Trazado 691779" d="M69.589,382.515a3.961,3.961,0,1,0,2.8,1.16A3.935,3.935,0,0,0,69.589,382.515Zm1.485,5.446a2.1,2.1,0,1,1,.615-1.485A2.086,2.086,0,0,1,71.074,387.961Z" transform="translate(-57.486 -335.06)"/>
        <path id="Trazado_691780" data-name="Trazado 691780" d="M73.417,241.83a.93.93,0,0,0-.93-.93H71.86a.93.93,0,0,0-1.613-.765l-.961,1.077a.93.93,0,0,0,0,1.239l.961,1.077a.93.93,0,0,0,1.613-.765h.627A.931.931,0,0,0,73.417,241.83Z" transform="translate(-60.483 -210.07)"/>
        <path id="Trazado_691781" data-name="Trazado 691781" d="M3.961,224.072a3.961,3.961,0,1,0,3.961,3.961A3.966,3.966,0,0,0,3.961,224.072Zm0,6.061a2.1,2.1,0,1,1,2.1-2.1A2.1,2.1,0,0,1,3.961,230.133Z" transform="translate(0 -196.273)"/>
        <path id="Trazado_691782" data-name="Trazado 691782" d="M121.032,121.908l-.082,1.44a.93.93,0,0,0,1.682.6l.443.443a.93.93,0,0,0,1.316-1.316l-.443-.443a.931.931,0,0,0-.6-1.682l-1.44.082a.931.931,0,0,0-.876.876Z" transform="translate(-105.944 -105.944)"/>
        <path id="Trazado_691783" data-name="Trazado 691783" d="M69.59,73.55a3.961,3.961,0,1,0-2.8-1.16A3.935,3.935,0,0,0,69.59,73.55ZM68.105,68.1a2.1,2.1,0,0,1,2.97,0h0a2.1,2.1,0,1,1-2.97,0Z" transform="translate(-57.487 -57.486)"/>
        <path id="Trazado_691784" data-name="Trazado 691784" d="M389.276,383.688a3.959,3.959,0,1,0-1.746,6.617.931.931,0,0,0-.495-1.794,2.1,2.1,0,1,1,1.536-2.089.93.93,0,1,0,1.86-.058A3.945,3.945,0,0,0,389.276,383.688Z" transform="translate(-335.059 -335.073)"/>
        <path id="Trazado_691785" data-name="Trazado 691785" d="M228.033,7.922A3.952,3.952,0,0,0,231.542,5.8a.93.93,0,1,0-1.648-.864,2.1,2.1,0,1,1-.482-2.555.93.93,0,1,0,1.224-1.4,3.961,3.961,0,1,0-2.6,6.945Z" transform="translate(-196.273 0)"/>
      </g>
    </g>
  </g>
</svg>
