<svg xmlns="http://www.w3.org/2000/svg" width="100" height="100" viewBox="0 0 100 100">
  <g id="c6" transform="translate(2638 9020)">
    <circle id="Elipse_7861" data-name="Elipse 7861" cx="50" cy="50" r="50" transform="translate(-2638 -9020)" fill="#449c6e"/>
    <g id="inbox" transform="translate(-2621 -9046.988)">
      <circle id="Elipse_7878" data-name="Elipse 7878" cx="9.942" cy="9.942" r="9.942" transform="translate(23.471 62.108)" fill="#617881"/>
      <path id="Trazado_691797" data-name="Trazado 691797" d="M145.59,73.958l1.186-2.157a2.781,2.781,0,0,0-.029-2.73l-1.2-2.08a2.781,2.781,0,0,0-2.35-1.39l-2.461-.052a2.782,2.782,0,0,1-1.332-.372L133.732,61.9a2.782,2.782,0,0,1-.988-.968l-1.275-2.105a2.781,2.781,0,0,0-2.379-1.34h-2.4a2.781,2.781,0,0,0-2.379,1.34l-1.275,2.105a2.78,2.78,0,0,1-.988.968l-5.671,3.274a2.78,2.78,0,0,1-1.332.372l-2.461.052a2.781,2.781,0,0,0-2.35,1.39l-1.2,2.08A2.781,2.781,0,0,0,109,71.8l1.186,2.157a2.781,2.781,0,0,1,.344,1.34v6.548a2.781,2.781,0,0,1-.344,1.34L109,85.342a2.781,2.781,0,0,0,.029,2.73l1.2,2.08a2.781,2.781,0,0,0,2.35,1.39l2.461.052a2.782,2.782,0,0,1,1.332.372l5.671,3.274a2.782,2.782,0,0,1,.988.968l1.275,2.105a2.781,2.781,0,0,0,2.379,1.34h2.4a2.781,2.781,0,0,0,2.379-1.34l1.275-2.105a2.78,2.78,0,0,1,.988-.968l5.671-3.274a2.78,2.78,0,0,1,1.332-.372l2.461-.052a2.781,2.781,0,0,0,2.35-1.39l1.2-2.08a2.781,2.781,0,0,0,.029-2.73l-1.186-2.157a2.781,2.781,0,0,1-.344-1.34V75.3a2.78,2.78,0,0,1,.344-1.34ZM128.426,86.824a8.27,8.27,0,1,1,7.715-7.715A8.271,8.271,0,0,1,128.426,86.824Z" transform="translate(-94.476 -6.522)" fill="#738b95"/>
      <path id="Trazado_691798" data-name="Trazado 691798" d="M254.069,83.185a2.781,2.781,0,0,1-.344-1.34V75.3a2.781,2.781,0,0,1,.344-1.34l1.186-2.157a2.781,2.781,0,0,0-.029-2.73l-1.2-2.08a2.781,2.781,0,0,0-2.35-1.39l-2.461-.052a2.782,2.782,0,0,1-1.332-.372L242.211,61.9a2.782,2.782,0,0,1-.988-.968l-1.275-2.105a2.781,2.781,0,0,0-2.379-1.34h-2.4a2.776,2.776,0,0,0-1.746.623,2.769,2.769,0,0,1,.633.718l1.275,2.105a2.78,2.78,0,0,0,.988.968l5.671,3.274a2.78,2.78,0,0,0,1.332.372l2.461.052a2.781,2.781,0,0,1,2.35,1.39l1.2,2.08a2.781,2.781,0,0,1,.029,2.73l-1.186,2.157a2.781,2.781,0,0,0-.344,1.34v6.548a2.781,2.781,0,0,0,.344,1.34l1.186,2.157a2.781,2.781,0,0,1-.029,2.73l-1.2,2.08a2.781,2.781,0,0,1-2.35,1.39l-2.461.052a2.782,2.782,0,0,0-1.332.372l-5.671,3.274a2.781,2.781,0,0,0-.988.968l-1.275,2.105a2.77,2.77,0,0,1-.633.718,2.776,2.776,0,0,0,1.746.623h2.4a2.781,2.781,0,0,0,2.379-1.34l1.275-2.105a2.78,2.78,0,0,1,.988-.968l5.671-3.274a2.78,2.78,0,0,1,1.332-.372l2.461-.052a2.781,2.781,0,0,0,2.35-1.39l1.2-2.08a2.781,2.781,0,0,0,.029-2.73Z" transform="translate(-202.955 -6.522)" fill="#617881"/>
      <path id="Trazado_691799" data-name="Trazado 691799" d="M53.191,253.41l-4.368,6.729a1.743,1.743,0,0,1-1.462.794H32.509a1.743,1.743,0,0,1-1.462-.794l-4.368-6.729a1.743,1.743,0,0,0-1.462-.794H9.244A1.743,1.743,0,0,0,7.5,254.359v22.865a1.743,1.743,0,0,0,1.743,1.743H70.626a1.743,1.743,0,0,0,1.743-1.743V254.359a1.743,1.743,0,0,0-1.743-1.743H54.652A1.743,1.743,0,0,0,53.191,253.41Z" transform="translate(-6.522 -176.181)" fill="#f9ef63"/>
      <g id="Grupo_979590" data-name="Grupo 979590" transform="translate(14.714 76.435)">
        <path id="Trazado_691800" data-name="Trazado 691800" d="M114.2,253.41l4.368,6.729a1.743,1.743,0,0,0,1.462.794h3.981a1.743,1.743,0,0,1-1.462-.794l-4.368-6.729a1.743,1.743,0,0,0-1.462-.794h-3.981A1.743,1.743,0,0,1,114.2,253.41Z" transform="translate(-112.735 -252.616)" fill="#f6e738"/>
        <path id="Trazado_691801" data-name="Trazado 691801" d="M464.628,252.616h-3.981a1.743,1.743,0,0,1,1.743,1.743v22.865a1.743,1.743,0,0,1-1.743,1.743h3.981a1.743,1.743,0,0,0,1.743-1.743V254.359A1.743,1.743,0,0,0,464.628,252.616Z" transform="translate(-415.238 -252.616)" fill="#f6e738"/>
      </g>
      <path id="Trazado_691802" data-name="Trazado 691802" d="M52.69,388.483H42.066a.944.944,0,0,1-.944-.944v-3.088a.944.944,0,0,1,.944-.944H52.69a.944.944,0,0,1,.944.944v3.088A.944.944,0,0,1,52.69,388.483Z" transform="translate(-35.755 -289.989)" fill="#dd636e"/>
      <path id="Trazado_691803" data-name="Trazado 691803" d="M110.507,383.507h-2.889a.944.944,0,0,1,.944.944v3.088a.944.944,0,0,1-.944.944h2.889a.944.944,0,0,0,.944-.944v-3.088A.944.944,0,0,0,110.507,383.507Z" transform="translate(-93.572 -289.989)" fill="#da4a54"/>
      <g id="Grupo_979591" data-name="Grupo 979591" transform="translate(0 49.988)">
        <path id="Trazado_691804" data-name="Trazado 691804" d="M26.464,135.1l2.317,2.068a.979.979,0,0,0,1.3,0L32.4,135.1a.979.979,0,1,0-1.3-1.461l-.687.613v-6.947a.979.979,0,1,0-1.958,0v6.947l-.687-.613a.979.979,0,1,0-1.3,1.461Z" transform="translate(-22.726 -116.366)"/>
        <path id="Trazado_691805" data-name="Trazado 691805" d="M435.685,135.1,438,137.172a.979.979,0,0,0,1.3,0l2.317-2.068a.979.979,0,1,0-1.3-1.461l-.687.613v-6.947a.979.979,0,1,0-1.958,0v6.947l-.687-.613a.979.979,0,1,0-1.3,1.461Z" transform="translate(-378.535 -116.366)"/>
        <path id="Trazado_691806" data-name="Trazado 691806" d="M376.178,277.995h-1.047a.979.979,0,1,0,0,1.958h1.047a.979.979,0,1,0,0-1.958Z" transform="translate(-325.318 -248.236)"/>
        <path id="Trazado_691807" data-name="Trazado 691807" d="M412.959,277.995h-7.716a.979.979,0,0,0,0,1.958h7.716a.979.979,0,0,0,0-1.958Z" transform="translate(-351.5 -248.236)"/>
        <path id="Trazado_691808" data-name="Trazado 691808" d="M376.178,302.527h-1.047a.979.979,0,1,0,0,1.958h1.047a.979.979,0,1,0,0-1.958Z" transform="translate(-325.318 -269.566)"/>
        <path id="Trazado_691809" data-name="Trazado 691809" d="M412.959,302.527h-7.716a.979.979,0,0,0,0,1.958h7.716a.979.979,0,0,0,0-1.958Z" transform="translate(-351.5 -269.566)"/>
        <path id="Trazado_691810" data-name="Trazado 691810" d="M376.178,327.059h-1.047a.979.979,0,1,0,0,1.958h1.047a.979.979,0,1,0,0-1.958Z" transform="translate(-325.318 -290.896)"/>
        <path id="Trazado_691811" data-name="Trazado 691811" d="M412.959,327.059h-7.716a.979.979,0,0,0,0,1.958h7.716a.979.979,0,0,0,0-1.958Z" transform="translate(-351.5 -290.896)"/>
        <path id="Trazado_691812" data-name="Trazado 691812" d="M42.814,380.984a.979.979,0,0,0,0,1.958h3.355a1.925,1.925,0,0,0,1.923-1.923v-3.088a1.925,1.925,0,0,0-1.923-1.923H35.545a1.925,1.925,0,0,0-1.923,1.923v3.088a1.925,1.925,0,0,0,1.923,1.923H38.9a.979.979,0,1,0,0-1.958H35.58v-3.018H46.134v3.018h-3.32Z" transform="translate(-29.234 -333.456)"/>
        <path id="Trazado_691813" data-name="Trazado 691813" d="M65.846,92.54a.979.979,0,0,0,.979-.979V78.178A2.725,2.725,0,0,0,64.1,75.456H51.754q0-.066,0-.132V68.775a1.807,1.807,0,0,1,.223-.868l1.186-2.157a3.781,3.781,0,0,0-.039-3.691l-1.2-2.08A3.781,3.781,0,0,0,48.74,58.1l-2.461-.052a1.808,1.808,0,0,1-.864-.241l-5.671-3.274a1.806,1.806,0,0,1-.64-.627L37.83,51.8a3.782,3.782,0,0,0-3.216-1.812h-2.4A3.781,3.781,0,0,0,29,51.8L27.72,53.906a1.807,1.807,0,0,1-.64.627l-2.064,1.191A.979.979,0,1,0,26,57.42l2.064-1.191a3.771,3.771,0,0,0,1.336-1.308l1.275-2.105a1.813,1.813,0,0,1,1.542-.869h2.4a1.813,1.813,0,0,1,1.542.868L37.43,54.92a3.769,3.769,0,0,0,1.336,1.308L44.437,59.5a3.771,3.771,0,0,0,1.8.5l2.461.052a1.812,1.812,0,0,1,1.523.9l1.2,2.08a1.812,1.812,0,0,1,.019,1.769l-1.186,2.157a3.768,3.768,0,0,0-.465,1.811v6.548q0,.066,0,.132H48.131a2.712,2.712,0,0,0-2.283,1.24L41.48,83.424a.762.762,0,0,1-.641.348H25.987a.761.761,0,0,1-.641-.348L20.978,76.7a2.712,2.712,0,0,0-2.283-1.24H17.032q0-.066,0-.132V68.775a3.768,3.768,0,0,0-.465-1.811l-1.186-2.157a1.812,1.812,0,0,1,.019-1.769l1.2-2.08a1.812,1.812,0,0,1,1.523-.9l2.461-.052a3.769,3.769,0,0,0,1.8-.5l.213-.123a.979.979,0,0,0-.979-1.7l-.214.123a1.808,1.808,0,0,1-.863.241l-2.461.052a3.781,3.781,0,0,0-3.178,1.879l-1.2,2.08a3.781,3.781,0,0,0-.039,3.691l1.186,2.157a1.807,1.807,0,0,1,.223.868v6.548q0,.066,0,.132H2.722A2.725,2.725,0,0,0,0,78.178v22.865a2.725,2.725,0,0,0,2.722,2.722H64.1a2.725,2.725,0,0,0,2.722-2.722V95.475a.979.979,0,1,0-1.958,0v5.568a.765.765,0,0,1-.764.764H2.722a.765.765,0,0,1-.764-.764V78.178a.765.765,0,0,1,.764-.764H18.695a.761.761,0,0,1,.641.348L23.7,84.49a2.712,2.712,0,0,0,2.283,1.24H40.839a2.712,2.712,0,0,0,2.283-1.24l4.368-6.729a.762.762,0,0,1,.641-.348H64.1a.765.765,0,0,1,.764.764V91.561a.979.979,0,0,0,.979.979Z" transform="translate(0 -49.988)"/>
        <path id="Trazado_691814" data-name="Trazado 691814" d="M194.994,166.642a9.249,9.249,0,1,0-7.138-2.69,9.248,9.248,0,0,0,7.138,2.69Zm-7.874-9.7a7.291,7.291,0,1,1,2.12,5.631A7.287,7.287,0,0,1,187.12,156.937Z" transform="translate(-160.983 -135.351)"/>
      </g>
    </g>
  </g>
</svg>
