<svg xmlns="http://www.w3.org/2000/svg" width="100" height="100" viewBox="0 0 100 100">
  <g id="c7" transform="translate(2317 9020)">
    <circle id="Elipse_7862" data-name="Elipse 7862" cx="50" cy="50" r="50" transform="translate(-2317 -9020)" fill="#449c6e"/>
    <g id="data" transform="translate(-2302 -9053.321)">
      <path id="Trazado_691815" data-name="Trazado 691815" d="M7.5,109.961H35.57v31.678H7.5Z" transform="translate(-6.479 -46.34)" fill="#f6f9f9"/>
      <path id="Trazado_691816" data-name="Trazado 691816" d="M192.734,109.96h2.861v31.678h-2.861Z" transform="translate(-166.504 -46.339)" fill="#dae4ea"/>
      <path id="Trazado_691817" data-name="Trazado 691817" d="M7.5,63.821H35.57V70.1H7.5Z" transform="translate(-6.479 -6.479)" fill="#9dc6fb"/>
      <path id="Trazado_691818" data-name="Trazado 691818" d="M192.734,63.821h2.861V70.1h-2.861Z" transform="translate(-166.504 -6.479)" fill="#80b4fb"/>
      <path id="Trazado_691819" data-name="Trazado 691819" d="M298.245,109.961h28.07v31.678h-28.07Z" transform="translate(-257.655 -46.34)" fill="#f6f9f9"/>
      <path id="Trazado_691820" data-name="Trazado 691820" d="M483.48,109.96h2.861v31.678H483.48Z" transform="translate(-417.681 -46.339)" fill="#dae4ea"/>
      <path id="Trazado_691821" data-name="Trazado 691821" d="M298.245,63.821h28.07V70.1h-28.07Z" transform="translate(-257.655 -6.479)" fill="#b3e59f"/>
      <path id="Trazado_691822" data-name="Trazado 691822" d="M483.48,63.821h2.861V70.1H483.48Z" transform="translate(-417.681 -6.479)" fill="#95d6a4"/>
      <path id="Trazado_691823" data-name="Trazado 691823" d="M199.01,392.235h15.512v7.614H199.01Z" transform="translate(-171.926 -290.198)" fill="#dd636e"/>
      <path id="Trazado_691824" data-name="Trazado 691824" d="M295.048,392.235h2.442v7.614h-2.442Z" transform="translate(-254.893 -290.198)" fill="#da4a54"/>
      <g id="Grupo_979593" data-name="Grupo 979593" transform="translate(0 56.321)">
        <path id="Trazado_691825" data-name="Trazado 691825" d="M30.112,95.3V57.342a1.021,1.021,0,0,0-1.021-1.021H9.71a1.021,1.021,0,0,0,0,2.041H28.07V62.6H2.041V58.362H5.629a1.021,1.021,0,0,0,0-2.041H1.021A1.021,1.021,0,0,0,0,57.342V95.3A1.021,1.021,0,0,0,1.021,96.32h28.07A1.021,1.021,0,0,0,30.112,95.3ZM28.07,94.279H2.041V64.642H28.07Z" transform="translate(0 -56.321)"/>
        <path id="Trazado_691826" data-name="Trazado 691826" d="M91.033,81.432a1.021,1.021,0,1,0,0-2.041h-4.9a1.021,1.021,0,0,0,0,2.041Z" transform="translate(-73.524 -76.251)"/>
        <path id="Trazado_691827" data-name="Trazado 691827" d="M32.855,139.353h.294v.294a1.021,1.021,0,0,0,2.041,0v-.294h.294a1.021,1.021,0,1,0,0-2.041H35.19v-.294a1.021,1.021,0,0,0-2.041,0v.294h-.294a1.021,1.021,0,1,0,0,2.041Z" transform="translate(-27.502 -125.153)"/>
        <path id="Trazado_691828" data-name="Trazado 691828" d="M81.112,147.7H93.95a1.021,1.021,0,0,0,0-2.041H81.112a1.021,1.021,0,1,0,0,2.041Z" transform="translate(-69.191 -133.5)"/>
        <path id="Trazado_691829" data-name="Trazado 691829" d="M32.855,188.143h.294v.294a1.021,1.021,0,1,0,2.041,0v-.294h.294a1.021,1.021,0,0,0,0-2.041H35.19v-.294a1.021,1.021,0,0,0-2.041,0v.294h-.294a1.021,1.021,0,0,0,0,2.041Z" transform="translate(-27.502 -167.303)"/>
        <path id="Trazado_691830" data-name="Trazado 691830" d="M81.112,196.489H93.95a1.021,1.021,0,0,0,0-2.041H81.112a1.021,1.021,0,1,0,0,2.041Z" transform="translate(-69.191 -175.65)"/>
        <path id="Trazado_691831" data-name="Trazado 691831" d="M32.855,236.933h.294v.294a1.021,1.021,0,1,0,2.041,0v-.294h.294a1.021,1.021,0,0,0,0-2.041H35.19V234.6a1.021,1.021,0,1,0-2.041,0v.294h-.294a1.021,1.021,0,0,0,0,2.041Z" transform="translate(-27.502 -209.453)"/>
        <path id="Trazado_691832" data-name="Trazado 691832" d="M81.112,245.28H93.95a1.021,1.021,0,1,0,0-2.041H81.112a1.021,1.021,0,1,0,0,2.041Z" transform="translate(-69.191 -217.8)"/>
        <path id="Trazado_691833" data-name="Trazado 691833" d="M32.855,285.723h.294v.294a1.021,1.021,0,1,0,2.041,0v-.294h.294a1.021,1.021,0,0,0,0-2.041H35.19v-.294a1.021,1.021,0,1,0-2.041,0v.294h-.294a1.021,1.021,0,0,0,0,2.041Z" transform="translate(-27.502 -251.603)"/>
        <path id="Trazado_691834" data-name="Trazado 691834" d="M81.112,294.07H93.95a1.021,1.021,0,0,0,0-2.041H81.112a1.021,1.021,0,0,0,0,2.041Z" transform="translate(-69.191 -259.95)"/>
        <path id="Trazado_691835" data-name="Trazado 691835" d="M319.836,56.321h-28.07a1.021,1.021,0,0,0-1.021,1.021V95.3a1.021,1.021,0,0,0,1.021,1.021h28.07a1.021,1.021,0,0,0,1.021-1.021V81.5a1.021,1.021,0,0,0-2.041,0V94.279H292.786V64.642h26.029V77.42a1.021,1.021,0,0,0,2.041,0V57.342A1.021,1.021,0,0,0,319.836,56.321ZM292.786,62.6V58.362h26.029V62.6Z" transform="translate(-251.176 -56.321)"/>
        <path id="Trazado_691836" data-name="Trazado 691836" d="M381.779,79.391h-4.9a1.021,1.021,0,1,0,0,2.041h4.9a1.021,1.021,0,1,0,0-2.041Z" transform="translate(-324.701 -76.251)"/>
        <path id="Trazado_691837" data-name="Trazado 691837" d="M326.229,137.312h-.294v-.294a1.021,1.021,0,0,0-2.041,0v.294H323.6a1.021,1.021,0,1,0,0,2.041h.294v.294a1.021,1.021,0,0,0,2.041,0v-.294h.294a1.021,1.021,0,1,0,0-2.041Z" transform="translate(-278.678 -125.153)"/>
        <path id="Trazado_691838" data-name="Trazado 691838" d="M384.695,145.658H371.857a1.021,1.021,0,0,0,0,2.041h12.838a1.021,1.021,0,0,0,0-2.041Z" transform="translate(-320.367 -133.5)"/>
        <path id="Trazado_691839" data-name="Trazado 691839" d="M326.229,186.1h-.294v-.294a1.021,1.021,0,0,0-2.041,0v.294H323.6a1.021,1.021,0,1,0,0,2.041h.294v.294a1.021,1.021,0,1,0,2.041,0v-.294h.294a1.021,1.021,0,1,0,0-2.041Z" transform="translate(-278.678 -167.303)"/>
        <path id="Trazado_691840" data-name="Trazado 691840" d="M384.695,194.448H371.857a1.021,1.021,0,0,0,0,2.041h12.838a1.021,1.021,0,0,0,0-2.041Z" transform="translate(-320.367 -175.65)"/>
        <path id="Trazado_691841" data-name="Trazado 691841" d="M326.229,234.892h-.294V234.6a1.021,1.021,0,1,0-2.041,0v.294H323.6a1.021,1.021,0,1,0,0,2.041h.294v.294a1.021,1.021,0,1,0,2.041,0v-.294h.294a1.021,1.021,0,1,0,0-2.041Z" transform="translate(-278.678 -209.453)"/>
        <path id="Trazado_691842" data-name="Trazado 691842" d="M384.695,243.239H371.857a1.021,1.021,0,0,0,0,2.041h12.838a1.021,1.021,0,0,0,0-2.041Z" transform="translate(-320.367 -217.8)"/>
        <path id="Trazado_691843" data-name="Trazado 691843" d="M324.914,287.038a1.021,1.021,0,0,0,1.021-1.021v-.294h.294a1.021,1.021,0,0,0,0-2.041h-.294v-.294a1.021,1.021,0,1,0-2.041,0v.294H323.6a1.021,1.021,0,0,0,0,2.041h.294v.294A1.021,1.021,0,0,0,324.914,287.038Z" transform="translate(-278.678 -251.603)"/>
        <path id="Trazado_691844" data-name="Trazado 691844" d="M384.695,292.029H371.857a1.021,1.021,0,0,0,0,2.041h12.838a1.021,1.021,0,0,0,0-2.041Z" transform="translate(-320.367 -259.95)"/>
        <path id="Trazado_691845" data-name="Trazado 691845" d="M227.762,125.33h5.923a1.021,1.021,0,1,0,0-2.041h-5.923a1.021,1.021,0,1,0,0,2.041Z" transform="translate(-195.883 -114.175)"/>
        <path id="Trazado_691846" data-name="Trazado 691846" d="M100.768,375.348a1.021,1.021,0,0,0-1.523,1.359l.866.971H96.556V373.1a1.021,1.021,0,1,0-2.041,0v5.6a1.021,1.021,0,0,0,1.021,1.021h4.575l-.866.971a1.021,1.021,0,1,0,1.523,1.359l2.383-2.671a1.02,1.02,0,0,0,0-1.359Z" transform="translate(-81.652 -329.108)"/>
        <path id="Trazado_691847" data-name="Trazado 691847" d="M360,372.082a1.021,1.021,0,0,0-1.021,1.021v4.576h-3.554l.866-.97a1.021,1.021,0,1,0-1.523-1.359l-2.383,2.671a1.02,1.02,0,0,0,0,1.359l2.383,2.671a1.021,1.021,0,0,0,1.523-1.359l-.866-.971H360a1.021,1.021,0,0,0,1.021-1.021v-5.6A1.021,1.021,0,0,0,360,372.082Z" transform="translate(-304.202 -329.108)"/>
        <path id="Trazado_691848" data-name="Trazado 691848" d="M239.666,413.729a1.021,1.021,0,0,0-1.021-1.021h-4.067a1.021,1.021,0,0,0,0,2.041h4.067A1.021,1.021,0,0,0,239.666,413.729Z" transform="translate(-201.771 -364.206)"/>
        <path id="Trazado_691849" data-name="Trazado 691849" d="M208.044,384.735H192.532a1.021,1.021,0,0,0-1.021,1.021v7.614a1.021,1.021,0,0,0,1.021,1.021h4.795a1.021,1.021,0,1,0,0-2.041h-3.774v-5.572h13.471v5.572h-5.616a1.021,1.021,0,1,0,0,2.041h6.636a1.021,1.021,0,0,0,1.021-1.021v-7.614A1.021,1.021,0,0,0,208.044,384.735Z" transform="translate(-165.447 -340.039)"/>
      </g>
    </g>
  </g>
</svg>
