<svg xmlns="http://www.w3.org/2000/svg" width="100" height="100" viewBox="0 0 100 100">
  <g id="c8" transform="translate(1994 9028)">
    <circle id="Elipse_7863" data-name="Elipse 7863" cx="50" cy="50" r="50" transform="translate(-1994 -9028)" fill="#449c6e"/>
    <g id="dashboard" transform="translate(-1976 -9045.026)">
      <path id="Trazado_691850" data-name="Trazado 691850" d="M77.918,51.143,74.4,55.037l-54.028-.862-2.219-3.032,2.18-3.092a1.235,1.235,0,0,1,1.009-.523H74.729a1.235,1.235,0,0,1,1.009.523Z" transform="translate(-15.869 -6.559)" fill="#9dc6fb"/>
      <path id="Trazado_691851" data-name="Trazado 691851" d="M449.234,48.051a1.235,1.235,0,0,0-1.009-.523h-2.909a1.235,1.235,0,0,1,1.009.523l2.18,3.092,1.025,2.46,1.884-2.46Z" transform="translate(-389.365 -6.559)" fill="#80b4fb"/>
      <path id="Trazado_691852" data-name="Trazado 691852" d="M69.537,125.075H7.908a.408.408,0,0,1-.408-.408V76.712a.408.408,0,0,1,.408-.408H69.537a.408.408,0,0,1,.408.408v47.956A.408.408,0,0,1,69.537,125.075Z" transform="translate(-6.558 -31.72)" fill="#f6f9f9"/>
      <path id="Trazado_691853" data-name="Trazado 691853" d="M483.8,76.3H481.3a.408.408,0,0,1,.408.408v47.956a.408.408,0,0,1-.408.408H483.8a.408.408,0,0,0,.408-.408V76.712A.408.408,0,0,0,483.8,76.3Z" transform="translate(-420.825 -31.72)" fill="#dae4ea"/>
      <path id="Trazado_691854" data-name="Trazado 691854" d="M7.5,76.3H26.805v30.524H7.5Z" transform="translate(-6.558 -31.72)" fill="#dd636e"/>
      <path id="Trazado_691855" data-name="Trazado 691855" d="M139.2,76.3h2.758v30.524H139.2Z" transform="translate(-121.71 -31.72)" fill="#da4a54"/>
      <path id="Trazado_691856" data-name="Trazado 691856" d="M7.5,319.244H26.805v18.247H7.5Z" transform="translate(-6.558 -244.136)" fill="#f9ef63"/>
      <path id="Trazado_691857" data-name="Trazado 691857" d="M139.2,319.244h2.758v18.247H139.2Z" transform="translate(-121.71 -244.136)" fill="#f6e738"/>
      <path id="Trazado_691858" data-name="Trazado 691858" d="M161.149,76.3h17.379v48.771H161.149Z" transform="translate(-140.902 -31.72)" fill="#b3e59f"/>
      <path id="Trazado_691859" data-name="Trazado 691859" d="M277.52,76.3h2.758v48.771H277.52Z" transform="translate(-242.651 -31.72)" fill="#95d6a4"/>
      <circle id="Elipse_7879" data-name="Elipse 7879" cx="3.823" cy="3.823" r="3.823" transform="translate(25.114 48.479)" fill="#738b95"/>
      <path id="Trazado_691860" data-name="Trazado 691860" d="M221.021,107.3a3.813,3.813,0,0,0-1.335.24,3.824,3.824,0,0,1,0,7.166,3.823,3.823,0,1,0,1.335-7.406Z" transform="translate(-192.084 -58.822)" fill="#617881"/>
      <g id="Grupo_979596" data-name="Grupo 979596" transform="translate(45.37 62.944)">
        <g id="Grupo_979595" data-name="Grupo 979595">
          <circle id="Elipse_7880" data-name="Elipse 7880" cx="3.789" cy="3.789" r="3.789" transform="translate(0 2.696)" fill="#738b95"/>
          <path id="Trazado_691861" data-name="Trazado 691861" d="M391.255,228.913l3.327,5.567a6.485,6.485,0,0,0-3.327-12.052v6.485Z" transform="translate(-387.466 -222.428)" fill="#dd636e"/>
        </g>
      </g>
      <g id="Grupo_979597" data-name="Grupo 979597" transform="translate(0 40.026)">
        <path id="Trazado_691862" data-name="Trazado 691862" d="M28.811,120.571h12.3a.942.942,0,0,0,0-1.885h-12.3a.942.942,0,0,0,0,1.885Z" transform="translate(-24.367 -108.803)"/>
        <path id="Trazado_691863" data-name="Trazado 691863" d="M72.9,147.85H65.162a.942.942,0,1,0,0,1.885H72.9a.942.942,0,1,0,0-1.885Z" transform="translate(-56.151 -134.303)"/>
        <path id="Trazado_691864" data-name="Trazado 691864" d="M28.811,149.735h1.844a.942.942,0,0,0,0-1.885H28.811a.942.942,0,0,0,0,1.885Z" transform="translate(-24.367 -134.303)"/>
        <path id="Trazado_691865" data-name="Trazado 691865" d="M28.811,177.577h12.3a.942.942,0,0,0,0-1.885h-12.3a.942.942,0,0,0,0,1.885Z" transform="translate(-24.367 -158.646)"/>
        <path id="Trazado_691866" data-name="Trazado 691866" d="M72.9,204.856H65.162a.942.942,0,1,0,0,1.885H72.9a.942.942,0,1,0,0-1.885Z" transform="translate(-56.151 -184.146)"/>
        <path id="Trazado_691867" data-name="Trazado 691867" d="M28.811,206.741h1.844a.942.942,0,0,0,0-1.885H28.811a.942.942,0,0,0,0,1.885Z" transform="translate(-24.367 -184.146)"/>
        <path id="Trazado_691868" data-name="Trazado 691868" d="M28.811,234.583h12.3a.942.942,0,0,0,0-1.885h-12.3a.942.942,0,0,0,0,1.885Z" transform="translate(-24.367 -208.49)"/>
        <path id="Trazado_691869" data-name="Trazado 691869" d="M72.9,261.862H65.162a.942.942,0,1,0,0,1.885H72.9a.942.942,0,1,0,0-1.885Z" transform="translate(-56.151 -233.99)"/>
        <path id="Trazado_691870" data-name="Trazado 691870" d="M28.811,263.747h1.844a.942.942,0,1,0,0-1.885H28.811a.942.942,0,1,0,0,1.885Z" transform="translate(-24.367 -233.99)"/>
        <path id="Trazado_691871" data-name="Trazado 691871" d="M30.656,345.654H28.811a.942.942,0,0,0,0,1.885h1.844a.942.942,0,0,0,0-1.885Z" transform="translate(-24.367 -307.254)"/>
        <path id="Trazado_691872" data-name="Trazado 691872" d="M72.9,345.654H65.162a.942.942,0,0,0,0,1.885H72.9a.942.942,0,1,0,0-1.885Z" transform="translate(-56.151 -307.254)"/>
        <path id="Trazado_691873" data-name="Trazado 691873" d="M72.9,371.457H65.162a.942.942,0,1,0,0,1.885H72.9a.942.942,0,1,0,0-1.885Z" transform="translate(-56.151 -329.815)"/>
        <path id="Trazado_691874" data-name="Trazado 691874" d="M72.9,397.26H65.162a.942.942,0,0,0,0,1.885H72.9a.942.942,0,1,0,0-1.885Z" transform="translate(-56.151 -352.376)"/>
        <path id="Trazado_691875" data-name="Trazado 691875" d="M72.9,423.063H65.162a.942.942,0,1,0,0,1.885H72.9a.942.942,0,1,0,0-1.885Z" transform="translate(-56.151 -374.937)"/>
        <path id="Trazado_691876" data-name="Trazado 691876" d="M201.912,104.566a4.765,4.765,0,1,0-4.765,4.765A4.771,4.771,0,0,0,201.912,104.566Zm-7.646,0a2.881,2.881,0,1,1,2.881,2.881A2.884,2.884,0,0,1,194.266,104.566Z" transform="translate(-168.209 -92.291)"/>
        <path id="Trazado_691877" data-name="Trazado 691877" d="M179.515,198.1H177.7a.942.942,0,0,0,0,1.885h1.818a.942.942,0,0,0,0-1.885Z" transform="translate(-154.547 -178.242)"/>
        <path id="Trazado_691878" data-name="Trazado 691878" d="M222.2,198.1h-6.841a.942.942,0,0,0,0,1.885H222.2a.942.942,0,1,0,0-1.885Z" transform="translate(-187.477 -178.242)"/>
        <path id="Trazado_691879" data-name="Trazado 691879" d="M179.515,225.973H177.7a.942.942,0,0,0,0,1.885h1.818a.942.942,0,0,0,0-1.885Z" transform="translate(-154.547 -202.61)"/>
        <path id="Trazado_691880" data-name="Trazado 691880" d="M222.2,225.973h-6.841a.942.942,0,0,0,0,1.885H222.2a.942.942,0,1,0,0-1.885Z" transform="translate(-187.477 -202.61)"/>
        <path id="Trazado_691881" data-name="Trazado 691881" d="M179.515,253.843H177.7a.942.942,0,1,0,0,1.885h1.818a.942.942,0,1,0,0-1.885Z" transform="translate(-154.547 -226.978)"/>
        <path id="Trazado_691882" data-name="Trazado 691882" d="M222.2,253.843h-6.841a.942.942,0,1,0,0,1.885H222.2a.942.942,0,1,0,0-1.885Z" transform="translate(-187.477 -226.978)"/>
        <path id="Trazado_691883" data-name="Trazado 691883" d="M179.515,281.713H177.7a.942.942,0,0,0,0,1.885h1.818a.942.942,0,0,0,0-1.885Z" transform="translate(-154.547 -251.346)"/>
        <path id="Trazado_691884" data-name="Trazado 691884" d="M222.2,281.713h-6.841a.942.942,0,0,0,0,1.885H222.2a.942.942,0,1,0,0-1.885Z" transform="translate(-187.477 -251.346)"/>
        <path id="Trazado_691885" data-name="Trazado 691885" d="M179.515,309.583H177.7a.942.942,0,1,0,0,1.885h1.818a.942.942,0,1,0,0-1.885Z" transform="translate(-154.547 -275.715)"/>
        <path id="Trazado_691886" data-name="Trazado 691886" d="M222.2,309.583h-6.841a.942.942,0,1,0,0,1.885H222.2a.942.942,0,1,0,0-1.885Z" transform="translate(-187.477 -275.715)"/>
        <path id="Trazado_691887" data-name="Trazado 691887" d="M179.515,337.454H177.7a.942.942,0,0,0,0,1.885h1.818a.942.942,0,1,0,0-1.885Z" transform="translate(-154.547 -300.084)"/>
        <path id="Trazado_691888" data-name="Trazado 691888" d="M222.2,337.454h-6.841a.942.942,0,0,0,0,1.885H222.2a.942.942,0,1,0,0-1.885Z" transform="translate(-187.477 -300.084)"/>
        <path id="Trazado_691889" data-name="Trazado 691889" d="M179.515,365.323H177.7a.942.942,0,0,0,0,1.885h1.818a.942.942,0,0,0,0-1.885Z" transform="translate(-154.547 -324.451)"/>
        <path id="Trazado_691890" data-name="Trazado 691890" d="M222.2,365.323h-6.841a.942.942,0,0,0,0,1.885H222.2a.942.942,0,1,0,0-1.885Z" transform="translate(-187.477 -324.451)"/>
        <path id="Trazado_691891" data-name="Trazado 691891" d="M179.515,393.193H177.7a.942.942,0,0,0,0,1.885h1.818a.942.942,0,0,0,0-1.885Z" transform="translate(-154.547 -348.82)"/>
        <path id="Trazado_691892" data-name="Trazado 691892" d="M222.2,393.193h-6.841a.942.942,0,0,0,0,1.885H222.2a.942.942,0,1,0,0-1.885Z" transform="translate(-187.477 -348.82)"/>
        <path id="Trazado_691893" data-name="Trazado 691893" d="M179.515,421.063H177.7a.942.942,0,0,0,0,1.885h1.818a.942.942,0,0,0,0-1.885Z" transform="translate(-154.547 -373.188)"/>
        <path id="Trazado_691894" data-name="Trazado 691894" d="M222.2,421.063h-6.841a.942.942,0,0,0,0,1.885H222.2a.942.942,0,1,0,0-1.885Z" transform="translate(-187.477 -373.188)"/>
        <path id="Trazado_691895" data-name="Trazado 691895" d="M353.6,222.355a4.732,4.732,0,0,0,6.3,4.464l.948,1.587a.942.942,0,0,0,1.292.325,7.428,7.428,0,0,0-3.81-13.8.942.942,0,0,0-.942.942v1.848A4.739,4.739,0,0,0,353.6,222.355Zm5.674-5.463a5.542,5.542,0,0,1,2.668,9.667l-2.668-4.464Zm-1.885,2.776v2.686a.943.943,0,0,0,.133.483l1.378,2.306a2.847,2.847,0,0,1-1.511-5.476Z" transform="translate(-309.171 -192.952)"/>
        <path id="Trazado_691896" data-name="Trazado 691896" d="M336.443,349.608l2.345-2.345a.942.942,0,1,0-1.333-1.333L335.386,348h-8.415a.942.942,0,0,0,0,1.885h8.8A.943.943,0,0,0,336.443,349.608Z" transform="translate(-285.066 -307.255)"/>
        <path id="Trazado_691897" data-name="Trazado 691897" d="M328.1,414.546h-1.13a.942.942,0,0,0,0,1.885h1.13a.942.942,0,0,0,0-1.885Z" transform="translate(-285.066 -367.49)"/>
        <path id="Trazado_691898" data-name="Trazado 691898" d="M360.958,414.546H357.52a.942.942,0,0,0,0,1.885h3.438a.942.942,0,0,0,0-1.885Z" transform="translate(-311.776 -367.49)"/>
        <path id="Trazado_691899" data-name="Trazado 691899" d="M328.1,390.29h-1.13a.942.942,0,0,0,0,1.885h1.13a.942.942,0,0,0,0-1.885Z" transform="translate(-285.066 -346.281)"/>
        <path id="Trazado_691900" data-name="Trazado 691900" d="M360.958,390.29H357.52a.942.942,0,0,0,0,1.885h3.438a.942.942,0,0,0,0-1.885Z" transform="translate(-311.776 -346.281)"/>
        <path id="Trazado_691901" data-name="Trazado 691901" d="M376.822,157.306l-2.345,2.345a.942.942,0,0,0,1.333,1.333l2.069-2.069h8.415a.942.942,0,1,0,0-1.885h-8.8A.943.943,0,0,0,376.822,157.306Z" transform="translate(-327.185 -142.329)"/>
        <path id="Trazado_691902" data-name="Trazado 691902" d="M454.891,108.684h1.13a.942.942,0,1,0,0-1.885h-1.13a.942.942,0,1,0,0,1.885Z" transform="translate(-396.913 -98.409)"/>
        <path id="Trazado_691903" data-name="Trazado 691903" d="M405.971,108.684h3.438a.942.942,0,0,0,0-1.885h-3.438a.942.942,0,0,0,0,1.885Z" transform="translate(-354.14 -98.409)"/>
        <path id="Trazado_691904" data-name="Trazado 691904" d="M454.891,132.941h1.13a.942.942,0,1,0,0-1.885h-1.13a.942.942,0,1,0,0,1.885Z" transform="translate(-396.913 -119.619)"/>
        <path id="Trazado_691905" data-name="Trazado 691905" d="M405.971,132.941h3.438a.942.942,0,0,0,0-1.885h-3.438a.942.942,0,0,0,0,1.885Z" transform="translate(-354.14 -119.619)"/>
        <path id="Trazado_691906" data-name="Trazado 691906" d="M63.387,43.642h-.849l-1.9-2.693a2.179,2.179,0,0,0-1.779-.923h-9.2a.942.942,0,1,0,0,1.885h9.2a.293.293,0,0,1,.239.124l1.133,1.607H4.1L5.23,42.035a.293.293,0,0,1,.239-.124H45.892a.942.942,0,1,0,0-1.885H5.47a2.18,2.18,0,0,0-1.779.923l-1.9,2.693H.942A.942.942,0,0,0,0,44.584V93.355a.942.942,0,0,0,.942.942H50.518a.942.942,0,0,0,0-1.885H38.569V54.289a.942.942,0,0,0-1.885,0V92.413H21.19V45.526H36.684v5a.942.942,0,0,0,1.885,0v-5H62.445V92.413h-8.16a.942.942,0,0,0,0,1.885h9.1a.942.942,0,0,0,.942-.942V44.584A.942.942,0,0,0,63.387,43.642ZM1.885,92.413V76.05h17.42V92.413Zm17.42-18.247H1.885V45.526h17.42Z" transform="translate(0 -40.026)"/>
      </g>
    </g>
  </g>
</svg>
