<svg xmlns="http://www.w3.org/2000/svg" width="505" height="76.927" viewBox="0 0 505 76.927">
  <g id="img12" transform="translate(-705 -5903.086)">
    <path id="Trazado_690793" data-name="Trazado 690793" d="M-159.645-204.97q-77.461-.045-154.922-.029a3.079,3.079,0,0,1-.593-.005c-1.262-.253-1.144.633-1.014,1.334.171.926.986.42,1.458.421q38.693.046,77.387.027h14.259q31.786,0,63.572.016c.911,0,1.537-.024,1.348-1.2C-158.328-205.53-159.164-204.97-159.645-204.97Z" transform="translate(1360.979 6142.315)" fill="#449c6e"/>
    <path id="Trazado_690794" data-name="Trazado 690794" d="M-601.1-204.97q-64.168-.046-128.334-.029a6.428,6.428,0,0,1-.742,0c-.578-.066-.693.182-.771.741-.178,1.272.647,1.041,1.364,1.041h64.167q32.232,0,64.464.016c.911,0,1.537-.024,1.349-1.2C-599.785-205.53-600.621-204.97-601.1-204.97Z" transform="translate(1529.132 6142.315)" fill="#449c6e"/>
    <path id="Trazado_690795" data-name="Trazado 690795" d="M-606.7-240.412c1.435,0,2.87,0,4.305,0a.468.468,0,0,0,.5-.419c.055-.21.051-.405-.192-.464-1.511-.369-1.189-1.525-.991-2.5.876-4.3,1.817-8.592,2.765-13.029a5.925,5.925,0,0,1,.356.758c1.4,4.87,3.224,9.6,4.765,14.427a1.522,1.522,0,0,0,1.728,1.273c1.224.017,1.041-.865,1.179-1.468,1.141-4.99,2.222-9.994,3.347-14.988.234-1.039.356-2.184,1.647-2.586.25-.077.319-.365.306-.616s-.243-.273-.434-.275c-1.435-.006-2.87,0-4.305-.006-.28,0-.471.108-.51.4-.026.2,0,.432.218.484,1.684.411,1.095,1.716.911,2.655-.73,3.741-1.589,7.458-2.4,11.2a2.015,2.015,0,0,1-.485-1.061q-2.138-6.363-4.3-12.717c-.13-.379-.078-.958-.72-.963-1.336-.009-2.671,0-4.007,0-.287,0-.464.122-.478.426-.01.2.014.409.24.469,1.766.473,1.055,1.856.865,2.8-.841,4.2-1.823,8.368-2.772,12.544-.249,1.093-.383,2.277-1.689,2.741-.271.1-.293.379-.277.623S-606.9-240.412-606.7-240.412Z" transform="translate(1478.918 6164.692)" fill="#449c6e"/>
    <path id="Trazado_690796" data-name="Trazado 690796" d="M-361.662-222.44c-1.386,0-2.771,0-4.156,0-.26,0-.518.045-.538.356-.011.173.053.486.144.511,1.84.5,1.1,1.888.9,2.914-.711,3.668-1.55,7.311-2.34,10.959-.278-.13-.323-.445-.413-.715-1.433-4.29-2.846-8.588-4.306-12.869-.149-.439-.065-1.167-.888-1.159-1.287.014-2.573,0-3.86.006-.264,0-.512.063-.512.377,0,.172.078.473.174.5,1.8.431,1.114,1.831.923,2.777-.865,4.294-1.873,8.558-2.84,12.832-.229,1.01-.417,2.063-1.585,2.48a.541.541,0,0,0-.331.6c0,.345.285.329.531.329,1.385,0,2.771,0,4.156,0,.28,0,.465-.078.542-.368.053-.2.109-.425-.131-.493-1.774-.5-1.161-1.808-.941-2.9.845-4.178,1.746-8.345,2.66-12.675.159.357.3.609.385.876,1.6,4.805,3.22,9.6,4.766,14.427.293.914.722,1.139,1.652,1.178,1.081.046,1.047-.633,1.19-1.272,1.136-5.092,2.254-10.189,3.407-15.277.224-.99.363-2.084,1.583-2.469a.571.571,0,0,0,.361-.589C-361.122-222.448-361.423-222.44-361.662-222.44Z" transform="translate(1387.348 6149.344)" fill="#449c6e"/>
    <path id="Trazado_690797" data-name="Trazado 690797" d="M-819.611-222.444c-1.336,0-2.672,0-4.008,0-.286,0-.637-.033-.665.38-.011.168.077.474.173.5,1.8.426,1.122,1.815.929,2.768-.9,4.438-1.922,8.851-2.927,13.267a2.517,2.517,0,0,1-1.218,1.934c-.325.156-.681.286-.59.71.127.6.646.317.98.32,2.671.025,5.344.023,8.016.01,1.281-.006,2.869.4,3.759-.2.973-.658.752-2.425,1.193-3.668a.653.653,0,0,0,.055-.288c-.045-.331.466-.825-.193-.963-.449-.095-1-.249-1.336.3a9.676,9.676,0,0,0-.514.895A3.915,3.915,0,0,1-820.225-204a9.854,9.854,0,0,0-2.223.006c-1.076.135-1.118-.363-.913-1.184.369-1.48.691-2.972,1.036-4.458.634-2.731.633-2.705,3.432-2.526.9.058,1.375.4,1.416,1.313.018.4-.158.879.595.915.725.035.919-.272,1.042-.893.249-1.254.589-2.49.851-3.742.075-.359.578-.893-.157-1.074-.5-.123-1.1-.177-1.406.477-.645,1.4-1.873,1.511-3.222,1.6-1.475.1-1.856-.347-1.325-1.716a12.013,12.013,0,0,0,.393-1.876c.807-3.857.809-3.857,4.757-3.838,2.149.011,2.316.141,2.615,2.287.065.466.023.872.7.844.586-.024,1.021-.03,1.14-.8.186-1.211.514-2.4.824-3.783Z" transform="translate(1568.444 6149.343)" fill="#449c6e"/>
    <path id="Trazado_690798" data-name="Trazado 690798" d="M-639.757-240.6q2.449.013,4.9,0c.282,0,.6.042.681-.378.076-.384-.136-.532-.435-.646a1.266,1.266,0,0,1-.939-1.353,8.1,8.1,0,0,1,1.749-3.86c.533-.708,1.572-.229,2.379-.279,1.035-.065,2.077-.021,3.117-.012.282,0,.583-.064.791.246.7,1.038.014,4.608-1.062,5.265-.316.193-.639.311-.535.734.125.5.566.26.863.276.691.037,1.385.012,2.078.011.891,0,1.782.006,2.672,0,.629-.007.9-.6.479-.81-1.725-.862-1.471-2.467-1.58-3.869-.372-4.819-.635-9.646-.957-14.469-.023-.339.228-.937-.369-.95-.961-.021-1.936-.369-2.649.912-2.754,4.947-5.641,9.822-8.508,14.706-.789,1.344-1.392,2.864-2.951,3.593a.55.55,0,0,0-.3.617C-640.285-240.517-639.978-240.6-639.757-240.6Zm11.776-16.729c.134,2.929.234,5.5.381,8.067.04.685-.327.682-.812.677-1.426-.013-2.851,0-4.524,0Z" transform="translate(1492.385 6164.876)" fill="#449c6e"/>
    <path id="Trazado_690799" data-name="Trazado 690799" d="M-621.521-170.677c-1.74-.831-1.47-2.461-1.579-3.862-.372-4.819-.634-9.646-.957-14.47-.023-.338.228-.93-.378-.944-.964-.02-1.936-.355-2.645.923-2.675,4.822-5.474,9.578-8.28,14.327-.864,1.462-1.483,3.156-3.183,3.969a.546.546,0,0,0-.292.621c.059.348.366.259.586.26q2.45.014,4.9,0c.283,0,.615.041.669-.388a.465.465,0,0,0-.305-.578c-1.454-.57-1.142-1.63-.726-2.7,1.117-2.87,1.121-2.868,4.243-2.868h.3c.792,0,1.584-.005,2.375,0,.283,0,.582-.06.788.254.693,1.06.008,4.6-1.076,5.26-.319.2-.6.312-.531.741.042.258.237.273.432.273,1.781,0,3.564.02,5.344-.023C-621.271-169.888-621.187-170.518-621.521-170.677Zm-5.313-7.156c-1.46-.033-2.92-.011-4.6-.011l4.954-8.742c.133,2.919.235,5.456.375,7.991C-626.073-178.013-626.249-177.82-626.835-177.833Z" transform="translate(1491.777 6136.191)" fill="#449c6e"/>
    <path id="Trazado_690800" data-name="Trazado 690800" d="M-843.875-203.561c-1.785-.879-1.468-2.567-1.581-4.011-.373-4.769-.631-9.548-.951-14.322-.023-.338.228-.928-.382-.941-.966-.021-1.935-.347-2.643.928-2.675,4.822-5.474,9.577-8.28,14.327-.863,1.462-1.484,3.155-3.184,3.968a.541.541,0,0,0-.288.622c.063.347.37.254.589.256q2.45.014,4.9,0c.284,0,.615.039.666-.392a.467.467,0,0,0-.311-.576c-1.454-.573-1.136-1.633-.72-2.7,1.118-2.866,1.122-2.865,4.245-2.865h.3c.792,0,1.584-.005,2.375,0,.283,0,.582-.058.785.257.713,1.1-.03,4.5-1.223,5.31a.668.668,0,0,0-.383.691c.029.262.239.269.432.269,1.781,0,3.564.021,5.344-.024C-843.619-202.771-843.536-203.394-843.875-203.561Zm-5.3-7.152c-1.46-.034-2.922-.011-4.6-.011l4.954-8.742c.133,2.916.236,5.452.375,7.986C-848.423-210.906-848.586-210.7-849.179-210.713Z" transform="translate(1581.931 6149.523)" fill="#449c6e"/>
    <path id="Trazado_690801" data-name="Trazado 690801" d="M-397.709-203.567c-1.754-.919-1.437-2.589-1.55-4.035-.372-4.769-.631-9.548-.948-14.322-.023-.339.208-.91-.416-.916-.973-.01-1.923-.3-2.628.966-2.873,5.163-5.883,10.251-8.872,15.349-.642,1.095-1.211,2.287-2.473,2.862a.581.581,0,0,0-.377.709c.082.339.4.221.612.222q2.375.02,4.75,0c.322,0,.713.1.788-.424.057-.4-.212-.5-.483-.618a1.3,1.3,0,0,1-.88-1.527,8.177,8.177,0,0,1,1.765-3.7c.57-.683,1.678-.2,2.542-.251.937-.055,1.88-.021,2.82-.007.325,0,.688-.11.919.284.688,1.175-.056,4.44-1.274,5.293a.628.628,0,0,0-.337.711c.071.345.382.232.6.237.791.014,1.583.005,2.375,0,.891,0,1.782.014,2.672-.007C-397.426-202.749-397.306-203.356-397.709-203.567Zm-5.218-7.145c-1.473-.023-2.945-.008-4.66-.008l4.956-8.739c.134,2.935.241,5.508.378,8.079C-402.224-210.843-402.427-210.7-402.927-210.712Z" transform="translate(1401.014 6149.518)" fill="#449c6e"/>
    <path id="Trazado_690802" data-name="Trazado 690802" d="M-654.85-189.272a21.29,21.29,0,0,0-4.708-.288c-1.592,0-2.877,0-4.162,0-.285,0-.636-.033-.665.379-.012.167.073.472.171.5,1.88.479,1.1,1.926.9,2.908-.86,4.29-1.872,8.549-2.835,12.817-.219.969-.441,1.949-1.532,2.354a.533.533,0,0,0-.345.579c0,.349.263.353.514.353,1.681,0,3.362-.007,5.042.006a.533.533,0,0,0,.589-.512c.071-.372-.226-.37-.451-.419-1.035-.222-1.159-.966-1-1.813.3-1.595.7-3.172.946-4.773.122-.787.471-.917,1.18-.907a30.928,30.928,0,0,0,3.4-.161,6.566,6.566,0,0,0,6.146-7.133A3.852,3.852,0,0,0-654.85-189.272Zm-3.278,9.5c-3.509.879-3.8.611-3.048-2.793.287-1.293.681-2.572.846-3.88s.623-2.041,1.787-1.665c2.7.042,3.7.746,3.92,2.572A5.112,5.112,0,0,1-658.128-179.769Z" transform="translate(1503.608 6136.011)" fill="#449c6e"/>
    <path id="Trazado_690803" data-name="Trazado 690803" d="M-668.838-259.344c1.181.492,1.227,1.585,1.292,2.608.326,5.071.671,10.142.886,15.219.054,1.264.564,1.412,1.608,1.387.809-.02.951-.6,1.228-1.08,2.825-4.853,5.615-9.727,8.461-14.568.786-1.338,1.347-2.892,2.926-3.606a.559.559,0,0,0,.313-.61c-.029-.35-.32-.307-.554-.308q-2.45-.007-4.9,0c-.3,0-.616.005-.7.385-.052.249-.029.453.286.565,1.5.536,1.249,1.672.723,2.664-2.183,4.115-4.446,8.188-6.68,12.277l-.7-.121c0-3.993-.011-7.986.007-11.979,0-1.161-.2-2.45,1.376-2.9.26-.074.307-.367.287-.617s-.252-.267-.442-.268c-1.732-.005-3.465,0-5.2-.008a.492.492,0,0,0-.533.4A.424.424,0,0,0-668.838-259.344Z" transform="translate(1504.071 6164.696)" fill="#449c6e"/>
    <path id="Trazado_690804" data-name="Trazado 690804" d="M-681.531-189.555q-2.6,0-5.2,0a.475.475,0,0,0-.534.4.428.428,0,0,0,.316.552c1.285.451,1.272,1.422.8,2.4-2.054,4.29-4.556,8.335-6.8,12.52l-.668-.131c0-3.945-.011-7.89.007-11.836.005-1.2-.25-2.553,1.392-3.041.256-.076.294-.375.262-.625-.034-.276-.279-.244-.461-.245-1.732-.008-3.465,0-5.2-.007a.488.488,0,0,0-.517.42c-.07.284.06.435.331.552,1.169.5,1.208,1.6,1.273,2.622.325,5.071.657,10.142.892,15.218.052,1.118.392,1.408,1.475,1.376.863-.025,1.062-.578,1.37-1.109,2.819-4.857,5.609-9.73,8.455-14.572.786-1.338,1.353-2.889,2.935-3.6a.552.552,0,0,0,.291-.618C-681.129-189.528-681.332-189.555-681.531-189.555Z" transform="translate(1515.822 6136.011)" fill="#449c6e"/>
    <path id="Trazado_690805" data-name="Trazado 690805" d="M-426.291-222.209c-.046-.284-.293-.225-.468-.225q-2.524-.014-5.048,0c-.242,0-.515.014-.592.319-.059.232-.125.477.2.6,1.908.741,1.137,2.077.562,3.162-2.1,3.955-4.3,7.858-6.463,11.781l-.28-.074c-.136-4.175-.284-8.351-.4-12.528-.028-1.013.07-2.012,1.314-2.347a.539.539,0,0,0,.358-.583c0-.332-.286-.338-.535-.338q-2.524,0-5.048,0c-.263,0-.482.047-.58.335-.122.357.029.511.356.659,1.084.493,1.153,1.533,1.216,2.51.324,5.022.6,10.047.939,15.067.036.539-.4,1.42.6,1.555a1.836,1.836,0,0,0,2.19-.949c2.938-5.242,5.992-10.419,9.019-15.61a5.34,5.34,0,0,1,2.3-2.614A.584.584,0,0,0-426.291-222.209Z" transform="translate(1412.497 6149.343)" fill="#449c6e"/>
    <path id="Trazado_690806" data-name="Trazado 690806" d="M-718.177-189.572c-2.275,0-4.549-.005-6.823.007-.311,0-.745-.149-.836.35-.03.166.049.5.134.517,1.9.449,1.136,1.9.938,2.888-.872,4.339-1.89,8.648-2.867,12.966-.208.921-.455,1.844-1.485,2.223a.535.535,0,0,0-.366.565c-.007.339.228.377.491.377,1.681,0,3.362-.007,5.043.005a.539.539,0,0,0,.609-.491c.075-.364-.193-.389-.428-.438-1.146-.235-1.166-1.067-.993-1.944.371-1.881.815-3.749,1.161-5.634.128-.7.46-.882,1.1-.831a12.861,12.861,0,0,0,1.631.008c1.1-.053,1.7.365,1.609,1.54-.038.5-.048.971.727.97.645,0,.853-.287.968-.842.3-1.445.659-2.877.938-4.325.066-.344.641-.873-.1-1.078-.489-.135-1.14-.246-1.4.441-.75,1.966-2.409,1.879-4.071,1.875-.709,0-.844-.284-.7-.9.244-1.054.444-2.118.676-3.175.8-3.661.806-3.661,4.636-3.62,1.922.021,2.189.247,2.416,2.163.059.5-.011.988.751.969.605-.015.992-.071,1.1-.824.181-1.209.523-2.394.837-3.758Z" transform="translate(1528.527 6136.02)" fill="#449c6e"/>
    <path id="Trazado_690807" data-name="Trazado 690807" d="M-875.648-222.819c-.345-.026-.691-.036-1.039-.054a8.837,8.837,0,0,0-8.286,4.726,19.728,19.728,0,0,0-2.675,9.267c-.2,3.775,1.637,6.083,5.051,6.35a19.646,19.646,0,0,0,2.955-.138c3.445-.253,3.464-.254,4.055-3.617.062-.351.676-.97-.151-1.186a1.192,1.192,0,0,0-1.591.653,4.855,4.855,0,0,1-1.439,1.854,4.02,4.02,0,0,1-4.016.788c-1.462-.5-1.782-1.779-1.91-3.069a17.172,17.172,0,0,1,.828-6.409,13.336,13.336,0,0,1,3.5-6.391c2.422-2.254,4.726-1.68,5.689,1.442.172.558.474.524.861.533.454.01.773-.009.971-.609C-871.737-222.044-872.055-222.549-875.648-222.819Z" transform="translate(1592.663 6149.52)" fill="#449c6e"/>
    <path id="Trazado_690808" data-name="Trazado 690808" d="M-322.839-198.4c-.593.021-1.2-.062-1.78.017-1.158.159-1.458-.266-1.449-1.426.056-7.7,0-15.4.061-23.1.009-1.18-.48-1.212-1.385-1.215s-1.407.045-1.383,1.219c.084,4.1.033,8.193.033,12.29,0,4.146-.011,8.293.015,12.439,0,.435-.372,1.173.609,1.166,1.782-.011,3.565-.02,5.347.007.55.008.649-.232.641-.707C-322.139-198.212-322.336-198.417-322.839-198.4Z" transform="translate(1366.065 6150.024)" fill="#449c6e"/>
    <path id="Trazado_690809" data-name="Trazado 690809" d="M-42.815-210.459q0-6,0-11.994c0-.922.225-1.754-1.322-1.735-1.419.017-1.41.618-1.4,1.666.034,6.96.022,13.92.013,20.88,0,1.027.3,2.313-.2,3.008-.473.658-1.84.133-2.809.214a.768.768,0,0,1-.148,0c-.614-.067-.724.269-.744.8-.023.623.348.586.76.585,1.584,0,3.172-.066,4.751.023.954.053,1.136-.273,1.125-1.156C-42.841-202.266-42.815-206.363-42.815-210.459Z" transform="translate(1252.794 6150.051)" fill="#449c6e"/>
    <path id="Trazado_690810" data-name="Trazado 690810" d="M-280.334-171.107a2.647,2.647,0,0,1-.444-.024c-2.67-.313-2.955-.633-2.96-3.351q-.006-3.4,0-6.805h.047c0-2.564-.054-5.13.024-7.692.037-1.217-.468-1.281-1.3-.806-1.969,1.125-3.9,2.318-5.863,3.45-.625.36-.435.693-.185,1.193.364.728.709.244,1.047.06.649-.353,1.272-.75,1.917-1.108,1-.554,1.537-.185,1.542.886q.029,5.991-.02,11.983a1.86,1.86,0,0,1-1.907,2.023c-.492.037-.98.152-1.472.172s-.7.184-.688.706c.008.634.429.548.807.548q4.673.006,9.347,0c.382,0,.8.079.8-.552C-279.633-170.953-279.847-171.132-280.334-171.107Z" transform="translate(1350.843 6136.213)" fill="#449c6e"/>
    <path id="Trazado_690811" data-name="Trazado 690811" d="M-62.617-171.111a3.36,3.36,0,0,1-.444-.032c-2.493-.306-2.816-.665-2.823-3.178-.007-2.367,0-4.734,0-7.1h.046c0-2.514-.055-5.031.024-7.544.038-1.2-.445-1.3-1.29-.823-1.97,1.122-3.9,2.316-5.863,3.448-.614.354-.46.681-.2,1.191.359.709.7.272,1.046.077.515-.291,1-.638,1.519-.916,1.513-.807,1.948-.568,1.958,1.118.018,3.205.006,6.41.006,9.615,0,3.472,0,3.483-3.4,4.124-.456.086-.7.168-.7.7,0,.627.41.56.8.561q4.674,0,9.347,0c.375,0,.787.1.816-.539C-61.753-171.083-62.136-171.117-62.617-171.111Z" transform="translate(1262.511 6136.212)" fill="#449c6e"/>
    <path id="Trazado_690812" data-name="Trazado 690812" d="M-234-255.831c.519-.281,1-.636,1.52-.913,1.5-.8,1.935-.547,1.944,1.145.018,3.205.006,6.41.006,9.616,0,3.428,0,3.441-3.42,4.107-.469.092-.694.2-.681.717.012.5.29.545.665.545q4.822,0,9.644,0c.389,0,.658-.071.644-.562-.011-.4-.073-.672-.549-.672a6.715,6.715,0,0,1-.887-.064c-2.31-.309-2.649-.689-2.658-3.026-.009-2.367,0-4.734,0-7.1h.046c0-2.564-.053-5.13.023-7.692.036-1.224-.478-1.271-1.3-.8-1.968,1.126-3.9,2.318-5.863,3.451-.63.363-.424.7-.177,1.194C-234.686-255.149-234.339-255.65-234-255.831Z" transform="translate(1328.153 6164.897)" fill="#449c6e"/>
    <path id="Trazado_690813" data-name="Trazado 690813" d="M-236.154-177.966c-1.879.042-3.762-.039-5.64.034-1.005.04-1.391-.2-1.343-1.287.09-2.018-.019-4.046.046-6.067.029-.892-.316-1.055-1.115-1.053s-1.156.172-1.128,1.062c.061,1.971-.04,3.949.042,5.919.045,1.073-.212,1.5-1.377,1.43-1.825-.1-3.662.011-5.491-.043-.809-.024-1.125.163-1.1,1.04.021.8.171,1.139,1.06,1.106,1.829-.067,3.664.042,5.491-.043,1.076-.051,1.487.2,1.426,1.364-.1,1.968.027,3.948-.052,5.919-.04,1.012.42,1.064,1.234,1.1.957.043,1.037-.4,1-1.149-.044-.985-.011-1.973-.011-2.96,0-1.086.045-2.173-.015-3.256-.042-.765.189-1.033.985-1.013,1.978.051,3.96-.025,5.937.035.9.027,1.06-.334,1.066-1.128S-235.381-177.984-236.154-177.966Z" transform="translate(1335.44 6134.704)" fill="#449c6e"/>
    <path id="Trazado_690814" data-name="Trazado 690814" d="M-196.217-246.568c1.928-.059,3.86.018,5.788-.035.839-.023,1.119.229,1.095,1.084-.058,2.021.012,4.046-.033,6.068-.018.825.1,1.239,1.1,1.234.947,0,1.163-.3,1.136-1.181-.061-2.021.033-4.047-.043-6.067-.034-.936.266-1.172,1.165-1.141,1.878.065,3.762-.022,5.64.038.893.028,1.193-.222,1.2-1.151.008-.975-.483-.995-1.2-.986-1.93.023-3.861-.021-5.79.022-.768.017-1.058-.218-1.012-1.006.061-1.033.015-2.071.015-3.108,0-1.085-.061-2.175.018-3.255.068-.927-.372-1.013-1.135-1.03-.837-.018-1.127.227-1.1,1.084.055,2.071-.014,4.145.033,6.216.02.833-.24,1.125-1.094,1.1-1.929-.054-3.861.023-5.789-.036-.838-.026-1.084.225-1.081,1.064S-197.071-246.542-196.217-246.568Z" transform="translate(1312.749 6163.388)" fill="#449c6e"/>
    <path id="Trazado_690815" data-name="Trazado 690815" d="M-248.12-234.986c.375.128.916.806,1.278-.194.295-.813-.21-.925-.7-1.136a8.327,8.327,0,0,1-4.365-4.6,18.883,18.883,0,0,1-1.3-8.683c.257-4.688,1.161-9.054,6.146-11.168.413-.174.466-.441.264-.824-.15-.284-.129-.729-.652-.568a10.093,10.093,0,0,0-5.441,3.618c-3.57,4.96-3.747,10.431-2.147,16.056A10.491,10.491,0,0,0-248.12-234.986Z" transform="translate(1336.551 6165.459)" fill="#449c6e"/>
    <path id="Trazado_690816" data-name="Trazado 690816" d="M-126.042-260.564a8.161,8.161,0,0,1,4.373,4.583,19.907,19.907,0,0,1,1.145,10.442c-.524,4.022-1.749,7.608-5.882,9.369-.614.262-.439.665-.3,1.093.154.468.438.375.813.251a10.52,10.52,0,0,0,4.082-2.312c3.229-3.089,4.093-7.062,4.2-11.306a18.2,18.2,0,0,0-.58-4.837c-1.064-4.013-3.148-7.2-7.283-8.639-.443-.155-.98-.68-1.314.211C-127.074-260.941-126.55-260.784-126.042-260.564Z" transform="translate(1284.191 6165.469)" fill="#449c6e"/>
    <path id="Trazado_690817" data-name="Trazado 690817" d="M-303.515-189.989c.529-.208.4-.529.264-.948-.168-.523-.4-.541-.873-.383a10.6,10.6,0,0,0-5.181,3.508c-2.312,2.981-3.051,6.439-3.066,10.491a19.682,19.682,0,0,0,.451,4.165c1.06,4.17,3.137,7.523,7.484,8.968.375.125.832.675,1.161-.2.289-.77-.13-.933-.655-1.158a8.3,8.3,0,0,1-4.435-4.714,20.642,20.642,0,0,1-1.078-10.895C-308.921-185.011-307.528-188.408-303.515-189.989Z" transform="translate(1359.405 6136.759)" fill="#449c6e"/>
    <path id="Trazado_690818" data-name="Trazado 690818" d="M-181.28-191.142c-.426-.157-1.055-.854-1.46.137-.358.875.339.978.851,1.211a8.2,8.2,0,0,1,4.188,4.379,19.305,19.305,0,0,1,1.279,10.138c-.483,4.206-1.643,8.051-6.063,9.887-.526.218-.3.646-.19,1.015.139.452.408.411.8.279a10.66,10.66,0,0,0,4.085-2.308c3.235-3.084,4.1-7.055,4.213-11.3a18.489,18.489,0,0,0-.575-4.837C-175.186-186.5-177.244-189.659-181.28-191.142Z" transform="translate(1306.885 6136.808)" fill="#449c6e"/>
    <path id="Trazado_690819" data-name="Trazado 690819" d="M-593.625-160.375c-.3-1.354-1.427-1.778-2.651-2.007a39.465,39.465,0,0,0-6.216-.181c-.507-.014-.835.544-.434.706,1.472.593.773,1.648.609,2.484-.483,2.461-1.081,4.9-1.655,7.344-.177.75-.231,1.594-1.139,1.929a.469.469,0,0,0-.288.6c.075.345.383.235.6.238,1.088.013,2.177.008,3.265,0,.238,0,.508.032.6-.285.1-.366-.068-.525-.416-.612-.678-.169-.589-.727-.51-1.2.129-.775.324-1.54.5-2.306.136-.579-.014-1.337,1.009-1.3.9.03,1.7.13,1.991,1.137.222.755.426,1.515.617,2.279.617,2.454.817,2.6,3.259,2.295.284-.035.617.048.642-.4a.446.446,0,0,0-.382-.52c-1.033-.292-1.218-1.191-1.431-2.058a6.143,6.143,0,0,0-1.4-3.068,9.347,9.347,0,0,0,2.135-1.1A3.694,3.694,0,0,0-593.625-160.375Zm-4.136,3.859a3.386,3.386,0,0,1-.416.14c-2.54.587-2.727.408-2.15-2.076.144-.621.3-1.238.462-1.856.268-1.045.269-1.045,1.555-1.02.982.14,2.267.1,2.588,1.644A2.826,2.826,0,0,1-597.761-156.516Z" transform="translate(1478.223 6125.077)" fill="#449c6e"/>
    <path id="Trazado_690820" data-name="Trazado 690820" d="M-150.538-247.558a4.763,4.763,0,0,1,.63-.624c.483-.37.917-1.054,1.638-.622.621.372.339,1.064.325,1.633a3.879,3.879,0,0,1-.158.718c-.731,3.252-1.463,6.5-2.209,9.818a7.84,7.84,0,0,1,.959.07c1.431.292,1.979-.33,2.132-1.731a42.264,42.264,0,0,1,.882-4.179,9.927,9.927,0,0,1,3.269-5.64c.885-.757,1.79-1.046,2.239.422.235.768.785.368,1.2.452.527.107.644-.235.711-.678a9.408,9.408,0,0,1,.392-1.722c.308-.874-.016-1.1-.868-1.159-2.633-.184-4.358,1.249-6,3.3-.19-2.818-.975-3.653-2.921-3.233a6.862,6.862,0,0,0-3.24,2.228c-.394.389-.055.6.17.843C-151.133-247.383-150.877-247.179-150.538-247.558Z" transform="translate(1294.274 6160.854)" fill="#449c6e"/>
    <path id="Trazado_690821" data-name="Trazado 690821" d="M-282.5-248.455c.439-.158.794-.673,1.322-.405s.438.834.406,1.319a6.724,6.724,0,0,1-.17,1.015q-1,4.458-2.011,8.913c-.071.316-.334.661-.049.953.542.557,2.571-.068,2.744-.842q.53-2.373,1.014-4.757a10.018,10.018,0,0,1,3.373-5.9c.851-.715,1.747-.955,2.153.4.231.77.731.451,1.153.527.606.109.735-.257.8-.756a7.328,7.328,0,0,1,.354-1.58c.354-.942.005-1.178-.92-1.235-2.624-.162-4.319,1.315-6.047,3.446.051-1.437.22-2.633-1-3.2a3.252,3.252,0,0,0-3.45.629c-.159.117-.371.21-.457.369-.335.62-1.841.795-.98,1.822C-283.344-246.655-283.114-248.235-282.5-248.455Z" transform="translate(1348.113 6160.854)" fill="#449c6e"/>
    <path id="Trazado_690822" data-name="Trazado 690822" d="M-195.887-180.045c-2.63-.186-4.34,1.278-6,3.334-.108-2.754-.771-3.539-2.624-3.3-1.535.2-2.5,1.289-3.523,2.287-.31.3-.088.5.108.737.76.918,1.039-.059,1.466-.375.5-.373.973-1.069,1.64-.751.775.369.423,1.208.392,1.871a3.449,3.449,0,0,1-.142.572q-1.01,4.455-2.014,8.912c-.066.3-.363.637.071.9a2.041,2.041,0,0,0,2.714-1.142c.322-1.489.652-2.976.948-4.469a10.049,10.049,0,0,1,3.348-5.918c.825-.7,1.743-1.031,2.171.335.265.844.813.489,1.274.562.7.109.614-.46.71-.858a15.621,15.621,0,0,1,.371-1.577C-194.65-179.838-195.084-179.988-195.887-180.045Z" transform="translate(1317.163 6132.159)" fill="#449c6e"/>
    <path id="Trazado_690823" data-name="Trazado 690823" d="M-553.052-149.289c-.338.288-.684.683-1.159.436-.616-.319-.254-.855-.162-1.31.329-1.639.785-3.263.97-4.918.265-2.37-1.379-3.412-3.6-2.432a12.39,12.39,0,0,0-2.293,1.837c-.314-1.988-1.266-2.619-2.909-1.939a5.816,5.816,0,0,0-1.878,1.416c-.219.224-.4.433-.062.71.255.207.456.574.847.194a8.319,8.319,0,0,1,.66-.595c.271-.213.563-.455.935-.285.4.183.312.581.286.9a9.5,9.5,0,0,1-.223,1.307q-.721,3.235-1.459,6.475c2.131.31,2.13.31,2.551-1.652.207-.962.4-1.926.637-2.882a6.513,6.513,0,0,1,1.839-3.311c.584-.549,1.248-1.225,2.055-.825.9.444.5,1.385.348,2.132-.307,1.492-.779,2.958-.974,4.462-.248,1.92,1.1,2.893,2.889,2.165a4.9,4.9,0,0,0,1.46-.985c.293-.277,1.009-.487.507-1.145C-552.362-150.282-552.679-149.607-553.052-149.289Z" transform="translate(1461.566 6123.166)" fill="#449c6e"/>
    <path id="Trazado_690824" data-name="Trazado 690824" d="M-105.924-260.075c.221.158.381.512.732.219.189-.159.362-.336.554-.491.339-.275.7-.7,1.159-.419.442.268.26.794.216,1.219a8.732,8.732,0,0,1-.2,1.01c-.426,1.87-.873,3.736-1.265,5.614-.061.294-.445.868.228.93.865.08,1.868.345,2.036-1.09a33.293,33.293,0,0,1,.722-3.465,6.484,6.484,0,0,1,1.9-3.439c.586-.541,1.236-1.2,2.061-.769s.473,1.318.331,2.015c-.3,1.492-.785,2.955-1,4.458-.289,2.064,1.171,3.065,3.06,2.175a4.969,4.969,0,0,0,1.322-.93c.293-.284.983-.5.439-1.155s-.82-.093-1.166.213c-.364.323-.733.795-1.269.481-.579-.338-.2-.881-.108-1.334.317-1.591.7-3.171.956-4.772.146-.921.172-1.93-.81-2.5a3.035,3.035,0,0,0-2.965.06,9.838,9.838,0,0,0-2.128,1.806c-.315-2.182-1.582-2.818-3.33-1.766a11.936,11.936,0,0,0-1.481,1.217C-106.208-260.55-106.251-260.31-105.924-260.075Z" transform="translate(1275.793 6165.583)" fill="#449c6e"/>
    <path id="Trazado_690825" data-name="Trazado 690825" d="M-150.892-180.088c-.373.24-.727.622-1.185.294-.386-.278-.187-.694-.11-1.085a36.144,36.144,0,0,0,1.058-5.351c.083-1.905-.861-2.674-2.764-2.423-1.389.183-2.169,1.24-3.135,2.085-.419-2.265-1.795-2.81-3.678-1.505a6,6,0,0,0-.9.76c-.266.276-.788.486-.231,1.028.518.5.744.093,1.077-.179.4-.331.838-.942,1.382-.535.456.342.232,1.026.119,1.541-.445,2.017-.959,4.019-1.378,6.041-.074.355-.579,1.1.25,1.132.615.026,1.625.633,1.848-.706.21-1.259.543-2.5.826-3.744a6.331,6.331,0,0,1,2.659-4.108,1.245,1.245,0,0,1,1.384-.171c.459.269.42.754.38,1.194a9.679,9.679,0,0,1-.209,1.159c-.311,1.441-.748,2.866-.913,4.323-.2,1.784,1.026,2.689,2.721,2.1a4.043,4.043,0,0,0,1.492-.921c.329-.328,1.279-.564.562-1.341C-150.3-181.219-150.515-180.33-150.892-180.088Z" transform="translate(1298.471 6135.689)" fill="#449c6e"/>
    <path id="Trazado_690826" data-name="Trazado 690826" d="M-762.072-210.238q-7.77.021-15.54,0c-.822,0-1.356,0-1.337,1.131.018,1.057.514,1.051,1.272,1.045,2.565-.024,5.131-.009,7.7-.009,2.615,0,5.23-.015,7.844.009.815.008,1.391.015,1.366-1.129C-760.8-210.251-761.319-210.24-762.072-210.238Z" transform="translate(1548.584 6144.395)" fill="#449c6e"/>
    <path id="Trazado_690827" data-name="Trazado 690827" d="M-476.511-210.254q-8.066.054-16.132,0c-.857-.006-.954.344-.955,1.051,0,.742.073,1.166,1.009,1.145,2.663-.06,5.328-.021,7.992-.021s5.328-.02,7.992.014c.778.01,1.174-.14,1.143-1.045C-475.488-209.884-475.608-210.26-476.511-210.254Z" transform="translate(1432.885 6144.401)" fill="#449c6e"/>
    <path id="Trazado_690828" data-name="Trazado 690828" d="M-476.658-200.06c-5.291.014-10.583.026-15.874-.011-.842-.006-1.071.235-1.07,1.065s.235,1.088,1.08,1.071c2.669-.051,5.34-.019,8.011-.018,2.621,0,5.243-.038,7.862.021.913.02,1.171-.241,1.184-1.157C-475.451-200.078-475.955-200.062-476.658-200.06Z" transform="translate(1432.887 6140.272)" fill="#449c6e"/>
    <path id="Trazado_690829" data-name="Trazado 690829" d="M-761.818-200.067c-2.62.032-5.241.013-7.863.013-2.769,0-5.539.039-8.307-.021-.911-.02-.887.431-.9,1.078-.01.681.052,1.068.928,1.062q8.084-.06,16.17,0c.959.008.977-.441,1.011-1.167C-760.734-199.935-761.1-200.075-761.818-200.067Z" transform="translate(1548.558 6140.274)" fill="#449c6e"/>
    <path id="Trazado_690830" data-name="Trazado 690830" d="M-105.994-172.258q-7.86.029-15.72,0c-.74,0-1.168.042-1.151.993.015.9.235,1.181,1.164,1.159,2.618-.064,5.239-.023,7.859-.023s5.24-.021,7.86.014c.806.011,1.253-.071,1.266-1.084C-104.7-172.259-105.221-172.261-105.994-172.258Z" transform="translate(1282.568 6128.996)" fill="#449c6e"/>
    <path id="Trazado_690831" data-name="Trazado 690831" d="M-575.027-141.586c-1.468,0-1.853-.794-1.762-2.1.071-1.032.014-2.072.014-3.109h.04c0-1.284-.019-2.567.008-3.85.014-.657-.187-1-.859-.678-1.331.646-2.637,1.342-3.957,2.008-.335.169-.407.356-.19.691.194.3.312.642.77.356.334-.209.686-.389,1.028-.585.882-.5,1.263-.24,1.246.761-.024,1.382-.084,2.77.015,4.145.108,1.493-.289,2.416-1.973,2.364-.4-.012-.831.025-.753.623.071.545.507.364.807.366,1.832.016,3.664.026,5.5-.007.37-.007,1,.3,1.043-.428S-574.645-141.587-575.027-141.586Z" transform="translate(1468.671 6120.558)" fill="#449c6e"/>
  </g>
</svg>
