<svg xmlns="http://www.w3.org/2000/svg" width="124" height="124" viewBox="0 0 124 124">
  <g id="Grupo_979535" data-name="Grupo 979535" transform="translate(-738 -4186)">
    <circle id="Elipse_7831" data-name="Elipse 7831" cx="50.5" cy="50.5" r="50.5" transform="translate(751 4198)" fill="#449c6e"/>
    <rect id="Rectángulo_341715" data-name="Rectángulo 341715" width="124" height="124" transform="translate(738 4186)" fill="none"/>
    <path id="Trazado_691697" data-name="Trazado 691697" d="M48.5,73H13.773V65.48l16-16.816q5.913-6.733,5.913-10.7a7.441,7.441,0,0,0-1.4-4.888A5,5,0,0,0,30.214,31.4a5.066,5.066,0,0,0-4.272,2.239A9.2,9.2,0,0,0,24.3,39.23H12.748a16.343,16.343,0,0,1,2.29-8.459A16.059,16.059,0,0,1,21.4,24.7a18.885,18.885,0,0,1,9.092-2.187q8.066,0,12.424,3.726t4.358,10.7a15.535,15.535,0,0,1-1.094,5.725,25.107,25.107,0,0,1-3.4,5.845A85.669,85.669,0,0,1,35.341,56.7l-6.426,7.417H48.5Z" transform="translate(771 4198)" fill="#fff"/>
  </g>
</svg>
