<svg xmlns="http://www.w3.org/2000/svg" width="504.003" height="548.466" viewBox="0 0 504.003 548.466">
  <g id="Hero_Image" data-name="Hero Image" transform="translate(0)">
    <path id="Path" d="M251.33,108.142,188.5,144.415,0,35.622V29.39L62.807,0,251.33,101.91Z" transform="translate(252.673 231.692)" fill="#3a61ef"/>
    <path id="Path-2" data-name="Path" d="M251.33,108.142,188.5,144.415,0,35.622,62.807,0Z" transform="translate(252.673 225.46)" fill="#d4dfff"/>
    <path id="Path-3" data-name="Path" d="M264.063,10.335l-6.5,181.985a8.064,8.064,0,0,1-3.648,6.319L9.248,349.608C7.233,350.771-.075,347.42,0,341.046V151.21a8.064,8.064,0,0,1,3.648-6.319L253.915.377C255.93-.786,264.063.271,264.063,10.335Z" transform="translate(0 34.024)" fill="#c1c1c1"/>
    <path id="Path-4" data-name="Path" d="M257.562,2.6V192.441a8.064,8.064,0,0,1-3.648,6.319L3.648,343.274C1.634,344.437,0,343.494,0,341.167V151.331a8.064,8.064,0,0,1,3.648-6.319L253.915.5C255.929-.665,257.562.278,257.562,2.6Z" transform="translate(6.5 39.861)" fill="#efefef"/>
    <g id="Group" transform="translate(106.008 74.634)">
      <path id="Shape" d="M144.391.353,2.884,80.107l0,.235L0,233.065l.626-.353,141.506-79.754,0-.235L145.017,0Z" transform="translate(145.017 233.065) rotate(180)" fill="#d6d6d6"/>
      <rect id="Rectangle" width="0.822" height="162.204" transform="matrix(-0.491, -0.871, 0.871, -0.491, 1.09, 207.369)" fill="#d6d6d6"/>
      <rect id="Rectangle-2" data-name="Rectangle" width="0.822" height="162.204" transform="matrix(-0.491, -0.871, 0.871, -0.491, 1.568, 182.034)" fill="#d6d6d6"/>
      <rect id="Rectangle-3" data-name="Rectangle" width="0.822" height="162.204" transform="matrix(-0.491, -0.871, 0.871, -0.491, 2.047, 156.701)" fill="#d6d6d6"/>
      <rect id="Rectangle-4" data-name="Rectangle" width="0.822" height="162.204" transform="matrix(-0.491, -0.871, 0.871, -0.491, 2.525, 131.366)" fill="#d6d6d6"/>
      <rect id="Rectangle-5" data-name="Rectangle" width="0.822" height="162.204" transform="matrix(-0.491, -0.871, 0.871, -0.491, 3.004, 106.031)" fill="#d6d6d6"/>
      <rect id="Rectangle-6" data-name="Rectangle" width="0.822" height="152.027" transform="translate(24.409 219.099) rotate(-178.923)" fill="#d6d6d6"/>
      <rect id="Rectangle-7" data-name="Rectangle" width="0.822" height="152.027" transform="translate(47.958 205.825) rotate(-178.923)" fill="#d6d6d6"/>
      <rect id="Rectangle-8" data-name="Rectangle" width="0.822" height="152.027" transform="translate(71.507 192.551) rotate(-178.923)" fill="#d6d6d6"/>
      <rect id="Rectangle-9" data-name="Rectangle" width="0.822" height="152.028" transform="translate(95.032 179.249) rotate(-178.917)" fill="#d6d6d6"/>
      <rect id="Rectangle-10" data-name="Rectangle" width="0.822" height="152.028" transform="translate(118.582 165.977) rotate(-178.917)" fill="#d6d6d6"/>
    </g>
    <path id="Path-5" data-name="Path" d="M1.351,228.906l139.629-78.7L143.762,2.666c.043-2.285,2.771-3.826,2.728-1.537l-2.815,149.321a2.776,2.776,0,0,1-1.864,2.652,2.241,2.241,0,0,1-.585.486L1.285,232.458C-.471,233.447-.407,229.9,1.351,228.906Z" transform="translate(105.784 74.971)" fill="#d6d6d6"/>
    <path id="Path-6" data-name="Path" d="M1.459,53.547,67.154,16.521a3.506,3.506,0,0,0,1.531-2.738l.237-12.552c.02-1.046-.634-1.517-1.459-1.052L1.768,37.205A3.506,3.506,0,0,0,.237,39.943L0,52.494C-.02,53.541.634,54.012,1.459,53.547Z" transform="translate(22.385 165.767)" fill="#3a61ef"/>
    <path id="Path-7" data-name="Path" d="M1.46,39.742l41.2-23.221a3.506,3.506,0,0,0,1.531-2.738l.237-12.552C44.449.185,43.8-.286,42.97.179L1.768,23.4A3.506,3.506,0,0,0,.237,26.138L0,38.69C-.019,39.736.634,40.207,1.46,39.742Z" transform="translate(46.469 187.43)" fill="#3a61ef"/>
    <path id="Path-8" data-name="Path" d="M1.234,42.107a1.227,1.227,0,0,0,.6-.159L72.171,2.307A1.233,1.233,0,0,0,70.961.159L.628,39.8a1.233,1.233,0,0,0,.606,2.308Z" transform="translate(18.806 215.36)" fill="#d6d6d6"/>
    <path id="Path-9" data-name="Path" d="M1.234,42.106a1.232,1.232,0,0,0,.6-.159L72.171,2.307A1.233,1.233,0,0,0,70.961.159L.628,39.8a1.233,1.233,0,0,0,.606,2.307Z" transform="translate(18.615 225.44)" fill="#d6d6d6"/>
    <path id="Path-10" data-name="Path" d="M1.234,42.106a1.232,1.232,0,0,0,.6-.159L72.171,2.307A1.233,1.233,0,0,0,70.961.159L.628,39.8a1.233,1.233,0,0,0,.606,2.307Z" transform="translate(18.425 235.52)" fill="#d6d6d6"/>
    <path id="Path-11" data-name="Path" d="M1.234,23.656a1.232,1.232,0,0,0,.6-.159l37.6-21.19A1.233,1.233,0,1,0,38.227.159L.628,21.349a1.233,1.233,0,0,0,.606,2.307Z" transform="translate(50.97 245.6)" fill="#d6d6d6"/>
    <ellipse id="Oval" cx="15.112" cy="26.689" rx="15.112" ry="26.689" transform="matrix(-0.898, -0.439, 0.439, -0.898, 72.068, 329.566)" fill="#f73c84"/>
    <ellipse id="Oval-2" data-name="Oval" cx="9.526" cy="16.824" rx="9.526" ry="16.824" transform="matrix(-0.898, -0.439, 0.439, -0.898, 32.804, 339.997)" fill="#f73c84"/>
    <path id="Path-12" data-name="Path" d="M274.8,82.746a24.159,24.159,0,0,0,3.452-2.415C299.274,62.86,307.2,4.063,307.528,1.568,307.68.41,307.063-.252,306.149.09a3.584,3.584,0,0,0-1.93,2.72c-.076.583-7.87,58.45-26.7,74.092-8.567,7.115-18.466,4.4-29.411-8.1-4.071-4.648-7.934-9.165-11.67-13.533-23.626-27.627-40.789-47.7-57.983-37.879-.242.138-.483.282-.725.432C168.23,23.717,159.482,38,150.2,62.785c-12.647,33.772-24,53.167-33.756,57.639-10.574,4.853-17.779-8.967-21.961-21.415-3.2-9.53-20.46-56.356-45.873-42.19l-.232.131C31.448,66.618,15.206,101.09.1,159.426c-.311,1.2.143,2.068,1.016,1.935a3.263,3.263,0,0,0,2.143-2.416c14.58-56.3,29.759-89.284,45.118-98.054l.2-.111c17.94-10,34.23,15.99,42.728,41.285,6.539,19.465,14.891,27.022,24.827,22.462,11.2-5.136,23.645-25.827,37-61.491,8.538-22.8,16.632-36.326,24.745-41.356.2-.122.4-.241.6-.355,15.4-8.794,32.138,10.778,55.192,37.736,3.739,4.372,7.605,8.893,11.683,13.549C255.8,84.549,265.693,87.945,274.8,82.746Z" transform="translate(103.638 100.871)" fill="#3a61ef"/>
    <path id="Path-13" data-name="Path" d="M218.409,73.183c12.54-7.161,21.033-19.792,26.492-31.077a144.066,144.066,0,0,0,9.8-27.812c.98-4.01,1.608-7.263,1.962-9.288.715-4.088.73-4.556.153-5.007l-1.267,2.013-.916,2.172.916-2.172-1.67.821c-.027.317-4.5,33.784-21.983,54.844-9.655,11.631-21.552,17.311-35.363,16.891-11.376-.347-22.248-3.169-32.763-5.9C145.68,63.978,128.6,59.545,110,67.269c-21.074,8.756-40.5,31.623-61.124,71.967-10.574,20.682-19.32,31.518-25.983,32.192C2.429,173.514,2.29,82.539,3.963,47.308L.614,49C.6,49.317-.893,81.509.83,112.957c2.35,42.865,9.356,64.007,20.823,62.839,8.157-.834,18.178-12.768,29.787-35.475,19.819-38.764,38.29-60.655,58.124-68.9,17.772-7.383,34.526-3.035,52.265,1.568,10.61,2.753,21.582,5.6,33.171,5.953A43.672,43.672,0,0,0,218.409,73.183Z" transform="translate(120.494 102.711)" fill="#f9b938"/>
    <path id="Path-14" data-name="Path" d="M20.931,97.684V0L0,12.084v97.685Z" transform="translate(438.468 234.256)" fill="#3a61ef"/>
    <path id="Path-15" data-name="Path" d="M20.952,12.084,0,0,.009,97.689l20.943,12.079Z" transform="translate(417.516 234.256)" fill="#709bfc"/>
    <path id="Path-16" data-name="Path" d="M20.941,0,41.883,12.091,20.952,24.175,0,12.091Z" transform="translate(417.516 222.165)" fill="#d4dfff"/>
    <path id="Path-17" data-name="Path" d="M20.931,64.8V0L0,12.084v64.8Z" transform="translate(380.898 234.902)" fill="#3a61ef"/>
    <path id="Path-18" data-name="Path" d="M20.952,12.084,0,0,.009,64.807,20.952,76.886Z" transform="translate(359.946 234.902)" fill="#709bfc"/>
    <path id="Path-19" data-name="Path" d="M20.941,0,41.883,12.091,20.952,24.175,0,12.091Z" transform="translate(359.946 222.811)" fill="#d4dfff"/>
    <path id="Path-20" data-name="Path" d="M20.93,147.007V0L0,12.084V159.093Z" transform="translate(325.956 119.652)" fill="#3a61ef"/>
    <path id="Path-21" data-name="Path" d="M20.953,12.084,0,0,.01,147.014l20.943,12.079Z" transform="translate(305.004 119.652)" fill="#709bfc"/>
    <path id="Path-22" data-name="Path" d="M20.941,0,41.883,12.091,20.953,24.175,0,12.091Z" transform="translate(305.004 107.561)" fill="#d4dfff"/>
    <path id="Path-23" data-name="Path" d="M230.351,94.208V84.619L125.66,36.272,104.716,0,0,48.348v12.1L20.949,96.71l104.7,60.457,102.534-59.2A4.343,4.343,0,0,0,230.351,94.208Z" transform="translate(126.933 258.643)" fill="#d81966"/>
    <path id="Path-24" data-name="Path" d="M230.351,95.432,125.66,34.988,106.472,1.756a3.51,3.51,0,0,0-4.8-1.285L0,59.161,20.949,95.427l104.7,60.457Z" transform="translate(126.933 247.831)" fill="#f73c84"/>
    <path id="Path-25" data-name="Path" d="M13.537,75.385l91.385-52.761a1.123,1.123,0,0,0,.411-1.535L93.481.562A1.123,1.123,0,0,0,91.946.151L.562,52.912a1.123,1.123,0,0,0-.411,1.535L12,74.974A1.122,1.122,0,0,0,13.537,75.385Z" transform="translate(137.025 255.218)" fill="#efefef"/>
    <path id="Path-26" data-name="Path" d="M17.437,16.124,28.16,9.97c1.38-.791,1.328-2.1-.114-2.926L16.834.636A5.689,5.689,0,0,0,11.726.577L1,6.731c-1.38.791-1.328,2.1.114,2.926l11.212,6.408A5.689,5.689,0,0,0,17.437,16.124Z" transform="translate(236.627 291.423)" fill="#f9a2c5"/>
    <path id="Path-27" data-name="Path" d="M17.437,16.125,28.16,9.97c1.38-.791,1.328-2.1-.114-2.926L16.834.636A5.689,5.689,0,0,0,11.726.577L1,6.731c-1.38.791-1.328,2.1.114,2.926l11.212,6.408A5.689,5.689,0,0,0,17.437,16.125Z" transform="translate(213.82 304.511)" fill="#f9a2c5"/>
    <path id="Path-28" data-name="Path" d="M17.437,16.125,28.16,9.97c1.38-.791,1.328-2.1-.114-2.926L16.834.636A5.689,5.689,0,0,0,11.726.577L1,6.731c-1.38.791-1.328,2.1.114,2.926l11.212,6.408A5.687,5.687,0,0,0,17.437,16.125Z" transform="translate(191.014 317.599)" fill="#f9a2c5"/>
    <path id="Path-29" data-name="Path" d="M17.437,16.124,28.16,9.97c1.38-.791,1.328-2.1-.114-2.926L16.834.636A5.689,5.689,0,0,0,11.726.577L1,6.731c-1.38.791-1.328,2.1.114,2.926l11.212,6.408A5.687,5.687,0,0,0,17.437,16.124Z" transform="translate(168.207 330.687)" fill="#f9a2c5"/>
    <path id="Path-30" data-name="Path" d="M17.437,16.125,28.16,9.97c1.38-.791,1.328-2.1-.114-2.926L16.834.636A5.689,5.689,0,0,0,11.726.577L1,6.731c-1.38.791-1.328,2.1.114,2.926l11.212,6.408A5.686,5.686,0,0,0,17.437,16.125Z" transform="translate(260.804 305.242)" fill="#f9a2c5"/>
    <path id="Path-31" data-name="Path" d="M17.437,16.124,28.16,9.97c1.38-.791,1.328-2.1-.114-2.926L16.834.636A5.689,5.689,0,0,0,11.726.577L1,6.731c-1.38.791-1.328,2.1.114,2.926l11.212,6.408A5.691,5.691,0,0,0,17.437,16.124Z" transform="translate(237.997 318.331)" fill="#f9a2c5"/>
    <path id="Path-32" data-name="Path" d="M17.437,16.124,28.16,9.97c1.38-.791,1.328-2.1-.114-2.926L16.834.636A5.689,5.689,0,0,0,11.726.577L1,6.731c-1.38.791-1.328,2.1.114,2.926l11.212,6.408A5.691,5.691,0,0,0,17.437,16.124Z" transform="translate(215.191 331.419)" fill="#f9a2c5"/>
    <path id="Path-33" data-name="Path" d="M17.437,16.125,28.16,9.97c1.38-.791,1.328-2.1-.114-2.926L16.834.636A5.689,5.689,0,0,0,11.726.577L1,6.731c-1.38.791-1.328,2.1.114,2.926l11.212,6.408A5.687,5.687,0,0,0,17.437,16.125Z" transform="translate(192.384 344.506)" fill="#f9a2c5"/>
    <path id="Path-34" data-name="Path" d="M17.437,16.124,28.16,9.97c1.38-.791,1.328-2.1-.114-2.926L16.834.636A5.689,5.689,0,0,0,11.726.577L1,6.731c-1.38.791-1.328,2.1.114,2.926l11.212,6.408A5.689,5.689,0,0,0,17.437,16.124Z" transform="translate(284.981 319.062)" fill="#f9b938"/>
    <path id="Path-35" data-name="Path" d="M17.437,16.124,28.16,9.97c1.38-.791,1.328-2.1-.114-2.926L16.834.636A5.689,5.689,0,0,0,11.726.577L1,6.731c-1.38.791-1.328,2.1.114,2.926l11.212,6.408A5.692,5.692,0,0,0,17.437,16.124Z" transform="translate(262.174 332.15)" fill="#f9a2c5"/>
    <path id="Path-36" data-name="Path" d="M17.437,16.125,28.16,9.97c1.38-.791,1.328-2.1-.114-2.926L16.834.636A5.689,5.689,0,0,0,11.726.577L1,6.731c-1.38.791-1.328,2.1.114,2.926l11.212,6.408A5.687,5.687,0,0,0,17.437,16.125Z" transform="translate(239.368 345.237)" fill="#f9a2c5"/>
    <path id="Path-37" data-name="Path" d="M17.437,16.125,28.16,9.97c1.38-.791,1.328-2.1-.114-2.926L16.834.636A5.689,5.689,0,0,0,11.726.577L1,6.731c-1.38.791-1.328,2.1.114,2.926l11.212,6.408A5.686,5.686,0,0,0,17.437,16.125Z" transform="translate(309.158 332.881)" fill="#f9b938"/>
    <path id="Path-38" data-name="Path" d="M17.437,16.124,28.16,9.97c1.38-.791,1.328-2.1-.114-2.926L16.834.636A5.689,5.689,0,0,0,11.726.577L1,6.731c-1.38.791-1.328,2.1.114,2.926l11.212,6.408A5.691,5.691,0,0,0,17.437,16.124Z" transform="translate(286.351 345.969)" fill="#f9a2c5"/>
    <path id="Path-39" data-name="Path" d="M17.437,16.124,28.16,9.97c1.38-.791,1.328-2.1-.114-2.926L16.834.636A5.689,5.689,0,0,0,11.726.577L1,6.731c-1.38.791-1.328,2.1.114,2.926l11.212,6.408A5.689,5.689,0,0,0,17.437,16.124Z" transform="translate(263.545 359.057)" fill="#f9a2c5"/>
    <path id="Path-40" data-name="Path" d="M41.614,29.943,52.337,23.79c1.38-.791,1.328-2.1-.114-2.926L16.834.636A5.689,5.689,0,0,0,11.726.577L1,6.731c-1.38.791-1.328,2.1.114,2.926L36.5,29.884A5.687,5.687,0,0,0,41.614,29.943Z" transform="translate(216.561 358.326)" fill="#3a61ef"/>
    <path id="Path-41" data-name="Path" d="M78.434,4.255l-2.677,58.5a3.321,3.321,0,0,1-1.5,2.6L3.808,109.417c-.83.479-3.839-.9-3.808-3.526V44.159a3.321,3.321,0,0,1,1.5-2.6L74.255.155C75.084-.324,78.434.112,78.434,4.255Z" transform="translate(214.732 0)" fill="#234ab7"/>
    <path id="Path-42" data-name="Path" d="M75.757,1.073V62.8a3.321,3.321,0,0,1-1.5,2.6L1.5,106.809c-.83.479-1.5.091-1.5-.867V44.209a3.321,3.321,0,0,1,1.5-2.6L74.254.205C75.084-.274,75.757.114,75.757,1.073Z" transform="translate(217.409 2.403)" fill="#3a61ef"/>
    <path id="Path-43" data-name="Path" d="M1.512,40.754,57.793,8.524A2.647,2.647,0,0,0,59,6.344L58.8.905A.807.807,0,0,0,57.49.169L1.209,32.4A2.647,2.647,0,0,0,0,34.579l.2,5.439A.807.807,0,0,0,1.512,40.754Z" transform="translate(225.574 23.499)" fill="#d4dfff"/>
    <path id="Path-44" data-name="Path" d="M1.512,29,37.277,8.524a2.647,2.647,0,0,0,1.208-2.179l-.2-5.439A.807.807,0,0,0,36.974.169L1.209,20.651A2.647,2.647,0,0,0,0,22.83l.2,5.439A.807.807,0,0,0,1.512,29Z" transform="translate(246.576 36.907)" fill="#d4dfff"/>
    <path id="Path-45" data-name="Path" d="M1.512,21.581l22.8-13.058a2.647,2.647,0,0,0,1.208-2.179l-.2-5.439A.807.807,0,0,0,24.011.169L1.209,13.227A2.647,2.647,0,0,0,0,15.407l.2,5.439A.807.807,0,0,0,1.512,21.581Z" transform="translate(259.539 49.848)" fill="#d4dfff"/>
    <path id="Path-46" data-name="Path" d="M78.126,25.018l-34.768,20.1a7.855,7.855,0,0,1-7.117,0L1.474,25.02c-1.966-1.136-1.965-2.977,0-4.112L36.212.852a7.873,7.873,0,0,1,7.121,0L78.123,20.908C80.09,22.042,80.091,23.882,78.126,25.018Z" transform="translate(59.487 487.891)" fill="#d6d6d6"/>
    <path id="Path-47" data-name="Path" d="M78.126,25.018l-34.768,20.1a7.855,7.855,0,0,1-7.117,0L1.474,25.02c-1.966-1.136-1.965-2.977,0-4.112L36.212.852a7.873,7.873,0,0,1,7.121,0L78.123,20.908C80.09,22.042,80.091,23.882,78.126,25.018Z" transform="translate(51.507 384.505)" fill="#efefef"/>
    <path id="Path-48" data-name="Path" d="M30.715,9.335l-14.536,8.4a1.5,1.5,0,0,1-1.361,0L.282,9.336a.415.415,0,0,1,0-.787L14.806.163a1.507,1.507,0,0,1,1.362,0L30.714,8.549A.415.415,0,0,1,30.715,9.335Z" transform="translate(274.468 508.094)" fill="#efefef"/>
    <path id="Path-49" data-name="Path" d="M30.715,9.335l-14.536,8.4a1.5,1.5,0,0,1-1.361,0L.282,9.336a.415.415,0,0,1,0-.787L14.806.163a1.507,1.507,0,0,1,1.362,0L30.714,8.549A.415.415,0,0,1,30.715,9.335Z" transform="translate(3.117 453.61)" fill="#d6d6d6"/>
    <path id="Path-50" data-name="Path" d="M55.771,33.337C41.834,41.377,20.75,42.251,8.68,35.287c-4.114-2.374-6.65-5.351-7.654-8.563A20.549,20.549,0,0,1,.874,14.308C5.923-.97,62.754-5.435,66.68,7.936c1.2,4.079,1.337,6.85.454,11.956C66.314,24.635,62.484,29.464,55.771,33.337Z" transform="translate(369.104 388.367)" fill="#f27c1c"/>
    <ellipse id="Oval-3" data-name="Oval" cx="18.968" cy="33.552" rx="18.968" ry="33.552" transform="translate(371.996 425.549) rotate(-96.938)" fill="#f9b938"/>
    <path id="Shape-2" data-name="Shape" d="M10.38,5.678h0C3.783,9.425,0,14.484,0,19.557c0,4.278,2.67,8.15,7.52,10.905,10.532,5.984,28.953,5.256,41.065-1.627,6.6-3.748,10.38-8.806,10.38-13.879,0-4.277-2.67-8.15-7.52-10.905C46.66,1.333,40.245,0,33.535,0,25.475,0,16.989,1.923,10.38,5.678Z" transform="translate(432.502 420.574) rotate(180)" fill="#ffe5b6"/>
    <path id="Path-51" data-name="Path" d="M55.771,33.337C41.834,41.377,20.75,42.251,8.68,35.287c-4.114-2.374-6.65-5.351-7.654-8.563A20.549,20.549,0,0,1,.874,14.308C5.923-.97,62.754-5.435,66.68,7.936c1.2,4.079,1.337,6.85.454,11.956C66.315,24.635,62.484,29.464,55.771,33.337Z" transform="translate(349.813 388.586)" fill="#f27c1c"/>
    <ellipse id="Oval-4" data-name="Oval" cx="18.968" cy="33.552" rx="18.968" ry="33.552" transform="translate(352.706 425.767) rotate(-96.938)" fill="#f9b938"/>
    <path id="Shape-3" data-name="Shape" d="M10.38,5.678C3.783,9.426,0,14.485,0,19.557c0,4.278,2.67,8.151,7.518,10.905,10.534,5.986,28.955,5.256,41.066-1.625,6.6-3.748,10.38-8.806,10.38-13.879,0-4.278-2.67-8.151-7.519-10.906C46.659,1.333,40.244,0,33.535,0,25.475,0,16.988,1.923,10.38,5.678Z" transform="translate(413.211 420.793) rotate(180)" fill="#ffe5b6"/>
    <path id="Path-52" data-name="Path" d="M55.771,33.337C41.834,41.377,20.75,42.251,8.68,35.287c-4.114-2.374-6.65-5.351-7.654-8.563A20.549,20.549,0,0,1,.874,14.308C5.923-.97,62.754-5.435,66.68,7.936c1.2,4.079,1.337,6.85.454,11.956C66.314,24.635,62.484,29.464,55.771,33.337Z" transform="translate(354.746 366.343)" fill="#f27c1c"/>
    <ellipse id="Oval-5" data-name="Oval" cx="18.968" cy="33.552" rx="18.968" ry="33.552" transform="translate(357.638 403.525) rotate(-96.938)" fill="#f9b938"/>
    <path id="Shape-4" data-name="Shape" d="M10.38,5.678C3.783,9.426,0,14.485,0,19.557c0,4.277,2.67,8.151,7.518,10.905,10.534,5.985,28.955,5.257,41.066-1.625,6.6-3.748,10.38-8.806,10.38-13.879,0-4.278-2.67-8.151-7.519-10.905C46.659,1.334,40.245,0,33.535,0,25.475,0,16.988,1.923,10.38,5.678Z" transform="translate(418.143 398.55) rotate(180)" fill="#ffe5b6"/>
    <path id="Path-53" data-name="Path" d="M55.771,33.337C41.834,41.377,20.75,42.251,8.68,35.287c-4.114-2.374-6.65-5.351-7.654-8.563A20.549,20.549,0,0,1,.874,14.308C5.923-.97,62.754-5.435,66.68,7.936c1.2,4.079,1.337,6.85.454,11.956C66.315,24.635,62.484,29.464,55.771,33.337Z" transform="translate(344.487 346.574)" fill="#f27c1c"/>
    <ellipse id="Oval-6" data-name="Oval" cx="18.968" cy="33.552" rx="18.968" ry="33.552" transform="translate(347.381 383.756) rotate(-96.938)" fill="#f9b938"/>
    <path id="Shape-5" data-name="Shape" d="M10.38,5.676h0C3.783,9.425,0,14.484,0,19.556c0,4.278,2.67,8.151,7.519,10.906,10.533,5.986,28.955,5.256,41.066-1.626,6.6-3.748,10.38-8.806,10.38-13.879,0-4.277-2.67-8.15-7.52-10.905C46.659,1.333,40.245,0,33.534,0,25.475,0,16.988,1.923,10.38,5.676Z" transform="translate(407.885 378.78) rotate(180)" fill="#ffe5b6"/>
    <path id="Path-54" data-name="Path" d="M55.771,33.337C41.834,41.377,20.75,42.251,8.68,35.287c-4.114-2.374-6.65-5.351-7.654-8.563A20.549,20.549,0,0,1,.874,14.308C5.923-.97,62.754-5.435,66.68,7.936c1.2,4.079,1.337,6.85.454,11.956C66.315,24.635,62.484,29.464,55.771,33.337Z" transform="translate(167.716 508.477)" fill="#f27c1c"/>
    <ellipse id="Oval-7" data-name="Oval" cx="18.968" cy="33.552" rx="18.968" ry="33.552" transform="translate(170.608 545.653) rotate(-96.938)" fill="#f9b938"/>
    <path id="Shape-6" data-name="Shape" d="M10.38,5.678C3.783,9.426,0,14.484,0,19.556c0,4.278,2.67,8.151,7.519,10.905,10.532,5.986,28.955,5.256,41.065-1.626,6.6-3.747,10.38-8.806,10.38-13.878,0-4.278-2.67-8.151-7.519-10.905C46.661,1.333,40.246,0,33.536,0,25.476,0,16.989,1.923,10.38,5.678Z" transform="translate(231.115 540.684) rotate(180)" fill="#ffe5b6"/>
    <path id="Path-55" data-name="Path" d="M55.771,33.337C41.834,41.377,20.75,42.251,8.68,35.287c-4.114-2.374-6.65-5.351-7.654-8.563A20.549,20.549,0,0,1,.874,14.308C5.923-.97,62.754-5.435,66.68,7.936c1.2,4.079,1.337,6.85.454,11.956C66.314,24.635,62.484,29.464,55.771,33.337Z" transform="translate(285.39 442.498)" fill="#f27c1c"/>
    <ellipse id="Oval-8" data-name="Oval" cx="18.968" cy="33.552" rx="18.968" ry="33.552" transform="translate(288.217 480.442) rotate(-96.938)" fill="#f9b938"/>
    <path id="Shape-7" data-name="Shape" d="M10.38,5.678C3.783,9.426,0,14.485,0,19.557c0,4.278,2.67,8.151,7.518,10.905,10.534,5.986,28.956,5.256,41.066-1.625,6.6-3.748,10.38-8.806,10.38-13.879,0-4.278-2.67-8.151-7.519-10.906C46.659,1.333,40.245,0,33.535,0,25.475,0,16.988,1.923,10.38,5.678Z" transform="translate(348.723 475.469) rotate(180)" fill="#ffe5b6"/>
    <path id="Path-56" data-name="Path" d="M57.76,29.786c-9.02,13.325-27.6,23.327-41.5,22.341-4.737-.336-8.32-1.906-10.627-4.356a20.55,20.55,0,0,1-5.565-11.1c-2.138-15.948,47.022-44.808,56.4-34.5,2.861,3.145,4.2,5.576,5.635,10.554C63.439,17.351,62.1,23.369,57.76,29.786Z" transform="translate(253.793 425.318)" fill="#f27c1c"/>
    <ellipse id="Oval-9" data-name="Oval" cx="18.968" cy="33.552" rx="18.968" ry="33.552" transform="matrix(-0.543, -0.84, 0.84, -0.543, 265.682, 481.669)" fill="#f9b938"/>
    <path id="Shape-8" data-name="Shape" d="M4.36,19.463C.066,25.717-1.125,31.921,1.093,36.483,2.963,40.33,7.057,42.646,12.623,43c12.087.768,28.339-7.932,36.223-19.415,4.294-6.255,5.486-12.458,3.268-17.02C50.243,2.722,46.148.406,40.583.048Q39.829,0,39.054,0C27.157,0,11.917,8.457,4.36,19.463Z" transform="translate(310.462 469.648) rotate(180)" fill="#ffe5b6"/>
    <path id="Path-57" data-name="Path" d="M30.715,9.335l-14.536,8.4a1.5,1.5,0,0,1-1.361,0L.282,9.336a.415.415,0,0,1,0-.787L14.806.163a1.507,1.507,0,0,1,1.362,0L30.714,8.549A.415.415,0,0,1,30.715,9.335Z" transform="translate(191.467 453.61)" fill="#efefef"/>
    <ellipse id="Oval-10" data-name="Oval" cx="15.383" cy="9.041" rx="15.383" ry="9.041" transform="translate(114.79 429.856)" fill="#efefef"/>
    <path id="Path-58" data-name="Path" d="M0,0,.01.05,3.2,26.557,5.165,42.9s4.178,0,4.178-.01c1.112-6.756,1.993-13.631,2.444-20.506A63,63,0,0,0,11.92,14.1c-.173-2.669-1.361-5-1.409-7.7A38.6,38.6,0,0,1,10.952,0Z" transform="translate(136.698 393.14)" fill="#e5a8bf"/>
    <path id="Path-59" data-name="Path" d="M0,.635,3.191,27.142a12.262,12.262,0,0,0-.067-2.51c-1.284-12.56,6.429-21.7,6.429-21.7L8.652.585,8.432,0,.661.585Z" transform="translate(136.707 392.554)" fill="#e090ad"/>
    <path id="Path-60" data-name="Path" d="M0,0,2.75,24.345,4.657,41.24v.02L4.839,42.9H8.758C9.841,35.853,10.7,28.67,11.1,21.508a61.492,61.492,0,0,0,.067-7.519c-.172-2.679-1.293-5-1.313-7.718A40.634,40.634,0,0,1,10.176.665c.028-.218.057-.446.086-.665H0Z" transform="translate(120.48 398.41)" fill="#e5a8bf"/>
    <path id="Path-61" data-name="Path" d="M0,.472A3.554,3.554,0,0,0,.63.5,1.517,1.517,0,0,0,0,.472Z" transform="translate(128.264 409.196)" fill="#dc9566"/>
    <path id="Path-62" data-name="Path" d="M0,0,2.75,24.345c.211.159.2-.813-.125-3.453C.872,6.776,10.176.665,10.176.665L9.927,0H0Z" transform="translate(120.48 398.41)" fill="#e090ad"/>
    <path id="Path-63" data-name="Path" d="M11.437,27.293,0,8.694,15.057,0,19.1,5.672l5.218,14.314Z" transform="translate(105.662 303.471)" fill="#f9b938"/>
    <path id="Path-64" data-name="Path" d="M12.848,2.78l-.024,3.385S13.528,10.9,8.78,9.3L.484,2.926S-.769.717.757.1,8.382,1.8,8.382,1.8,9.281,3.423,12.848,2.78Z" transform="translate(116.677 438.305)" fill="#032c7f"/>
    <path id="Path-65" data-name="Path" d="M1.112,0S14.285,9.368,15.97,12.858,12.8,29.261,4.852,37.77s-3.741-4.644-3.741-4.644S7.539,20.317,8.056,19.3s-.132-2.7-3.891-4.959S1.112,0,1.112,0Z" transform="translate(139.063 306.08)" fill="#b9ccfc"/>
    <path id="Path-66" data-name="Path" d="M.89,22.66A17.389,17.389,0,0,0,3,24.674c.3.261.585.522.874.8a10.1,10.1,0,0,1,2.018,2.836,8.7,8.7,0,0,1,.829,2.667A118.981,118.981,0,0,1,5.033,42.8c-.153.765-.333,1.511-.531,2.248-1.27,4.8-3.162,8.814-2.711,10.1.162.466.991.97,2.378,1.417,3.009.97,8.621,1.688,15.638,1.129,10.242-.8,15.431-4.691,15.558-5.233s-3.757-10.735-5.441-14.093-.387-11.808,1.045-20.677A17.886,17.886,0,0,0,29.113,6.338V6.329A17.721,17.721,0,0,0,24.609.78c-1.82-1.408-5.45-.541-7.468-.224-1.451.233-2.9.531-4.324.858-.513.121-.982.214-1.405.336a4.464,4.464,0,0,0-1.306.569,3.583,3.583,0,0,0-.973.97.667.667,0,0,1-.072.1c-.73,1.091-1.1,2.378-1.73,3.526a.463.463,0,0,1-.045.093c-.243.448-.5.886-.757,1.343-1.5,2.639-3.072,5.242-4.8,7.732C-.569,19.386-.281,21.2.89,22.66Z" transform="translate(114.978 304.785)" fill="#d4dfff"/>
    <path id="Path-67" data-name="Path" d="M.847,1.559S-.632,10.388.319,12.088c0,0,.829,4.569,3.077,3.137a9.13,9.13,0,0,0,3.619-2.838,33.845,33.845,0,0,0,3.253-8.234S2.922-3.094.847,1.559Z" transform="translate(123.572 289.559)" fill="#e5a8bf"/>
    <path id="Path-68" data-name="Path" d="M.068,45.943c.162.466.991.97,2.378,1.417a1.149,1.149,0,0,0-.333-1.315c-2-1.7-.047-1.812,1.9-8.394C7.3,26.557,20.9,28.857,17.612,28.456s-4.729-3.3-6.053-6.3S13.3,0,13.3,0L5.5,3.17s-2.918,8.142-4.225,12.3c.3.261.585.522.874.8A10.1,10.1,0,0,1,4.168,19.11,8.7,8.7,0,0,1,5,21.777,118.981,118.981,0,0,1,3.312,33.594c-.153.765-.333,1.511-.531,2.248C1.509,40.645-.383,44.655.068,45.943Z" transform="translate(116.701 313.987)" fill="#b9ccfc"/>
    <path id="Path-69" data-name="Path" d="M.89,15.743A17.389,17.389,0,0,0,3,17.758c-.234-.792,7.08-9.1,7.08-9.4,0-.224-1.82-5.624-2.748-8.357a.463.463,0,0,1-.045.093c-.243.448-.5.886-.757,1.343-1.5,2.639-3.072,5.242-4.8,7.732C-.569,12.469-.281,14.279.89,15.743Z" transform="translate(114.978 311.701)" fill="#b9ccfc"/>
    <path id="Path-70" data-name="Path" d="M.5,27.85a3.143,3.143,0,0,0,.207.55c1.594,3.143,6.657,3.749,9.116,0s8.108-16.275,9.126-21.368a6.839,6.839,0,0,0-.342-4.178A5.1,5.1,0,0,0,16.174.383,3.4,3.4,0,0,0,13,.4,4.529,4.529,0,0,0,11.067,1.94a11.789,11.789,0,0,0-.892,2.537C9.742,5.829,9.337,7.182,8.9,8.534q-1.189,3.722-2.378,7.424s-.018.056-.045.168c-.369,1.138-.73,2.267-1.09,3.395L.707,11.827S-.735,23.792.5,27.85Z" transform="translate(111.053 310.13)" fill="#d4dfff"/>
    <path id="Path-71" data-name="Path" d="M0,9.3C2.775,6.813,3.641,2.569,4.038,1.16c-.369,1.138-.73,2.267-1.09,3.395L.175,0Z" transform="translate(113.496 325.096)" fill="#b9ccfc"/>
    <path id="Path-72" data-name="Path" d="M16.929,2.076c2.714,1.756,4.234,4.772,4.929,8.165q.1.468.169.941c.772,5-.676,7.617,2.606,11.7s10.327,3.886,12.257,9.482-1.737,11.492-9.169,9.094-8.413-4.39-12.539-3.148C11.634,39.381,3.642,42.14,3.11,36.364S6.3,19.176,5.426,17.177s-2.377-2.7-1.834-6.1c.249-1.559-2.9-2.4-3.477-3.9-.778-2.022,2.6-4.9,3.914-5.737C7.671-.872,13.39-.214,16.929,2.076Z" transform="translate(123.881 283.195)" fill="#032c7f"/>
    <path id="Path-73" data-name="Path" d="M0,3.1l1.566,38.97c10.812,1.543,20.146.266,27.58-4.647-.054-6.8,2.391-15.439,3.547-24.832C33.417,6.707,30.93.343,29.678.553,29.679.553,3.08-1.769,0,3.1Z" transform="translate(118.813 356.931)" fill="#3a61ef"/>
    <path id="Path-74" data-name="Path" d="M12.848,2.792l-.024,3.385s.7,4.736-4.044,3.138L.484,2.938S-.769.73.757.116s7.48,1.4,7.48,1.4S9.281,3.436,12.848,2.792Z" transform="translate(133.395 432.835)" fill="#032c7f"/>
  </g>
</svg>
