<svg xmlns="http://www.w3.org/2000/svg" width="133" height="124" viewBox="0 0 133 124">
  <g id="Grupo_979536" data-name="Grupo 979536" transform="translate(-1054 -4186)">
    <rect id="Rect치ngulo_341716" data-name="Rect치ngulo 341716" width="124" height="124" transform="translate(1063 4186)" fill="none"/>
    <circle id="Elipse_7832" data-name="Elipse 7832" cx="50.5" cy="50.5" r="50.5" transform="translate(1067 4198)" fill="#449c6e"/>
    <rect id="Rect치ngulo_341717" data-name="Rect치ngulo 341717" width="124" height="124" transform="translate(1054 4186)" fill="none"/>
    <path id="Trazado_691698" data-name="Trazado 691698" d="M24.3,43.3h5.435q6.46,0,6.46-6.323a5.468,5.468,0,0,0-1.538-4.016A5.832,5.832,0,0,0,30.316,31.4a6.244,6.244,0,0,0-3.982,1.333,4.067,4.067,0,0,0-1.692,3.315H13.124a11.791,11.791,0,0,1,2.188-7.007,14.446,14.446,0,0,1,6.067-4.8,20.743,20.743,0,0,1,8.528-1.726q8.306,0,13.057,3.794a12.612,12.612,0,0,1,4.751,10.425A10.512,10.512,0,0,1,45.749,42.8a14.008,14.008,0,0,1-5.725,4.631,13.38,13.38,0,0,1,6.221,4.358A11.477,11.477,0,0,1,48.5,59.021a12.841,12.841,0,0,1-5.127,10.664q-5.127,4-13.467,4a22.07,22.07,0,0,1-9.075-1.863,14.218,14.218,0,0,1-6.34-5.161,13.418,13.418,0,0,1-2.153-7.5H23.925a5.186,5.186,0,0,0,1.846,3.965A6.516,6.516,0,0,0,30.316,64.8,6.825,6.825,0,0,0,35.17,63.1a5.655,5.655,0,0,0,1.812-4.324q0-3.76-1.88-5.332a7.859,7.859,0,0,0-5.2-1.572H24.3Z" transform="translate(1087 4198)" fill="#fff"/>
  </g>
</svg>
