<svg id="FLAT" xmlns="http://www.w3.org/2000/svg" width="104.748" height="104.748" viewBox="0 0 104.748 104.748">
  <path id="Trazado_691321" data-name="Trazado 691321" d="M155.076,24v90.3l-14.448,14.448H72V24Z" transform="translate(-61.164 -24)" fill="#ccdcc2"/>
  <circle id="Elipse_7820" data-name="Elipse 7820" cx="18" cy="18" r="18" transform="translate(30.672 56.144)" fill="#008cb7"/>
  <path id="Trazado_691322" data-name="Trazado 691322" d="M390.448,424,376,438.448V424Z" transform="translate(-296.536 -333.7)" fill="#9cbd8a"/>
  <path id="Trazado_691323" data-name="Trazado 691323" d="M44.917,195.624l5.453,5.958,1.5-7.937L31.087,120.695a3.612,3.612,0,1,0-6.948,1.979Z" transform="translate(-24 -96.835)" fill="#f9b89b"/>
  <path id="Trazado_691324" data-name="Trazado 691324" d="M200,56h25.284v3.612H200Z" transform="translate(-160.268 -48.776)" fill="#abc79b"/>
  <g id="Grupo_979306" data-name="Grupo 979306" transform="translate(21.672 14.448)">
    <path id="Trazado_691325" data-name="Trazado 691325" d="M120,224h61.4v3.612H120Z" transform="translate(-120 -193.298)" fill="#8bb276"/>
    <path id="Trazado_691326" data-name="Trazado 691326" d="M144,157.672V136h7.224v21.672" transform="translate(-138.582 -125.164)" fill="#8bb276"/>
    <path id="Trazado_691327" data-name="Trazado 691327" d="M208,145.284V120h7.224v25.284" transform="translate(-188.134 -112.776)" fill="#8bb276"/>
    <path id="Trazado_691328" data-name="Trazado 691328" d="M272,132.9V104h7.224v28.9" transform="translate(-237.686 -100.388)" fill="#8bb276"/>
    <path id="Trazado_691329" data-name="Trazado 691329" d="M336,88h7.224v32.508H336Z" transform="translate(-287.238 -88)" fill="#8bb276"/>
  </g>
  <path id="Trazado_691330" data-name="Trazado 691330" d="M372.9,220.9H362.06l-9.03,9.03V220.9h-5.418A3.612,3.612,0,0,1,344,217.284V195.612A3.612,3.612,0,0,1,347.612,192H372.9a3.612,3.612,0,0,1,3.612,3.612v21.672A3.612,3.612,0,0,1,372.9,220.9Z" transform="translate(-271.76 -154.074)" fill="#008cb7"/>
  <path id="Trazado_691331" data-name="Trazado 691331" d="M0,0H21.061V3.612H0Z" transform="matrix(0.515, -0.857, 0.857, 0.515, 81.54, 60.541)" fill="#62b8d3"/>
  <path id="Trazado_691332" data-name="Trazado 691332" d="M392,216h3.612v3.612H392Z" transform="translate(-308.924 -172.656)" fill="#62b8d3"/>
  <path id="Trazado_691333" data-name="Trazado 691333" d="M424,280h3.612v3.612H424Z" transform="translate(-333.7 -222.208)" fill="#62b8d3"/>
  <path id="Trazado_691334" data-name="Trazado 691334" d="M240,352h25.284v.62a24.664,24.664,0,0,1-7.224,17.44Z" transform="translate(-191.238 -277.954)" fill="#00779c"/>
  <path id="Trazado_691335" data-name="Trazado 691335" d="M31.087,120.695a3.612,3.612,0,1,0-6.948,1.979l1.484,5.211,6.948-1.979Z" transform="translate(-24 -96.835)" fill="#e88977"/>
  <path id="Trazado_691336" data-name="Trazado 691336" d="M184.9,278.526a18.02,18.02,0,0,0-3.155,1.758L189.8,294.8l-11.742,11.742a18.169,18.169,0,0,0,2.554,2.554l12.705-12.705a1.806,1.806,0,0,0,.3-2.154Z" transform="translate(-143.282 -221.067)" fill="#00779c"/>
</svg>
