<svg xmlns="http://www.w3.org/2000/svg" xmlns:xlink="http://www.w3.org/1999/xlink" width="1600" height="219" viewBox="0 0 1600 219">
  <defs>
    <clipPath id="clip-path">
      <rect id="Rectángulo_297108" data-name="Rectángulo 297108" width="1600" height="219" transform="translate(0 70)" fill="#f0bd51"/>
    </clipPath>
    <clipPath id="clip-path-2">
      <rect id="Rectángulo_298943" data-name="Rectángulo 298943" width="1600" height="615" rx="18" transform="translate(140 70)" fill="#f0bd51"/>
    </clipPath>
    <clipPath id="clip-path-3">
      <rect id="Rectángulo_298942" data-name="Rectángulo 298942" width="470.934" height="470.934" fill="#f0bd51"/>
    </clipPath>
  </defs>
  <g id="Enmascarar_grupo_700392" data-name="Enmascarar grupo 700392" transform="translate(0 -70)" clip-path="url(#clip-path)">
    <g id="Enmascarar_grupo_700487" data-name="Enmascarar grupo 700487" transform="translate(-140 -16)" clip-path="url(#clip-path-2)">
      <g id="Trazado_603475" data-name="Trazado 603475" transform="translate(140 70)" fill="#f0bd51">
        <path d="M 1599.5 614.5 L 0.5 614.5 L 0.5 0.5 L 1037.560424804688 0.5 L 1599.5 0.5 L 1599.5 614.5 Z" stroke="none"/>
        <path d="M 1 1 L 1 614 L 1599 614 L 1599 1 L 1 1 M 0 0 L 1600 0 L 1600 615 L 0 615 L 0 0 Z" stroke="none" fill="#707070"/>
      </g>
      <g id="Grupo_881528" data-name="Grupo 881528" transform="translate(358.025 449.078)" opacity="0.332">
        <g id="Grupo_881527" data-name="Grupo 881527" clip-path="url(#clip-path-3)">
          <g id="Grupo_881526" data-name="Grupo 881526">
            <g id="Grupo_881525" data-name="Grupo 881525" clip-path="url(#clip-path-3)">
              <g id="Grupo_881524" data-name="Grupo 881524" opacity="0.14">
                <g id="Grupo_881523" data-name="Grupo 881523">
                  <g id="Grupo_881522" data-name="Grupo 881522" clip-path="url(#clip-path-3)">
                    <path id="Trazado_603441" data-name="Trazado 603441" d="M128.945,122.64a6.3,6.3,0,1,0,6.305,6.3,6.31,6.31,0,0,0-6.305-6.3m0,19.094a12.79,12.79,0,1,1,12.791-12.791,12.8,12.8,0,0,1-12.791,12.791" transform="translate(106.522 106.521)" fill="#f0bd51"/>
                    <path id="Trazado_603442" data-name="Trazado 603442" d="M135.6,114.985a20.518,20.518,0,0,0-11.546,3.537,20.651,20.651,0,0,0-7.434,9.02,20.6,20.6,0,0,0,1.9,19.608,20.7,20.7,0,0,0,9.022,7.436,20.665,20.665,0,0,0,16.122,0,20.757,20.757,0,0,0,9.022-7.436,20.6,20.6,0,0,0,0-23.093,20.774,20.774,0,0,0-5.536-5.535,20.518,20.518,0,0,0-11.546-3.537m0-6.089a26.549,26.549,0,0,1,14.915,4.555,26.828,26.828,0,0,1,9.649,11.66,26.64,26.64,0,0,1-2.412,25.407,26.786,26.786,0,0,1-11.66,9.649,26.762,26.762,0,0,1-20.888.042A26.707,26.707,0,0,1,135.6,108.9" transform="translate(99.864 99.864)" fill="#f0bd51"/>
                    <path id="Trazado_603443" data-name="Trazado 603443" d="M142.26,107.328a34.776,34.776,0,0,0-19.548,5.979,35.037,35.037,0,0,0-12.624,15.323,34.883,34.883,0,0,0,3.219,33.179,35.037,35.037,0,0,0,15.323,12.624,34.884,34.884,0,0,0,33.179-3.219,35.037,35.037,0,0,0,12.624-15.323,34.884,34.884,0,0,0-3.219-33.179,35.038,35.038,0,0,0-15.323-12.624,34.718,34.718,0,0,0-13.63-2.761m0-5.692a40.435,40.435,0,0,1,22.7,6.932,40.784,40.784,0,0,1,14.692,17.788,40.565,40.565,0,0,1-3.7,38.6,40.784,40.784,0,0,1-17.788,14.692,40.557,40.557,0,0,1-38.6-3.7,40.784,40.784,0,0,1-14.692-17.788,40.557,40.557,0,0,1,3.7-38.6,40.784,40.784,0,0,1,17.788-14.692,40.411,40.411,0,0,1,15.9-3.234" transform="translate(93.206 93.206)" fill="#f0bd51"/>
                    <path id="Trazado_603444" data-name="Trazado 603444" d="M148.918,99.669a49.024,49.024,0,0,0-27.55,8.425,49.393,49.393,0,0,0-17.813,21.623,49.173,49.173,0,0,0,4.54,46.751,49.409,49.409,0,0,0,21.624,17.813,49.171,49.171,0,0,0,46.749-4.54,49.408,49.408,0,0,0,17.813-21.624,49.173,49.173,0,0,0-4.54-46.751,49.489,49.489,0,0,0-13.274-13.272,49.024,49.024,0,0,0-27.55-8.425m0-5.293a54.276,54.276,0,0,1,30.479,9.309A54.717,54.717,0,0,1,199.136,127.6a54.455,54.455,0,0,1-4.986,51.793,54.781,54.781,0,0,1-14.677,14.7,54.532,54.532,0,0,1-75.785-75.661A54.74,54.74,0,0,1,127.6,98.7a54.209,54.209,0,0,1,21.314-4.325" transform="translate(86.549 86.549)" fill="#f0bd51"/>
                    <path id="Trazado_603445" data-name="Trazado 603445" d="M155.575,92.013a63.265,63.265,0,0,0-35.552,10.868,63.747,63.747,0,0,0-23,27.926,63.477,63.477,0,0,0,5.859,60.322,63.728,63.728,0,0,0,27.924,23,63.484,63.484,0,0,0,60.322-5.857,63.779,63.779,0,0,0,23-27.926,63.461,63.461,0,0,0-5.86-60.322,63.76,63.76,0,0,0-27.924-23,63.16,63.16,0,0,0-24.77-5.009m0-4.9A68.117,68.117,0,0,1,193.838,98.8a68.64,68.64,0,0,1,24.78,30.048,68.334,68.334,0,0,1-6.271,64.985A68.676,68.676,0,0,1,182.3,218.62a68.429,68.429,0,0,1-75.1-14.612A68.506,68.506,0,0,1,92.533,182.3,68.336,68.336,0,0,1,98.8,117.315a68.686,68.686,0,0,1,30.046-24.782,68.058,68.058,0,0,1,26.726-5.416" transform="translate(79.892 79.892)" fill="#f0bd51"/>
                    <path id="Trazado_603446" data-name="Trazado 603446" d="M162.233,84.356a77.515,77.515,0,0,0-43.556,13.312,78.141,78.141,0,0,0-28.188,34.225,77.767,77.767,0,0,0,7.179,73.9,78.071,78.071,0,0,0,34.225,28.188,77.783,77.783,0,0,0,73.9-7.177A78.354,78.354,0,0,0,226.8,205.789a77.836,77.836,0,0,0-9.5-98.621,78.013,78.013,0,0,0-24.726-16.678,77.393,77.393,0,0,0-30.339-6.133m0-4.5a81.984,81.984,0,0,1,46.044,14.064A82.819,82.819,0,0,1,230.5,116.126a82.427,82.427,0,1,1-136.581.063A82.656,82.656,0,0,1,130.1,86.363a81.884,81.884,0,0,1,32.136-6.506" transform="translate(73.234 73.234)" fill="#f0bd51"/>
                    <path id="Trazado_603447" data-name="Trazado 603447" d="M168.891,76.7a91.774,91.774,0,0,0-51.557,15.754,92.456,92.456,0,0,0-33.378,40.529,92.071,92.071,0,0,0,8.5,87.466,92.5,92.5,0,0,0,40.529,33.378,92.055,92.055,0,0,0,87.466-8.5A92.442,92.442,0,0,0,253.826,204.8a92.071,92.071,0,0,0-8.5-87.466A92.457,92.457,0,0,0,204.8,83.956,91.625,91.625,0,0,0,168.891,76.7m0-4.1a95.826,95.826,0,0,1,53.827,16.441,96.611,96.611,0,0,1,34.869,42.306,96.153,96.153,0,0,1-8.845,91.375,96.583,96.583,0,0,1-42.306,34.869,96.151,96.151,0,0,1-91.373-8.845,96.584,96.584,0,0,1-34.869-42.306,96.151,96.151,0,0,1,8.845-91.373,96.584,96.584,0,0,1,42.306-34.869,95.681,95.681,0,0,1,37.546-7.6" transform="translate(66.576 66.576)" fill="#f0bd51"/>
                    <path id="Trazado_603448" data-name="Trazado 603448" d="M175.548,69.041a106.021,106.021,0,0,0-59.559,18.2,106.841,106.841,0,0,0-38.567,46.828A106.361,106.361,0,0,0,87.24,235.108a106.8,106.8,0,0,0,46.83,38.565,106.375,106.375,0,0,0,101.037-9.817,106.827,106.827,0,0,0,38.567-46.83,106.35,106.35,0,0,0-9.819-101.037,106.827,106.827,0,0,0-46.83-38.567,105.818,105.818,0,0,0-41.477-8.381m0-3.7a109.7,109.7,0,0,1,61.61,18.82,110.54,110.54,0,0,1,39.913,48.435A110.046,110.046,0,0,1,266.94,237.157a110.539,110.539,0,0,1-48.435,39.913,110.061,110.061,0,0,1-104.566-10.13A110.513,110.513,0,0,1,74.026,218.5a110.041,110.041,0,0,1,10.13-104.566A110.568,110.568,0,0,1,132.59,74.025a109.523,109.523,0,0,1,42.958-8.688" transform="translate(59.919 59.918)" fill="#f0bd51"/>
                    <path id="Trazado_603449" data-name="Trazado 603449" d="M182.206,61.385a120.28,120.28,0,0,0-67.561,20.643A121.166,121.166,0,0,0,70.89,135.159a120.665,120.665,0,0,0,11.138,114.61,121.208,121.208,0,0,0,53.131,43.755,120.638,120.638,0,0,0,114.608-11.14,121.152,121.152,0,0,0,43.755-53.129,120.664,120.664,0,0,0-11.138-114.61A121.179,121.179,0,0,0,229.254,70.89a120.067,120.067,0,0,0-47.049-9.5m0-3.307a123.525,123.525,0,0,1,69.392,21.2,124.527,124.527,0,0,1,44.959,54.563A123.961,123.961,0,0,1,285.138,251.6a124.5,124.5,0,0,1-54.565,44.959,123.941,123.941,0,0,1-117.759-11.418,124.51,124.51,0,0,1-44.957-54.565A123.957,123.957,0,0,1,79.273,112.814a124.51,124.51,0,0,1,54.565-44.957,123.362,123.362,0,0,1,48.367-9.779" transform="translate(53.261 53.261)" fill="#f0bd51"/>
                    <path id="Trazado_603450" data-name="Trazado 603450" d="M188.864,53.728A134.493,134.493,0,0,0,113.3,76.815a135.523,135.523,0,0,0-48.944,59.431,134.944,134.944,0,0,0,12.459,128.18,135.551,135.551,0,0,0,59.431,48.944,134.954,134.954,0,0,0,128.182-12.459,135.56,135.56,0,0,0,48.943-59.431A134.954,134.954,0,0,0,300.912,113.3a135.532,135.532,0,0,0-59.431-48.943,134.3,134.3,0,0,0-52.618-10.628m0-2.91a137.366,137.366,0,0,1,77.175,23.574,138.452,138.452,0,0,1,50,60.692,137.838,137.838,0,0,1-12.7,130.954,138.453,138.453,0,0,1-60.692,50,137.858,137.858,0,0,1-130.954-12.7,138.452,138.452,0,0,1-50-60.692,137.858,137.858,0,0,1,12.7-130.954,138.483,138.483,0,0,1,60.692-50,137.2,137.2,0,0,1,53.779-10.868" transform="translate(46.603 46.603)" fill="#f0bd51"/>
                    <path id="Trazado_603451" data-name="Trazado 603451" d="M195.521,46.071A148.751,148.751,0,0,0,111.957,71.6a149.867,149.867,0,0,0-54.134,65.734A149.258,149.258,0,0,0,71.6,279.088a150.265,150.265,0,0,0,40.356,40.352A149.484,149.484,0,1,0,195.521,46.071m0-2.513a151.233,151.233,0,0,1,84.956,25.951,152.384,152.384,0,0,1,55.046,66.823,151.743,151.743,0,0,1-13.991,144.146,152.412,152.412,0,0,1-66.823,55.046,151.743,151.743,0,0,1-144.146-13.991,152.412,152.412,0,0,1-55.046-66.823A151.774,151.774,0,0,1,69.509,110.563a152.422,152.422,0,0,1,66.823-55.045,151,151,0,0,1,59.189-11.961" transform="translate(39.945 39.945)" fill="#f0bd51"/>
                    <path id="Trazado_603452" data-name="Trazado 603452" d="M202.178,38.414A163,163,0,0,0,110.61,66.388a164.232,164.232,0,0,0-59.322,72.034,163.537,163.537,0,0,0,15.1,155.324,164.247,164.247,0,0,0,72.035,59.321,163.546,163.546,0,0,0,155.324-15.1,164.259,164.259,0,0,0,59.322-72.034,163.548,163.548,0,0,0-15.1-155.326,164.257,164.257,0,0,0-72.035-59.32,162.723,162.723,0,0,0-63.756-12.875m0-2.116a165.075,165.075,0,0,1,92.74,28.328,166.368,166.368,0,0,1,60.09,72.952,165.658,165.658,0,0,1-15.277,157.339,166.4,166.4,0,0,1-72.952,60.092A165.645,165.645,0,0,1,109.439,339.73,166.336,166.336,0,0,1,49.35,266.778,165.653,165.653,0,0,1,64.625,109.44a166.386,166.386,0,0,1,72.954-60.092,164.859,164.859,0,0,1,64.6-13.049" transform="translate(33.288 33.287)" fill="#f0bd51"/>
                    <path id="Trazado_603453" data-name="Trazado 603453" d="M208.836,30.757a177.276,177.276,0,0,0-99.57,30.418,178.586,178.586,0,0,0-64.509,78.337A177.849,177.849,0,0,0,61.175,308.406a178.617,178.617,0,0,0,78.337,64.511A177.834,177.834,0,0,0,308.406,356.5a178.586,178.586,0,0,0,64.509-78.337A177.85,177.85,0,0,0,356.5,109.266a178.586,178.586,0,0,0-78.337-64.509,176.958,176.958,0,0,0-69.325-14m0-1.718A178.941,178.941,0,0,1,309.357,59.745a180.355,180.355,0,0,1,65.136,79.081,179.539,179.539,0,0,1-16.565,170.534,180.338,180.338,0,0,1-79.081,65.134,179.537,179.537,0,0,1-170.532-16.565,180.3,180.3,0,0,1-65.134-79.081A179.553,179.553,0,0,1,59.745,108.315a180.355,180.355,0,0,1,79.081-65.136,178.7,178.7,0,0,1,70.011-14.14" transform="translate(26.631 26.631)" fill="#f0bd51"/>
                    <path id="Trazado_603454" data-name="Trazado 603454" d="M215.494,23.1A191.489,191.489,0,0,0,107.922,55.962a192.929,192.929,0,0,0-69.7,84.638A192.138,192.138,0,0,0,55.962,323.066a192.97,192.97,0,0,0,84.636,69.7,192.131,192.131,0,0,0,182.468-17.739,192.956,192.956,0,0,0,69.7-84.638A192.148,192.148,0,0,0,375.026,107.92a192.98,192.98,0,0,0-84.636-69.7,191.207,191.207,0,0,0-74.9-15.124m0-1.321A192.8,192.8,0,0,1,323.8,54.862a194.3,194.3,0,0,1,70.18,85.211A193.452,193.452,0,0,1,376.127,323.8a194.3,194.3,0,0,1-85.211,70.18A193.452,193.452,0,0,1,107.19,376.127a194.266,194.266,0,0,1-70.178-85.211A193.469,193.469,0,0,1,54.862,107.19a194.3,194.3,0,0,1,85.211-70.18,192.506,192.506,0,0,1,75.421-15.231" transform="translate(19.973 19.973)" fill="#f0bd51"/>
                    <path id="Trazado_603455" data-name="Trazado 603455" d="M222.151,15.443a205.748,205.748,0,0,0-115.574,35.3,207.286,207.286,0,0,0-74.888,90.94A206.443,206.443,0,0,0,50.747,337.726a207.325,207.325,0,0,0,90.94,74.886,206.445,206.445,0,0,0,196.041-19.058,207.3,207.3,0,0,0,74.886-90.94,206.443,206.443,0,0,0-19.058-196.039,207.3,207.3,0,0,0-90.94-74.886,205.4,205.4,0,0,0-80.465-16.247m0-.924a206.643,206.643,0,0,1,116.088,35.46,208.222,208.222,0,0,1,75.222,91.34,207.355,207.355,0,0,1-19.136,196.919,208.253,208.253,0,0,1-91.34,75.224,207.339,207.339,0,0,1-196.918-19.138,208.212,208.212,0,0,1-75.224-91.34A207.363,207.363,0,0,1,49.978,106.064a208.282,208.282,0,0,1,91.34-75.224,206.347,206.347,0,0,1,80.833-16.322" transform="translate(13.316 13.315)" fill="#f0bd51"/>
                    <path id="Trazado_603456" data-name="Trazado 603456" d="M228.809,7.786A219.979,219.979,0,0,0,105.233,45.535a221.67,221.67,0,0,0-80.078,97.239A220.733,220.733,0,0,0,45.534,352.385a221.7,221.7,0,0,0,97.241,80.076,220.732,220.732,0,0,0,209.611-20.378,221.667,221.667,0,0,0,80.076-97.241,220.722,220.722,0,0,0-20.378-209.609,221.667,221.667,0,0,0-97.241-80.076,219.63,219.63,0,0,0-86.034-17.37m0-.527A220.509,220.509,0,0,1,352.678,45.1a222.21,222.21,0,0,1,80.267,97.469,221.244,221.244,0,0,1-20.424,210.114,222.208,222.208,0,0,1-97.469,80.267A221.255,221.255,0,0,1,104.94,412.522a222.209,222.209,0,0,1-80.267-97.469A221.265,221.265,0,0,1,45.1,104.939a222.209,222.209,0,0,1,97.469-80.267A220.179,220.179,0,0,1,228.809,7.259" transform="translate(6.658 6.657)" fill="#f0bd51"/>
                    <path id="Trazado_603457" data-name="Trazado 603457" d="M235.467.128A234.273,234.273,0,0,0,103.887,40.322,236.006,236.006,0,0,0,18.624,143.864a235.037,235.037,0,0,0,21.7,223.182,236.006,236.006,0,0,0,103.542,85.263,235.037,235.037,0,0,0,223.182-21.7A236.005,236.005,0,0,0,452.309,327.07a235.037,235.037,0,0,0-21.7-223.182A236.006,236.006,0,0,0,327.07,18.624a233.83,233.83,0,0,0-91.6-18.5m0,470.805a234.332,234.332,0,0,1-131.65-40.214,236.11,236.11,0,0,1-85.311-103.6,235.165,235.165,0,0,1,21.709-223.3A236.193,236.193,0,0,1,143.812,18.5,235.152,235.152,0,0,1,367.119,40.214a236.166,236.166,0,0,1,85.311,103.6,235.16,235.16,0,0,1-21.711,223.307,236.165,236.165,0,0,1-103.6,85.311,234.027,234.027,0,0,1-91.655,18.5" transform="translate(0 0)" fill="#f0bd51"/>
                    <path id="Trazado_603458" data-name="Trazado 603458" d="M128.945,122.64a6.3,6.3,0,1,0,6.305,6.3,6.31,6.31,0,0,0-6.305-6.3m0,19.094a12.79,12.79,0,1,1,12.791-12.791,12.8,12.8,0,0,1-12.791,12.791" transform="translate(106.522 106.521)" fill="#f0bd51"/>
                    <path id="Trazado_603459" data-name="Trazado 603459" d="M135.6,114.985a20.518,20.518,0,0,0-11.546,3.537,20.651,20.651,0,0,0-7.434,9.02,20.6,20.6,0,0,0,1.9,19.608,20.7,20.7,0,0,0,9.022,7.436,20.665,20.665,0,0,0,16.122,0,20.757,20.757,0,0,0,9.022-7.436,20.6,20.6,0,0,0,0-23.093,20.774,20.774,0,0,0-5.536-5.535,20.518,20.518,0,0,0-11.546-3.537m0-6.089a26.549,26.549,0,0,1,14.915,4.555,26.828,26.828,0,0,1,9.649,11.66,26.64,26.64,0,0,1-2.412,25.407,26.786,26.786,0,0,1-11.66,9.649,26.762,26.762,0,0,1-20.888.042A26.707,26.707,0,0,1,135.6,108.9" transform="translate(99.864 99.864)" fill="#f0bd51"/>
                    <path id="Trazado_603460" data-name="Trazado 603460" d="M142.26,107.328a34.776,34.776,0,0,0-19.548,5.979,35.037,35.037,0,0,0-12.624,15.323,34.883,34.883,0,0,0,3.219,33.179,35.037,35.037,0,0,0,15.323,12.624,34.884,34.884,0,0,0,33.179-3.219,35.037,35.037,0,0,0,12.624-15.323,34.884,34.884,0,0,0-3.219-33.179,35.038,35.038,0,0,0-15.323-12.624,34.718,34.718,0,0,0-13.63-2.761m0-5.692a40.435,40.435,0,0,1,22.7,6.932,40.784,40.784,0,0,1,14.692,17.788,40.565,40.565,0,0,1-3.7,38.6,40.784,40.784,0,0,1-17.788,14.692,40.557,40.557,0,0,1-38.6-3.7,40.784,40.784,0,0,1-14.692-17.788,40.557,40.557,0,0,1,3.7-38.6,40.784,40.784,0,0,1,17.788-14.692,40.411,40.411,0,0,1,15.9-3.234" transform="translate(93.206 93.206)" fill="#f0bd51"/>
                    <path id="Trazado_603461" data-name="Trazado 603461" d="M148.918,99.669a49.024,49.024,0,0,0-27.55,8.425,49.393,49.393,0,0,0-17.813,21.623,49.173,49.173,0,0,0,4.54,46.751,49.409,49.409,0,0,0,21.624,17.813,49.171,49.171,0,0,0,46.749-4.54,49.408,49.408,0,0,0,17.813-21.624,49.173,49.173,0,0,0-4.54-46.751,49.489,49.489,0,0,0-13.274-13.272,49.024,49.024,0,0,0-27.55-8.425m0-5.293a54.276,54.276,0,0,1,30.479,9.309A54.717,54.717,0,0,1,199.136,127.6a54.455,54.455,0,0,1-4.986,51.793,54.781,54.781,0,0,1-14.677,14.7,54.532,54.532,0,0,1-75.785-75.661A54.74,54.74,0,0,1,127.6,98.7a54.209,54.209,0,0,1,21.314-4.325" transform="translate(86.549 86.549)" fill="#f0bd51"/>
                    <path id="Trazado_603462" data-name="Trazado 603462" d="M155.575,92.013a63.265,63.265,0,0,0-35.552,10.868,63.747,63.747,0,0,0-23,27.926,63.477,63.477,0,0,0,5.859,60.322,63.728,63.728,0,0,0,27.924,23,63.484,63.484,0,0,0,60.322-5.857,63.779,63.779,0,0,0,23-27.926,63.461,63.461,0,0,0-5.86-60.322,63.76,63.76,0,0,0-27.924-23,63.16,63.16,0,0,0-24.77-5.009m0-4.9A68.117,68.117,0,0,1,193.838,98.8a68.64,68.64,0,0,1,24.78,30.048,68.334,68.334,0,0,1-6.271,64.985A68.676,68.676,0,0,1,182.3,218.62a68.429,68.429,0,0,1-75.1-14.612A68.506,68.506,0,0,1,92.533,182.3,68.336,68.336,0,0,1,98.8,117.315a68.686,68.686,0,0,1,30.046-24.782,68.058,68.058,0,0,1,26.726-5.416" transform="translate(79.892 79.892)" fill="#f0bd51"/>
                    <path id="Trazado_603463" data-name="Trazado 603463" d="M162.233,84.356a77.515,77.515,0,0,0-43.556,13.312,78.141,78.141,0,0,0-28.188,34.225,77.767,77.767,0,0,0,7.179,73.9,78.071,78.071,0,0,0,34.225,28.188,77.783,77.783,0,0,0,73.9-7.177A78.354,78.354,0,0,0,226.8,205.789a77.836,77.836,0,0,0-9.5-98.621,78.013,78.013,0,0,0-24.726-16.678,77.393,77.393,0,0,0-30.339-6.133m0-4.5a81.984,81.984,0,0,1,46.044,14.064A82.819,82.819,0,0,1,230.5,116.126a82.427,82.427,0,1,1-136.581.063A82.656,82.656,0,0,1,130.1,86.363a81.884,81.884,0,0,1,32.136-6.506" transform="translate(73.234 73.234)" fill="#f0bd51"/>
                    <path id="Trazado_603464" data-name="Trazado 603464" d="M168.891,76.7a91.774,91.774,0,0,0-51.557,15.754,92.456,92.456,0,0,0-33.378,40.529,92.071,92.071,0,0,0,8.5,87.466,92.5,92.5,0,0,0,40.529,33.378,92.055,92.055,0,0,0,87.466-8.5A92.442,92.442,0,0,0,253.826,204.8a92.071,92.071,0,0,0-8.5-87.466A92.457,92.457,0,0,0,204.8,83.956,91.625,91.625,0,0,0,168.891,76.7m0-4.1a95.826,95.826,0,0,1,53.827,16.441,96.611,96.611,0,0,1,34.869,42.306,96.153,96.153,0,0,1-8.845,91.375,96.583,96.583,0,0,1-42.306,34.869,96.151,96.151,0,0,1-91.373-8.845,96.584,96.584,0,0,1-34.869-42.306,96.151,96.151,0,0,1,8.845-91.373,96.584,96.584,0,0,1,42.306-34.869,95.681,95.681,0,0,1,37.546-7.6" transform="translate(66.576 66.576)" fill="#f0bd51"/>
                    <path id="Trazado_603465" data-name="Trazado 603465" d="M175.548,69.041a106.021,106.021,0,0,0-59.559,18.2,106.841,106.841,0,0,0-38.567,46.828A106.361,106.361,0,0,0,87.24,235.108a106.8,106.8,0,0,0,46.83,38.565,106.375,106.375,0,0,0,101.037-9.817,106.827,106.827,0,0,0,38.567-46.83,106.35,106.35,0,0,0-9.819-101.037,106.827,106.827,0,0,0-46.83-38.567,105.818,105.818,0,0,0-41.477-8.381m0-3.7a109.7,109.7,0,0,1,61.61,18.82,110.54,110.54,0,0,1,39.913,48.435A110.046,110.046,0,0,1,266.94,237.157a110.539,110.539,0,0,1-48.435,39.913,110.061,110.061,0,0,1-104.566-10.13A110.513,110.513,0,0,1,74.026,218.5a110.041,110.041,0,0,1,10.13-104.566A110.568,110.568,0,0,1,132.59,74.025a109.523,109.523,0,0,1,42.958-8.688" transform="translate(59.919 59.918)" fill="#f0bd51"/>
                    <path id="Trazado_603466" data-name="Trazado 603466" d="M182.206,61.385a120.28,120.28,0,0,0-67.561,20.643A121.166,121.166,0,0,0,70.89,135.159a120.665,120.665,0,0,0,11.138,114.61,121.208,121.208,0,0,0,53.131,43.755,120.638,120.638,0,0,0,114.608-11.14,121.152,121.152,0,0,0,43.755-53.129,120.664,120.664,0,0,0-11.138-114.61A121.179,121.179,0,0,0,229.254,70.89a120.067,120.067,0,0,0-47.049-9.5m0-3.307a123.525,123.525,0,0,1,69.392,21.2,124.527,124.527,0,0,1,44.959,54.563A123.961,123.961,0,0,1,285.138,251.6a124.5,124.5,0,0,1-54.565,44.959,123.941,123.941,0,0,1-117.759-11.418,124.51,124.51,0,0,1-44.957-54.565A123.957,123.957,0,0,1,79.273,112.814a124.51,124.51,0,0,1,54.565-44.957,123.362,123.362,0,0,1,48.367-9.779" transform="translate(53.261 53.261)" fill="#f0bd51"/>
                    <path id="Trazado_603467" data-name="Trazado 603467" d="M188.864,53.728A134.493,134.493,0,0,0,113.3,76.815a135.523,135.523,0,0,0-48.944,59.431,134.944,134.944,0,0,0,12.459,128.18,135.551,135.551,0,0,0,59.431,48.944,134.954,134.954,0,0,0,128.182-12.459,135.56,135.56,0,0,0,48.943-59.431A134.954,134.954,0,0,0,300.912,113.3a135.532,135.532,0,0,0-59.431-48.943,134.3,134.3,0,0,0-52.618-10.628m0-2.91a137.366,137.366,0,0,1,77.175,23.574,138.452,138.452,0,0,1,50,60.692,137.838,137.838,0,0,1-12.7,130.954,138.453,138.453,0,0,1-60.692,50,137.858,137.858,0,0,1-130.954-12.7,138.452,138.452,0,0,1-50-60.692,137.858,137.858,0,0,1,12.7-130.954,138.483,138.483,0,0,1,60.692-50,137.2,137.2,0,0,1,53.779-10.868" transform="translate(46.603 46.603)" fill="#f0bd51"/>
                    <path id="Trazado_603468" data-name="Trazado 603468" d="M195.521,46.071A148.751,148.751,0,0,0,111.957,71.6a149.867,149.867,0,0,0-54.134,65.734A149.258,149.258,0,0,0,71.6,279.088a150.265,150.265,0,0,0,40.356,40.352A149.484,149.484,0,1,0,195.521,46.071m0-2.513a151.233,151.233,0,0,1,84.956,25.951,152.384,152.384,0,0,1,55.046,66.823,151.743,151.743,0,0,1-13.991,144.146,152.412,152.412,0,0,1-66.823,55.046,151.743,151.743,0,0,1-144.146-13.991,152.412,152.412,0,0,1-55.046-66.823A151.774,151.774,0,0,1,69.509,110.563a152.422,152.422,0,0,1,66.823-55.045,151,151,0,0,1,59.189-11.961" transform="translate(39.945 39.945)" fill="#f0bd51"/>
                    <path id="Trazado_603469" data-name="Trazado 603469" d="M202.178,38.414A163,163,0,0,0,110.61,66.388a164.232,164.232,0,0,0-59.322,72.034,163.537,163.537,0,0,0,15.1,155.324,164.247,164.247,0,0,0,72.035,59.321,163.546,163.546,0,0,0,155.324-15.1,164.259,164.259,0,0,0,59.322-72.034,163.548,163.548,0,0,0-15.1-155.326,164.257,164.257,0,0,0-72.035-59.32,162.723,162.723,0,0,0-63.756-12.875m0-2.116a165.075,165.075,0,0,1,92.74,28.328,166.368,166.368,0,0,1,60.09,72.952,165.658,165.658,0,0,1-15.277,157.339,166.4,166.4,0,0,1-72.952,60.092A165.645,165.645,0,0,1,109.439,339.73,166.336,166.336,0,0,1,49.35,266.778,165.653,165.653,0,0,1,64.625,109.44a166.386,166.386,0,0,1,72.954-60.092,164.859,164.859,0,0,1,64.6-13.049" transform="translate(33.288 33.287)" fill="#f0bd51"/>
                    <path id="Trazado_603470" data-name="Trazado 603470" d="M208.836,30.757a177.276,177.276,0,0,0-99.57,30.418,178.586,178.586,0,0,0-64.509,78.337A177.849,177.849,0,0,0,61.175,308.406a178.617,178.617,0,0,0,78.337,64.511A177.834,177.834,0,0,0,308.406,356.5a178.586,178.586,0,0,0,64.509-78.337A177.85,177.85,0,0,0,356.5,109.266a178.586,178.586,0,0,0-78.337-64.509,176.958,176.958,0,0,0-69.325-14m0-1.718A178.941,178.941,0,0,1,309.357,59.745a180.355,180.355,0,0,1,65.136,79.081,179.539,179.539,0,0,1-16.565,170.534,180.338,180.338,0,0,1-79.081,65.134,179.537,179.537,0,0,1-170.532-16.565,180.3,180.3,0,0,1-65.134-79.081A179.553,179.553,0,0,1,59.745,108.315a180.355,180.355,0,0,1,79.081-65.136,178.7,178.7,0,0,1,70.011-14.14" transform="translate(26.631 26.631)" fill="#f0bd51"/>
                    <path id="Trazado_603471" data-name="Trazado 603471" d="M215.494,23.1A191.489,191.489,0,0,0,107.922,55.962a192.929,192.929,0,0,0-69.7,84.638A192.138,192.138,0,0,0,55.962,323.066a192.97,192.97,0,0,0,84.636,69.7,192.131,192.131,0,0,0,182.468-17.739,192.956,192.956,0,0,0,69.7-84.638A192.148,192.148,0,0,0,375.026,107.92a192.98,192.98,0,0,0-84.636-69.7,191.207,191.207,0,0,0-74.9-15.124m0-1.321A192.8,192.8,0,0,1,323.8,54.862a194.3,194.3,0,0,1,70.18,85.211A193.452,193.452,0,0,1,376.127,323.8a194.3,194.3,0,0,1-85.211,70.18A193.452,193.452,0,0,1,107.19,376.127a194.266,194.266,0,0,1-70.178-85.211A193.469,193.469,0,0,1,54.862,107.19a194.3,194.3,0,0,1,85.211-70.18,192.506,192.506,0,0,1,75.421-15.231" transform="translate(19.973 19.973)" fill="#f0bd51"/>
                    <path id="Trazado_603472" data-name="Trazado 603472" d="M222.151,15.443a205.748,205.748,0,0,0-115.574,35.3,207.286,207.286,0,0,0-74.888,90.94A206.443,206.443,0,0,0,50.747,337.726a207.325,207.325,0,0,0,90.94,74.886,206.445,206.445,0,0,0,196.041-19.058,207.3,207.3,0,0,0,74.886-90.94,206.443,206.443,0,0,0-19.058-196.039,207.3,207.3,0,0,0-90.94-74.886,205.4,205.4,0,0,0-80.465-16.247m0-.924a206.643,206.643,0,0,1,116.088,35.46,208.222,208.222,0,0,1,75.222,91.34,207.355,207.355,0,0,1-19.136,196.919,208.253,208.253,0,0,1-91.34,75.224,207.339,207.339,0,0,1-196.918-19.138,208.212,208.212,0,0,1-75.224-91.34A207.363,207.363,0,0,1,49.978,106.064a208.282,208.282,0,0,1,91.34-75.224,206.347,206.347,0,0,1,80.833-16.322" transform="translate(13.316 13.315)" fill="#f0bd51"/>
                    <path id="Trazado_603473" data-name="Trazado 603473" d="M228.809,7.786A219.979,219.979,0,0,0,105.233,45.535a221.67,221.67,0,0,0-80.078,97.239A220.733,220.733,0,0,0,45.534,352.385a221.7,221.7,0,0,0,97.241,80.076,220.732,220.732,0,0,0,209.611-20.378,221.667,221.667,0,0,0,80.076-97.241,220.722,220.722,0,0,0-20.378-209.609,221.667,221.667,0,0,0-97.241-80.076,219.63,219.63,0,0,0-86.034-17.37m0-.527A220.509,220.509,0,0,1,352.678,45.1a222.21,222.21,0,0,1,80.267,97.469,221.244,221.244,0,0,1-20.424,210.114,222.208,222.208,0,0,1-97.469,80.267A221.255,221.255,0,0,1,104.94,412.522a222.209,222.209,0,0,1-80.267-97.469A221.265,221.265,0,0,1,45.1,104.939a222.209,222.209,0,0,1,97.469-80.267A220.179,220.179,0,0,1,228.809,7.259" transform="translate(6.658 6.657)" fill="#f0bd51"/>
                    <path id="Trazado_603474" data-name="Trazado 603474" d="M235.467.128A234.273,234.273,0,0,0,103.887,40.322,236.006,236.006,0,0,0,18.624,143.864a235.037,235.037,0,0,0,21.7,223.182,236.006,236.006,0,0,0,103.542,85.263,235.037,235.037,0,0,0,223.182-21.7A236.005,236.005,0,0,0,452.309,327.07a235.037,235.037,0,0,0-21.7-223.182A236.006,236.006,0,0,0,327.07,18.624a233.83,233.83,0,0,0-91.6-18.5m0,470.805a234.332,234.332,0,0,1-131.65-40.214,236.11,236.11,0,0,1-85.311-103.6,235.165,235.165,0,0,1,21.709-223.3A236.193,236.193,0,0,1,143.812,18.5,235.152,235.152,0,0,1,367.119,40.214a236.166,236.166,0,0,1,85.311,103.6,235.16,235.16,0,0,1-21.711,223.307,236.165,236.165,0,0,1-103.6,85.311,234.027,234.027,0,0,1-91.655,18.5" transform="translate(0 0)" fill="#f0bd51"/>
                  </g>
                </g>
              </g>
            </g>
          </g>
        </g>
      </g>
    </g>
  </g>
</svg>
