<svg xmlns="http://www.w3.org/2000/svg" width="100" height="100" viewBox="0 0 100 100">
  <g id="c1" transform="translate(-436 -2561)">
    <circle id="Elipse_7855" data-name="Elipse 7855" cx="50" cy="50" r="50" transform="translate(436 2561)" fill="#449c6e"/>
    <g id="box" transform="translate(454.322 2579.518)">
      <path id="Trazado_691697" data-name="Trazado 691697" d="M40.163,52.19l-9.819-9.819a2.392,2.392,0,0,1,0-3.382l8.616-8.616a2.392,2.392,0,0,1,3.382,0l9.819,9.819a2.392,2.392,0,0,1,0,3.382L43.546,52.19a2.392,2.392,0,0,1-3.382,0Z" transform="translate(-24.919 -26.139)" fill="#b3e59f"/>
      <path id="Trazado_691698" data-name="Trazado 691698" d="M305.168,17.746a10.247,10.247,0,1,0-17.684,7.046,9.084,9.084,0,0,1,2.442,6.26v3.273h9.991V31.007a9.086,9.086,0,0,1,2.462-6.236A10.206,10.206,0,0,0,305.168,17.746Z" transform="translate(-249.583 -6.607)" fill="#f9ef63"/>
      <path id="Trazado_691699" data-name="Trazado 691699" d="M355.873,7.51a10.117,10.117,0,0,0-1.456.174,10.243,10.243,0,0,1,5.528,17.086,9.086,9.086,0,0,0-2.462,6.236v3.318h3.872V31.006a9.086,9.086,0,0,1,2.462-6.236,10.245,10.245,0,0,0-7.943-17.26Z" transform="translate(-311.019 -6.606)" fill="#f6e738"/>
      <circle id="Elipse_7856" data-name="Elipse 7856" cx="6.487" cy="6.487" r="6.487" transform="translate(22.118 10.038)" fill="#617881"/>
      <path id="Trazado_691700" data-name="Trazado 691700" d="M148.907,33.989l.774-1.407a1.815,1.815,0,0,0-.019-1.782l-.784-1.357a1.815,1.815,0,0,0-1.534-.907l-1.606-.034a1.814,1.814,0,0,1-.869-.243l-3.7-2.136a1.815,1.815,0,0,1-.645-.632l-.832-1.374a1.815,1.815,0,0,0-1.552-.875h-1.567a1.815,1.815,0,0,0-1.552.875l-.832,1.374a1.816,1.816,0,0,1-.645.632l-3.7,2.136a1.815,1.815,0,0,1-.869.243l-1.606.034a1.815,1.815,0,0,0-1.534.907l-.784,1.357a1.815,1.815,0,0,0-.019,1.782l.774,1.407a1.814,1.814,0,0,1,.224.874v4.273a1.814,1.814,0,0,1-.224.874l-.774,1.407a1.815,1.815,0,0,0,.019,1.782l.784,1.357a1.815,1.815,0,0,0,1.534.907l1.606.034a1.814,1.814,0,0,1,.869.243l3.7,2.136a1.815,1.815,0,0,1,.645.632l.832,1.374a1.815,1.815,0,0,0,1.552.875h1.567a1.815,1.815,0,0,0,1.552-.875l.832-1.374a1.815,1.815,0,0,1,.645-.632l3.7-2.136a1.815,1.815,0,0,1,.869-.243l1.606-.034a1.815,1.815,0,0,0,1.534-.907l.784-1.357a1.815,1.815,0,0,0,.019-1.782l-.774-1.407a1.815,1.815,0,0,1-.224-.874V34.864A1.815,1.815,0,0,1,148.907,33.989Zm-11.2,8.4a5.4,5.4,0,1,1,5.034-5.034A5.4,5.4,0,0,1,137.707,42.385Z" transform="translate(-108.751 -20.475)" fill="#738b95"/>
      <path id="Trazado_691701" data-name="Trazado 691701" d="M227.52,40.011a1.814,1.814,0,0,1-.224-.874V34.864a1.814,1.814,0,0,1,.224-.874l.774-1.407a1.815,1.815,0,0,0-.019-1.782l-.784-1.357a1.815,1.815,0,0,0-1.534-.907l-1.606-.034a1.814,1.814,0,0,1-.869-.243l-3.7-2.136a1.815,1.815,0,0,1-.645-.632l-.832-1.374a1.815,1.815,0,0,0-1.552-.875h-1.567a1.811,1.811,0,0,0-1.139.406,1.81,1.81,0,0,1,.413.468l.832,1.374a1.816,1.816,0,0,0,.645.632l3.7,2.136a1.815,1.815,0,0,0,.869.243l1.606.034a1.815,1.815,0,0,1,1.534.907l.784,1.357a1.815,1.815,0,0,1,.019,1.782l-.774,1.407a1.815,1.815,0,0,0-.224.874v4.273a1.814,1.814,0,0,0,.224.874l.774,1.407a1.815,1.815,0,0,1-.019,1.782l-.784,1.357a1.815,1.815,0,0,1-1.534.907l-1.606.034a1.814,1.814,0,0,0-.869.243l-3.7,2.136a1.816,1.816,0,0,0-.645.632l-.832,1.374a1.808,1.808,0,0,1-.413.468,1.812,1.812,0,0,0,1.139.406h1.567a1.815,1.815,0,0,0,1.552-.875l.832-1.374a1.815,1.815,0,0,1,.645-.632l3.7-2.136a1.815,1.815,0,0,1,.869-.243l1.606-.034a1.815,1.815,0,0,0,1.534-.907l.784-1.357a1.815,1.815,0,0,0,.019-1.782Z" transform="translate(-187.364 -20.475)" fill="#617881"/>
      <path id="Trazado_691702" data-name="Trazado 691702" d="M92.221,264H60.833a3.258,3.258,0,0,1-3.258-3.258v-29.25H92.221Z" transform="translate(-49.524 -203.929)" fill="#e7a561"/>
      <path id="Trazado_691703" data-name="Trazado 691703" d="M348.54,264h10.8a3.258,3.258,0,0,0,3.258-3.258v-29.25H348.54Z" transform="translate(-305.843 -203.929)" fill="#e49542"/>
      <path id="Trazado_691704" data-name="Trazado 691704" d="M49.3,189.779H14.657l-5.8-5.638H43.5Z" transform="translate(-6.606 -162.215)" fill="#e28424"/>
      <path id="Trazado_691705" data-name="Trazado 691705" d="M362.6,189.779H348.54l4.351-5.638h14.058Z" transform="translate(-305.843 -162.215)" fill="#e28424"/>
      <g id="Grupo_979568" data-name="Grupo 979568" transform="translate(1.357 0)">
        <path id="Trazado_691706" data-name="Trazado 691706" d="M61.907,21.532a.893.893,0,0,0-.8-.5H51.944a8.154,8.154,0,0,1,1.5-2.256A11.139,11.139,0,0,0,54.972,5.543a.893.893,0,0,0-1.544.9,9.353,9.353,0,0,1-1.282,11.11,9.975,9.975,0,0,0-2.125,3.482H47.048a.893.893,0,0,0-.707.347l-.109.141V14.656A2.244,2.244,0,0,0,47.579,12.6a.893.893,0,0,0-1.786,0,.454.454,0,1,1-.909,0,.893.893,0,1,0-1.786,0,2.244,2.244,0,0,0,1.347,2.055v9.18L42.6,26.226l-1.718-1.669.017-.029.784-1.357a2.723,2.723,0,0,0,.028-2.658l-.774-1.407a.924.924,0,0,1-.114-.444V14.388a.924.924,0,0,1,.114-.444l.774-1.407a2.723,2.723,0,0,0-.028-2.658L40.9,8.521a2.723,2.723,0,0,0-2.288-1.353l-1.605-.034a.941.941,0,0,1-.113-.009A9.349,9.349,0,0,1,51.232,3.877.893.893,0,0,0,52.358,2.49a11.134,11.134,0,0,0-17.043,3.8l-2.45-1.414a.925.925,0,0,1-.328-.321L31.705,3.18a2.723,2.723,0,0,0-2.316-1.305H27.822A2.723,2.723,0,0,0,25.506,3.18l-.832,1.374a.927.927,0,0,1-.328.321L21.165,6.711,18.056,3.6a3.285,3.285,0,0,0-4.645,0L4.794,12.219a3.289,3.289,0,0,0,0,4.645l4.169,4.169H2.25a.893.893,0,0,0-.622,1.533l5.53,5.375V56.814a4.155,4.155,0,0,0,4.151,4.151h3.6a.893.893,0,0,0,0-1.786h-3.6a2.367,2.367,0,0,1-2.364-2.365V28.457H41.8V59.179H18.476a.893.893,0,0,0,0,1.786H53.5a4.155,4.155,0,0,0,4.151-4.151v-1.1a.893.893,0,1,0-1.786,0v1.1A2.367,2.367,0,0,1,53.5,59.179H43.59V28.457H55.862V52.145a.893.893,0,1,0,1.786,0V27.869l4.165-5.4a.893.893,0,0,0,.095-.939ZM25.239,6.421a2.716,2.716,0,0,0,.962-.942l.832-1.374a.927.927,0,0,1,.788-.444h1.567a.927.927,0,0,1,.788.444l.832,1.374a2.714,2.714,0,0,0,.962.942l3.7,2.136a2.718,2.718,0,0,0,1.3.362l1.606.034a.927.927,0,0,1,.779.461l.784,1.357a.927.927,0,0,1,.01.9l-.774,1.408a2.716,2.716,0,0,0-.335,1.3v4.273a2.717,2.717,0,0,0,.335,1.3l.774,1.407a.927.927,0,0,1-.01.9l-.575,1-2.045-1.987a.893.893,0,0,0-.623-.253H32.99a6.289,6.289,0,1,0-8.769,0H17.25l.587-1.067a2.714,2.714,0,0,0,.335-1.3V14.388a2.715,2.715,0,0,0-.335-1.3l-.774-1.407a.927.927,0,0,1,.01-.9l.784-1.357a.927.927,0,0,1,.779-.461l1.606-.034a2.718,2.718,0,0,0,1.3-.362Zm.182,13.287a4.5,4.5,0,1,1,3.478,1.31,4.515,4.515,0,0,1-3.478-1.31ZM6.057,15.6a1.5,1.5,0,0,1,0-2.119l8.616-8.616a1.5,1.5,0,0,1,2.119,0l2.293,2.292-.487.01A2.723,2.723,0,0,0,16.31,8.521l-.784,1.357a2.723,2.723,0,0,0-.028,2.658l.774,1.408a.923.923,0,0,1,.114.444v4.273a.924.924,0,0,1-.114.444L15.5,20.513a2.711,2.711,0,0,0-.219.521h-3.79Zm2.356,11.07L4.45,22.819H36.533L40.5,26.671Zm47.9,0h-11.8l2.973-3.852h11.8Z" transform="translate(-1.357 0)"/>
        <path id="Trazado_691707" data-name="Trazado 691707" d="M87.766,454.437H85.978a.893.893,0,0,0,0,1.786h1.788a.893.893,0,0,0,0-1.786Z" transform="translate(-75.115 -400.326)"/>
        <path id="Trazado_691708" data-name="Trazado 691708" d="M136.332,455.33a.893.893,0,0,0-.893-.893H123.524a.893.893,0,0,0,0,1.786h11.915A.893.893,0,0,0,136.332,455.33Z" transform="translate(-108.191 -400.326)"/>
        <path id="Trazado_691709" data-name="Trazado 691709" d="M87.766,431.1H85.978a.893.893,0,1,0,0,1.786h1.788a.893.893,0,1,0,0-1.786Z" transform="translate(-75.115 -379.766)"/>
        <path id="Trazado_691710" data-name="Trazado 691710" d="M123.524,432.884h11.915a.893.893,0,1,0,0-1.786H123.524a.893.893,0,1,0,0,1.786Z" transform="translate(-108.191 -379.766)"/>
      </g>
    </g>
  </g>
</svg>
