<svg xmlns="http://www.w3.org/2000/svg" width="100" height="100" viewBox="0 0 100 100">
  <g id="c3" transform="translate(-1066 -2561)">
    <circle id="Elipse_7858" data-name="Elipse 7858" cx="50" cy="50" r="50" transform="translate(1066 2561)" fill="#449c6e"/>
    <g id="priority" transform="translate(1086 2545.975)">
      <path id="Trazado_691736" data-name="Trazado 691736" d="M73.511,50.876l-3.263,3.607-50.044-.8-2.055-2.809,2.019-2.864a1.144,1.144,0,0,1,.935-.485H70.557a1.144,1.144,0,0,1,.935.485Z" transform="translate(-16.037 -6.628)" fill="#738b95"/>
      <path id="Trazado_691737" data-name="Trazado 691737" d="M448.945,48.013a1.144,1.144,0,0,0-.935-.485h-2.694a1.144,1.144,0,0,1,.935.485l2.019,2.864.949,2.278,1.745-2.278Z" transform="translate(-393.49 -6.629)" fill="#617881"/>
      <path id="Trazado_691738" data-name="Trazado 691738" d="M64.963,121.479H7.878A.378.378,0,0,1,7.5,121.1V76.682a.378.378,0,0,1,.378-.378H64.963a.378.378,0,0,1,.378.378V121.1A.378.378,0,0,1,64.963,121.479Z" transform="translate(-6.627 -32.056)" fill="#f6f9f9"/>
      <path id="Trazado_691739" data-name="Trazado 691739" d="M483.62,76.3H481.3a.378.378,0,0,1,.378.378V121.1a.378.378,0,0,1-.378.378h2.323A.378.378,0,0,0,484,121.1V76.682A.378.378,0,0,0,483.62,76.3Z" transform="translate(-425.284 -32.056)" fill="#dae4ea"/>
      <g id="Grupo_979580" data-name="Grupo 979580" transform="translate(17.729 50.791)">
        <g id="Grupo_979573" data-name="Grupo 979573">
          <path id="Trazado_691740" data-name="Trazado 691740" d="M152.334,132.521h9.979v3.786h-9.979Z" transform="translate(-152.334 -132.521)" fill="#738b95"/>
          <path id="Trazado_691741" data-name="Trazado 691741" d="M217.112,132.521h2.44v3.786h-2.44Z" transform="translate(-209.573 -132.521)" fill="#617881"/>
        </g>
        <g id="Grupo_979574" data-name="Grupo 979574" transform="translate(4.837 7.076)">
          <path id="Trazado_691742" data-name="Trazado 691742" d="M193.893,193.322H219v3.786H193.893Z" transform="translate(-193.893 -193.322)" fill="#b3e59f"/>
          <path id="Trazado_691743" data-name="Trazado 691743" d="M388.67,193.322h2.44v3.786h-2.44Z" transform="translate(-366.002 -193.322)" fill="#80b4fb"/>
        </g>
        <g id="Grupo_979575" data-name="Grupo 979575" transform="translate(9.673 14.152)">
          <path id="Trazado_691744" data-name="Trazado 691744" d="M235.451,254.123h13.47v3.786h-13.47Z" transform="translate(-235.451 -254.123)" fill="#738b95"/>
          <path id="Trazado_691745" data-name="Trazado 691745" d="M330.229,254.123h2.44v3.786h-2.44Z" transform="translate(-319.199 -254.123)" fill="#617881"/>
        </g>
        <g id="Grupo_979576" data-name="Grupo 979576" transform="translate(12.066 21.228)">
          <path id="Trazado_691746" data-name="Trazado 691746" d="M256.01,314.924h25.108v3.786H256.01Z" transform="translate(-256.01 -314.924)" fill="#738b95"/>
          <path id="Trazado_691747" data-name="Trazado 691747" d="M450.787,314.924h2.44v3.786h-2.44Z" transform="translate(-428.119 -314.924)" fill="#617881"/>
        </g>
        <g id="Grupo_979577" data-name="Grupo 979577" transform="translate(22.838 28.304)">
          <path id="Trazado_691748" data-name="Trazado 691748" d="M348.568,375.725h9.979v3.786h-9.979Z" transform="translate(-348.568 -375.725)" fill="#738b95"/>
          <path id="Trazado_691749" data-name="Trazado 691749" d="M413.346,375.725h2.44v3.786h-2.44Z" transform="translate(-405.807 -375.725)" fill="#617881"/>
        </g>
        <g id="Grupo_979579" data-name="Grupo 979579" transform="translate(23.724 3.786)">
          <path id="Trazado_691750" data-name="Trazado 691750" d="M361.122,165.39l.891,1.806a.6.6,0,0,0,.455.331l1.993.29a.6.6,0,0,1,.335,1.031l-1.442,1.406a.6.6,0,0,0-.174.535l.34,1.985a.6.6,0,0,1-.877.637l-1.782-.937a.6.6,0,0,0-.563,0l-1.782.937a.6.6,0,0,1-.877-.637l.34-1.985a.6.6,0,0,0-.174-.535l-1.442-1.406a.6.6,0,0,1,.335-1.031l1.993-.29a.6.6,0,0,0,.455-.331l.891-1.806A.6.6,0,0,1,361.122,165.39Z" transform="translate(-356.181 -165.053)" fill="#f9ef63"/>
          <g id="Grupo_979578" data-name="Grupo 979578" transform="translate(2.681)">
            <path id="Trazado_691751" data-name="Trazado 691751" d="M385.153,168.847a.6.6,0,0,0-.335-1.031l-1.993-.29a.6.6,0,0,1-.455-.331l-.891-1.806a.6.6,0,0,0-1.084,0L379.5,167.2a.6.6,0,0,1-.285.279l.288.584a.6.6,0,0,0,.455.331l1.993.29a.6.6,0,0,1,.335,1.031l-1.442,1.405a.6.6,0,0,0-.174.535l.132.769a.6.6,0,0,1,.413.054l1.782.937a.6.6,0,0,0,.877-.637l-.34-1.985a.6.6,0,0,1,.174-.535Z" transform="translate(-379.218 -165.053)" fill="#f6e738"/>
          </g>
        </g>
      </g>
      <g id="Grupo_979581" data-name="Grupo 979581" transform="translate(0 40.026)">
        <path id="Trazado_691752" data-name="Trazado 691752" d="M36.643,124.9h5a.873.873,0,1,0,0-1.746h-5a.873.873,0,1,0,0,1.746Z" transform="translate(-31.607 -113.48)"/>
        <path id="Trazado_691753" data-name="Trazado 691753" d="M36.643,180.793h5a.873.873,0,1,0,0-1.746h-5a.873.873,0,1,0,0,1.746Z" transform="translate(-31.607 -162.868)"/>
        <path id="Trazado_691754" data-name="Trazado 691754" d="M36.643,236.688h5a.873.873,0,1,0,0-1.746h-5a.873.873,0,1,0,0,1.746Z" transform="translate(-31.607 -212.258)"/>
        <path id="Trazado_691755" data-name="Trazado 691755" d="M36.643,292.581h5a.873.873,0,0,0,0-1.746h-5a.873.873,0,0,0,0,1.746Z" transform="translate(-31.607 -261.646)"/>
        <path id="Trazado_691756" data-name="Trazado 691756" d="M36.643,348.476h5a.873.873,0,1,0,0-1.746h-5a.873.873,0,1,0,0,1.746Z" transform="translate(-31.607 -311.036)"/>
        <path id="Trazado_691757" data-name="Trazado 691757" d="M36.643,404.37h5a.873.873,0,1,0,0-1.746h-5a.873.873,0,1,0,0,1.746Z" transform="translate(-31.607 -360.425)"/>
        <path id="Trazado_691758" data-name="Trazado 691758" d="M58.713,43.375h-.787l-1.758-2.494a2.019,2.019,0,0,0-1.648-.855H46a.873.873,0,1,0,0,1.746H54.52a.271.271,0,0,1,.221.115l1.049,1.488H3.8l1.049-1.488a.271.271,0,0,1,.221-.115H42.508a.873.873,0,1,0,0-1.746H5.066a2.019,2.019,0,0,0-1.648.855L1.66,43.375H.873A.873.873,0,0,0,0,44.248V89.423a.873.873,0,0,0,.873.873H28.048a.873.873,0,1,0,0-1.746H15.069V45.121H57.841V88.55h-26.3a.873.873,0,1,0,0,1.746H58.713a.873.873,0,0,0,.873-.873V44.248a.873.873,0,0,0-.873-.873ZM13.324,88.55H1.746V45.121H13.324Z" transform="translate(0 -40.026)"/>
        <path id="Trazado_691759" data-name="Trazado 691759" d="M156.558,129.68v-3.786a.873.873,0,0,0-.873-.873h-9.979a.873.873,0,0,0-.873.873v3.786a.873.873,0,0,0,.873.873h9.979A.873.873,0,0,0,156.558,129.68Zm-1.746-.873H146.58v-2.04h8.233Z" transform="translate(-127.978 -115.129)"/>
        <path id="Trazado_691760" data-name="Trazado 691760" d="M228.824,252.155h13.47a.873.873,0,0,0,.873-.873V247.5a.873.873,0,0,0-.873-.873h-13.47a.873.873,0,0,0-.873.873v3.786A.873.873,0,0,0,228.824,252.155Zm.873-3.786h11.724v2.04H229.7Z" transform="translate(-201.422 -222.579)"/>
        <path id="Trazado_691761" data-name="Trazado 691761" d="M275.364,312.084V308.3a.873.873,0,0,0-.873-.873H249.383a.873.873,0,0,0-.873.873v3.786a.873.873,0,0,0,.873.873h25.108A.873.873,0,0,0,275.364,312.084Zm-1.746-.873H250.256v-2.04h23.362Z" transform="translate(-219.589 -276.305)"/>
        <path id="Trazado_691762" data-name="Trazado 691762" d="M341.941,368.225a.873.873,0,0,0-.873.873v3.786a.873.873,0,0,0,.873.873h9.979a.873.873,0,0,0,.873-.873V369.1a.873.873,0,0,0-.873-.873Zm9.106,3.786h-8.233v-2.04h8.233Z" transform="translate(-301.375 -330.029)"/>
        <path id="Trazado_691763" data-name="Trazado 691763" d="M187.266,166.376h19.469a1.476,1.476,0,0,0,2.16,1.181l1.657-.871,1.657.871A1.477,1.477,0,0,0,214.353,166l-.317-1.846,1.341-1.307a1.477,1.477,0,0,0-.819-2.52l-1.853-.269-.829-1.679h0a1.478,1.478,0,0,0-2.65,0l-.829,1.679-1.853.269a1.469,1.469,0,0,0-.926.518H187.266a.873.873,0,0,0-.873.873V165.5A.873.873,0,0,0,187.266,166.376Zm21.524-4.612a1.477,1.477,0,0,0,1.112-.808l.651-1.318.65,1.318a1.476,1.476,0,0,0,1.113.808l1.455.211L212.718,163a1.477,1.477,0,0,0-.425,1.308l.248,1.449-1.3-.684a1.477,1.477,0,0,0-1.375,0l-1.3.684.248-1.449a1.477,1.477,0,0,0-.425-1.308l-1.053-1.026Zm-20.651.826h17.378a1.492,1.492,0,0,0,.211.256l1.341,1.307-.082.477H188.139Z" transform="translate(-164.701 -143.876)"/>
      </g>
    </g>
  </g>
</svg>
