<svg xmlns="http://www.w3.org/2000/svg" width="100" height="100" viewBox="0 0 100 100">
  <g id="c5" transform="translate(2945 9020)">
    <circle id="Elipse_7860" data-name="Elipse 7860" cx="50" cy="50" r="50" transform="translate(-2945 -9020)" fill="#449c6e"/>
    <g id="target" transform="translate(-2924.976 -9002.145)">
      <circle id="Elipse_7872" data-name="Elipse 7872" cx="23.49" cy="23.49" r="23.49" transform="translate(5.987 9.003)" fill="#dd636e"/>
      <path id="Trazado_691786" data-name="Trazado 691786" d="M246.146,63.706q-.645,0-1.282.035a23.49,23.49,0,0,1,0,46.91q.637.034,1.282.035a23.49,23.49,0,0,0,0-46.98Z" transform="translate(-216.669 -54.703)" fill="#da4a54"/>
      <circle id="Elipse_7873" data-name="Elipse 7873" cx="19.118" cy="19.118" r="19.118" transform="translate(10.36 13.376)" fill="#f6f9f9"/>
      <path id="Trazado_691787" data-name="Trazado 691787" d="M243.1,101.679c-.566,0-1.125.026-1.679.074a19.117,19.117,0,0,1,0,38.087c.553.048,1.113.074,1.679.074a19.118,19.118,0,1,0,0-38.235Z" transform="translate(-213.622 -88.303)" fill="#dae4ea"/>
      <circle id="Elipse_7874" data-name="Elipse 7874" cx="10.234" cy="10.234" r="10.234" transform="translate(19.243 22.259)" fill="#dd636e"/>
      <path id="Trazado_691788" data-name="Trazado 691788" d="M246.116,178.828a10.332,10.332,0,0,0-1.286.08,10.235,10.235,0,0,1,0,20.308,10.235,10.235,0,1,0,1.286-20.388Z" transform="translate(-216.639 -156.569)" fill="#da4a54"/>
      <circle id="Elipse_7875" data-name="Elipse 7875" cx="4.796" cy="4.796" r="4.796" transform="translate(24.681 27.697)" fill="#f6f9f9"/>
      <path id="Trazado_691789" data-name="Trazado 691789" d="M247.06,226.058a4.808,4.808,0,0,0-1.163.143,4.8,4.8,0,0,1,0,9.306,4.8,4.8,0,1,0,1.163-9.449Z" transform="translate(-217.583 -198.361)" fill="#dae4ea"/>
      <g id="Grupo_979586" data-name="Grupo 979586" transform="translate(38.69 38.271)">
        <circle id="Elipse_7876" data-name="Elipse 7876" cx="4.171" cy="4.171" r="4.171" transform="translate(5.529 6.463)" fill="#617881"/>
        <path id="Trazado_691790" data-name="Trazado 691790" d="M354.643,326.2l.6-1.088a1.4,1.4,0,0,0-.014-1.377l-.606-1.049a1.4,1.4,0,0,0-1.186-.7l-1.241-.026a1.4,1.4,0,0,1-.672-.188l-2.86-1.651a1.4,1.4,0,0,1-.5-.488l-.643-1.062a1.4,1.4,0,0,0-1.2-.676h-1.212a1.4,1.4,0,0,0-1.2.676l-.643,1.062a1.4,1.4,0,0,1-.5.488l-2.86,1.651a1.4,1.4,0,0,1-.672.188l-1.241.026a1.4,1.4,0,0,0-1.186.7l-.606,1.049a1.4,1.4,0,0,0-.014,1.377l.6,1.088a1.4,1.4,0,0,1,.174.676v3.3a1.4,1.4,0,0,1-.174.676l-.6,1.088a1.4,1.4,0,0,0,.014,1.377l.606,1.049a1.4,1.4,0,0,0,1.186.7l1.241.026a1.4,1.4,0,0,1,.672.188l2.86,1.651a1.4,1.4,0,0,1,.5.488l.643,1.062a1.4,1.4,0,0,0,1.2.676h1.212a1.4,1.4,0,0,0,1.2-.676l.643-1.062a1.4,1.4,0,0,1,.5-.488l2.86-1.651a1.4,1.4,0,0,1,.672-.188l1.241-.026a1.4,1.4,0,0,0,1.186-.7l.606-1.049a1.4,1.4,0,0,0,.014-1.377l-.6-1.088a1.4,1.4,0,0,1-.174-.676v-3.3A1.4,1.4,0,0,1,354.643,326.2Zm-8.658,6.49a4.171,4.171,0,1,1,3.891-3.891A4.172,4.172,0,0,1,345.985,332.687Z" transform="translate(-336.014 -317.89)" fill="#738b95"/>
        <path id="Trazado_691791" data-name="Trazado 691791" d="M417.763,330.851a1.4,1.4,0,0,1-.174-.676v-3.3a1.4,1.4,0,0,1,.174-.676l.6-1.088a1.4,1.4,0,0,0-.014-1.377l-.606-1.049a1.4,1.4,0,0,0-1.186-.7l-1.241-.026a1.4,1.4,0,0,1-.672-.188l-2.86-1.651a1.4,1.4,0,0,1-.5-.488l-.643-1.062a1.4,1.4,0,0,0-1.2-.676h-1.212a1.4,1.4,0,0,0-.881.314,1.4,1.4,0,0,1,.319.362l.643,1.062a1.4,1.4,0,0,0,.5.488l2.86,1.651a1.4,1.4,0,0,0,.672.188l1.241.026a1.4,1.4,0,0,1,1.186.7l.606,1.049a1.4,1.4,0,0,1,.014,1.377l-.6,1.088a1.4,1.4,0,0,0-.174.676v3.3a1.4,1.4,0,0,0,.174.676l.6,1.088a1.4,1.4,0,0,1-.014,1.377l-.606,1.049a1.4,1.4,0,0,1-1.186.7l-1.241.026a1.4,1.4,0,0,0-.672.188l-2.86,1.651a1.4,1.4,0,0,0-.5.488l-.643,1.062a1.4,1.4,0,0,1-.319.362,1.4,1.4,0,0,0,.881.314h1.212a1.4,1.4,0,0,0,1.2-.676l.643-1.062a1.4,1.4,0,0,1,.5-.488l2.86-1.651a1.4,1.4,0,0,1,.672-.188l1.241-.026a1.4,1.4,0,0,0,1.186-.7l.606-1.049a1.4,1.4,0,0,0,.014-1.377Z" transform="translate(-399.134 -317.89)" fill="#617881"/>
      </g>
      <circle id="Elipse_7877" data-name="Elipse 7877" cx="10.302" cy="10.302" r="10.302" transform="translate(0.864 38.604)" fill="#f9ef63"/>
      <path id="Trazado_691792" data-name="Trazado 691792" d="M87.7,320.778a10.415,10.415,0,0,0-1.206.071,10.3,10.3,0,0,1,0,20.462,10.407,10.407,0,0,0,1.206.071,10.3,10.3,0,1,0,0-20.6Z" transform="translate(-76.531 -282.174)" fill="#f6e738"/>
      <g id="Grupo_979587" data-name="Grupo 979587" transform="translate(47.278 2.749)">
        <path id="Trazado_691793" data-name="Trazado 691793" d="M415.39,19.237l-3.933-.552-.862-3.877,4.873-5.275a.451.451,0,0,1,.772.208l.675,3.035,3.079.433a.451.451,0,0,1,.269.753Z" transform="translate(-410.595 -9.387)" fill="#738b95"/>
      </g>
      <g id="Grupo_979588" data-name="Grupo 979588" transform="translate(0 1.885)">
        <path id="Trazado_691794" data-name="Trazado 691794" d="M381.245,366.535A5.036,5.036,0,1,0,385.131,368a5.036,5.036,0,0,0-3.885-1.464Zm3.626,5.241a3.308,3.308,0,1,1-.962-2.555A3.3,3.3,0,0,1,384.871,371.775Z" transform="translate(-333.18 -324.538)"/>
        <path id="Trazado_691795" data-name="Trazado 691795" d="M58.674,51.9l-.6-1.088a.54.54,0,0,1-.067-.26v-3.3a.541.541,0,0,1,.067-.26l.6-1.088a2.279,2.279,0,0,0-.023-2.225l-.606-1.049A2.279,2.279,0,0,0,56.13,41.5l-1.241-.026a.541.541,0,0,1-.258-.072l-2.05-1.184a24.387,24.387,0,0,0-5.113-24.14q-.458-.5-.94-.974l1.945-2.139,3.481.489a.863.863,0,0,0,.754-.269L57.58,7.91A1.315,1.315,0,0,0,56.8,5.715l-2.486-.349-.545-2.451a1.315,1.315,0,0,0-2.249-.607L46.644,7.583a.863.863,0,0,0-.209.773L47.2,11.8l-1.948,2.143a24.253,24.253,0,0,0-13.4-5.684.864.864,0,0,0-.166,1.719,22.53,22.53,0,0,1,12.406,5.243L42.3,17.183a19.984,19.984,0,0,0-32.1,20.6,11.087,11.087,0,0,0-2.6.54A22.634,22.634,0,0,1,28.356,9.895a.864.864,0,0,0-.084-1.725A24.373,24.373,0,0,0,6,39.006a11.163,11.163,0,0,0-2.3,18.2.864.864,0,0,0,1.155-1.284,9.406,9.406,0,1,1,2.7,1.7.864.864,0,1,0-.661,1.6,11.167,11.167,0,0,0,13.544-4.112,24.421,24.421,0,0,0,18.222-.06l.073.126a2.279,2.279,0,0,0,1.915,1.133l1.241.026a.542.542,0,0,1,.258.072l2.861,1.652a.54.54,0,0,1,.191.187l.643,1.062A2.279,2.279,0,0,0,47.785,60.4H49a2.279,2.279,0,0,0,1.939-1.092l.643-1.062a.539.539,0,0,1,.191-.188l2.86-1.651a.542.542,0,0,1,.259-.072l1.241-.026a2.279,2.279,0,0,0,1.915-1.133l.606-1.049a2.28,2.28,0,0,0,.023-2.225ZM52.251,4.059l.5,2.267a.864.864,0,0,0,.723.668l2.3.323L51.745,11.68l-2.892-.406-.634-2.851ZM45.364,16.383q.424.418.827.86a22.665,22.665,0,0,1,4.991,21.665l-.247-.407A2.279,2.279,0,0,0,49,37.408h-.148a19.984,19.984,0,0,0-5.271-19.059ZM12,37.771A18.25,18.25,0,0,1,41.14,18.462l-4.82,5.3a11.1,11.1,0,1,0,.392,17.146A.864.864,0,1,0,35.586,39.6a9.373,9.373,0,1,1-.431-14.555l-2.511,2.762a5.668,5.668,0,1,0,1.266,1.175l2.515-2.767A9.366,9.366,0,0,1,37.6,37.163a.864.864,0,0,0,1.5.862,11.091,11.091,0,0,0-1.508-13.094l4.822-5.3a18.258,18.258,0,0,1,4.609,17.914,2.278,2.278,0,0,0-1.177.959L45.2,39.563a.541.541,0,0,1-.192.188L42.151,41.4a.54.54,0,0,1-.258.072l-1.241.026a2.279,2.279,0,0,0-1.915,1.133l-.606,1.049a2.279,2.279,0,0,0-.023,2.225l.6,1.088a.541.541,0,0,1,.067.26v.951a18.28,18.28,0,0,1-16.448,1.086q.007-.192.007-.386A11.18,11.18,0,0,0,12,37.771ZM33.41,32.493A3.935,3.935,0,1,1,31.466,29.1l-2.588,2.847a.864.864,0,0,0,1.278,1.162l2.572-2.829a3.91,3.91,0,0,1,.682,2.211ZM21.3,53.595a11.073,11.073,0,0,0,.821-2.52,20.019,20.019,0,0,0,16.653-.891v.373a.541.541,0,0,1-.067.26l-.6,1.088a2.279,2.279,0,0,0-.221,1.6,22.7,22.7,0,0,1-16.588.09Zm35.857-.328-.606,1.049a.542.542,0,0,1-.456.27l-1.241.026a2.274,2.274,0,0,0-1.086.3l-2.86,1.651a2.271,2.271,0,0,0-.806.789l-.643,1.062a.542.542,0,0,1-.461.26H47.785a.542.542,0,0,1-.461-.26l-.643-1.062a2.273,2.273,0,0,0-.805-.789l-2.861-1.652a2.273,2.273,0,0,0-1.085-.3l-1.241-.026a.542.542,0,0,1-.456-.27l-.606-1.049a.543.543,0,0,1-.006-.529l.6-1.088a2.272,2.272,0,0,0,.28-1.092v-3.3a2.273,2.273,0,0,0-.28-1.092l-.6-1.088a.542.542,0,0,1,.006-.529l.606-1.049a.542.542,0,0,1,.456-.27l1.241-.026a2.271,2.271,0,0,0,1.086-.3l2.86-1.651a2.272,2.272,0,0,0,.805-.789l.643-1.062a.543.543,0,0,1,.386-.254c1.668-.012.345,0,1.287-.005a.542.542,0,0,1,.461.26l.643,1.062a2.274,2.274,0,0,0,.806.789l2.86,1.651a2.275,2.275,0,0,0,1.086.3l1.241.026a.542.542,0,0,1,.456.27l.606,1.049a.543.543,0,0,1,.006.53l-.6,1.088h0a2.273,2.273,0,0,0-.28,1.092v3.3a2.272,2.272,0,0,0,.28,1.092l.6,1.088a.542.542,0,0,1-.006.529Z" transform="translate(0 -1.885)"/>
        <path id="Trazado_691796" data-name="Trazado 691796" d="M68.173,375.795a.863.863,0,0,0,.864.864H69.8c.039.5-.037.721-.5,1.34l-.578.727a.864.864,0,0,0,.668,1.4l4.546.04h.008a.864.864,0,0,0,.007-1.727l-2.852-.025a2.927,2.927,0,0,0,.428-1.756h.706a.864.864,0,0,0,0-1.727H71.091a2.857,2.857,0,0,1-.466-1.29v-.007a.588.588,0,0,1,.338-.563,1.627,1.627,0,0,1,1.443-.015,1.286,1.286,0,0,1,.575.624.864.864,0,0,0,1.662-.472A2.937,2.937,0,0,0,73.3,371.58a3.334,3.334,0,0,0-3.189-.013,2.318,2.318,0,0,0-1.216,2.064v.012a3.6,3.6,0,0,0,.268,1.288h-.129A.864.864,0,0,0,68.173,375.795Z" transform="translate(-60.323 -328.647)"/>
      </g>
    </g>
  </g>
</svg>
