<svg xmlns="http://www.w3.org/2000/svg" width="504.014" height="467.098" viewBox="0 0 504.014 467.098">
  <g id="Grupo_979560" data-name="Grupo 979560" transform="translate(-264.204 -260.956)">
    <g id="Grupo_979542" data-name="Grupo 979542" transform="translate(412.644 635.657)">
      <path id="Trazado_691632" data-name="Trazado 691632" d="M839.041,1564.722c8.68,15.173,11.827,25.8,17.921,31.573,4.478,4.242,13.1,6.073,15.679,9.141a2.814,2.814,0,0,1,.743,1.97,3.836,3.836,0,0,1-.781,2s-26.3-5.367-38.377,11.762-17.171,24.816-26.366,21.362-3.106-11.839.918-16.419.323-13.053-6.892-7.13S784.37,1643.3,770.315,1636.9c-10.433-4.753-5.041-12.436-.5-18.267.016-.018.03-.037.047-.055s.008-.009.011-.014a36.952,36.952,0,0,0,3.661-5.14c2.6-5.357-6.359-8.683-15.5-3.187-5.469,3.289-14.855,3.24-21.854-.091-4.7-2.234-8.32-5.945-8.971-11.115-1.62-12.875,10.614-24.071,24.514-20.215s25.1,8.714,28.675,3.272-16.32-18.092-5.248-27.15,32.779,17.8,39.527,15.005-9.277-11.8-4.279-16.472S830.363,1549.551,839.041,1564.722Z" transform="translate(-727.063 -1550.941)" fill="#1299dd"/>
      <path id="Trazado_691633" data-name="Trazado 691633" d="M907.109,1698.658a2.813,2.813,0,0,1,.743,1.97c-40.871-12.456-128.6-10.442-130.047-10.409C836.774,1683.6,891.068,1694.842,907.109,1698.658Z" transform="translate(-761.532 -1644.162)" fill="#244239"/>
      <path id="Trazado_691634" data-name="Trazado 691634" d="M875.771,1726.151s23.492-25.458,35.527-31.253l-4.349-.584S881.958,1713.736,875.771,1726.151Z" transform="translate(-828.08 -1648.333)" fill="#244239"/>
      <path id="Trazado_691635" data-name="Trazado 691635" d="M990.653,1735.993s23.492-25.458,35.527-31.253l-4.349-.584S996.84,1723.578,990.653,1735.993Z" transform="translate(-906.119 -1655.019)" fill="#244239"/>
      <path id="Trazado_691636" data-name="Trazado 691636" d="M913.015,1627.261s-15.278-12.664-22.633-29.6a93.216,93.216,0,0,0,14.808,19.374c8.944,8.691,13.347,11.63,13.347,11.63Z" transform="translate(-838.005 -1582.677)" fill="#244239"/>
      <path id="Trazado_691637" data-name="Trazado 691637" d="M1054.418,1642.445s-15.278-12.663-22.633-29.6a93.211,93.211,0,0,0,14.808,19.374c8.944,8.691,13.347,11.631,13.347,11.631Z" transform="translate(-934.06 -1592.992)" fill="#244239"/>
    </g>
    <g id="Grupo_979543" data-name="Grupo 979543" transform="translate(452.293 560.555)">
      <path id="Trazado_691638" data-name="Trazado 691638" d="M953.021,1385.047c-5.813,16.486-11.8,25.812-12.19,34.2-.285,6.162,3.961,13.882,3.325,17.842a2.812,2.812,0,0,1-1.006,1.85,3.841,3.841,0,0,1-2.021.713S928,1416.23,907.149,1418.285s-30.005,3.219-33.4-6,6.932-10.087,13.029-10.034,10.092-8.284.893-9.877-29.857,2.635-34.2-12.187c-3.219-11,6.12-11.942,13.5-12.318h.072c.006,0,.012,0,.018,0a36.946,36.946,0,0,0,6.283-.587c5.754-1.533,2.417-10.488-7.713-13.813-6.063-1.991-12.16-9.127-14.212-16.6-1.378-5.014-.936-10.182,2.551-14.054,8.688-9.639,25.157-7.7,31.321,5.346s9.807,24.7,16.261,23.844,3.031-24.176,17.122-21.714,7.943,36.445,14.47,39.726,2.873-14.736,9.673-14S958.835,1368.564,953.021,1385.047Z" transform="translate(-850.696 -1316.761)" fill="#1299dd"/>
      <path id="Trazado_691639" data-name="Trazado 691639" d="M976.682,1472.95a2.811,2.811,0,0,1-1.006,1.85c-17.279-39.078-76.129-104.169-77.1-105.243C942.123,1409.867,969.088,1458.314,976.682,1472.95Z" transform="translate(-883.22 -1352.625)" fill="#244239"/>
      <path id="Trazado_691640" data-name="Trazado 691640" d="M887.626,1506.245s34.622,1.147,46.873,6.47l-2.4-3.674S901.067,1502.816,887.626,1506.245Z" transform="translate(-875.782 -1444.777)" fill="#244239"/>
      <path id="Trazado_691641" data-name="Trazado 691641" d="M955.246,1599.638s34.622,1.147,46.873,6.47l-2.4-3.674S968.687,1596.208,955.246,1599.638Z" transform="translate(-921.717 -1508.218)" fill="#244239"/>
      <path id="Trazado_691642" data-name="Trazado 691642" d="M1021.726,1427.934s-.4-19.84,7.617-36.475a93.21,93.21,0,0,0-4.989,23.869c-.734,12.45-.083,17.7-.083,17.7Z" transform="translate(-966.874 -1367.503)" fill="#244239"/>
      <path id="Trazado_691643" data-name="Trazado 691643" d="M1102.632,1544.893s-.4-19.84,7.617-36.475a93.217,93.217,0,0,0-4.989,23.869c-.734,12.45-.082,17.7-.082,17.7Z" transform="translate(-1021.833 -1446.953)" fill="#244239"/>
    </g>
    <g id="Grupo_979544" data-name="Grupo 979544" transform="translate(264.204 260.956)">
      <circle id="Elipse_7842" data-name="Elipse 7842" cx="115.743" cy="115.743" r="115.743" transform="translate(0 48.741)" fill="#ffe1ef"/>
      <circle id="Elipse_7843" data-name="Elipse 7843" cx="115.743" cy="115.743" r="115.743" transform="translate(115.743 0)" fill="#ffe1ef"/>
      <circle id="Elipse_7844" data-name="Elipse 7844" cx="115.743" cy="115.743" r="115.743" transform="translate(272.528 24.779)" fill="#ffe1ef"/>
      <circle id="Elipse_7845" data-name="Elipse 7845" cx="77.939" cy="77.939" r="77.939" transform="translate(325.535 157.47)" fill="#ffe1ef"/>
      <circle id="Elipse_7846" data-name="Elipse 7846" cx="115.743" cy="115.743" r="115.743" transform="translate(156.472 100.859)" fill="#ffe1ef"/>
    </g>
    <g id="Grupo_979546" data-name="Grupo 979546" transform="translate(450.234 430.507)">
      <rect id="Rectángulo_341737" data-name="Rectángulo 341737" width="17.911" height="61.285" transform="translate(0 82.933)" fill="#fff"/>
      <rect id="Rectángulo_341738" data-name="Rectángulo 341738" width="17.911" height="76.911" transform="translate(27.341 67.307)" fill="#fff"/>
      <rect id="Rectángulo_341739" data-name="Rectángulo 341739" width="17.911" height="88" transform="translate(54.681 56.218)" fill="#fff"/>
      <rect id="Rectángulo_341740" data-name="Rectángulo 341740" width="17.911" height="66.675" transform="translate(82.022 77.543)" fill="#fff"/>
      <rect id="Rectángulo_341741" data-name="Rectángulo 341741" width="17.911" height="99.8" transform="translate(109.363 44.418)" fill="#fff"/>
      <path id="Trazado_691644" data-name="Trazado 691644" d="M866.424,1049.042a5.171,5.171,0,1,1-5.171-5.171A5.171,5.171,0,0,1,866.424,1049.042Z" transform="translate(-852.294 -982.819)" fill="#fff"/>
      <circle id="Elipse_7847" data-name="Elipse 7847" cx="5.171" cy="5.171" r="5.171" transform="matrix(0.982, -0.187, 0.187, 0.982, 30.25, 43.717)" fill="#fff"/>
      <circle id="Elipse_7848" data-name="Elipse 7848" cx="5.171" cy="5.171" r="5.171" transform="translate(56.332 37.488) rotate(-45)" fill="#fff"/>
      <path id="Trazado_691645" data-name="Trazado 691645" d="M1122.174,1032.917a5.171,5.171,0,1,1-5.171-5.171A5.171,5.171,0,0,1,1122.174,1032.917Z" transform="translate(-1026.025 -971.866)" fill="#fff"/>
      <circle id="Elipse_7849" data-name="Elipse 7849" cx="5.171" cy="5.171" r="5.171" transform="translate(111.005 7.313) rotate(-45)" fill="#fff"/>
      <g id="Grupo_979545" data-name="Grupo 979545" transform="translate(7.887 6.443)">
        <path id="Trazado_691646" data-name="Trazado 691646" d="M871.008,934.965l-2.142-3.185,27.523-18.517,28.625-10.825,26.343,22.711,26.231-51.557,3.421,1.74-28.451,55.92-28.322-24.417-26.073,9.86Z" transform="translate(-868.866 -873.593)" fill="#fff"/>
      </g>
    </g>
    <g id="Grupo_979547" data-name="Grupo 979547" transform="translate(635.217 311.969)">
      <circle id="Elipse_7850" data-name="Elipse 7850" cx="65.24" cy="65.24" r="65.24" transform="translate(0)" fill="#fff"/>
      <path id="Trazado_691647" data-name="Trazado 691647" d="M1510.719,515.193a11.763,11.763,0,1,1-5.94-22.341l8.44-43.884a56.123,56.123,0,1,0,40.171,85.1Z" transform="translate(-1440.399 -439.34)" fill="#b4efed"/>
      <path id="Trazado_691648" data-name="Trazado 691648" d="M1681.485,503.739l-33.125,29.592a11.76,11.76,0,0,1-.228,17.8l41.451,18.335a56.149,56.149,0,0,0-8.1-65.725Z" transform="translate(-1575.316 -476.891)" fill="#1299dd"/>
      <path id="Trazado_691649" data-name="Trazado 691649" d="M1675.364,453.13a55.977,55.977,0,0,0-29.552-15.451l-8.382,43.582a11.674,11.674,0,0,1,4.5,1.62Z" transform="translate(-1568.046 -432.016)" fill="#72c2ed"/>
    </g>
    <g id="Grupo_979548" data-name="Grupo 979548" transform="translate(505.746 345.192)">
      <path id="Trazado_691650" data-name="Trazado 691650" d="M1209.68,1008.024s5.842,23.937,28.861,41.447l7.194-36.571-37.612-21.056Z" transform="translate(-1146.948 -880.683)" fill="#2f295a"/>
      <path id="Trazado_691651" data-name="Trazado 691651" d="M1421.01,1112.353c-.071.124-.151.257-.231.381-11.047,17.785-86.707,17.323-94.633,13.8-7.979-3.546-19.062-48.761-13.3-65.606,2.385-6.978,15.568-17.3,30.2-27.005,20.692-13.715,44.275-26.189,44.275-26.189a89.931,89.931,0,0,0,5.346,25.125,72.3,72.3,0,0,0,12.386,21.863c10.843,12.837,18.556,25.489,19.957,37.715A32.086,32.086,0,0,1,1421.01,1112.353Z" transform="translate(-1217.003 -891.479)" fill="#53285a"/>
      <path id="Trazado_691652" data-name="Trazado 691652" d="M1492.354,1092.441c-12.385-8.679-30.87-21.827-34.044-25.25-3.9-4.2-1.531-22.56-.451-29.6.748-1.629,1.47-3.214,2.153-4.724a89.942,89.942,0,0,1-5.346-25.125s-23.583,12.474-44.275,26.189l12.429,53.407A57.258,57.258,0,0,0,1437.6,1074.9l50.529,37.838c.08-.124.159-.257.23-.381A32.084,32.084,0,0,0,1492.354,1092.441Z" transform="translate(-1284.348 -891.479)" fill="#2f295a"/>
      <path id="Trazado_691653" data-name="Trazado 691653" d="M1349.947,1141.367s-16.848,7.692-30.841,7.983c-8.711.182-20.049-3.41-27.377-6.147-4.446-1.673-7.419-3.018-7.419-3.018a100.027,100.027,0,0,0,2.191-18.112c.173-3.428.236-6.91.246-10.284.018-13.248-.936-24.795-.936-24.795l54.972,1.655c.418,5.555,1.346,12.247,2.473,18.967.118.736.246,1.473.373,2.209.482,2.828.991,5.637,1.5,8.347.355,1.891.709,3.728,1.064,5.492.963,4.883,1.873,9.183,2.555,12.32C1349.474,1139.34,1349.947,1141.367,1349.947,1141.367Z" transform="translate(-1198.701 -945.319)" fill="#fbaea8"/>
      <path id="Trazado_691654" data-name="Trazado 691654" d="M1323.873,1212.671c-14.038,6.2-30.878,6.056-31.914,6.056-.209,0-1.027-.037-2.219-.091-4.719-.227-15.166-.8-15.511-.8-.446,0-6.356-1.328-9.02-1.773s-12.857-4.873-14.039-5.465-7.237-5.61-7.237-5.61l-2.464-12.193,15.93-4.683,6.446-1.891,46.135-1.773,6.047-.236,21.64,8.583A22.423,22.423,0,0,1,1323.873,1212.671Z" transform="translate(-1169.6 -1011.358)" fill="#fbaea8"/>
      <path id="Trazado_691655" data-name="Trazado 691655" d="M1365.16,1190.311c-14.038,6.2-30.878,6.056-31.914,6.056-.209,0-1.028-.036-2.219-.091-15.63-3.8-34.542-8.856-27.113-9.392a65.3,65.3,0,0,1,8.611.336,100.788,100.788,0,0,0,48.408-7.556c7.6-3.3,11.82-6.474,11.884-6.855.118-.618-8.474-3.537-14.438-5.465-2.828-.909-5.065-1.6-5.5-1.718-.455-.119-1.037-1.609-1.609-3.537-1.146-3.865-2.255-9.511-2.255-9.511l6.428-1.282c.118.736.246,1.473.373,2.209.482,2.828.991,5.637,1.5,8.347l21.64,8.583A22.424,22.424,0,0,1,1365.16,1190.311Z" transform="translate(-1210.887 -988.998)" fill="#e26889"/>
      <path id="Trazado_691656" data-name="Trazado 691656" d="M1346.808,1109.826c-11.3,8.307-24.434,13.112-29.842,13.112-4.965,0-16.437-4.052-27.04-11.144.018-13.254-.931-24.8-.931-24.8l54.967,1.658C1344.432,1094.816,1345.523,1102.37,1346.808,1109.826Z" transform="translate(-1201.884 -945.32)" fill="#e26889"/>
      <path id="Trazado_691657" data-name="Trazado 691657" d="M1639.5,1617.16s17.357-8,27.756,2.472,22.767,37.48,7.428,53.251-38.5,1.824-43.582-3.745-8.988-21.4-4.847-30.333S1639.5,1617.16,1639.5,1617.16Z" transform="translate(-1429.799 -1303.473)" fill="#232047"/>
      <path id="Trazado_691658" data-name="Trazado 691658" d="M1654.461,1436.368c-8.762,8.761-27.307,6.953-32.229-16.786-2.555-12.3-5.1-39.915-7-64.842-1.781-23.17-3-44.029-3.167-48.077-.358-8.406,5.76-33.257,17.656-34.938,0,0,32.488,8.136,36.426,37.276,2.731,20.22-2.937,71.646-5.819,101.609C1659.069,1423.83,1657.138,1433.685,1654.461,1436.368Z" transform="translate(-1421.338 -1070.805)" fill="#2f295a"/>
      <path id="Trazado_691659" data-name="Trazado 691659" d="M1661.2,1603.065c-8.762,8.836-27.307,7.013-32.229-16.929-2.555-12.41-5.1-40.255-7-65.393l20.366-3.562s-9.949,44.459-5.814,53.656c3.177,7.068,18.115.864,30.544,6.25C1665.808,1590.42,1663.877,1600.358,1661.2,1603.065Z" transform="translate(-1428.077 -1237.542)" fill="#232047"/>
      <path id="Trazado_691660" data-name="Trazado 691660" d="M1115.294,1412.4c-.017-6.456-.028-11.942-.039-15.868v-.485c-.006-3.247-.011-5.343-.011-5.916,0-.287-.039-.772-.11-1.439-.066-.6-.16-1.34-.276-2.211-.7-5.166-2.261-14.837-3.992-25.566-.132-.8-.265-1.621-.392-2.437-1.329-8.177-2.718-16.805-3.881-24.414-1.621-10.5-2.812-19.065-2.812-21.822,0-8.546,11.595-77.282,11.595-77.282l7.531-5.547,21.624-15.929,3.407-2.509c.22.524.458,1.037.722,1.527v.005a19.752,19.752,0,0,0,3.17,4.416.868.868,0,0,0,.121.127,29.617,29.617,0,0,0,9.908,6.567c.612.27,1.235.518,1.864.755.193.072.386.143.584.215.463.171.932.331,1.4.485,1.913.629,3.876,1.152,5.839,1.588,2.051.458,4.1.816,6.109,1.092a.152.152,0,0,0,.049.005,106.738,106.738,0,0,0,16.584.937v-.143s.629.044,1.748.088c1.119-.044,1.742-.088,1.742-.088v.143c5.26.11,15.652-.083,25.417-2.685.563-.149,1.125-.309,1.682-.474.016-.006.033-.006.049-.011.739-.226,1.478-.458,2.205-.717a35.584,35.584,0,0,0,10.58-5.563,20.751,20.751,0,0,0,6.423-8.27l1.692,1.246,1.935,1.428,5.1,3.755,23.333,17.185.5.37s1.527,6.1,3.677,14.908c1.213,4.962,2.619,10.784,4.064,16.855a57.472,57.472,0,0,1,1.571,12.758c.132,12.5-3.865,21.172-3.865,24.656,0,1.164-.122,3.44-.331,6.528-.672,9.858-2.249,27.937-3.65,44.025v.005c-.088,1.02-.182,2.035-.265,3.038-.568,6.49-1.092,12.527-1.5,17.412-.507,6.125-.838,10.432-.838,11.534,0,.562.121,2.575.331,5.712.022.308.044.628.066.954.166,2.415.375,5.386.623,8.8.221,3.087.474,6.539.75,10.255Z" transform="translate(-1076.07 -1029.538)" fill="#bbbbbc"/>
      <path id="Trazado_691661" data-name="Trazado 691661" d="M1361.128,669.875c0,7.678-9.167,13.3-24.088,14.478s-24.088-14.478-24.088-14.478a31.6,31.6,0,0,1,1.117-5.4c2-6.853,7.376-17.918,21.349-19.132,12.979-1.126,19.85,6,23.139,13.325A29.007,29.007,0,0,1,1361.128,669.875Z" transform="translate(-1218.158 -645.225)" fill="#2f295a"/>
      <path id="Trazado_691662" data-name="Trazado 691662" d="M1340.305,665.658c-5.346-.071-12.625-.1-18.494.151-7.261.3-19.167,3.6-25.994,5.656,2-6.853,7.376-17.918,21.349-19.132C1330.145,651.207,1337.016,658.335,1340.305,665.658Z" transform="translate(-1206.518 -649.974)" fill="#53285a"/>
      <path id="Trazado_691663" data-name="Trazado 691663" d="M1328.162,797.3s-.082,7.592-.8,17.584c-.173,2.437-.391,5.019-.646,7.674-.055.518-.1,1.036-.154,1.555-1.392,13.366-3.992,28.05-8.8,34.651a53.083,53.083,0,0,1-4.064,4.919c-9.911,10.638-23.258,16.948-28.332,16.948-4.546,0-15.811-5.1-25.24-13.884a55.55,55.55,0,0,1-7.147-7.983c-4.71-6.465-7.3-20.694-8.72-33.815-.091-.909-.182-1.819-.273-2.71-.018-.182-.036-.373-.055-.554-1.237-13.139-1.355-24.386-1.355-24.386s1.737-6.11,4.383-13.811c3.664-10.711,9.074-24.522,13.993-29.341,8.456-8.274,24.413-6.21,24.413-6.21s15.966-2.064,24.431,6.21c3.073,3.019,6.347,9.547,9.265,16.639C1324.152,783.189,1328.162,797.3,1328.162,797.3Z" transform="translate(-1170.351 -714.842)" fill="#fbaea8"/>
      <path id="Trazado_691664" data-name="Trazado 691664" d="M1328.162,838.783s-.127,11.747-1.446,25.259c-.055.518-.1,1.036-.154,1.555-20.322-6.1-41.2-24.34-41.2-24.34-7.829,16.12-30.469,22.849-41.107,25.177-.091-.909-.182-1.819-.273-2.71-1.291-13.375-1.409-24.94-1.409-24.94s1.737-6.11,4.383-13.811l33.66-15.993s31.042-.454,32.706,0a61,61,0,0,1,5.737,3.291C1324.152,824.672,1328.162,838.783,1328.162,838.783Z" transform="translate(-1170.351 -756.325)" fill="#e26889"/>
      <path id="Trazado_691665" data-name="Trazado 691665" d="M1247.515,734.321c-1.482,10.138-5.192,20.685-13.211,28.759-22.013,22.167-51.645,17.73-51.645,17.73s-.618-5.374-.755-13.3c-.328-19,2.155-52.672,22.767-62.056,22.44-9.756,41.207-5.319,41.207-5.319A97.969,97.969,0,0,1,1247.515,734.321Z" transform="translate(-1129.12 -681.84)" fill="#53285a"/>
      <path id="Trazado_691666" data-name="Trazado 691666" d="M1220.127,1030.2c-.064,2.419-.109,3.837-.109,3.837s-3.637-7.383-10.274-37.934-5.492-60.337-5.492-60.337l10.9-.991.864-.082s3.191,21.967,4.392,35.215C1221.418,980.935,1220.472,1018.113,1220.127,1030.2Z" transform="translate(-1144.266 -841.859)" fill="#53285a"/>
      <path id="Trazado_691667" data-name="Trazado 691667" d="M1247.571,780.71c-1.482,10.138-5.192,20.685-13.211,28.759-22.013,22.167-51.645,17.73-51.645,17.73s-.618-5.374-.755-13.3c8.874-.118,22.212-1.237,32.824-6.192,17.512-8.183,30.414-40.289,30.414-40.289A107.314,107.314,0,0,1,1247.571,780.71Z" transform="translate(-1129.176 -728.23)" fill="#2f295a"/>
      <path id="Trazado_691668" data-name="Trazado 691668" d="M1512.892,935.774s1.146,29.779-5.494,60.333-10.28,37.938-10.28,37.938-1.6-50.889-.392-64.133,4.393-35.209,4.393-35.209Z" transform="translate(-1342.69 -841.866)" fill="#53285a"/>
      <path id="Trazado_691669" data-name="Trazado 691669" d="M1423.141,780.814s-29.632,4.437-51.654-17.73a40.973,40.973,0,0,1-5.192-6.41c-15.021-22.776-6.374-56.536-6.374-56.536s17.7-4.183,39.279,4.519c.636.254,1.282.518,1.928.8C1430.342,718.759,1423.141,780.814,1423.141,780.814Z" transform="translate(-1248.382 -681.845)" fill="#53285a"/>
      <path id="Trazado_691670" data-name="Trazado 691670" d="M1441.887,792.515s-29.632,4.437-51.654-17.73a40.976,40.976,0,0,1-5.192-6.41c9.3,3.846,49.808,19.167,50.153-5.573.291-21.558-11.738-39.416-17.248-46.444.636.254,1.282.518,1.928.8C1449.088,730.459,1441.887,792.515,1441.887,792.515Z" transform="translate(-1267.128 -693.545)" fill="#2f295a"/>
      <path id="Trazado_691671" data-name="Trazado 691671" d="M1233.328,1030.2c-2.373-23.013-9.72-93.706-9.72-93.706l4.746-1.718.864-.082s3.191,21.967,4.392,35.215C1234.619,980.935,1233.673,1018.113,1233.328,1030.2Z" transform="translate(-1157.467 -841.859)" fill="#2f295a"/>
      <path id="Trazado_691672" data-name="Trazado 691672" d="M1262.993,1018.107a55.545,55.545,0,0,1-7.147-7.983c-4.71-6.465-7.3-20.694-8.719-33.815-.091-.909-.182-1.819-.273-2.71-.018-.182-.037-.373-.055-.554l4.692-2.519S1248.854,998.077,1262.993,1018.107Z" transform="translate(-1173.221 -866.202)" fill="#e26889"/>
      <path id="Trazado_691673" data-name="Trazado 691673" d="M1478.006,953.94c-.172,2.437-.391,5.019-.646,7.674-.055.518-.1,1.036-.154,1.555-1.391,13.366-3.992,28.05-8.8,34.651a53.015,53.015,0,0,1-4.064,4.919c6.792-13.239,10.311-30.36,10.238-43.3C1474.542,951.9,1475.933,951.067,1478.006,953.94Z" transform="translate(-1320.996 -853.898)" fill="#e26889"/>
      <path id="Trazado_691674" data-name="Trazado 691674" d="M1282.052,1215.931l-3.071,24.86L1273,1289.133l-5.177,41.913-.711,5.767-2.382,19.253-1.191,9.637.435,5.712.088,1.152.662,8.612.783,10.244H1102.142l.248-15.5.017-.97.11-6.6.044-2.84.005-.386-5.552-24.8-.557-2.492-5.536-24.739-4.83-21.574,17.411-86.616,1.858-1.1,26.945-15.89,2.845-1.676,3.451-2.035,1.66-.976v-.005l5.315-3.132c0,.005.006.011.006.016l.011.039c.121.38.816,2.641,1.93,6.44.849,2.906,1.941,6.71,3.2,11.258.5,1.8,1.026,3.727,1.571,5.762.094.353.188.705.287,1.064.579,2.161,1.18,4.444,1.8,6.831,1.428,5.508,2.955,11.584,4.51,18.084,2.723,11.418,5.53,24.149,8.06,37.469,3.176,16.706,5.916,34.327,7.521,51.424.232,2.5.441,4.99.623,7.46.011.088.016.177.022.265a.656.656,0,0,1,.005.072s.033-.116.094-.347c1.053-4.08,11.275-43.335,22.572-80.37.088-.281.176-.568.259-.849v-.005c.9-2.922,1.8-5.828,2.7-8.695,2.509-7.978,5.034-15.691,7.487-22.743.81-2.321,1.61-4.576,2.4-6.743.182-.5.369-1,.546-1.494q1.05-2.837,2.068-5.442c.2-.518.4-1.025.6-1.527.573-1.434,1.135-2.812,1.687-4.119v-.006c.756-1.786,1.489-3.451,2.205-4.973.132-.287.265-.562.4-.838.529-1.1,1.042-2.128,1.544-3.066a39.65,39.65,0,0,1,2.167-3.628.068.068,0,0,1,.011-.022l2.217,1.274,10.255,5.877,35.4,20.3,2.409,1.378Z" transform="translate(-1064.053 -1008.564)" fill="#2f295a"/>
      <path id="Trazado_691675" data-name="Trazado 691675" d="M1271.567,1165.208l8.251-5.743,23.161,30.189,31.991-31.472,12.886,8.348-21.116,54.6-23.943-23.778-18.145,17.583Z" transform="translate(-1190.045 -993.675)" fill="#fff"/>
      <path id="Trazado_691676" data-name="Trazado 691676" d="M1243.46,1180.092l-13.27,7.826,3.116,68.927h14.627l-9.4,31.222,34.476,38.208S1262.249,1224.284,1243.46,1180.092Z" transform="translate(-1161.938 -1008.559)" fill="#474284"/>
      <path id="Trazado_691677" data-name="Trazado 691677" d="M1394.719,1184.212s-52.525,131.093-54.164,173.187l49.94-70.987-10.242-24.583,13.666-2.185,13.268-68.282Z" transform="translate(-1236.909 -1011.358)" fill="#474284"/>
      <path id="Trazado_691678" data-name="Trazado 691678" d="M1391.094,1519.979a8.92,8.92,0,0,1-1.026-1.086c-6.533-8.309,32.662-8.695,50.564-14.159,4.741-1.45,7.989-3.253,8.5-5.651.1-.469.254-1.125.463-1.952,1.3-5.26,4.6-17.439,8.717-32.4,2.206-7.995,4.643-16.788,7.135-25.737,1.847-6.638,3.727-13.359,5.558-19.915,3.281-11.716,6.412-22.881,8.981-32.022,2.134-7.581,3.876-13.767,4.99-17.715L1479,1417.688l-5.177,41.913-.711,5.767-2.382,19.253-1.191,9.637.435,5.712.088,1.152.662,8.612.783,10.244Z" transform="translate(-1270.05 -1137.119)" fill="#232047"/>
      <path id="Trazado_691679" data-name="Trazado 691679" d="M1454.444,1688.654a24.614,24.614,0,0,1-.717,3.17,23.6,23.6,0,0,1-1.456,3.738c-3.01,6.115-8.976,11.3-19.115,13.26-20.907,4.036-76.792-13.276-101.486-21.491-7.416-2.465-12.019-4.113-12.019-4.113s-.061-.05-.176-.155c-.2-.171-.541-.5-.976-.937a23.589,23.589,0,0,1-2.712-3.336c-.166-.243-.309-.48-.469-.733a13.534,13.534,0,0,0,1.329-6.655c.3-.563.612-1.125.855-1.7.342-.314.772-.645,1.036-.849-.2.138-.507.331-.965.645a.187.187,0,0,0,.016-.049,15.036,15.036,0,0,0,4.2-4.9c1.081-.165,2.272-.32,3.556-.441,1.3-.132,2.7-.254,4.19-.358,1.941-.143,4.025-.259,6.236-.358,3.782-.165,7.923-.265,12.289-.32,35.5-.441,86.071,2.36,86.071,2.36s11.4-.2,14.2,2.139C1452.839,1671.325,1455.822,1680.091,1454.444,1688.654Z" transform="translate(-1219.765 -1336.61)" fill="#fbaea8"/>
      <path id="Trazado_691680" data-name="Trazado 691680" d="M1461.182,1711.994a24.614,24.614,0,0,1-.717,3.17,23.609,23.609,0,0,1-1.456,3.738c-3.011,6.115-8.976,11.3-19.115,13.26-20.907,4.036-76.792-13.276-101.486-21.491-7.415-2.465-12.019-4.113-12.019-4.113s-.061-.05-.177-.155c-.2-.171-.54-.5-.976-.937l4.157-8.089c1.841,1.428,64.4,20.88,86.236,24.568C1433.251,1724.923,1453.188,1719.784,1461.182,1711.994Z" transform="translate(-1226.503 -1359.95)" fill="#e26889"/>
      <path id="Trazado_691681" data-name="Trazado 691681" d="M1059.758,1597.531s-17.356-8-27.756,2.472-22.767,37.48-7.428,53.25,38.5,1.824,43.582-3.745,8.988-21.4,4.848-30.333S1059.758,1597.531,1059.758,1597.531Z" transform="translate(-1017.37 -1290.139)" fill="#232047"/>
      <path id="Trazado_691682" data-name="Trazado 691682" d="M1034.715,1420.961c8.762,8.761,27.307,6.953,32.229-16.786,2.554-12.305,5.1-39.915,7-64.842,1.781-23.17,3-44.029,3.167-48.077.358-8.406-5.76-33.257-17.656-34.938,0,0-32.488,8.136-36.426,37.276-2.731,20.22,2.937,71.646,5.82,101.609C1030.107,1408.422,1032.038,1418.277,1034.715,1420.961Z" transform="translate(-1020.719 -1060.339)" fill="#2f295a"/>
      <path id="Trazado_691683" data-name="Trazado 691683" d="M1048.575,1587.525c8.762,8.836,27.307,7.013,32.229-16.929,2.554-12.409,5.1-40.255,7-65.394l-20.365-3.562s9.948,44.459,5.813,53.656c-3.177,7.068-18.115.864-30.544,6.25C1043.967,1574.88,1045.9,1584.819,1048.575,1587.525Z" transform="translate(-1034.579 -1226.986)" fill="#232047"/>
      <path id="Trazado_691684" data-name="Trazado 691684" d="M1209.561,1644.658s-13.547-1.324-23.263,1.961l-17.762,4.433h-.006c-1.463.765-4.888,2.538-9.655,4.919-21.514,10.742-70.458,33.841-90.764,32.451-9.855-.674-16.414-4.913-20.391-10.39a24.5,24.5,0,0,1-2.071-3.394,27.6,27.6,0,0,1-2.927-13.408c.17-4.287,1.391-8.046,3.358-10.365,2.174-2.569,12.867-3.716,12.867-3.716s46.733-8.629,80-12.388c4.093-.467,7.979-.856,11.543-1.148,2.083-.164,4.062-.3,5.9-.395q2.113-.109,3.983-.146c1.221-.037,2.362-.037,3.4-.006,0,0,18.071-1.488,27.38-.036,8.714,1.354,17.24,10.36,18.3,11.507a.006.006,0,0,1,.006.006C1209.525,1644.616,1209.561,1644.658,1209.561,1644.658Z" transform="translate(-1034.579 -1315.807)" fill="#fbaea8"/>
      <path id="Trazado_691685" data-name="Trazado 691685" d="M1209.561,1665.2s-13.547-1.324-23.263,1.961l-17.762,4.433h-.006c-1.463.765-4.888,2.538-9.655,4.919-21.514,10.742-70.458,33.841-90.764,32.451-9.855-.674-16.414-4.912-20.391-10.39a24.492,24.492,0,0,1-2.071-3.394,27.6,27.6,0,0,1-2.927-13.408c1.567,6.145,5.7,14.215,16.571,16.159,18.108,3.236,79.439-18.624,92.8-23.482s46.866-12.661,51.409-11.738a23.184,23.184,0,0,1,5.951,2.368.006.006,0,0,1,.006.006C1209.525,1665.161,1209.561,1665.2,1209.561,1665.2Z" transform="translate(-1034.579 -1336.352)" fill="#e26889"/>
    </g>
    <g id="Grupo_979550" data-name="Grupo 979550" transform="translate(327.897 419.535)">
      <circle id="Elipse_7851" data-name="Elipse 7851" cx="33.7" cy="33.7" r="33.7" transform="translate(15.858 16.174)" fill="#244239"/>
      <circle id="Elipse_7852" data-name="Elipse 7852" cx="33.7" cy="33.7" r="33.7" transform="translate(0 47.659) rotate(-45)" fill="#f9ad55"/>
      <path id="Trazado_691686" data-name="Trazado 691686" d="M525.323,897.718a28.147,28.147,0,0,0,9.219,20.866,28.22,28.22,0,1,1,36.1-43.314,28.22,28.22,0,0,0-45.321,22.448Z" transform="translate(-503.984 -848.476)" fill="#244239"/>
      <g id="Grupo_979549" data-name="Grupo 979549" transform="translate(38.722 28.04)">
        <path id="Trazado_691687" data-name="Trazado 691687" d="M590.862,933.972v-4.827a13.918,13.918,0,0,1-7.312-2.1l1.147-3.2a12.738,12.738,0,0,0,6.882,2.055c3.393,0,5.687-1.959,5.687-4.684,0-2.629-1.864-4.254-5.4-5.687-4.875-1.912-7.886-4.11-7.886-8.268,0-3.967,2.82-6.977,7.217-7.695v-4.827h2.963v4.636a12.751,12.751,0,0,1,6.213,1.673l-1.195,3.154a11.551,11.551,0,0,0-6.022-1.625c-3.68,0-5.066,2.2-5.066,4.11,0,2.485,1.768,3.728,5.927,5.448,4.922,2.007,7.407,4.492,7.407,8.746,0,3.776-2.628,7.312-7.551,8.125v4.97Z" transform="translate(-583.55 -894.734)" fill="#fff"/>
      </g>
    </g>
    <g id="Grupo_979552" data-name="Grupo 979552" transform="translate(302.122 410.461)">
      <circle id="Elipse_7853" data-name="Elipse 7853" cx="19.45" cy="19.45" r="19.45" transform="translate(1.096 1.278)" fill="#244239"/>
      <circle id="Elipse_7854" data-name="Elipse 7854" cx="19.45" cy="19.45" r="19.45" transform="translate(0)" fill="#f9ad55"/>
      <path id="Trazado_691688" data-name="Trazado 691688" d="M393.4,796.785a16.244,16.244,0,0,0,5.321,12.042,16.287,16.287,0,1,1,20.836-25A16.287,16.287,0,0,0,393.4,796.785Z" transform="translate(-389.138 -776.422)" fill="#244239"/>
      <g id="Grupo_979551" data-name="Grupo 979551" transform="translate(14.292 8.127)">
        <path id="Trazado_691689" data-name="Trazado 691689" d="M431.222,817.709v-2.786A8.033,8.033,0,0,1,427,813.71l.662-1.848a7.353,7.353,0,0,0,3.972,1.186c1.958,0,3.282-1.131,3.282-2.7,0-1.517-1.076-2.455-3.117-3.282-2.814-1.1-4.551-2.372-4.551-4.772,0-2.289,1.627-4.027,4.165-4.441v-2.786h1.71v2.676a7.356,7.356,0,0,1,3.586.966l-.69,1.82a6.669,6.669,0,0,0-3.476-.938c-2.124,0-2.924,1.269-2.924,2.372,0,1.434,1.021,2.151,3.421,3.145,2.841,1.158,4.275,2.593,4.275,5.048a4.8,4.8,0,0,1-4.358,4.689v2.869Z" transform="translate(-427.002 -795.063)" fill="#fff"/>
      </g>
    </g>
    <g id="Grupo_979553" data-name="Grupo 979553" transform="translate(353.97 329.587)">
      <rect id="Rectángulo_341742" data-name="Rectángulo 341742" width="15.388" height="51.024" rx="7.694" transform="translate(0 27.393)" fill="#fff"/>
      <rect id="Rectángulo_341743" data-name="Rectángulo 341743" width="15.388" height="51.024" rx="7.694" transform="translate(30.244 6.25)" fill="#fff"/>
      <rect id="Rectángulo_341744" data-name="Rectángulo 341744" width="15.388" height="51.024" rx="7.694" transform="translate(59.512 21.482)" fill="#fff"/>
      <rect id="Rectángulo_341745" data-name="Rectángulo 341745" width="15.388" height="51.024" rx="7.694" transform="translate(89.435 1.881)" fill="#fff"/>
      <rect id="Rectángulo_341746" data-name="Rectángulo 341746" width="4.906" height="95.243" transform="translate(5.808)" fill="#fff"/>
      <rect id="Rectángulo_341747" data-name="Rectángulo 341747" width="4.906" height="95.243" transform="translate(35.455)" fill="#fff"/>
      <rect id="Rectángulo_341748" data-name="Rectángulo 341748" width="4.906" height="95.243" transform="translate(65.102)" fill="#fff"/>
      <rect id="Rectángulo_341749" data-name="Rectángulo 341749" width="4.906" height="95.243" transform="translate(94.749)" fill="#fff"/>
    </g>
    <g id="Grupo_979556" data-name="Grupo 979556" transform="translate(387.965 288.512)">
      <g id="Grupo_979554" data-name="Grupo 979554" transform="translate(0 4.367)">
        <path id="Trazado_691690" data-name="Trazado 691690" d="M993.885,687.409l41.234,33.65s4.31,7.35-1.165,11.265a8.451,8.451,0,0,1-10.224,0L987.66,694.41Z" transform="translate(-879.407 -582.568)" fill="#244239"/>
        <path id="Trazado_691691" data-name="Trazado 691691" d="M650.111,426.889a66.4,66.4,0,0,0,111.432,48.788q1.913-1.768,3.689-3.684c1.073-1.159,2.11-2.363,3.1-3.6q1.662-2.072,3.157-4.276c.359-.531.709-1.063,1.052-1.6a66.4,66.4,0,1,0-122.432-35.627Zm115.556,30.876a58.048,58.048,0,1,1-95.3-66.1,58.049,58.049,0,1,1,95.3,66.1Z" transform="translate(-650.111 -360.497)" fill="#244239"/>
      </g>
      <g id="Grupo_979555" data-name="Grupo 979555" transform="translate(3.036 0)">
        <path id="Trazado_691692" data-name="Trazado 691692" d="M1003.351,673.786l41.234,33.65s4.31,7.351-1.165,11.265a8.451,8.451,0,0,1-10.224,0l-36.069-37.915Z" transform="translate(-888.874 -568.946)" fill="#1299dd"/>
        <path id="Trazado_691693" data-name="Trazado 691693" d="M659.578,413.272a66.4,66.4,0,0,0,107.465,52.174q2.049-1.616,3.967-3.385c1.139-1.058,2.247-2.151,3.309-3.279q1.821-1.935,3.481-4.008c.4-.5.794-1,1.174-1.508a66.4,66.4,0,1,0-119.4-39.994ZM772.1,448.516a58.046,58.046,0,1,1,11.921-35.243A57.949,57.949,0,0,1,772.1,448.516Z" transform="translate(-659.578 -346.88)" fill="#1299dd"/>
      </g>
    </g>
    <g id="Grupo_979557" data-name="Grupo 979557" transform="translate(310.754 555.964)">
      <rect id="Rectángulo_341750" data-name="Rectángulo 341750" width="114.429" height="48.863" rx="12.287" transform="translate(0)" fill="#ffe1ef"/>
      <rect id="Rectángulo_341751" data-name="Rectángulo 341751" width="24.777" height="24.777" transform="translate(7.584 8.168)" fill="#fff"/>
      <rect id="Rectángulo_341752" data-name="Rectángulo 341752" width="70.41" height="4.308" transform="translate(34.699 8.168)" fill="#fff"/>
      <rect id="Rectángulo_341753" data-name="Rectángulo 341753" width="70.41" height="4.308" transform="translate(34.699 14.536)" fill="#fff"/>
      <rect id="Rectángulo_341754" data-name="Rectángulo 341754" width="70.41" height="4.308" transform="translate(34.699 20.904)" fill="#fff"/>
      <rect id="Rectángulo_341755" data-name="Rectángulo 341755" width="47.653" height="4.308" transform="translate(34.699 27.272)" fill="#fff"/>
    </g>
    <g id="Grupo_979559" data-name="Grupo 979559" transform="translate(450.101 627.748)">
      <path id="Trazado_691694" data-name="Trazado 691694" d="M851.873,1526.28h75.15a8.014,8.014,0,0,1,8.014,8.014V1558a8.014,8.014,0,0,1-8.014,8.014h-14.17c.271,1.882,1.237,7.966,2.693,10.239,0,0-7.977-3.561-12.448-10.239H851.873a8.014,8.014,0,0,1-8.014-8.014v-23.708A8.014,8.014,0,0,1,851.873,1526.28Z" transform="translate(-843.859 -1526.28)" fill="#f9ad55"/>
      <g id="Grupo_979558" data-name="Grupo 979558" transform="translate(8.213 12.023)">
        <rect id="Rectángulo_341756" data-name="Rectángulo 341756" width="74.097" height="3.117" transform="translate(74.097 3.117) rotate(180)" fill="#fff"/>
        <rect id="Rectángulo_341757" data-name="Rectángulo 341757" width="74.097" height="3.117" transform="translate(74.097 9.403) rotate(180)" fill="#fff"/>
        <rect id="Rectángulo_341758" data-name="Rectángulo 341758" width="40.406" height="3.117" transform="translate(74.097 15.69) rotate(180)" fill="#fff"/>
      </g>
    </g>
  </g>
</svg>
