<svg xmlns="http://www.w3.org/2000/svg" xmlns:xlink="http://www.w3.org/1999/xlink" width="504.732" height="523.218" viewBox="0 0 504.732 523.218">
  <defs>
    <linearGradient id="linear-gradient" x1="-0.637" y1="0.5" x2="0.363" y2="0.5" gradientUnits="objectBoundingBox">
      <stop offset="0" stop-color="#f8526d"/>
      <stop offset="1" stop-color="#fca163"/>
    </linearGradient>
    <linearGradient id="linear-gradient-2" x1="-0.319" y1="0.5" x2="0.681" y2="0.5" xlink:href="#linear-gradient"/>
    <linearGradient id="linear-gradient-3" x1="0.49" y1="1" x2="0.521" y2="0.004" gradientUnits="objectBoundingBox">
      <stop offset="0" stop-color="#7c58ef"/>
      <stop offset="1" stop-color="#da7de4"/>
    </linearGradient>
    <linearGradient id="linear-gradient-4" x1="0.482" y1="0.996" x2="0.508" y2="0.001" xlink:href="#linear-gradient-3"/>
  </defs>
  <g id="Grupo_979521" data-name="Grupo 979521" transform="translate(-238.481 -191.833)">
    <path id="Trazado_691455" data-name="Trazado 691455" d="M350.809,610.847s-90.644.341-94.516,35.367,43.246,60.817,124.092,64.325,99.263-9.882,101.929,1.508-53.294,2.605-55.15,16.477,119.041,16.755,230.315,0,11.82-31.074,10.495-53.083,67.628-20.958,67.628-54.3-112.786-20.829-144.575-41.67,58.739-28.463,66.452-64.35-51.5-13.361-64.924-33.783,52.9-13.071,56.868-51.02-36.183-40.629-68.839-44.24S557.816,330.348,601.623,330s47.844-55.766-37.715-61.6S344.033,280.506,386,322.583s109.749,49.682,48.672,69.944-171.082-2.393-155.226,51,54.376,32.354,65.958,76.2S350.809,610.847,350.809,610.847Z" transform="translate(-12.12 -52.019)" fill="#ffe0d7"/>
    <g id="Grupo_979462" data-name="Grupo 979462" transform="translate(579.144 483.939)">
      <path id="Trazado_691456" data-name="Trazado 691456" d="M1362.521,1159.02c-6.123,19.364-7.08,32.205-12.579,40.259-4.041,5.919-13.376,10.118-15.553,14.238a3.268,3.268,0,0,0-.359,2.419,4.464,4.464,0,0,0,1.377,2.074s28.546-12.567,46.469,3.912,25.6,23.953,35.194,17.768.613-14.207-5.083-18.417-3.579-14.741,6.072-9.792,25.873,23.307,40.257,12.581c10.677-7.964,2.664-15.361-3.923-20.866-.023-.016-.043-.035-.066-.051,0-.005-.011-.008-.016-.013a42.929,42.929,0,0,1-5.422-4.936c-4.27-5.443,5.084-11.424,16.811-7.432,7.019,2.389,17.664.025,24.792-5.48,4.782-3.692,7.984-8.8,7.451-14.828-1.329-15.017-17.974-24.72-32.808-16.921s-26.359,16.072-31.754,10.771,14.079-24.558-.722-32.119-32.838,28.279-41.189,26.764,7.629-15.686.805-19.756S1368.641,1139.658,1362.521,1159.02Z" transform="translate(-1333.933 -1131.139)" fill="url(#linear-gradient)"/>
      <path id="Trazado_691457" data-name="Trazado 691457" d="M1334.39,1304.313a3.269,3.269,0,0,0-.359,2.42c43.343-24.2,143.449-43.5,145.1-43.818C1410.545,1269.9,1351.665,1296.032,1334.39,1304.313Z" transform="translate(-1333.933 -1221.935)" fill="#f8526d"/>
      <path id="Trazado_691458" data-name="Trazado 691458" d="M1604.839,1340.639s-32.938-23.126-48.03-26.745l4.794-1.733S1594.759,1328.065,1604.839,1340.639Z" transform="translate(-1487.5 -1255.867)" fill="#f8526d"/>
      <path id="Trazado_691459" data-name="Trazado 691459" d="M1472.817,1381.316s-32.938-23.126-48.029-26.745l4.794-1.733S1462.737,1368.741,1472.817,1381.316Z" transform="translate(-1396.534 -1283.894)" fill="#f8526d"/>
      <path id="Trazado_691460" data-name="Trazado 691460" d="M1572.087,1217.2s14.231-18.138,18.414-39.179a108.284,108.284,0,0,1-12.046,25.642c-8.017,12.069-12.293,16.491-12.293,16.491Z" transform="translate(-1493.944 -1163.443)" fill="#f8526d"/>
      <path id="Trazado_691461" data-name="Trazado 691461" d="M1410.366,1270.864s14.231-18.139,18.414-39.179a108.277,108.277,0,0,1-12.046,25.642c-8.018,12.069-12.293,16.491-12.293,16.491Z" transform="translate(-1382.515 -1200.417)" fill="#f8526d"/>
    </g>
    <g id="Grupo_979463" data-name="Grupo 979463" transform="translate(550.177 323.332)">
      <path id="Trazado_691462" data-name="Trazado 691462" d="M1248.553,760.385c15.679,25.435,29.06,38.847,32.743,52.713,2.706,10.191-1.591,24.623.9,31.009a4.807,4.807,0,0,0,2.35,2.726,6.562,6.562,0,0,0,3.634.46s13.449-43.873,49.032-47.99,51.289-5.486,53.622-22.113-15.232-14.341-25.4-12.045-19.857-10.186-5.067-16.176,50.83-6.408,52.713-32.737c1.395-19.547-14.547-17.734-27.01-15.691-.04.01-.08.015-.12.025-.01,0-.02.005-.03.005-4.271.7-8.122,1.412-10.71,1.294-10.167-.478-7.835-16.645,7.885-25.867,9.408-5.521,17.009-19.649,17.731-32.879.486-8.875-2.122-17.349-9.35-22.553-18-12.957-44.81-3.748-50.385,20.27s-7.442,44.806-18.532,45.719-13.815-39.289-36.464-30.075-.075,63.758-9.792,71.6-10.135-23.576-21.227-19.89S1232.874,734.955,1248.553,760.385Z" transform="translate(-1240.786 -614.685)" fill="url(#linear-gradient-2)"/>
      <path id="Trazado_691463" data-name="Trazado 691463" d="M1373.959,907.092a4.807,4.807,0,0,0,2.349,2.726c14.718-71.535,89.463-201.575,90.7-203.721C1408.851,789.2,1381.345,879.892,1373.959,907.092Z" transform="translate(-1332.545 -677.67)" fill="#f8526d"/>
      <path id="Trazado_691464" data-name="Trazado 691464" d="M1575.574,941.191s-57.421,14.45-75.959,27.777l2.678-7.005S1551.88,940.329,1575.574,941.191Z" transform="translate(-1419.124 -839.637)" fill="#f8526d"/>
      <path id="Trazado_691465" data-name="Trazado 691465" d="M1493.95,1127.327s-57.421,14.45-75.959,27.777l2.678-7.005S1470.255,1126.465,1493.95,1127.327Z" transform="translate(-1362.883 -967.889)" fill="#f8526d"/>
      <path id="Trazado_691466" data-name="Trazado 691466" d="M1454.183,856.848s-6.518-33.286-25.929-58.173c0,0,11.243,17.535,16.976,38.066s6.547,29.544,6.547,29.544Z" transform="translate(-1369.955 -741.458)" fill="#f8526d"/>
      <path id="Trazado_691467" data-name="Trazado 691467" d="M1358.47,1088.543s-6.519-33.287-25.929-58.173c0,0,11.243,17.535,16.975,38.067s6.547,29.544,6.547,29.544Z" transform="translate(-1304.007 -901.1)" fill="#f8526d"/>
    </g>
    <g id="Grupo_979465" data-name="Grupo 979465" transform="translate(452.985 323.332)">
      <path id="Trazado_691468" data-name="Trazado 691468" d="M1046.025,1211.293c-73.331-1.453-105.085-28.551-114.545-62.164a0,0,0,0,1-.005-.005c-6.535-23.219-2.426-49.549,5.967-72.67,20.544-56.593,77.034-146.026,77.034-146.026l44.755,8.11s40.075,45.793,73.6,89.79c20.343,26.692,38.279,52.729,43.4,67.471C1189.8,1134.847,1170.01,1213.754,1046.025,1211.293Z" transform="translate(-928.25 -832.238)" fill="url(#linear-gradient-3)"/>
      <path id="Trazado_691469" data-name="Trazado 691469" d="M1174.277,678.9c-4.969,15.848-11.524,35.056-13.407,40.549-.342.993-.529,1.536-.529,1.536l-5.586-.1-1.658-.029-42.824-.773s-18.9-40.515-32.107-57.542,19.076-19.032,19.076-19.032,13.206-26.3,27.147-28.658,33.016,21.635,33.016,21.635,8.506-5.708,17.981-6.134a21.2,21.2,0,0,1,6.9.753C1194.088,634.505,1180.147,660.2,1174.277,678.9Z" transform="translate(-1029.361 -614.685)" fill="url(#linear-gradient-4)"/>
      <rect id="Rect치ngulo_341724" data-name="Rect치ngulo 341724" width="54.069" height="6.415" transform="translate(79.976 103.414)" fill="#7c58ef"/>
      <path id="Trazado_691470" data-name="Trazado 691470" d="M1053.18,1428.2c-73.331-1.453-105.085-28.551-114.545-62.164a159.148,159.148,0,0,0,16.234,14.385s27.142,9.891,43.283,15.574,48.424,2.4,48.424,2.4l27.88-4.779s5.865,5.5,22.74,4.779,30.815-19.086,34.484-22.026,35.217-5.131,33.515-55.771c-.792-23.757-12.747-52.034-25.205-75.361,20.343,26.692,38.28,52.729,43.4,67.471C1196.951,1351.758,1177.166,1430.665,1053.18,1428.2Z" transform="translate(-935.406 -1049.15)" fill="#7c58ef"/>
      <path id="Trazado_691471" data-name="Trazado 691471" d="M1197.387,956.508s-10.181,49.7-12.305,61.924,18.42-61.6,18.42-61.6Z" transform="translate(-1105.106 -850.208)" fill="#7c58ef"/>
      <path id="Trazado_691472" data-name="Trazado 691472" d="M1283.976,959.468s7.093,13.7,13.94,28.37,25.435,59.888,37.663,70.42,9.293-10.146,0-25-44.511-75.72-44.511-75.72Z" transform="translate(-1173.352 -850.919)" fill="#7c58ef"/>
      <path id="Trazado_691473" data-name="Trazado 691473" d="M1184.145,820.023l-27.31-62.066,19.891,60.326Z" transform="translate(-1085.75 -713.402)" fill="#7c58ef"/>
      <path id="Trazado_691474" data-name="Trazado 691474" d="M1346.988,713.543c-4.969,15.848-11.524,35.056-13.407,40.549l-6.114,1.433-1.81.425s.054-.156.152-.455c2.122-6.31,25.611-76.285,25.611-83.133,0-2.6-1.463-5.165-3.321-7.371a21.208,21.208,0,0,1,6.9.753C1366.8,669.149,1352.858,694.843,1346.988,713.543Z" transform="translate(-1202.072 -649.328)" fill="#7c58ef"/>
      <g id="Grupo_979464" data-name="Grupo 979464" transform="translate(83.754 171.578)">
        <path id="Trazado_691475" data-name="Trazado 691475" d="M1227.755,1328.365v-19.923c-11.441-.2-23.276-3.748-30.18-8.679l4.735-13.216a52.58,52.58,0,0,0,28.4,8.482c14.005,0,23.473-8.087,23.473-19.33,0-10.849-7.694-17.556-22.29-23.473-20.12-7.89-32.547-16.964-32.547-34.125,0-16.372,11.638-28.8,29.785-31.758V1166.42h12.23v19.134c11.836.394,19.923,3.55,25.643,6.9l-4.931,13.018a47.679,47.679,0,0,0-24.854-6.707c-15.188,0-20.909,9.074-20.909,16.964,0,10.257,7.3,15.386,24.46,22.487,20.317,8.285,30.574,18.542,30.574,36.1,0,15.583-10.849,30.18-31.165,33.533v20.514Z" transform="translate(-1197.575 -1166.42)" fill="#fff"/>
      </g>
    </g>
    <g id="Grupo_979476" data-name="Grupo 979476" transform="translate(629.085 521.223)">
      <g id="Grupo_979467" data-name="Grupo 979467" transform="translate(11.1 40.347)">
        <path id="Trazado_691476" data-name="Trazado 691476" d="M1611.057,1442.993c-.127,9.353-18.294,17.105-40.579,17.312-18.161.171-33.454-4.724-38.421-11.608a8.206,8.206,0,0,1-1.7-4.956l-.043-3.145-.047-3.355-.03-2.109a7.723,7.723,0,0,0,.816,3.17c3.539,7.212,18.136,12.616,36.114,13.04q1.577.037,3.189.023c12.3-.114,23.338-2.525,30.788-6.237,6.053-3.014,9.732-6.885,9.789-11.077Z" transform="translate(-1530.23 -1417.482)" fill="#c18646"/>
        <path id="Trazado_691477" data-name="Trazado 691477" d="M1570.8,1380.776c22.285-.207,40.248,7.209,40.122,16.565s-18.293,17.107-40.577,17.314-40.248-7.209-40.122-16.564S1548.511,1380.983,1570.8,1380.776Z" transform="translate(-1530.218 -1380.772)" fill="#f9ad55"/>
        <path id="Trazado_691478" data-name="Trazado 691478" d="M1601.141,1447.525c-7.415,4.191-19.184,6.966-32.4,7.089-18.174.168-33.476-4.733-38.431-11.621l-.047-3.355-.03-2.109a7.72,7.72,0,0,0,.816,3.17c3.539,7.213,18.136,12.616,36.114,13.04q1.577.037,3.189.023C1582.649,1453.648,1593.692,1451.236,1601.141,1447.525Z" transform="translate(-1530.23 -1419.879)" fill="#c18646"/>
        <path id="Trazado_691479" data-name="Trazado 691479" d="M1551.39,1404.448c.107-7.987,15.617-14.606,34.643-14.782,9.032-.084,17.231,1.3,23.343,3.63-6.264-2.877-15.367-4.637-25.522-4.543-19.022.177-34.529,6.794-34.636,14.78-.056,4.174,4.109,7.9,10.814,10.472C1554.613,1411.5,1551.341,1408.151,1551.39,1404.448Z" transform="translate(-1543.309 -1386.269)" fill="#c18646"/>
        <g id="Grupo_979466" data-name="Grupo 979466" transform="translate(19.77 9.161)">
          <path id="Trazado_691480" data-name="Trazado 691480" d="M1633.693,1424.319l-4.928-1.188a13.582,13.582,0,0,1-5.526,4.079l-2.739-1.51a12.594,12.594,0,0,0,5.278-3.82c1.568-2.133.628-4.058-2.154-4.729-2.683-.648-5.2.124-8.3,1.994-4.2,2.594-7.84,3.945-12.084,2.921-4.05-.977-5.82-3.491-4.52-6.432l-4.928-1.189,1.369-1.863,4.733,1.142a12.249,12.249,0,0,1,4.579-3.494l2.668,1.528a11.219,11.219,0,0,0-4.442,3.385c-1.7,2.313-.1,3.726,1.855,4.2,2.537.612,4.623-.193,8.3-2.384,4.324-2.6,8.009-3.55,12.352-2.5,3.854.93,6.25,3.453,4.8,6.748l5.074,1.224Z" transform="translate(-1593.792 -1410.231)" fill="#fff"/>
        </g>
      </g>
      <g id="Grupo_979469" data-name="Grupo 979469" transform="translate(3.08 29.331)">
        <path id="Trazado_691481" data-name="Trazado 691481" d="M1585.267,1407.571c-.127,9.353-18.294,17.106-40.579,17.312-18.161.171-33.454-4.725-38.421-11.608a8.205,8.205,0,0,1-1.7-4.956l-.044-3.145-.047-3.355-.03-2.109a7.725,7.725,0,0,0,.817,3.17c3.539,7.213,18.136,12.616,36.113,13.04q1.577.037,3.188.023c12.3-.114,23.339-2.526,30.788-6.237,6.053-3.014,9.732-6.885,9.789-11.077Z" transform="translate(-1504.44 -1382.061)" fill="#c18646"/>
        <path id="Trazado_691482" data-name="Trazado 691482" d="M1545.006,1345.355c22.285-.207,40.248,7.209,40.122,16.565s-18.293,17.107-40.578,17.314-40.248-7.209-40.122-16.564S1522.722,1345.562,1545.006,1345.355Z" transform="translate(-1504.428 -1345.35)" fill="#f9ad55"/>
        <path id="Trazado_691483" data-name="Trazado 691483" d="M1575.352,1412.1c-7.416,4.191-19.184,6.966-32.4,7.089-18.174.169-33.476-4.733-38.43-11.621l-.047-3.355-.03-2.108a7.725,7.725,0,0,0,.817,3.17c3.539,7.213,18.136,12.615,36.113,13.04q1.577.037,3.188.023C1556.859,1418.227,1567.9,1415.815,1575.352,1412.1Z" transform="translate(-1504.44 -1384.458)" fill="#c18646"/>
        <path id="Trazado_691484" data-name="Trazado 691484" d="M1525.6,1369.026c.107-7.987,15.617-14.605,34.642-14.782,9.032-.084,17.231,1.3,23.343,3.63-6.264-2.876-15.367-4.637-25.521-4.542-19.022.177-34.529,6.794-34.636,14.779-.056,4.175,4.109,7.9,10.814,10.473C1528.823,1376.076,1525.55,1372.729,1525.6,1369.026Z" transform="translate(-1517.519 -1350.847)" fill="#c18646"/>
        <g id="Grupo_979468" data-name="Grupo 979468" transform="translate(19.77 9.161)">
          <path id="Trazado_691485" data-name="Trazado 691485" d="M1607.9,1388.9l-4.927-1.189a13.583,13.583,0,0,1-5.526,4.079l-2.739-1.51a12.594,12.594,0,0,0,5.278-3.82c1.568-2.133.628-4.058-2.153-4.729-2.683-.647-5.2.125-8.3,1.994-4.2,2.594-7.84,3.945-12.084,2.922-4.05-.977-5.82-3.491-4.52-6.432l-4.928-1.189,1.369-1.863,4.733,1.142a12.25,12.25,0,0,1,4.579-3.494l2.668,1.528a11.218,11.218,0,0,0-4.442,3.385c-1.7,2.313-.1,3.726,1.855,4.2,2.537.612,4.623-.193,8.3-2.383,4.324-2.6,8.01-3.55,12.352-2.5,3.854.93,6.25,3.454,4.8,6.748l5.074,1.224Z" transform="translate(-1568.002 -1374.809)" fill="#fff"/>
        </g>
      </g>
      <g id="Grupo_979471" data-name="Grupo 979471" transform="translate(3.017 18.933)">
        <path id="Trazado_691486" data-name="Trazado 691486" d="M1585.064,1374.134c-.127,9.353-18.294,17.106-40.579,17.312-18.161.171-33.453-4.725-38.421-11.608a8.206,8.206,0,0,1-1.7-4.956l-.044-3.145-.047-3.355-.03-2.108a7.727,7.727,0,0,0,.817,3.169c3.538,7.213,18.136,12.615,36.114,13.04q1.577.037,3.188.023c12.3-.114,23.339-2.526,30.788-6.237,6.053-3.014,9.732-6.885,9.789-11.077Z" transform="translate(-1504.237 -1348.624)" fill="#c18646"/>
        <path id="Trazado_691487" data-name="Trazado 691487" d="M1544.8,1311.918c22.285-.207,40.248,7.209,40.122,16.564s-18.293,17.107-40.578,17.314-40.248-7.209-40.122-16.563S1522.519,1312.125,1544.8,1311.918Z" transform="translate(-1504.225 -1311.913)" fill="#f9ad55"/>
        <path id="Trazado_691488" data-name="Trazado 691488" d="M1575.148,1378.666c-7.415,4.191-19.184,6.966-32.4,7.089-18.174.169-33.476-4.733-38.43-11.621l-.047-3.355-.03-2.109a7.727,7.727,0,0,0,.817,3.17c3.538,7.213,18.136,12.615,36.114,13.04q1.577.037,3.188.023C1556.656,1384.789,1567.7,1382.378,1575.148,1378.666Z" transform="translate(-1504.237 -1351.021)" fill="#c18646"/>
        <path id="Trazado_691489" data-name="Trazado 691489" d="M1525.4,1335.589c.108-7.987,15.617-14.605,34.643-14.782,9.032-.084,17.231,1.3,23.343,3.63-6.264-2.876-15.367-4.637-25.521-4.542-19.022.177-34.529,6.794-34.636,14.78-.056,4.174,4.109,7.9,10.814,10.472C1528.619,1342.639,1525.347,1339.292,1525.4,1335.589Z" transform="translate(-1517.316 -1317.41)" fill="#c18646"/>
        <g id="Grupo_979470" data-name="Grupo 979470" transform="translate(19.77 9.161)">
          <path id="Trazado_691490" data-name="Trazado 691490" d="M1607.7,1355.46l-4.927-1.189a13.577,13.577,0,0,1-5.526,4.079l-2.739-1.51a12.585,12.585,0,0,0,5.278-3.82c1.568-2.133.628-4.058-2.153-4.729-2.683-.647-5.2.125-8.3,1.994-4.2,2.594-7.84,3.945-12.085,2.921-4.049-.977-5.82-3.491-4.52-6.432l-4.928-1.189,1.369-1.863,4.733,1.141a12.251,12.251,0,0,1,4.579-3.494l2.668,1.528a11.225,11.225,0,0,0-4.442,3.385c-1.7,2.313-.1,3.726,1.855,4.2,2.537.612,4.623-.193,8.3-2.383,4.324-2.6,8.01-3.551,12.352-2.5,3.854.93,6.25,3.453,4.8,6.748l5.074,1.224Z" transform="translate(-1567.799 -1341.372)" fill="#fff"/>
        </g>
      </g>
      <g id="Grupo_979473" data-name="Grupo 979473" transform="translate(0 7.918)">
        <path id="Trazado_691491" data-name="Trazado 691491" d="M1575.363,1338.713c-.127,9.353-18.294,17.106-40.579,17.312-18.161.17-33.454-4.725-38.421-11.608a8.205,8.205,0,0,1-1.7-4.956l-.044-3.145-.047-3.355-.03-2.109a7.725,7.725,0,0,0,.816,3.169c3.539,7.213,18.136,12.616,36.114,13.04q1.577.037,3.188.023c12.3-.114,23.339-2.526,30.788-6.237,6.053-3.014,9.732-6.885,9.789-11.077Z" transform="translate(-1494.536 -1313.203)" fill="#c18646"/>
        <path id="Trazado_691492" data-name="Trazado 691492" d="M1535.1,1276.5c22.285-.207,40.248,7.209,40.122,16.565s-18.293,17.107-40.577,17.314-40.249-7.209-40.122-16.564S1512.818,1276.7,1535.1,1276.5Z" transform="translate(-1494.524 -1276.492)" fill="#f9ad55"/>
        <path id="Trazado_691493" data-name="Trazado 691493" d="M1565.447,1343.245c-7.415,4.191-19.184,6.966-32.4,7.089-18.174.169-33.476-4.732-38.43-11.621l-.047-3.355-.03-2.109a7.726,7.726,0,0,0,.816,3.17c3.539,7.213,18.136,12.616,36.114,13.04q1.577.038,3.188.023C1546.955,1349.368,1558,1346.956,1565.447,1343.245Z" transform="translate(-1494.536 -1315.599)" fill="#c18646"/>
        <path id="Trazado_691494" data-name="Trazado 691494" d="M1515.7,1300.167c.108-7.987,15.617-14.606,34.642-14.782,9.032-.084,17.231,1.3,23.343,3.63-6.264-2.876-15.367-4.637-25.522-4.543-19.022.177-34.529,6.794-34.636,14.779-.056,4.175,4.109,7.9,10.814,10.473C1518.918,1307.217,1515.646,1303.871,1515.7,1300.167Z" transform="translate(-1507.614 -1281.989)" fill="#c18646"/>
        <g id="Grupo_979472" data-name="Grupo 979472" transform="translate(19.77 9.161)">
          <path id="Trazado_691495" data-name="Trazado 691495" d="M1598,1320.039l-4.927-1.189a13.583,13.583,0,0,1-5.526,4.079l-2.739-1.51a12.589,12.589,0,0,0,5.278-3.82c1.568-2.133.628-4.058-2.153-4.729-2.683-.648-5.2.124-8.3,1.994-4.2,2.594-7.84,3.945-12.085,2.921-4.049-.977-5.82-3.491-4.52-6.432l-4.927-1.189,1.369-1.863,4.732,1.142a12.248,12.248,0,0,1,4.579-3.494l2.668,1.528a11.219,11.219,0,0,0-4.442,3.385c-1.7,2.313-.1,3.726,1.855,4.2,2.537.612,4.623-.193,8.3-2.384,4.324-2.6,8.009-3.55,12.352-2.5,3.854.93,6.25,3.453,4.8,6.748l5.074,1.224Z" transform="translate(-1558.098 -1305.951)" fill="#fff"/>
        </g>
      </g>
      <g id="Grupo_979475" data-name="Grupo 979475" transform="translate(4.246)">
        <path id="Trazado_691496" data-name="Trazado 691496" d="M1589.016,1313.253c-.127,9.353-18.293,17.106-40.579,17.312-18.161.171-33.453-4.725-38.421-11.608a8.205,8.205,0,0,1-1.7-4.956l-.044-3.145-.047-3.355-.031-2.108a7.728,7.728,0,0,0,.817,3.169c3.539,7.212,18.136,12.615,36.113,13.04q1.577.037,3.188.023c12.3-.114,23.339-2.526,30.788-6.237,6.053-3.014,9.732-6.885,9.789-11.077Z" transform="translate(-1508.189 -1287.743)" fill="#c18646"/>
        <path id="Trazado_691497" data-name="Trazado 691497" d="M1548.756,1251.037c22.285-.207,40.248,7.209,40.122,16.565s-18.293,17.107-40.578,17.314-40.248-7.209-40.122-16.564S1526.471,1251.244,1548.756,1251.037Z" transform="translate(-1508.178 -1251.032)" fill="#f9ad55"/>
        <path id="Trazado_691498" data-name="Trazado 691498" d="M1579.1,1317.786c-7.415,4.191-19.184,6.966-32.4,7.089-18.174.169-33.476-4.732-38.431-11.621l-.047-3.355-.031-2.108a7.729,7.729,0,0,0,.817,3.17c3.539,7.213,18.136,12.615,36.113,13.04q1.577.037,3.188.023C1560.608,1323.908,1571.651,1321.5,1579.1,1317.786Z" transform="translate(-1508.189 -1290.14)" fill="#c18646"/>
        <path id="Trazado_691499" data-name="Trazado 691499" d="M1529.349,1274.708c.108-7.987,15.617-14.605,34.643-14.782,9.032-.084,17.231,1.3,23.343,3.63-6.264-2.876-15.367-4.637-25.521-4.542-19.022.177-34.529,6.794-34.636,14.779-.056,4.175,4.109,7.9,10.814,10.473C1532.572,1281.758,1529.3,1278.411,1529.349,1274.708Z" transform="translate(-1521.268 -1256.529)" fill="#c18646"/>
        <g id="Grupo_979474" data-name="Grupo 979474" transform="translate(19.77 9.161)">
          <path id="Trazado_691500" data-name="Trazado 691500" d="M1611.652,1294.579l-4.928-1.189a13.576,13.576,0,0,1-5.526,4.079l-2.739-1.509a12.593,12.593,0,0,0,5.278-3.82c1.568-2.133.628-4.058-2.153-4.729-2.683-.647-5.2.124-8.3,1.995-4.2,2.594-7.84,3.945-12.085,2.921-4.05-.977-5.82-3.491-4.52-6.432l-4.928-1.189,1.37-1.863,4.732,1.142a12.256,12.256,0,0,1,4.579-3.494l2.668,1.528a11.218,11.218,0,0,0-4.442,3.385c-1.7,2.313-.1,3.726,1.855,4.2,2.537.612,4.623-.194,8.3-2.384,4.324-2.6,8.009-3.551,12.351-2.5,3.854.93,6.25,3.453,4.8,6.748l5.074,1.224Z" transform="translate(-1571.751 -1280.491)" fill="#fff"/>
        </g>
      </g>
    </g>
    <g id="Grupo_979478" data-name="Grupo 979478" transform="translate(542.172 218.104)">
      <circle id="Elipse_7834" data-name="Elipse 7834" cx="44.03" cy="44.03" r="44.03" transform="translate(2.481 65.161) rotate(-45)" fill="#4c1003"/>
      <circle id="Elipse_7835" data-name="Elipse 7835" cx="44.03" cy="44.03" r="44.03" transform="translate(0 62.267) rotate(-45)" fill="#f9ad55"/>
      <path id="Trazado_691501" data-name="Trazado 691501" d="M1299.2,396.919a36.775,36.775,0,0,0,12.045,27.261,36.87,36.87,0,1,1,47.168-56.59,36.87,36.87,0,0,0-59.213,29.328Z" transform="translate(-1271.318 -332.585)" fill="#4c1003"/>
      <g id="Grupo_979477" data-name="Grupo 979477" transform="translate(50.591 36.635)">
        <path id="Trazado_691502" data-name="Trazado 691502" d="M1387.281,445.382v-6.307a18.182,18.182,0,0,1-9.554-2.748l1.5-4.184a16.643,16.643,0,0,0,8.991,2.685c4.433,0,7.431-2.56,7.431-6.119,0-3.434-2.435-5.557-7.056-7.431-6.369-2.5-10.3-5.37-10.3-10.8,0-5.183,3.684-9.117,9.429-10.053v-6.307h3.871v6.057a16.656,16.656,0,0,1,8.117,2.185l-1.561,4.121a15.093,15.093,0,0,0-7.867-2.123c-4.808,0-6.619,2.873-6.619,5.37,0,3.247,2.31,4.871,7.743,7.118,6.431,2.623,9.678,5.87,9.678,11.427,0,4.933-3.434,9.554-9.865,10.615v6.494Z" transform="translate(-1377.727 -394.117)" fill="#fff"/>
      </g>
    </g>
    <g id="Grupo_979480" data-name="Grupo 979480" transform="translate(497.971 191.834)">
      <circle id="Elipse_7836" data-name="Elipse 7836" cx="25.412" cy="25.412" r="25.412" transform="translate(11.958 12.196)" fill="#4c1003"/>
      <circle id="Elipse_7837" data-name="Elipse 7837" cx="25.412" cy="25.412" r="25.412" transform="translate(0 35.937) rotate(-45)" fill="#f9ad55"/>
      <path id="Trazado_691503" data-name="Trazado 691503" d="M1121.478,261.442a21.223,21.223,0,0,0,6.952,15.734,21.279,21.279,0,1,1,27.223-32.66,21.279,21.279,0,0,0-34.175,16.927Z" transform="translate(-1105.388 -224.312)" fill="#4c1003"/>
      <g id="Grupo_979479" data-name="Grupo 979479" transform="translate(29.198 21.144)">
        <path id="Trazado_691504" data-name="Trazado 691504" d="M1172.315,289.412v-3.64a10.492,10.492,0,0,1-5.514-1.586l.865-2.414a9.606,9.606,0,0,0,5.189,1.55c2.559,0,4.289-1.477,4.289-3.532,0-1.982-1.406-3.207-4.073-4.288-3.676-1.441-5.946-3.1-5.946-6.234,0-2.991,2.126-5.262,5.442-5.8v-3.64h2.234v3.5a9.612,9.612,0,0,1,4.685,1.261l-.9,2.378a8.713,8.713,0,0,0-4.541-1.225c-2.775,0-3.82,1.658-3.82,3.1,0,1.874,1.334,2.811,4.469,4.108,3.712,1.514,5.586,3.387,5.586,6.595,0,2.847-1.982,5.514-5.694,6.127v3.748Z" transform="translate(-1166.801 -259.825)" fill="#fff"/>
      </g>
    </g>
    <g id="Grupo_979482" data-name="Grupo 979482" transform="translate(421.271 447.252)">
      <path id="Trazado_691505" data-name="Trazado 691505" d="M907.592,1425.119c-50.634-1-72.561-19.714-79.093-42.923,0,0,0,0,0,0-4.512-16.033-1.675-34.213,4.12-50.178,14.185-39.077,53.191-100.829,53.191-100.829l30.9,5.6s27.671,31.62,50.823,62c14.047,18.431,26.432,36.409,29.968,46.588C1006.864,1372.334,993.2,1426.818,907.592,1425.119Z" transform="translate(-826.27 -1163.386)" fill="url(#linear-gradient-3)"/>
      <path id="Trazado_691506" data-name="Trazado 691506" d="M996.149,1057.507c-3.431,10.943-7.957,24.206-9.258,28-.236.686-.365,1.06-.365,1.06l-3.857-.071-1.145-.02-29.57-.534s-13.05-27.975-22.169-39.732,13.172-13.141,13.172-13.141,9.119-18.16,18.745-19.788,22.8,14.938,22.8,14.938,5.873-3.942,12.415-4.235a14.636,14.636,0,0,1,4.765.52C1009.828,1026.854,1000.2,1044.595,996.149,1057.507Z" transform="translate(-896.086 -1013.167)" fill="url(#linear-gradient-4)"/>
      <rect id="Rect치ngulo_341725" data-name="Rect치ngulo 341725" width="37.334" height="4.429" transform="translate(55.222 71.406)" fill="#7c58ef"/>
      <path id="Trazado_691507" data-name="Trazado 691507" d="M912.532,1574.894c-50.634-1-72.561-19.714-79.092-42.924a109.878,109.878,0,0,0,11.21,9.933s18.741,6.829,29.887,10.754,33.437,1.655,33.437,1.655l19.251-3.3s4.05,3.8,15.7,3.3,21.278-13.179,23.811-15.208,24.318-3.543,23.142-38.509c-.547-16.4-8.8-35.929-17.4-52.036,14.047,18.431,26.432,36.409,29.968,46.588C1011.8,1522.109,998.143,1576.593,912.532,1574.894Z" transform="translate(-831.21 -1313.161)" fill="#7c58ef"/>
      <path id="Trazado_691508" data-name="Trazado 691508" d="M1012.106,1249.193s-7.03,34.314-8.5,42.758,12.718-42.536,12.718-42.536Z" transform="translate(-948.387 -1175.794)" fill="#7c58ef"/>
      <path id="Trazado_691509" data-name="Trazado 691509" d="M1071.894,1251.236s4.9,9.457,9.626,19.589,17.562,41.352,26.006,48.624,6.417-7.006,0-17.261-30.734-52.284-30.734-52.284Z" transform="translate(-995.51 -1176.284)" fill="#7c58ef"/>
      <path id="Trazado_691510" data-name="Trazado 691510" d="M1002.962,1154.951,984.1,1112.095l13.735,41.655Z" transform="translate(-935.021 -1081.33)" fill="#7c58ef"/>
      <path id="Trazado_691511" data-name="Trazado 691511" d="M1115.4,1081.427c-3.431,10.943-7.957,24.206-9.257,28l-4.222.99-1.249.294s.037-.108.1-.314c1.466-4.357,17.684-52.674,17.684-57.4a8.33,8.33,0,0,0-2.294-5.09,14.639,14.639,0,0,1,4.766.52C1129.082,1050.774,1119.457,1068.515,1115.4,1081.427Z" transform="translate(-1015.34 -1037.088)" fill="#7c58ef"/>
      <g id="Grupo_979481" data-name="Grupo 979481" transform="translate(57.832 118.473)">
        <path id="Trazado_691512" data-name="Trazado 691512" d="M1033.075,1505.956V1492.2c-7.9-.136-16.072-2.588-20.839-5.993l3.269-9.126a36.308,36.308,0,0,0,19.613,5.857c9.671,0,16.208-5.584,16.208-13.348,0-7.491-5.312-12.122-15.391-16.208-13.892-5.448-22.473-11.714-22.473-23.563,0-11.3,8.036-19.885,20.567-21.928v-13.757h8.444v13.212a36.33,36.33,0,0,1,17.706,4.767l-3.405,8.989a32.92,32.92,0,0,0-17.161-4.631c-10.488,0-14.438,6.265-14.438,11.713,0,7.082,5.04,10.624,16.889,15.527,14.029,5.72,21.111,12.8,21.111,24.925,0,10.76-7.491,20.839-21.519,23.154v14.165Z" transform="translate(-1012.236 -1394.135)" fill="#fff"/>
      </g>
    </g>
    <g id="Grupo_979499" data-name="Grupo 979499" transform="translate(559.888 586.689)">
      <g id="Grupo_979484" data-name="Grupo 979484" transform="translate(0.867 78.098)">
        <path id="Trazado_691513" data-name="Trazado 691513" d="M1275.131,1775.132c.561,9.338,19.067,16.239,41.338,15.411,18.149-.672,33.2-6.272,37.841-13.378a8.2,8.2,0,0,0,1.47-5.029l-.1-3.144-.108-3.354-.068-2.108a7.734,7.734,0,0,1-.668,3.2c-3.2,7.369-17.531,13.443-35.47,14.7q-1.574.11-3.184.171c-12.287.457-23.43-1.44-31.044-4.8-6.186-2.73-10.041-6.426-10.292-10.611Z" transform="translate(-1274.83 -1747.719)" fill="#c18646"/>
        <path id="Trazado_691514" data-name="Trazado 691514" d="M1314.125,1712.752c-22.271.827-39.87,9.069-39.311,18.408s19.067,16.24,41.337,15.412,39.87-9.068,39.311-18.407S1336.4,1711.925,1314.125,1712.752Z" transform="translate(-1274.801 -1712.685)" fill="#f9ad55"/>
        <path id="Trazado_691515" data-name="Trazado 691515" d="M1307.94,1776.805c7.6,3.842,19.486,6.069,32.692,5.578,18.162-.675,33.22-6.281,37.85-13.391l-.108-3.354-.068-2.108a7.738,7.738,0,0,1-.669,3.2c-3.2,7.369-17.531,13.443-35.47,14.7q-1.574.11-3.184.171C1326.7,1782.064,1315.553,1780.167,1307.94,1776.805Z" transform="translate(-1297.634 -1747.719)" fill="#c18646"/>
        <path id="Trazado_691516" data-name="Trazado 691516" d="M1378.867,1734.907c-.478-7.974-16.278-13.865-35.291-13.159-9.026.335-17.152,2.1-23.149,4.709,6.124-3.164,15.135-5.345,25.283-5.722,19.009-.706,34.807,5.185,35.285,13.156.25,4.167-3.739,8.078-10.317,10.963C1375.975,1742.1,1379.089,1738.6,1378.867,1734.907Z" transform="translate(-1306.238 -1718.193)" fill="#c18646"/>
        <g id="Grupo_979483" data-name="Grupo 979483" transform="translate(19.852 8.744)">
          <path id="Trazado_691517" data-name="Trazado 691517" d="M1338.638,1754.407l5.012-1.458c-1.6-3.224.679-5.856,4.486-6.964,4.289-1.248,8.015-.47,12.454,1.927,3.775,2.017,5.9,2.725,8.4,2,1.928-.56,3.464-2.046,1.658-4.278a11.218,11.218,0,0,0-4.594-3.176l2.594-1.65a12.25,12.25,0,0,1,4.736,3.277l4.674-1.36,1.454,1.8-4.867,1.416c1.435,2.877-.217,5.471-4.217,6.635-4.192,1.219-7.887.038-12.207-2.357-3.182-1.724-5.735-2.378-8.385-1.607-2.747.8-3.6,2.766-1.931,4.824a12.594,12.594,0,0,0,5.45,3.571l-2.666,1.635a13.58,13.58,0,0,1-5.709-3.818l-4.867,1.416Z" transform="translate(-1338.638 -1740.804)" fill="#fff"/>
        </g>
      </g>
      <g id="Grupo_979486" data-name="Grupo 979486" transform="translate(4.561 66.901)">
        <path id="Trazado_691518" data-name="Trazado 691518" d="M1286.679,1734.794c-.188,9.352,17.707,17.711,39.973,18.667,18.145.781,33.594-3.6,38.79-10.309a8.21,8.21,0,0,0,1.867-4.9l.149-3.141.16-3.352.1-2.107a7.726,7.726,0,0,1-.923,3.141c-3.78,7.089-18.55,12-36.531,11.818q-1.578-.016-3.188-.084c-12.285-.527-23.24-3.309-30.561-7.269-5.948-3.216-9.5-7.208-9.411-11.4Z" transform="translate(-1286.677 -1710.566)" fill="#c18646"/>
        <path id="Trazado_691519" data-name="Trazado 691519" d="M1328.711,1676.767c-22.266-.957-40.468,5.851-40.657,15.206s17.707,17.712,39.972,18.669,40.468-5.851,40.657-15.205S1350.975,1677.724,1328.711,1676.767Z" transform="translate(-1287.625 -1676.678)" fill="#f9ad55"/>
        <path id="Trazado_691520" data-name="Trazado 691520" d="M1318.319,1745.671c7.27,4.438,18.939,7.608,32.141,8.175,18.158.78,33.616-3.6,38.8-10.321l.16-3.352.1-2.107a7.728,7.728,0,0,1-.923,3.14c-3.78,7.089-18.55,12-36.532,11.818q-1.577-.016-3.187-.084C1336.595,1752.413,1325.639,1749.631,1318.319,1745.671Z" transform="translate(-1308.479 -1718.976)" fill="#c18646"/>
        <path id="Trazado_691521" data-name="Trazado 691521" d="M1393.7,1701.549c.161-7.986-15.117-15.122-34.126-15.94-9.024-.387-17.265.72-23.452,2.843,6.357-2.664,15.514-4.117,25.66-3.681,19.005.817,34.281,7.951,34.12,15.936-.084,4.175-4.372,7.753-11.16,10.1C1390.24,1708.487,1393.623,1705.252,1393.7,1701.549Z" transform="translate(-1320.745 -1682.202)" fill="#c18646"/>
        <g id="Grupo_979485" data-name="Grupo 979485" transform="translate(19.895 9.582)">
          <path id="Trazado_691522" data-name="Trazado 691522" d="M1350.652,1718.65l5.113-1.053c-1.334-3.342,1.145-5.783,5.029-6.583,4.375-.9,8.026.173,12.26,2.917,3.6,2.312,5.659,3.188,8.215,2.661,1.966-.4,3.617-1.762,1.995-4.132a11.223,11.223,0,0,0-4.325-3.533l2.718-1.437a12.25,12.25,0,0,1,4.459,3.645l4.768-.982,1.306,1.908-4.965,1.022c1.2,2.982-.654,5.436-4.734,6.276-4.277.88-7.865-.592-11.979-3.326-3.034-1.973-5.526-2.829-8.23-2.273-2.8.577-3.807,2.469-2.311,4.654a12.6,12.6,0,0,0,5.147,4l-2.788,1.417a13.582,13.582,0,0,1-5.385-4.263l-4.965,1.022Z" transform="translate(-1350.652 -1707.491)" fill="#fff"/>
        </g>
      </g>
      <g id="Grupo_979488" data-name="Grupo 979488" transform="translate(4.973 56.511)">
        <path id="Trazado_691523" data-name="Trazado 691523" d="M1288.006,1701.382c-.188,9.353,17.708,17.712,39.974,18.668,18.145.781,33.594-3.6,38.79-10.308a8.209,8.209,0,0,0,1.867-4.9l.149-3.142.16-3.352.1-2.106a7.733,7.733,0,0,1-.923,3.14c-3.78,7.089-18.551,12-36.532,11.818q-1.577-.016-3.187-.084c-12.285-.527-23.24-3.309-30.561-7.269-5.948-3.216-9.495-7.208-9.411-11.4Z" transform="translate(-1288.004 -1677.155)" fill="#c18646"/>
        <path id="Trazado_691524" data-name="Trazado 691524" d="M1330.038,1643.356c-22.265-.957-40.467,5.851-40.657,15.206s17.707,17.713,39.972,18.669,40.467-5.851,40.657-15.2S1352.3,1644.313,1330.038,1643.356Z" transform="translate(-1288.952 -1643.267)" fill="#f9ad55"/>
        <path id="Trazado_691525" data-name="Trazado 691525" d="M1319.647,1712.26c7.27,4.438,18.939,7.608,32.141,8.175,18.158.78,33.617-3.6,38.8-10.322l.16-3.352.1-2.106a7.725,7.725,0,0,1-.923,3.14c-3.78,7.089-18.55,12-36.532,11.818q-1.577-.016-3.187-.084C1337.923,1719,1326.967,1716.22,1319.647,1712.26Z" transform="translate(-1309.807 -1685.565)" fill="#c18646"/>
        <path id="Trazado_691526" data-name="Trazado 691526" d="M1395.025,1668.138c.161-7.986-15.117-15.122-34.125-15.939-9.024-.388-17.265.719-23.452,2.843,6.358-2.664,15.514-4.117,25.66-3.681,19.005.817,34.281,7.952,34.119,15.936-.084,4.174-4.372,7.754-11.16,10.1C1391.568,1675.075,1394.951,1671.841,1395.025,1668.138Z" transform="translate(-1322.072 -1648.79)" fill="#c18646"/>
        <g id="Grupo_979487" data-name="Grupo 979487" transform="translate(19.895 9.582)">
          <path id="Trazado_691527" data-name="Trazado 691527" d="M1351.98,1685.238l5.112-1.052c-1.333-3.341,1.146-5.783,5.029-6.582,4.375-.9,8.027.172,12.261,2.917,3.6,2.313,5.659,3.188,8.215,2.661,1.966-.4,3.616-1.763,1.995-4.132a11.219,11.219,0,0,0-4.325-3.533l2.718-1.437a12.252,12.252,0,0,1,4.459,3.646l4.768-.982,1.306,1.908-4.965,1.022c1.2,2.983-.654,5.436-4.734,6.276-4.277.881-7.865-.592-11.98-3.326-3.033-1.973-5.526-2.829-8.23-2.272-2.8.577-3.807,2.469-2.311,4.654a12.6,12.6,0,0,0,5.147,4l-2.788,1.417a13.584,13.584,0,0,1-5.385-4.262l-4.965,1.022Z" transform="translate(-1351.98 -1674.079)" fill="#fff"/>
        </g>
      </g>
      <g id="Grupo_979490" data-name="Grupo 979490" transform="translate(9.297 45.408)">
        <path id="Trazado_691528" data-name="Trazado 691528" d="M1301.909,1665.681c-.188,9.352,17.708,17.711,39.973,18.667,18.145.781,33.593-3.6,38.79-10.309a8.207,8.207,0,0,0,1.867-4.9l.15-3.141.16-3.352.1-2.107a7.732,7.732,0,0,1-.923,3.141c-3.78,7.089-18.55,12-36.531,11.818q-1.578-.016-3.187-.085c-12.285-.527-23.241-3.309-30.561-7.269-5.948-3.216-9.495-7.208-9.411-11.4Z" transform="translate(-1301.907 -1641.453)" fill="#c18646"/>
        <path id="Trazado_691529" data-name="Trazado 691529" d="M1343.941,1607.655c-22.265-.957-40.468,5.851-40.656,15.206s17.707,17.713,39.972,18.669,40.468-5.851,40.657-15.2S1366.206,1608.612,1343.941,1607.655Z" transform="translate(-1302.855 -1607.566)" fill="#f9ad55"/>
        <path id="Trazado_691530" data-name="Trazado 691530" d="M1333.549,1676.559c7.27,4.438,18.939,7.608,32.142,8.175,18.158.78,33.616-3.6,38.8-10.322l.16-3.352.1-2.107a7.728,7.728,0,0,1-.923,3.141c-3.78,7.089-18.55,12-36.532,11.818q-1.578-.016-3.187-.085C1351.825,1683.3,1340.869,1680.519,1333.549,1676.559Z" transform="translate(-1323.709 -1649.864)" fill="#c18646"/>
        <path id="Trazado_691531" data-name="Trazado 691531" d="M1408.928,1632.437c.161-7.986-15.117-15.122-34.126-15.939-9.024-.388-17.265.719-23.451,2.843,6.358-2.664,15.514-4.117,25.66-3.681,19.005.816,34.281,7.951,34.12,15.936-.084,4.174-4.373,7.753-11.16,10.1C1405.47,1639.374,1408.854,1636.14,1408.928,1632.437Z" transform="translate(-1335.975 -1613.09)" fill="#c18646"/>
        <g id="Grupo_979489" data-name="Grupo 979489" transform="translate(19.895 9.582)">
          <path id="Trazado_691532" data-name="Trazado 691532" d="M1365.883,1649.537l5.112-1.052c-1.334-3.342,1.145-5.783,5.029-6.583,4.375-.9,8.026.173,12.26,2.917,3.6,2.313,5.659,3.188,8.216,2.662,1.966-.4,3.617-1.763,1.995-4.132a11.217,11.217,0,0,0-4.325-3.533l2.718-1.437a12.243,12.243,0,0,1,4.459,3.646l4.768-.982,1.306,1.908-4.965,1.022c1.2,2.983-.654,5.436-4.734,6.276-4.276.881-7.865-.592-11.979-3.326-3.033-1.973-5.526-2.829-8.23-2.272-2.8.577-3.806,2.469-2.311,4.654a12.592,12.592,0,0,0,5.147,4l-2.788,1.417a13.577,13.577,0,0,1-5.386-4.262l-4.965,1.022Z" transform="translate(-1365.883 -1638.378)" fill="#fff"/>
        </g>
      </g>
      <g id="Grupo_979492" data-name="Grupo 979492" transform="translate(0 36.152)">
        <path id="Trazado_691533" data-name="Trazado 691533" d="M1272.014,1635.918c-.188,9.352,17.707,17.712,39.973,18.667,18.145.781,33.594-3.6,38.79-10.308a8.212,8.212,0,0,0,1.867-4.9l.149-3.142.16-3.352.1-2.106a7.723,7.723,0,0,1-.923,3.14c-3.779,7.09-18.551,12-36.532,11.818q-1.577-.016-3.187-.085c-12.285-.527-23.24-3.309-30.561-7.269-5.948-3.216-9.5-7.208-9.411-11.4Z" transform="translate(-1272.012 -1611.69)" fill="#c18646"/>
        <path id="Trazado_691534" data-name="Trazado 691534" d="M1314.045,1577.891c-22.265-.957-40.468,5.851-40.657,15.206s17.707,17.713,39.972,18.669,40.467-5.851,40.656-15.2S1336.31,1578.848,1314.045,1577.891Z" transform="translate(-1272.96 -1577.802)" fill="#f9ad55"/>
        <path id="Trazado_691535" data-name="Trazado 691535" d="M1303.654,1646.8c7.27,4.438,18.939,7.608,32.141,8.175,18.158.78,33.617-3.6,38.8-10.322l.16-3.352.1-2.106a7.724,7.724,0,0,1-.923,3.14c-3.779,7.089-18.55,12-36.532,11.818q-1.577-.016-3.187-.085C1321.93,1653.537,1310.974,1650.755,1303.654,1646.8Z" transform="translate(-1293.814 -1620.1)" fill="#c18646"/>
        <path id="Trazado_691536" data-name="Trazado 691536" d="M1379.032,1602.673c.161-7.986-15.117-15.122-34.125-15.939-9.024-.388-17.265.719-23.452,2.843,6.358-2.664,15.514-4.117,25.66-3.681,19.005.817,34.281,7.951,34.12,15.936-.084,4.174-4.372,7.753-11.16,10.1C1375.575,1609.61,1378.958,1606.376,1379.032,1602.673Z" transform="translate(-1306.079 -1583.325)" fill="#c18646"/>
        <g id="Grupo_979491" data-name="Grupo 979491" transform="translate(19.895 9.582)">
          <path id="Trazado_691537" data-name="Trazado 691537" d="M1335.987,1619.773l5.112-1.053c-1.333-3.341,1.146-5.783,5.029-6.582,4.375-.9,8.027.173,12.26,2.917,3.6,2.312,5.66,3.188,8.216,2.661,1.966-.4,3.617-1.763,1.995-4.132a11.218,11.218,0,0,0-4.325-3.533l2.718-1.437a12.253,12.253,0,0,1,4.459,3.646l4.768-.982,1.306,1.908-4.965,1.022c1.2,2.983-.654,5.436-4.734,6.276-4.277.881-7.865-.592-11.98-3.326-3.033-1.973-5.526-2.829-8.229-2.272-2.8.577-3.807,2.469-2.311,4.654a12.593,12.593,0,0,0,5.147,4l-2.788,1.417a13.583,13.583,0,0,1-5.385-4.262l-4.965,1.022Z" transform="translate(-1335.987 -1608.614)" fill="#fff"/>
        </g>
      </g>
      <g id="Grupo_979494" data-name="Grupo 979494" transform="translate(6.212 25.34)">
        <path id="Trazado_691538" data-name="Trazado 691538" d="M1291.99,1601.148c-.188,9.352,17.708,17.712,39.974,18.668,18.145.781,33.593-3.6,38.79-10.309a8.2,8.2,0,0,0,1.867-4.9l.15-3.142.16-3.352.1-2.106a7.733,7.733,0,0,1-.922,3.14c-3.78,7.089-18.551,12-36.532,11.818q-1.577-.016-3.187-.084c-12.285-.527-23.24-3.309-30.561-7.269-5.948-3.216-9.495-7.208-9.411-11.4Z" transform="translate(-1291.988 -1576.921)" fill="#c18646"/>
        <path id="Trazado_691539" data-name="Trazado 691539" d="M1334.022,1543.122c-22.265-.957-40.468,5.851-40.657,15.206s17.707,17.712,39.972,18.669,40.468-5.851,40.657-15.2S1356.287,1544.079,1334.022,1543.122Z" transform="translate(-1292.936 -1543.033)" fill="#f9ad55"/>
        <path id="Trazado_691540" data-name="Trazado 691540" d="M1323.63,1612.026c7.27,4.438,18.939,7.608,32.141,8.176,18.158.78,33.616-3.6,38.8-10.322l.16-3.352.1-2.106a7.728,7.728,0,0,1-.923,3.14c-3.78,7.089-18.55,12-36.532,11.818q-1.577-.016-3.187-.084C1341.906,1618.768,1330.95,1615.986,1323.63,1612.026Z" transform="translate(-1313.79 -1585.331)" fill="#c18646"/>
        <path id="Trazado_691541" data-name="Trazado 691541" d="M1399.009,1567.9c.161-7.986-15.117-15.122-34.126-15.939-9.025-.388-17.265.719-23.452,2.843,6.358-2.664,15.514-4.117,25.66-3.681,19,.817,34.281,7.951,34.12,15.936-.084,4.174-4.373,7.753-11.16,10.1C1395.551,1574.841,1398.934,1571.607,1399.009,1567.9Z" transform="translate(-1326.056 -1548.557)" fill="#c18646"/>
        <g id="Grupo_979493" data-name="Grupo 979493" transform="translate(19.895 9.582)">
          <path id="Trazado_691542" data-name="Trazado 691542" d="M1355.964,1585l5.112-1.053c-1.334-3.341,1.146-5.783,5.029-6.582,4.375-.9,8.026.173,12.26,2.917,3.6,2.313,5.66,3.188,8.216,2.661,1.966-.4,3.617-1.763,1.995-4.132a11.215,11.215,0,0,0-4.325-3.533l2.718-1.437a12.251,12.251,0,0,1,4.459,3.646l4.768-.982,1.306,1.907-4.965,1.022c1.2,2.983-.654,5.436-4.734,6.276-4.277.881-7.865-.592-11.98-3.326-3.033-1.973-5.526-2.829-8.23-2.272-2.8.577-3.806,2.469-2.311,4.654a12.593,12.593,0,0,0,5.147,4l-2.788,1.416a13.575,13.575,0,0,1-5.385-4.262l-4.965,1.022Z" transform="translate(-1355.964 -1573.845)" fill="#fff"/>
        </g>
      </g>
      <g id="Grupo_979496" data-name="Grupo 979496" transform="translate(6.625 14.95)">
        <path id="Trazado_691543" data-name="Trazado 691543" d="M1293.318,1567.737c-.188,9.352,17.708,17.711,39.973,18.667,18.145.781,33.594-3.6,38.79-10.309a8.2,8.2,0,0,0,1.867-4.9l.15-3.141.16-3.352.1-2.106a7.724,7.724,0,0,1-.923,3.14c-3.78,7.089-18.551,12-36.532,11.818q-1.577-.016-3.187-.085c-12.285-.527-23.24-3.309-30.561-7.269-5.948-3.216-9.5-7.208-9.411-11.4Z" transform="translate(-1293.316 -1543.509)" fill="#c18646"/>
        <path id="Trazado_691544" data-name="Trazado 691544" d="M1335.35,1509.711c-22.265-.957-40.468,5.851-40.657,15.205s17.707,17.713,39.972,18.669,40.468-5.851,40.657-15.205S1357.615,1510.668,1335.35,1509.711Z" transform="translate(-1294.264 -1509.621)" fill="#f9ad55"/>
        <path id="Trazado_691545" data-name="Trazado 691545" d="M1324.958,1578.615c7.27,4.438,18.939,7.608,32.142,8.175,18.158.78,33.616-3.6,38.8-10.321l.16-3.352.1-2.106a7.725,7.725,0,0,1-.923,3.14c-3.78,7.089-18.551,12-36.532,11.818q-1.578-.016-3.187-.084C1343.234,1585.357,1332.278,1582.575,1324.958,1578.615Z" transform="translate(-1315.118 -1551.92)" fill="#c18646"/>
        <path id="Trazado_691546" data-name="Trazado 691546" d="M1400.337,1534.493c.161-7.986-15.117-15.122-34.126-15.939-9.024-.388-17.265.719-23.452,2.843,6.357-2.664,15.514-4.117,25.66-3.681,19,.816,34.281,7.951,34.119,15.936-.084,4.174-4.373,7.753-11.16,10.1C1396.879,1541.43,1400.262,1538.2,1400.337,1534.493Z" transform="translate(-1327.384 -1515.146)" fill="#c18646"/>
        <g id="Grupo_979495" data-name="Grupo 979495" transform="translate(19.895 9.582)">
          <path id="Trazado_691547" data-name="Trazado 691547" d="M1357.291,1551.593l5.112-1.053c-1.334-3.342,1.145-5.783,5.029-6.583,4.375-.9,8.026.173,12.26,2.917,3.6,2.313,5.659,3.188,8.216,2.662,1.966-.4,3.616-1.763,1.995-4.132a11.217,11.217,0,0,0-4.326-3.533l2.718-1.437a12.244,12.244,0,0,1,4.458,3.646l4.768-.982,1.306,1.908-4.965,1.022c1.2,2.983-.654,5.436-4.734,6.276-4.277.881-7.865-.592-11.98-3.326-3.033-1.973-5.526-2.829-8.23-2.272-2.8.577-3.807,2.469-2.311,4.653a12.594,12.594,0,0,0,5.147,4l-2.788,1.417a13.581,13.581,0,0,1-5.386-4.262l-4.965,1.023Z" transform="translate(-1357.291 -1540.434)" fill="#fff"/>
        </g>
      </g>
      <g id="Grupo_979498" data-name="Grupo 979498" transform="translate(4.43)">
        <path id="Trazado_691548" data-name="Trazado 691548" d="M1287.934,1520.827c1.637,9.21,20.817,13.925,42.843,10.528,17.95-2.766,32.25-10.068,36.04-17.663a8.209,8.209,0,0,0,.878-5.166l-.465-3.11-.5-3.319-.311-2.086a7.726,7.726,0,0,1-.294,3.26c-2.327,7.689-15.859,15.38-33.532,18.7q-1.55.291-3.143.538c-12.152,1.874-23.44,1.279-31.391-1.18-6.461-2-10.717-5.222-11.45-9.35Z" transform="translate(-1286.503 -1488.05)" fill="#c18646"/>
        <path id="Trazado_691549" data-name="Trazado 691549" d="M1323.286,1462.651c-22.026,3.4-38.554,13.618-36.919,22.83s20.817,13.926,42.842,10.53,38.554-13.618,36.919-22.829S1345.312,1459.255,1323.286,1462.651Z" transform="translate(-1286.256 -1461.548)" fill="#f9ad55"/>
        <path id="Trazado_691550" data-name="Trazado 691550" d="M1323.435,1521.332c7.995,2.937,20.057,3.775,33.118,1.761,17.963-2.77,32.272-10.079,36.047-17.678l-.5-3.319-.311-2.086a7.726,7.726,0,0,1-.294,3.26c-2.327,7.689-15.859,15.38-33.532,18.7q-1.55.291-3.143.538C1342.674,1524.386,1331.386,1523.791,1323.435,1521.332Z" transform="translate(-1311.873 -1488.05)" fill="#c18646"/>
        <path id="Trazado_691551" data-name="Trazado 691551" d="M1387.122,1481.105c-1.4-7.865-17.772-11.89-36.576-8.99-8.927,1.376-16.795,4.067-22.449,7.354,5.717-3.851,14.415-7.059,24.452-8.607,18.8-2.9,35.173,1.125,36.569,8.989.73,4.111-2.78,8.456-8.979,12.082C1385.081,1488.583,1387.77,1484.752,1387.122,1481.105Z" transform="translate(-1315.085 -1467.318)" fill="#c18646"/>
        <g id="Grupo_979497" data-name="Grupo 979497" transform="translate(20.265 8.502)">
          <path id="Trazado_691552" data-name="Trazado 691552" d="M1351.422,1505.871l4.81-2.028c-1.959-3.018,0-5.9,3.651-7.436,4.116-1.735,7.906-1.393,12.594.474,3.983,1.567,6.171,2.025,8.576,1.011,1.85-.78,3.2-2.433,1.152-4.441a11.219,11.219,0,0,0-4.93-2.624l2.386-1.939a12.251,12.251,0,0,1,5.083,2.708l4.486-1.891,1.652,1.617-4.671,1.969c1.758,2.692.417,5.459-3.421,7.078-4.024,1.7-7.83.95-12.4-.93-3.359-1.345-5.972-1.7-8.515-.627-2.636,1.111-3.253,3.162-1.361,5.014a12.593,12.593,0,0,0,5.826,2.917l-2.459,1.932a13.584,13.584,0,0,1-6.113-3.132l-4.671,1.969Z" transform="translate(-1351.422 -1488.889)" fill="#fff"/>
        </g>
      </g>
    </g>
    <g id="Grupo_979516" data-name="Grupo 979516" transform="translate(638.421 585.031)">
      <g id="Grupo_979501" data-name="Grupo 979501" transform="translate(12.945 83.399)">
        <path id="Trazado_691553" data-name="Trazado 691553" d="M1654.174,1792.133c-.138,10.182-19.914,18.621-44.174,18.846-19.77.186-36.418-5.144-41.825-12.636a8.933,8.933,0,0,1-1.852-5.4l-.048-3.424-.051-3.652-.033-2.3a8.4,8.4,0,0,0,.889,3.45c3.852,7.851,19.743,13.734,39.313,14.2q1.717.04,3.471.025c13.385-.124,25.406-2.749,33.516-6.789,6.589-3.281,10.594-7.495,10.656-12.059Z" transform="translate(-1566.185 -1764.362)" fill="#c18646"/>
        <path id="Trazado_691554" data-name="Trazado 691554" d="M1610.346,1724.4c24.259-.225,43.814,7.848,43.677,18.032s-19.914,18.622-44.173,18.848-43.814-7.848-43.677-18.031S1586.086,1724.629,1610.346,1724.4Z" transform="translate(-1566.172 -1724.399)" fill="#f9ad55"/>
        <path id="Trazado_691555" data-name="Trazado 691555" d="M1643.38,1797.067c-8.072,4.562-20.884,7.583-35.269,7.717-19.785.183-36.442-5.152-41.836-12.651l-.051-3.653-.033-2.3a8.406,8.406,0,0,0,.889,3.45c3.852,7.851,19.743,13.733,39.313,14.2q1.717.04,3.471.025C1623.249,1803.733,1635.27,1801.107,1643.38,1797.067Z" transform="translate(-1566.185 -1766.971)" fill="#c18646"/>
        <path id="Trazado_691556" data-name="Trazado 691556" d="M1589.22,1750.173c.117-8.695,17-15.9,37.712-16.092,9.832-.091,18.758,1.415,25.411,3.952-6.819-3.131-16.728-5.048-27.783-4.945-20.707.193-37.588,7.4-37.705,16.089-.061,4.544,4.473,8.6,11.772,11.4C1592.728,1757.848,1589.166,1754.2,1589.22,1750.173Z" transform="translate(-1580.422 -1730.383)" fill="#c18646"/>
        <g id="Grupo_979500" data-name="Grupo 979500" transform="translate(21.522 9.973)">
          <path id="Trazado_691557" data-name="Trazado 691557" d="M1678.815,1771.8l-5.364-1.294a14.789,14.789,0,0,1-6.016,4.44l-2.981-1.644a13.7,13.7,0,0,0,5.746-4.158c1.707-2.322.684-4.417-2.344-5.148-2.921-.7-5.664.135-9.037,2.171-4.577,2.824-8.534,4.294-13.155,3.18-4.408-1.063-6.336-3.8-4.92-7l-5.364-1.294,1.491-2.028,5.151,1.243a13.336,13.336,0,0,1,4.985-3.8l2.9,1.663a12.209,12.209,0,0,0-4.835,3.685c-1.851,2.518-.1,4.056,2.019,4.568,2.762.667,5.032-.21,9.036-2.595,4.707-2.831,8.719-3.865,13.446-2.725,4.2,1.013,6.8,3.759,5.23,7.346l5.524,1.333Z" transform="translate(-1635.379 -1756.468)" fill="#fff"/>
        </g>
      </g>
      <g id="Grupo_979503" data-name="Grupo 979503" transform="translate(4.214 71.408)">
        <path id="Trazado_691558" data-name="Trazado 691558" d="M1626.1,1753.573c-.138,10.182-19.915,18.621-44.174,18.846-19.77.185-36.418-5.144-41.826-12.637a8.932,8.932,0,0,1-1.852-5.4l-.048-3.423-.052-3.652-.033-2.3a8.409,8.409,0,0,0,.889,3.45c3.852,7.851,19.743,13.734,39.313,14.2q1.717.04,3.471.025c13.385-.124,25.406-2.75,33.516-6.789,6.589-3.282,10.594-7.495,10.656-12.059Z" transform="translate(-1538.109 -1725.802)" fill="#c18646"/>
        <path id="Trazado_691559" data-name="Trazado 691559" d="M1582.271,1685.844c24.259-.226,43.814,7.848,43.677,18.032s-19.914,18.623-44.173,18.848-43.814-7.848-43.677-18.032S1558.011,1686.069,1582.271,1685.844Z" transform="translate(-1538.097 -1685.839)" fill="#f9ad55"/>
        <path id="Trazado_691560" data-name="Trazado 691560" d="M1615.3,1758.507c-8.072,4.562-20.884,7.583-35.269,7.717-19.784.184-36.442-5.151-41.836-12.65l-.052-3.653-.033-2.3a8.409,8.409,0,0,0,.889,3.45c3.852,7.851,19.743,13.733,39.313,14.2q1.717.04,3.471.025C1595.173,1765.173,1607.195,1762.547,1615.3,1758.507Z" transform="translate(-1538.109 -1728.411)" fill="#c18646"/>
        <path id="Trazado_691561" data-name="Trazado 691561" d="M1561.145,1711.613c.117-8.695,17-15.9,37.712-16.092,9.833-.091,18.758,1.415,25.411,3.952-6.819-3.131-16.728-5.048-27.783-4.945-20.707.192-37.589,7.4-37.705,16.088-.061,4.545,4.474,8.6,11.772,11.4C1564.653,1719.288,1561.091,1715.645,1561.145,1711.613Z" transform="translate(-1552.347 -1691.824)" fill="#c18646"/>
        <g id="Grupo_979502" data-name="Grupo 979502" transform="translate(21.522 9.973)">
          <path id="Trazado_691562" data-name="Trazado 691562" d="M1650.74,1733.245l-5.364-1.294a14.785,14.785,0,0,1-6.015,4.44l-2.982-1.644a13.707,13.707,0,0,0,5.746-4.158c1.707-2.323.684-4.418-2.344-5.148-2.921-.7-5.665.135-9.037,2.171-4.577,2.824-8.535,4.294-13.155,3.18-4.408-1.064-6.335-3.8-4.92-7l-5.364-1.294,1.491-2.028,5.152,1.243a13.334,13.334,0,0,1,4.984-3.8l2.9,1.664a12.213,12.213,0,0,0-4.835,3.685c-1.851,2.518-.105,4.056,2.019,4.568,2.762.667,5.032-.21,9.036-2.595,4.707-2.83,8.719-3.865,13.446-2.724,4.2,1.012,6.8,3.759,5.23,7.346l5.524,1.333Z" transform="translate(-1607.304 -1717.908)" fill="#fff"/>
        </g>
      </g>
      <g id="Grupo_979505" data-name="Grupo 979505" transform="translate(4.146 60.088)">
        <path id="Trazado_691563" data-name="Trazado 691563" d="M1625.878,1717.174c-.138,10.182-19.915,18.621-44.174,18.846-19.77.186-36.417-5.143-41.825-12.636a8.933,8.933,0,0,1-1.852-5.4l-.048-3.423-.052-3.652-.033-2.3a8.4,8.4,0,0,0,.889,3.45c3.852,7.852,19.743,13.733,39.313,14.2q1.717.04,3.471.025c13.385-.124,25.406-2.749,33.516-6.789,6.589-3.281,10.594-7.495,10.656-12.059Z" transform="translate(-1537.888 -1689.402)" fill="#c18646"/>
        <path id="Trazado_691564" data-name="Trazado 691564" d="M1582.05,1649.444c24.259-.225,43.814,7.848,43.677,18.032s-19.914,18.623-44.173,18.848-43.814-7.848-43.677-18.032S1557.79,1649.669,1582.05,1649.444Z" transform="translate(-1537.876 -1649.439)" fill="#f9ad55"/>
        <path id="Trazado_691565" data-name="Trazado 691565" d="M1615.083,1722.107c-8.072,4.562-20.884,7.583-35.269,7.717-19.785.184-36.442-5.152-41.836-12.651l-.052-3.652-.033-2.3a8.4,8.4,0,0,0,.889,3.45c3.852,7.852,19.743,13.734,39.313,14.2q1.717.041,3.471.025C1594.952,1728.773,1606.974,1726.148,1615.083,1722.107Z" transform="translate(-1537.888 -1692.011)" fill="#c18646"/>
        <path id="Trazado_691566" data-name="Trazado 691566" d="M1560.924,1675.213c.117-8.695,17-15.9,37.712-16.092,9.833-.091,18.758,1.415,25.411,3.952-6.819-3.131-16.728-5.048-27.783-4.945-20.708.193-37.588,7.4-37.705,16.089-.061,4.544,4.474,8.6,11.772,11.4C1564.431,1682.888,1560.87,1679.245,1560.924,1675.213Z" transform="translate(-1552.126 -1655.423)" fill="#c18646"/>
        <g id="Grupo_979504" data-name="Grupo 979504" transform="translate(21.522 9.973)">
          <path id="Trazado_691567" data-name="Trazado 691567" d="M1650.519,1696.845l-5.364-1.294a14.786,14.786,0,0,1-6.016,4.44l-2.981-1.644a13.706,13.706,0,0,0,5.746-4.158c1.707-2.322.683-4.417-2.344-5.148-2.921-.7-5.664.135-9.037,2.171-4.577,2.824-8.535,4.295-13.155,3.18-4.408-1.064-6.336-3.8-4.92-7l-5.365-1.294,1.491-2.028,5.151,1.243a13.334,13.334,0,0,1,4.985-3.8l2.9,1.663a12.211,12.211,0,0,0-4.835,3.686c-1.851,2.518-.105,4.056,2.019,4.569,2.762.666,5.032-.211,9.036-2.594,4.707-2.831,8.719-3.865,13.446-2.725,4.2,1.012,6.8,3.759,5.23,7.346l5.524,1.333Z" transform="translate(-1607.083 -1681.509)" fill="#fff"/>
        </g>
      </g>
      <g id="Grupo_979507" data-name="Grupo 979507" transform="translate(0.861 48.097)">
        <path id="Trazado_691568" data-name="Trazado 691568" d="M1615.317,1678.613c-.138,10.182-19.914,18.621-44.174,18.846-19.77.186-36.418-5.144-41.826-12.636a8.933,8.933,0,0,1-1.852-5.4l-.048-3.424-.051-3.652-.033-2.3a8.409,8.409,0,0,0,.889,3.451c3.852,7.852,19.743,13.733,39.313,14.2q1.717.04,3.471.025c13.385-.124,25.406-2.749,33.516-6.789,6.589-3.281,10.594-7.494,10.656-12.059Z" transform="translate(-1527.328 -1650.842)" fill="#c18646"/>
        <path id="Trazado_691569" data-name="Trazado 691569" d="M1571.489,1610.884c24.259-.225,43.814,7.848,43.677,18.033s-19.914,18.623-44.173,18.848-43.814-7.848-43.677-18.032S1547.229,1611.109,1571.489,1610.884Z" transform="translate(-1527.315 -1610.879)" fill="#f9ad55"/>
        <path id="Trazado_691570" data-name="Trazado 691570" d="M1604.523,1683.547c-8.072,4.562-20.884,7.583-35.269,7.717-19.784.184-36.442-5.152-41.836-12.651l-.051-3.652-.033-2.3a8.41,8.41,0,0,0,.889,3.45c3.852,7.852,19.743,13.733,39.313,14.2q1.717.04,3.471.025C1584.392,1690.213,1596.413,1687.587,1604.523,1683.547Z" transform="translate(-1527.328 -1653.452)" fill="#c18646"/>
        <path id="Trazado_691571" data-name="Trazado 691571" d="M1550.363,1636.653c.117-8.695,17-15.9,37.712-16.092,9.833-.092,18.758,1.415,25.411,3.952-6.819-3.131-16.728-5.048-27.783-4.945-20.707.193-37.588,7.4-37.705,16.089-.061,4.544,4.473,8.6,11.772,11.4C1553.87,1644.328,1550.308,1640.684,1550.363,1636.653Z" transform="translate(-1541.565 -1616.863)" fill="#c18646"/>
        <g id="Grupo_979506" data-name="Grupo 979506" transform="translate(21.522 9.973)">
          <path id="Trazado_691572" data-name="Trazado 691572" d="M1639.958,1658.286l-5.364-1.294a14.789,14.789,0,0,1-6.016,4.44l-2.982-1.643a13.708,13.708,0,0,0,5.746-4.159c1.707-2.322.684-4.417-2.344-5.148-2.921-.7-5.664.135-9.037,2.171-4.577,2.823-8.535,4.294-13.156,3.18-4.408-1.064-6.336-3.8-4.92-7l-5.365-1.294,1.49-2.028,5.152,1.243a13.328,13.328,0,0,1,4.984-3.8l2.9,1.663a12.213,12.213,0,0,0-4.835,3.685c-1.851,2.518-.105,4.056,2.019,4.569,2.762.666,5.032-.211,9.036-2.595,4.707-2.83,8.719-3.865,13.446-2.725,4.2,1.013,6.8,3.759,5.231,7.346l5.523,1.333Z" transform="translate(-1596.522 -1642.949)" fill="#fff"/>
        </g>
      </g>
      <g id="Grupo_979509" data-name="Grupo 979509" transform="translate(5.484 39.478)">
        <path id="Trazado_691573" data-name="Trazado 691573" d="M1630.181,1650.9c-.138,10.182-19.914,18.621-44.174,18.846-19.77.186-36.418-5.144-41.825-12.636a8.935,8.935,0,0,1-1.852-5.4l-.047-3.424-.052-3.652-.033-2.3a8.413,8.413,0,0,0,.889,3.451c3.853,7.852,19.743,13.734,39.313,14.2q1.717.041,3.471.025c13.385-.124,25.407-2.749,33.516-6.789,6.589-3.281,10.594-7.495,10.657-12.059Z" transform="translate(-1542.191 -1623.127)" fill="#c18646"/>
        <path id="Trazado_691574" data-name="Trazado 691574" d="M1586.353,1583.169c24.259-.225,43.814,7.848,43.677,18.032s-19.914,18.623-44.173,18.848-43.814-7.848-43.677-18.032S1562.093,1583.394,1586.353,1583.169Z" transform="translate(-1542.179 -1583.164)" fill="#f9ad55"/>
        <path id="Trazado_691575" data-name="Trazado 691575" d="M1619.386,1655.832c-8.072,4.562-20.884,7.583-35.269,7.717-19.785.184-36.443-5.152-41.835-12.651l-.052-3.653-.033-2.3a8.413,8.413,0,0,0,.889,3.45c3.853,7.851,19.743,13.733,39.313,14.2q1.717.04,3.471.025C1599.255,1662.5,1611.277,1659.872,1619.386,1655.832Z" transform="translate(-1542.191 -1625.737)" fill="#c18646"/>
        <path id="Trazado_691576" data-name="Trazado 691576" d="M1565.227,1608.938c.117-8.695,17-15.9,37.712-16.092,9.833-.092,18.758,1.415,25.411,3.952-6.82-3.131-16.728-5.048-27.783-4.945-20.707.192-37.588,7.4-37.705,16.089-.061,4.544,4.473,8.6,11.772,11.4C1568.734,1616.612,1565.172,1612.969,1565.227,1608.938Z" transform="translate(-1556.429 -1589.148)" fill="#c18646"/>
        <g id="Grupo_979508" data-name="Grupo 979508" transform="translate(21.522 9.973)">
          <path id="Trazado_691577" data-name="Trazado 691577" d="M1654.821,1630.57l-5.364-1.294a14.781,14.781,0,0,1-6.016,4.44l-2.981-1.644a13.706,13.706,0,0,0,5.746-4.158c1.707-2.322.684-4.417-2.344-5.148-2.921-.7-5.665.135-9.037,2.171-4.577,2.824-8.535,4.294-13.155,3.18-4.408-1.064-6.336-3.8-4.921-7l-5.364-1.294,1.491-2.028,5.152,1.243a13.334,13.334,0,0,1,4.985-3.8l2.9,1.663a12.21,12.21,0,0,0-4.835,3.685c-1.851,2.518-.105,4.056,2.019,4.569,2.762.666,5.032-.211,9.036-2.595,4.707-2.831,8.719-3.865,13.446-2.725,4.2,1.012,6.8,3.759,5.23,7.345l5.524,1.333Z" transform="translate(-1611.385 -1615.233)" fill="#fff"/>
        </g>
      </g>
      <g id="Grupo_979511" data-name="Grupo 979511" transform="translate(3.939 26.129)">
        <path id="Trazado_691578" data-name="Trazado 691578" d="M1625.215,1607.974c-.138,10.182-19.915,18.621-44.174,18.846-19.77.185-36.417-5.144-41.825-12.636a8.934,8.934,0,0,1-1.852-5.4l-.047-3.423-.052-3.653-.033-2.3a8.415,8.415,0,0,0,.889,3.45c3.853,7.851,19.743,13.733,39.313,14.2q1.717.04,3.471.025c13.385-.124,25.406-2.75,33.516-6.79,6.589-3.281,10.594-7.495,10.656-12.059Z" transform="translate(-1537.225 -1580.203)" fill="#c18646"/>
        <path id="Trazado_691579" data-name="Trazado 691579" d="M1581.387,1540.245c24.259-.226,43.814,7.848,43.677,18.032s-19.914,18.622-44.173,18.848-43.814-7.848-43.677-18.031S1557.127,1540.47,1581.387,1540.245Z" transform="translate(-1537.213 -1540.24)" fill="#f9ad55"/>
        <path id="Trazado_691580" data-name="Trazado 691580" d="M1614.42,1612.908c-8.072,4.562-20.884,7.583-35.269,7.718-19.785.183-36.443-5.152-41.835-12.651l-.052-3.652-.033-2.3a8.414,8.414,0,0,0,.889,3.45c3.853,7.851,19.743,13.734,39.313,14.2q1.717.04,3.471.025C1594.289,1619.574,1606.311,1616.948,1614.42,1612.908Z" transform="translate(-1537.225 -1582.813)" fill="#c18646"/>
        <path id="Trazado_691581" data-name="Trazado 691581" d="M1560.26,1566.014c.117-8.695,17-15.9,37.712-16.092,9.832-.092,18.758,1.415,25.411,3.952-6.819-3.131-16.729-5.048-27.783-4.945-20.707.192-37.588,7.4-37.705,16.089-.061,4.544,4.473,8.6,11.772,11.4C1563.768,1573.688,1560.205,1570.045,1560.26,1566.014Z" transform="translate(-1551.463 -1546.224)" fill="#c18646"/>
        <g id="Grupo_979510" data-name="Grupo 979510" transform="translate(21.522 9.973)">
          <path id="Trazado_691582" data-name="Trazado 691582" d="M1649.855,1587.646l-5.364-1.294a14.783,14.783,0,0,1-6.016,4.44l-2.981-1.643a13.7,13.7,0,0,0,5.746-4.159c1.707-2.322.684-4.417-2.344-5.148-2.921-.7-5.664.136-9.037,2.171-4.577,2.824-8.535,4.295-13.156,3.18-4.408-1.063-6.336-3.8-4.921-7l-5.364-1.294,1.491-2.027,5.152,1.243a13.338,13.338,0,0,1,4.985-3.8l2.9,1.663a12.215,12.215,0,0,0-4.835,3.686c-1.851,2.518-.105,4.056,2.019,4.569,2.762.666,5.032-.211,9.036-2.595,4.707-2.83,8.719-3.865,13.446-2.724,4.2,1.012,6.8,3.759,5.23,7.346l5.524,1.333Z" transform="translate(-1606.419 -1572.309)" fill="#fff"/>
        </g>
      </g>
      <g id="Grupo_979513" data-name="Grupo 979513" transform="translate(3.871 14.81)">
        <path id="Trazado_691583" data-name="Trazado 691583" d="M1624.993,1571.575c-.138,10.182-19.914,18.621-44.174,18.846-19.77.186-36.418-5.144-41.825-12.636a8.934,8.934,0,0,1-1.852-5.4l-.047-3.424-.052-3.652-.033-2.3a8.41,8.41,0,0,0,.889,3.45c3.852,7.852,19.743,13.733,39.313,14.2q1.717.041,3.471.025c13.385-.124,25.406-2.749,33.516-6.789,6.589-3.281,10.594-7.495,10.656-12.059Z" transform="translate(-1537.004 -1543.803)" fill="#c18646"/>
        <path id="Trazado_691584" data-name="Trazado 691584" d="M1581.165,1503.845c24.259-.225,43.814,7.848,43.677,18.033s-19.914,18.622-44.173,18.848-43.814-7.848-43.677-18.031S1556.906,1504.07,1581.165,1503.845Z" transform="translate(-1536.992 -1503.84)" fill="#f9ad55"/>
        <path id="Trazado_691585" data-name="Trazado 691585" d="M1614.2,1576.508c-8.072,4.562-20.884,7.583-35.269,7.717-19.785.184-36.443-5.152-41.836-12.651l-.052-3.653-.033-2.3a8.411,8.411,0,0,0,.889,3.45c3.852,7.852,19.743,13.733,39.313,14.2q1.717.041,3.471.025C1594.068,1583.174,1606.089,1580.548,1614.2,1576.508Z" transform="translate(-1537.004 -1546.412)" fill="#c18646"/>
        <path id="Trazado_691586" data-name="Trazado 691586" d="M1560.039,1529.614c.117-8.695,17-15.9,37.712-16.092,9.832-.092,18.758,1.415,25.411,3.952-6.819-3.131-16.729-5.048-27.783-4.945-20.707.193-37.588,7.4-37.705,16.089-.061,4.544,4.474,8.6,11.772,11.4C1563.546,1537.289,1559.985,1533.645,1560.039,1529.614Z" transform="translate(-1551.242 -1509.824)" fill="#c18646"/>
        <g id="Grupo_979512" data-name="Grupo 979512" transform="translate(21.522 9.973)">
          <path id="Trazado_691587" data-name="Trazado 691587" d="M1649.634,1551.246l-5.364-1.294a14.784,14.784,0,0,1-6.016,4.44l-2.981-1.643a13.711,13.711,0,0,0,5.746-4.159c1.707-2.322.683-4.417-2.344-5.148-2.921-.7-5.664.135-9.037,2.171-4.577,2.824-8.534,4.295-13.155,3.18-4.408-1.064-6.336-3.8-4.92-7l-5.364-1.294,1.491-2.028,5.151,1.243a13.334,13.334,0,0,1,4.984-3.8l2.9,1.663a12.212,12.212,0,0,0-4.835,3.685c-1.851,2.518-.105,4.056,2.019,4.569,2.762.667,5.032-.211,9.036-2.595,4.707-2.83,8.719-3.865,13.446-2.725,4.2,1.012,6.8,3.759,5.23,7.346l5.524,1.333Z" transform="translate(-1606.198 -1535.909)" fill="#fff"/>
        </g>
      </g>
      <g id="Grupo_979515" data-name="Grupo 979515" transform="translate(0)">
        <path id="Trazado_691588" data-name="Trazado 691588" d="M1612.507,1524.526c-.181,10.181-19.992,18.538-44.253,18.662-19.771.1-36.4-5.295-41.772-12.81a8.932,8.932,0,0,1-1.83-5.4l-.033-3.424-.036-3.653-.023-2.3a8.411,8.411,0,0,0,.875,3.454c3.82,7.867,19.686,13.815,39.254,14.359q1.717.047,3.471.039c13.385-.068,25.418-2.643,33.544-6.65,6.6-3.254,10.626-7.451,10.707-12.014Z" transform="translate(-1524.555 -1496.576)" fill="#c18646"/>
        <path id="Trazado_691589" data-name="Trazado 691589" d="M1568.8,1456.219c24.26-.125,43.781,8.03,43.6,18.214s-19.991,18.54-44.251,18.664-43.781-8.03-43.6-18.213S1544.537,1456.343,1568.8,1456.219Z" transform="translate(-1524.545 -1456.218)" fill="#f9ad55"/>
        <path id="Trazado_691590" data-name="Trazado 691590" d="M1601.7,1528.6c-8.091,4.528-20.915,7.5-35.3,7.571-19.785.1-36.42-5.3-41.783-12.825l-.036-3.653-.023-2.3a8.411,8.411,0,0,0,.875,3.454c3.82,7.867,19.686,13.815,39.254,14.359q1.717.047,3.471.039C1581.545,1535.186,1593.577,1532.611,1601.7,1528.6Z" transform="translate(-1524.555 -1498.375)" fill="#c18646"/>
        <path id="Trazado_691591" data-name="Trazado 691591" d="M1547.59,1481.839c.153-8.694,17.067-15.828,37.779-15.935,9.833-.05,18.752,1.493,25.394,4.058-6.806-3.16-16.707-5.118-27.762-5.061-20.708.106-37.619,7.239-37.772,15.932-.08,4.544,4.438,8.614,11.725,11.449C1551.065,1489.528,1547.519,1485.87,1547.59,1481.839Z" transform="translate(-1538.796 -1462.2)" fill="#c18646"/>
        <g id="Grupo_979514" data-name="Grupo 979514" transform="translate(21.54 9.924)">
          <path id="Trazado_691592" data-name="Trazado 691592" d="M1637.2,1503.6l-5.359-1.316a14.789,14.789,0,0,1-6.034,4.415l-2.975-1.656a13.7,13.7,0,0,0,5.763-4.135c1.717-2.315.7-4.414-2.322-5.157-2.918-.717-5.665.112-9.046,2.133-4.589,2.8-8.552,4.259-13.168,3.125-4.4-1.082-6.32-3.827-4.892-7.022l-5.359-1.316,1.5-2.022,5.146,1.265a13.337,13.337,0,0,1,5-3.783l2.9,1.676a12.211,12.211,0,0,0-4.851,3.665c-1.862,2.511-.122,4.055,2,4.577,2.759.677,5.033-.19,9.047-2.557,4.719-2.811,8.735-3.829,13.457-2.668,4.192,1.03,6.788,3.787,5.2,7.367l5.518,1.356Z" transform="translate(-1593.81 -1488.128)" fill="#fff"/>
        </g>
      </g>
    </g>
    <g id="Grupo_979520" data-name="Grupo 979520" transform="translate(238.481 308.584)">
      <path id="Trazado_691593" data-name="Trazado 691593" d="M571.815,685.249a28.266,28.266,0,0,1,1.252,30.3,34.838,34.838,0,0,1-10.019,10.817c-16.736,12.07-85.485,2.039-111.131,0a49.5,49.5,0,0,1-16.9-4.356c-16.724-7.681-28.528-24.56-33.471-46.173-6.472-28.3,13.965-41.318,22.4-47.78s.188-31.277,14.253-49.608,55.892-8.623,55.892-8.623c36.752-9.776,46.56,17.855,53.122,21.091s22.543,16.98,29.67,35.588S564.1,674.221,571.815,685.249Z" transform="translate(-349.976 -567.26)" fill="#53285a"/>
      <path id="Trazado_691594" data-name="Trazado 691594" d="M639.777,766.695a34.836,34.836,0,0,1-10.019,10.817c-16.736,12.07-85.485,2.039-111.131,0a49.5,49.5,0,0,1-16.9-4.356c-2.893-10.052-4.932-20.282-4.566-28.506,1.108-25.292,15.7-56.07,15.7-56.07L511.378,712.9s18.842-56.092,31.776-64.438,19.95-6.872,19.95-6.872,28.162,4.81,42.349,16.259,30.435,20.77,30.8,32.551-8.124,28.672-8.124,37.406C628.128,735.939,644.144,749.638,639.777,766.695Z" transform="translate(-416.685 -618.404)" fill="#1a2d63"/>
      <g id="Grupo_979518" data-name="Grupo 979518" transform="translate(57.473 328.015)">
        <path id="Trazado_691595" data-name="Trazado 691595" d="M425.6,1688.626q38.065.035,76.131.164l8.655-66.752H429.225s-3.781,41.889-5.5,61.048c-.122,1.36-.267,3.235-.43,5.538Z" transform="translate(-423.294 -1622.039)" fill="#2f295a"/>
        <path id="Trazado_691596" data-name="Trazado 691596" d="M669.92,1689.117l2.734.021-6.987-65.705-38.036-.6-50.34-.795,13.2,66.7Q630.206,1688.848,669.92,1689.117Z" transform="translate(-529.401 -1622.039)" fill="#2f295a"/>
        <g id="Grupo_979517" data-name="Grupo 979517" transform="translate(119.817 2.925)">
          <path id="Trazado_691597" data-name="Trazado 691597" d="M816.748,1695.515l-5.076-62.721a1.515,1.515,0,0,0-1.661-1.345,1.49,1.49,0,0,0-1.425,1.568l5.056,62.478Z" transform="translate(-808.581 -1631.444)" fill="#232047"/>
        </g>
        <path id="Trazado_691598" data-name="Trazado 691598" d="M781.456,1690.877l2.734.021-6.987-65.706-38.036-.6,12.735,66.1Q766.679,1690.774,781.456,1690.877Z" transform="translate(-640.937 -1623.799)" fill="#232047"/>
      </g>
      <path id="Trazado_691599" data-name="Trazado 691599" d="M343.594,1123.819l-12.557,25.221-49.77,99.969a63.179,63.179,0,0,1-9.2-5.67c-6.848-5.017-15.187-13.161-16.3-23.575-1.929-18.032,5.241-29.449,5.241-29.449l16.307-35.216,4.764-10.287,10.17-18.87,9.206-17.087s6.878-14.719,22.727-9.147S344.909,1117.185,343.594,1123.819Z" transform="translate(-250.168 -933.26)" fill="#fbaea8"/>
      <path id="Trazado_691600" data-name="Trazado 691600" d="M367.877,1209.957l-49.77,99.969a63.161,63.161,0,0,1-9.2-5.67c12.45-24.666,34.378-68.542,34.047-70.871-.36-2.572-20.5-13.132-28.8-17.369l4.764-10.287,10.17-18.87Z" transform="translate(-287.009 -994.176)" fill="#e26889"/>
      <path id="Trazado_691601" data-name="Trazado 691601" d="M262.117,1249.511s-15.568,42.667-21.414,57.939.871,26.2,8.242,34.148,23.855,5.026,23.855,5.026l36.466-82.569Z" transform="translate(-238.481 -1037.344)" fill="#2f295a"/>
      <path id="Trazado_691602" data-name="Trazado 691602" d="M409.955,1034.736l-35.713,68.513-7.384-3.809-51.631-26.663c-.477-.243-.74-.38-.74-.38s20.458-45.133,36.376-66.886,37.145-10.4,42.21-7.472C417.748,1012.33,409.955,1034.736,409.955,1034.736Z" transform="translate(-290.85 -860.231)" fill="#2f295a"/>
      <path id="Trazado_691603" data-name="Trazado 691603" d="M362.481,1195.034l28.2-78.47-1.992,55.813Z" transform="translate(-323.919 -945.741)" fill="#232047"/>
      <path id="Trazado_691604" data-name="Trazado 691604" d="M594.15,998.446s-1.542,14.445-3.682,33.042c-.753,6.515-1.577,13.543-2.441,20.64-.669,5.5-1.362,11.052-2.059,16.432-2.124,16.547-4.288,31.543-5.946,38.991-4.873,21.921-18.021,84.263-18.021,87.189l-136.872-2.926,5.865-34.248,7.022-41.009,8.583-50.127,12.141-70.91,10.219.221,17.427.379,55.594,1.2,21,.457,14.824.317,12.756.271Z" transform="translate(-367.085 -862.34)" fill="#2f295a"/>
      <path id="Trazado_691605" data-name="Trazado 691605" d="M588.026,1085.021c-.669,5.5-1.362,11.052-2.059,16.432-2.124,16.547-4.288,31.543-5.946,38.991-4.873,21.921-18.021,84.263-18.021,87.189l-136.872-2.926,5.865-34.248,7.022-41.009h90.246l39.131-67.629-8.21-12.333,12.492-.442-4.282-25.786Z" transform="translate(-367.085 -895.233)" fill="#232047"/>
      <path id="Trazado_691606" data-name="Trazado 691606" d="M646.768,974.929h39.07l1.372,12.439-43.382,1.451Z" transform="translate(-517.774 -848.152)" fill="#d3d6e9"/>
      <path id="Trazado_691607" data-name="Trazado 691607" d="M680.684,1049.735l-4.758,12.635-29.207,77.561-23.38-79-2.18-7.367,8.229-12.337,2.808-1.748,10.527-6.546,7.473,3.309Z" transform="translate(-502.154 -888.116)" fill="#fff"/>
      <path id="Trazado_691608" data-name="Trazado 691608" d="M677.424,1057.066l-4.758,12.635-29.68-6.428-22.907,4.985-2.18-7.367-1.471-11.833,12.508-2.251,18-3.237Z" transform="translate(-498.895 -895.447)" fill="#d3d6e9"/>
      <path id="Trazado_691609" data-name="Trazado 691609" d="M505.138,1160.043l40.5,43.766,3.716.224-.476-2.353-41.821-43.925S504.405,1159.252,505.138,1160.043Z" transform="translate(-422.125 -974.124)" fill="#232047"/>
      <path id="Trazado_691610" data-name="Trazado 691610" d="M385.513,1218.284a13.578,13.578,0,0,0-1.093-9.964c-2.872-5.769-8.4-7.819-14.26-8.324-10,2.785-21.21,8.049-32.782,17.25-.015.016-.033.024-.047.04-.313.213-.607.418-.877.634-.779.615-1.786,1.472-2.978,2.542-.056.044-.117.1-.172.145-2.271,1.956-4.286,3.817-6.065,5.613-17.149,16.208-48.23,47.817-48.23,47.817s-8.353,12.242-6.651,23.729a14.1,14.1,0,0,0,1.29,4.083c4.6,9.686,18.838,17.448,18.838,17.448s49.457-68.061,56.774-79.646c0,0,19.816-3.348,27.94-9.8a32.125,32.125,0,0,0,6.849-8.069A23.774,23.774,0,0,0,385.513,1218.284Z" transform="translate(-261.665 -1003.228)" fill="#fbaea8"/>
      <path id="Trazado_691611" data-name="Trazado 691611" d="M388.878,1240.447a13.027,13.027,0,0,0-.375-8.285c-1.933,4.347-6.74,13.893-13.079,17.5a24.382,24.382,0,0,1-5.822,2.7,25.341,25.341,0,0,1-14.753,2.476,10.019,10.019,0,0,1-4.486.045c-2.543-1.061-5.292-3.9-4.919-1.716s1.671,6.212-4.082,16.12-43.355,58.926-54.651,57.073c-3.638-.6-7.036-1.688-9.7-2.351,4.6,9.686,18.838,17.447,18.838,17.447s49.457-68.061,56.774-79.646c0,0,19.816-3.348,27.94-9.8a32.121,32.121,0,0,0,6.849-8.069A23.769,23.769,0,0,0,388.878,1240.447Z" transform="translate(-265.029 -1025.391)" fill="#e26889"/>
      <path id="Trazado_691612" data-name="Trazado 691612" d="M453.162,1267.417l4.024-2.488,10.083,34.208-8.914,5.748Z" transform="translate(-386.4 -1047.968)" fill="#fff"/>
      <path id="Trazado_691613" data-name="Trazado 691613" d="M323.842,1302.96l-47.981,62.958s-21.386-10.987-27.177-21.56a24.589,24.589,0,0,1-2.659-7.346c-1.639-8.735,1.832-18.174,11.488-26.862,12.439-11.2,53.308-47.291,53.308-47.291l7.753,23.877Z" transform="translate(-243.41 -1046.542)" fill="#2f295a"/>
      <path id="Trazado_691614" data-name="Trazado 691614" d="M324.705,1355.863l-47.981,62.958s-21.386-10.987-27.177-21.56a24.589,24.589,0,0,1-2.659-7.346c6.708,4.391,15.157,8.549,21.022,6.59,7.955-2.656,36.021-37.193,51.526-56.866Z" transform="translate(-244.274 -1099.445)" fill="#232047"/>
      <path id="Trazado_691615" data-name="Trazado 691615" d="M689.1,909.286s-1.279,9.342-15.392,9.342a27.853,27.853,0,0,1-10.026-1.783,22.993,22.993,0,0,1-10.4-7.559l1.558-22.909.436-6.4.47-6.913h.427v-4.725h20.742a39.539,39.539,0,0,1,4.483,8.482,100.043,100.043,0,0,1,4.068,12.974c.769,3.087,1.407,6.087,1.922,8.773C688.563,904.775,689.1,909.286,689.1,909.286Z" transform="translate(-524.286 -774.712)" fill="#fbaea8"/>
      <path id="Trazado_691616" data-name="Trazado 691616" d="M685.443,995.52l5.442,1.6-6.686,19.048-10.612,15.445H666.37l-11.506-19.177-5.7-16.482Z" transform="translate(-521.448 -862.34)" fill="#fbaea8"/>
      <path id="Trazado_691617" data-name="Trazado 691617" d="M688.916,908.592c-5.674,6.711-13.043,13.877-17.868,12.738-4.7-1.111-9.4-9.026-12.758-16.158l.436-6.4.906-3.156h25.216A100.027,100.027,0,0,1,688.916,908.592Z" transform="translate(-527.738 -793.505)" fill="#e26889"/>
      <path id="Trazado_691618" data-name="Trazado 691618" d="M575.415,746.081c2.349,7.891,11.837,2.771,11.837,2.771s14.618,25.6,28.916,25.6,30.512-24.538,30.512-24.538c7.093.366,14.353-6.251,13.954-12.048a6.328,6.328,0,0,0-.942-2.882c-3.835-6.2-10.873,1.064-10.873,1.064.421-33.5-26.245-40.121-26.245-40.121-27.941,2.738-36.852,38.137-37.118,39.246a.034.034,0,0,0-.011.022c-4.522-2.583-9.3.455-10.319,5.519A11.065,11.065,0,0,0,575.415,746.081Z" transform="translate(-470.295 -655.916)" fill="#fbaea8"/>
      <path id="Trazado_691619" data-name="Trazado 691619" d="M575.415,839c2.349,7.891,11.837,2.771,11.837,2.771s14.618,25.6,28.916,25.6,30.512-24.538,30.512-24.538c7.093.366,14.353-6.251,13.954-12.048a17.622,17.622,0,0,1-4.755,6.927c-4.023,3.192-9.708,2.217-9.708,2.217s-14.818,26.744-30.191,26.334-28.728-26.744-28.728-26.744-10.2,7.98-12.125-5.885A11.065,11.065,0,0,0,575.415,839Z" transform="translate(-470.295 -748.837)" fill="#e26889"/>
      <path id="Trazado_691620" data-name="Trazado 691620" d="M608.8,735.176a250.184,250.184,0,0,1,14.53-23.9c7.149-9.975,22.222-13.444,22.222-13.444a47.4,47.4,0,0,1,16.9,12.6c7.2,8.734,9.709,25.613,9.709,25.613.421-33.5-26.245-40.121-26.245-40.121C617.975,698.668,609.064,734.067,608.8,735.176Z" transform="translate(-493.637 -655.916)" fill="#e26889"/>
      <path id="Trazado_691621" data-name="Trazado 691621" d="M470.236,1435.288h59.857A13.2,13.2,0,0,0,542.95,1419.1L522,1328.877a13.2,13.2,0,0,0-12.857-10.214H449.291a13.2,13.2,0,0,0-12.857,16.183l20.946,90.228A13.2,13.2,0,0,0,470.236,1435.288Z" transform="translate(-374.635 -1084.992)" fill="#d3d6e9"/>
      <g id="Grupo_979519" data-name="Grupo 979519" transform="translate(191.423 162.922)">
        <path id="Trazado_691622" data-name="Trazado 691622" d="M910.437,1107.476l-17.272,138.77s-12.976-1.383-23.331-7.978a27.484,27.484,0,0,1-10.423-11.154,54.406,54.406,0,0,1-5.241-19.308,37.68,37.68,0,0,1,.419-10.21l3.6-37.661,1.179-12.265,6.361-40.34s1.607-16.171,18.4-16.171S909.482,1100.774,910.437,1107.476Z" transform="translate(-854.029 -1091.159)" fill="#fbaea8"/>
      </g>
      <path id="Trazado_691623" data-name="Trazado 691623" d="M652.684,1454.505l-94.182-.955-10.531,3.273s-31.183-1.306-34.32-3.916a6.018,6.018,0,0,1-1.637-2.241c-1.3-3-.419-7.082,4.189-7.939,0,0-8.465-1.86-9.43-7.306s5.981-7.1,5.981-7.1-7.754-2.864-7.745-8.309,5.6-9.147,12.4-8.787l17.252.682-6.624-7.823a6.723,6.723,0,0,1,1.286-7.949c3.682-3.789,8.689-3.468,12.869.02s19.2,21.529,19.2,21.529l52.293-1.617s20.184,7.141,31.884,23.195A42.022,42.022,0,0,1,652.684,1454.505Z" transform="translate(-422.125 -1136.496)" fill="#fbaea8"/>
      <path id="Trazado_691624" data-name="Trazado 691624" d="M685.475,1107.476,668.2,1246.246l-94.182-.955-10.531,3.273s-31.183-1.305-34.32-3.916a6.021,6.021,0,0,1-1.637-2.241c10.083.555,27.705,1.529,29.995,1.578,3.234.078,17.223-5.719,17.223-5.719h85.765s.224-2.786.575-7.267c1.422-18.295,4.91-64.9,3.614-66.419-1.169-1.364-20.75-3.546-31.475-4.647l1.179-12.265,6.361-40.34s1.607-16.171,18.4-16.171S684.52,1100.774,685.475,1107.476Z" transform="translate(-437.643 -928.237)" fill="#e26889"/>
      <path id="Trazado_691625" data-name="Trazado 691625" d="M915.578,1093.731,856.2,1091.4l.244-7.033,2.163-61.207s3.78-20.623,28.971-20.847c3.1-.029,11.933.146,19.133,5.338,4.852,3.5,8.962,9.274,10.073,18.8C919.533,1050.117,915.578,1093.731,915.578,1093.731Z" transform="translate(-664.103 -867.02)" fill="#2f295a"/>
      <path id="Trazado_691626" data-name="Trazado 691626" d="M703.352,1465.6v40.013h7.2L709.3,1465.6Z" transform="translate(-558.786 -1186.232)" fill="#fff"/>
      <path id="Trazado_691627" data-name="Trazado 691627" d="M820.234,1232.584c-1.505,26.34-10.39,65.035-14.893,83.321-1.577,6.4-2.615,10.3-2.615,10.3l-84.9,1.026V1284.1l36.388-2.177,6.642-51.666,19.225-25.768S822.268,1197.03,820.234,1232.584Z" transform="translate(-568.761 -1005.874)" fill="#2f295a"/>
      <path id="Trazado_691628" data-name="Trazado 691628" d="M622.4,974.929l-13.937,6.91,3.949,31.756,16.793-8.79,9.122,12.623-9.951-18.866Z" transform="translate(-493.406 -848.152)" fill="#fff"/>
      <path id="Trazado_691629" data-name="Trazado 691629" d="M743.629,974.929l13.937,6.91-3.949,31.756-16.793-8.79L727.7,1017.43l9.951-18.866Z" transform="translate(-575.565 -848.152)" fill="#fff"/>
      <path id="Trazado_691630" data-name="Trazado 691630" d="M805.342,1564.21c-1.577,6.4-2.615,10.3-2.615,10.3l-84.9,1.026V1564.21Z" transform="translate(-568.761 -1254.179)" fill="#232047"/>
    </g>
  </g>
</svg>
