<svg id="FLAT" xmlns="http://www.w3.org/2000/svg" width="92.88" height="104.748" viewBox="0 0 92.88 104.748">
  <path id="Trazado_691308" data-name="Trazado 691308" d="M72,24v90.3l14.448,14.448h68.628V24Z" transform="translate(-72 -24)" fill="#ccdcc2"/>
  <circle id="Elipse_7818" data-name="Elipse 7818" cx="14.5" cy="14.5" r="14.5" transform="translate(47.076 7.604)" fill="#8bb276"/>
  <path id="Trazado_691309" data-name="Trazado 691309" d="M127.478,56a18.06,18.06,0,0,0-18.06,18.06v1.806L104,86.7h5.418V97.538a3.612,3.612,0,0,0,3.612,3.612h5.418V117.4H134.7V101.15a37,37,0,0,0,10.836-26.16v-.93A18.06,18.06,0,0,0,127.478,56Z" transform="translate(-96.776 -48.776)" fill="#008cb7"/>
  <path id="Trazado_691310" data-name="Trazado 691310" d="M192,168h7.224v9.03H192Z" transform="translate(-164.91 -135.492)" fill="#ed9b85"/>
  <path id="Trazado_691311" data-name="Trazado 691311" d="M368,240h7.224v18.06H368Z" transform="translate(-301.178 -191.238)" fill="#00779c"/>
  <path id="Trazado_691312" data-name="Trazado 691312" d="M291.7,225.03,286.287,216h-.845a3.612,3.612,0,0,0-3.1,5.47l2.136,3.56h-6.744a3.612,3.612,0,0,0-3.584,4.06l.9,7.224a3.612,3.612,0,0,0,3.584,3.164h9.453l3.612-3.612h3.612V225.03Z" transform="translate(-228.495 -172.656)" fill="#008cb7"/>
  <path id="Trazado_691313" data-name="Trazado 691313" d="M104,344h57.792v3.612H104Z" transform="translate(-96.776 -271.76)" fill="#abc79b"/>
  <path id="Trazado_691314" data-name="Trazado 691314" d="M104,384h54.18v3.612H104Z" transform="translate(-96.776 -302.73)" fill="#abc79b"/>
  <path id="Trazado_691315" data-name="Trazado 691315" d="M72,424l14.448,14.448V424Z" transform="translate(-72 -333.7)" fill="#9cbd8a"/>
  <path id="Trazado_691316" data-name="Trazado 691316" d="M160,424h39.732v3.612H160Z" transform="translate(-140.134 -333.7)" fill="#abc79b"/>
  <path id="Trazado_691317" data-name="Trazado 691317" d="M366.948,195.624l-5.453,5.958-1.5-7.937,20.777-72.951a3.612,3.612,0,0,1,6.948,1.979Z" transform="translate(-294.984 -96.835)" fill="#f9b89b"/>
  <path id="Trazado_691318" data-name="Trazado 691318" d="M451.434,118.21a3.612,3.612,0,0,0-4.463,2.484l-1.477,5.187,6.941,2,1.484-5.211A3.612,3.612,0,0,0,451.434,118.21Z" transform="translate(-361.177 -96.834)" fill="#e88977"/>
  <circle id="Elipse_7819" data-name="Elipse 7819" cx="9" cy="9" r="9" transform="translate(22.076 16.604)" fill="#f9b89b"/>
  <path id="Trazado_691319" data-name="Trazado 691319" d="M200,136h3.612v9.03H200Z" transform="translate(-171.104 -110.716)" fill="#ed9b85"/>
  <path id="Trazado_691320" data-name="Trazado 691320" d="M325.575,77.152,313.038,89.689,308.9,85.548,306.343,88.1l5.418,5.418a1.806,1.806,0,0,0,2.554,0l13.351-13.351A14.479,14.479,0,0,0,325.575,77.152Z" transform="translate(-253.44 -65.153)" fill="#ccdcc2"/>
</svg>
