<svg xmlns="http://www.w3.org/2000/svg" width="31.923" height="30.65" viewBox="0 0 31.923 30.65">
  <g id="Grupo_956565" data-name="Grupo 956565" transform="translate(-949.201 -217.553)">
    <path id="Trazado_684184" data-name="Trazado 684184" d="M6.337,0H24.651a6.337,6.337,0,0,1,6.337,6.337v.01a6.337,6.337,0,0,1-6.337,6.337H6.337A6.337,6.337,0,0,1,0,6.347v-.01A6.337,6.337,0,0,1,6.337,0Z" transform="matrix(0.719, -0.695, 0.695, 0.719, 950.022, 239.079)" fill="#583cb6"/>
    <rect id="Rect치ngulo_341257" data-name="Rect치ngulo 341257" width="13.671" height="5.577" rx="2.788" transform="matrix(0.719, -0.695, 0.695, 0.719, 949.201, 230.09)" fill="#ef8b53"/>
    <rect id="Rect치ngulo_341258" data-name="Rect치ngulo 341258" width="13.587" height="5.577" rx="2.788" transform="matrix(0.719, -0.695, 0.695, 0.719, 966.523, 237.272)" fill="#449c6e"/>
  </g>
</svg>
