<svg xmlns="http://www.w3.org/2000/svg" width="124" height="124" viewBox="0 0 124 124">
  <g id="Grupo_979312" data-name="Grupo 979312" transform="translate(-1063 -12474)">
    <circle id="Elipse_7678" data-name="Elipse 7678" cx="50.5" cy="50.5" r="50.5" transform="translate(1075 12486)" fill="#449c6e"/>
    <rect id="Rectángulo_305813" data-name="Rectángulo 305813" width="124" height="124" transform="translate(1063 12474)" fill="none"/>
    <g id="quality-control" transform="translate(1065 12501.966)">
      <g id="Grupo_971897" data-name="Grupo 971897" transform="translate(65.675 45.846)">
        <path id="Trazado_684261" data-name="Trazado 684261" d="M308.1,297h-6.329l-2.315,3.087L297.144,297h-6.329a2.316,2.316,0,0,0-2.315,2.315V316.6a2.315,2.315,0,0,0,2.315,2.315l9.743,3.087,7.546-3.087a2.315,2.315,0,0,0,2.315-2.315V299.315A2.315,2.315,0,0,0,308.1,297Z" transform="translate(-288.5 -297)" fill="#fdbf00"/>
      </g>
      <g id="Grupo_971898" data-name="Grupo 971898" transform="translate(33.722 45.846)">
        <path id="Trazado_684262" data-name="Trazado 684262" d="M101.1,297H94.775l-2.315,3.087L90.144,297H83.815a2.316,2.316,0,0,0-2.315,2.315V316.6a2.315,2.315,0,0,0,2.315,2.315l8.644,3.087,8.644-3.087a2.315,2.315,0,0,0,2.315-2.315V299.315A2.316,2.316,0,0,0,101.1,297Z" transform="translate(-81.5 -297)" fill="#ffd400"/>
      </g>
      <g id="Grupo_971899" data-name="Grupo 971899" transform="translate(74.319 45.846)">
        <path id="Trazado_684263" data-name="Trazado 684263" d="M344.5,297v4.94a2.315,2.315,0,0,0,4.631,0V297Z" transform="translate(-344.5 -297)" fill="#e4301e"/>
      </g>
      <g id="Grupo_971900" data-name="Grupo 971900" transform="translate(42.366 45.846)">
        <path id="Trazado_684264" data-name="Trazado 684264" d="M137.5,301.94a2.315,2.315,0,1,0,4.631,0V297H137.5Z" transform="translate(-137.5 -297)" fill="#ff4b32"/>
      </g>
      <path id="Trazado_684265" data-name="Trazado 684265" d="M43.315,439A2.315,2.315,0,0,0,41,441.315v6.638H74.188l5.017-4.477L74.188,439Z" transform="translate(-13.53 -371.235)" fill="#def2ff"/>
      <path id="Trazado_684266" data-name="Trazado 684266" d="M289.188,441.315A2.315,2.315,0,0,0,286.873,439H256v8.953h33.188Z" transform="translate(-195.342 -371.235)" fill="#b9dafd"/>
      <path id="Trazado_684267" data-name="Trazado 684267" d="M27.315,482a2.315,2.315,0,1,0,0,4.631H60.658l3.087-2.263L60.658,482Z" transform="translate(0 -407.597)" fill="#b9dafd"/>
      <path id="Trazado_684268" data-name="Trazado 684268" d="M289.342,482H256v4.631h33.342a2.315,2.315,0,1,0,0-4.631Z" transform="translate(-195.342 -407.597)" fill="#97b8d9"/>
      <g id="Grupo_971901" data-name="Grupo 971901" transform="translate(36.191 22.383)">
        <path id="Trazado_684269" data-name="Trazado 684269" d="M105.99,158.275a8.5,8.5,0,0,1-8.49-8.49v-2.47A2.316,2.316,0,0,1,99.815,145h12.349a2.315,2.315,0,0,1,2.315,2.315v2.47A8.5,8.5,0,0,1,105.99,158.275Z" transform="translate(-97.5 -145)" fill="#5ed3cf"/>
      </g>
      <g id="Grupo_971902" data-name="Grupo 971902" transform="translate(68.145 22.383)">
        <path id="Trazado_684270" data-name="Trazado 684270" d="M312.99,158.275a8.5,8.5,0,0,1-8.49-8.49v-2.47A2.316,2.316,0,0,1,306.815,145h12.349a2.315,2.315,0,0,1,2.315,2.315v2.47A8.5,8.5,0,0,1,312.99,158.275Z" transform="translate(-304.5 -145)" fill="#e4301e"/>
      </g>
      <path id="Trazado_684271" data-name="Trazado 684271" d="M272.953,0H243.315L241,2.315V24.7l2.315,2.315h29.638a2.315,2.315,0,0,0,2.315-2.315V2.315A2.315,2.315,0,0,0,272.953,0Z" transform="translate(-182.658)" fill="#b9dafd"/>
      <path id="Trazado_684272" data-name="Trazado 684272" d="M51.315,0A2.316,2.316,0,0,0,49,2.315V24.7a2.316,2.316,0,0,0,2.315,2.315H80.953V0Z" transform="translate(-20.295)" fill="#def2ff"/>
      <g id="Grupo_971903" data-name="Grupo 971903" transform="translate(38.661 8.799)">
        <path id="Trazado_684273" data-name="Trazado 684273" d="M118.286,66.571a2.314,2.314,0,0,1-1.637-.678l-2.47-2.47a2.315,2.315,0,1,1,3.275-3.274l.582.582,2.1-2.8a2.315,2.315,0,1,1,3.7,2.779l-3.7,4.94a2.315,2.315,0,0,1-1.688.92C118.395,66.569,118.34,66.571,118.286,66.571Z" transform="translate(-113.5 -57)" fill="#5ed3cf"/>
      </g>
      <g id="Grupo_971904" data-name="Grupo 971904" transform="translate(71.849 8.799)">
        <path id="Trazado_684274" data-name="Trazado 684274" d="M336.559,61.785l.833-.833a2.315,2.315,0,0,0-3.275-3.275l-.833.833-.833-.833a2.315,2.315,0,0,0-3.275,3.275l.833.833-.833.833a2.315,2.315,0,1,0,3.274,3.275l.833-.833.833.833a2.315,2.315,0,0,0,3.274-3.275Z" transform="translate(-328.499 -57)" fill="#c61209"/>
      </g>
    </g>
  </g>
</svg>
