<svg xmlns="http://www.w3.org/2000/svg" width="124" height="124" viewBox="0 0 124 124">
  <g id="Grupo_979313" data-name="Grupo 979313" transform="translate(7224.01 -781.097)">
    <circle id="Elipse_7678" data-name="Elipse 7678" cx="50.5" cy="50.5" r="50.5" transform="translate(-7212.01 793.097)" fill="#449c6e"/>
    <rect id="Rectángulo_305813" data-name="Rectángulo 305813" width="124" height="124" transform="translate(-7224.01 781.097)" fill="none"/>
    <g id="hora" transform="translate(-7212.01 786.769)">
      <g id="Grupo_971909" data-name="Grupo 971909" transform="translate(4.445 11.188)">
        <circle id="Elipse_7712" data-name="Elipse 7712" cx="45.691" cy="45.691" r="45.691" transform="translate(0 0)" fill="#fed402"/>
        <path id="Trazado_684275" data-name="Trazado 684275" d="M94.658,44A39.672,39.672,0,0,0,55.293,88.482a17.343,17.343,0,0,1,18.453,28.875A39.659,39.659,0,1,0,94.658,44Z" transform="translate(-49.157 -37.967)" fill="#fac600"/>
        <g id="Grupo_971908" data-name="Grupo 971908" transform="translate(11.455 11.645)">
          <path id="Trazado_684276" data-name="Trazado 684276" d="M119.046,74A34.046,34.046,0,0,0,85,108.046q0,1.737.171,3.43c.483-.041.972-.062,1.466-.062a17.344,17.344,0,0,1,15.072,25.937A34.047,34.047,0,1,0,119.046,74Z" transform="translate(-85 -74)" fill="#01d0fb"/>
          <g id="Grupo_971905" data-name="Grupo 971905" transform="translate(0 0)">
            <path id="Trazado_684277" data-name="Trazado 684277" d="M178.872,364.959a25.229,25.229,0,0,1-2.285-1.534c.007.207.012.414.012.622a17.244,17.244,0,0,1-2.278,8.587,34.135,34.135,0,0,0,24.09,4.071A34.032,34.032,0,0,1,178.872,364.959Z" transform="translate(-157.612 -309.284)" fill="#01c0fa"/>
            <path id="Trazado_684278" data-name="Trazado 684278" d="M86.637,111.413a17.244,17.244,0,0,1,7.827,1.869,25.122,25.122,0,0,1,11.8-26.866A34.031,34.031,0,0,1,125.8,74.671,34.071,34.071,0,0,0,85,108.046q0,1.737.171,3.43C85.655,111.435,86.143,111.413,86.637,111.413Z" transform="translate(-85 -74)" fill="#01c0fa"/>
          </g>
          <path id="Trazado_684279" data-name="Trazado 684279" d="M157.777,121.644a25.139,25.139,0,0,0-24.583,30.369,17.373,17.373,0,0,1,9.512,14.866,25.129,25.129,0,1,0,15.071-45.234Z" transform="translate(-123.731 -112.731)" fill="#fff"/>
          <path id="Trazado_684280" data-name="Trazado 684280" d="M141.188,146.777a25.173,25.173,0,0,1,20.865-24.769,25.14,25.14,0,0,0-28.859,30,17.373,17.373,0,0,1,9.512,14.866,25.124,25.124,0,0,0,19.347,4.668A25.174,25.174,0,0,1,141.188,146.777Z" transform="translate(-123.731 -112.731)" fill="#f3f0f3"/>
          <path id="Trazado_684281" data-name="Trazado 684281" d="M181.8,326.455a1.86,1.86,0,0,0-2.846.241,17.224,17.224,0,0,1,.947,2.86,1.869,1.869,0,0,0,1.9-3.1Z" transform="translate(-161.378 -278.785)" fill="#99e6fc"/>
          <circle id="Elipse_7713" data-name="Elipse 7713" cx="14.231" cy="14.231" r="14.231" transform="translate(20.004 19.814)" fill="#dff6fd"/>
          <g id="Grupo_971906" data-name="Grupo 971906" transform="translate(19.642 19.835)">
            <path id="Trazado_684282" data-name="Trazado 684282" d="M197.483,194.241a14.361,14.361,0,0,1,4.583-10.525V180.03a14.4,14.4,0,1,0,6.08,28.12A14.428,14.428,0,0,1,197.483,194.241Z" transform="translate(-190 -180.03)" fill="#c8effe"/>
          </g>
          <g id="Grupo_971907" data-name="Grupo 971907" transform="translate(31.708 11.598)">
            <path id="Trazado_684283" data-name="Trazado 684283" d="M272.785,160.786H256.838a2.338,2.338,0,0,1-2.338-2.338V136.935a.935.935,0,0,1,.935-.935h2.806a.935.935,0,0,1,.935.935V156.11h13.609a.935.935,0,0,1,.935.935v2.806A.935.935,0,0,1,272.785,160.786Z" transform="translate(-254.5 -136)" fill="#08a9f1"/>
          </g>
        </g>
      </g>
      <g id="Grupo_971911" data-name="Grupo 971911" transform="translate(0 60.058)">
        <circle id="Elipse_7714" data-name="Elipse 7714" cx="17.537" cy="17.537" r="17.537" transform="translate(0 0)" fill="#05e39c"/>
        <path id="Trazado_684284" data-name="Trazado 684284" d="M9.54,290.537a17.545,17.545,0,0,1,12.767-16.88,17.537,17.537,0,1,0,0,33.761A17.545,17.545,0,0,1,9.54,290.537Z" transform="translate(0 -273)" fill="#0ed290"/>
        <g id="Grupo_971910" data-name="Grupo 971910" transform="translate(6.177 10.539)">
          <path id="Trazado_684285" data-name="Trazado 684285" d="M42.68,344.271a1.871,1.871,0,0,1-1.323-.548l-8.064-8.064a.935.935,0,0,1,0-1.323l1.323-1.323a.935.935,0,0,1,1.323,0l6.741,6.741,10.141-10.141a.935.935,0,0,1,1.323,0l1.323,1.323a.935.935,0,0,1,0,1.323L44,343.723A1.871,1.871,0,0,1,42.68,344.271Z" transform="translate(-33.019 -329.339)" fill="#fff"/>
        </g>
      </g>
      <g id="Grupo_971912" data-name="Grupo 971912" transform="translate(26.916 40.06)">
        <circle id="Elipse_7715" data-name="Elipse 7715" cx="1.873" cy="1.873" r="1.873" transform="translate(20.973 36.292)" fill="#99e6fc"/>
        <ellipse id="Elipse_7716" data-name="Elipse 7716" cx="1.873" cy="1.498" rx="1.873" ry="1.498" transform="translate(0 15.32)" fill="#99e6fc"/>
        <circle id="Elipse_7717" data-name="Elipse 7717" cx="1.871" cy="1.871" r="1.871" transform="translate(6.213)" fill="#99e6fc"/>
        <circle id="Elipse_7718" data-name="Elipse 7718" cx="1.871" cy="1.871" r="1.871" transform="translate(36.107)" fill="#99e6fc"/>
        <ellipse id="Elipse_7719" data-name="Elipse 7719" cx="1.873" cy="1.498" rx="1.873" ry="1.498" transform="translate(41.945 15.32)" fill="#99e6fc"/>
        <circle id="Elipse_7720" data-name="Elipse 7720" cx="1.871" cy="1.871" r="1.871" transform="translate(36.107 29.894)" fill="#99e6fc"/>
      </g>
    </g>
  </g>
</svg>
