<svg xmlns="http://www.w3.org/2000/svg" width="124" height="124" viewBox="0 0 124 124">
  <g id="Grupo_979314" data-name="Grupo 979314" transform="translate(6910.01 -781.097)">
    <circle id="Elipse_7678" data-name="Elipse 7678" cx="50.5" cy="50.5" r="50.5" transform="translate(-6898.01 793.097)" fill="#449c6e"/>
    <rect id="Rect치ngulo_305813" data-name="Rect치ngulo 305813" width="124" height="124" transform="translate(-6910.01 781.097)" fill="none"/>
    <g id="Flat" transform="translate(-6924.096 777.171)">
      <rect id="Rect치ngulo_341318" data-name="Rect치ngulo 341318" width="54.474" height="75.302" rx="24" transform="translate(54.43 30.409)" fill="#0093b9"/>
      <path id="Trazado_684286" data-name="Trazado 684286" d="M176,88h41.656v62.484H176Z" transform="translate(-115.161 -51.183)" fill="#e3e4e2"/>
      <path id="Trazado_684287" data-name="Trazado 684287" d="M246.43,36.817H224V30.409h6.409L228.807,24h12.817l-1.6,6.409h6.409Z" transform="translate(-153.548)" fill="#57c3c1"/>
      <g id="Grupo_971913" data-name="Grupo 971913" transform="translate(65.645 41.624)">
        <path id="Trazado_684288" data-name="Trazado 684288" d="M208.011,121.613H201.6a1.6,1.6,0,0,1-1.6-1.6V113.6a1.6,1.6,0,0,1,1.6-1.6h6.409a1.6,1.6,0,0,1,1.6,1.6v6.409A1.6,1.6,0,0,1,208.011,121.613Zm-4.806-3.2h3.2v-3.2h-3.2Z" transform="translate(-200 -112)" fill="#b2b1b4"/>
        <path id="Trazado_684289" data-name="Trazado 684289" d="M208.011,193.613H201.6a1.6,1.6,0,0,1-1.6-1.6V185.6a1.6,1.6,0,0,1,1.6-1.6h6.409a1.6,1.6,0,0,1,1.6,1.6v6.409A1.6,1.6,0,0,1,208.011,193.613Zm-4.806-3.2h3.2v-3.2h-3.2Z" transform="translate(-200 -169.581)" fill="#b2b1b4"/>
        <path id="Trazado_684290" data-name="Trazado 684290" d="M264,112h3.2v3.2H264Z" transform="translate(-251.183 -112)" fill="#b2b1b4"/>
        <path id="Trazado_684291" data-name="Trazado 684291" d="M264,144h19.226v3.2H264Z" transform="translate(-251.183 -137.591)" fill="#b2b1b4"/>
        <path id="Trazado_684292" data-name="Trazado 684292" d="M296,112h12.817v3.2H296Z" transform="translate(-276.774 -112)" fill="#b2b1b4"/>
        <path id="Trazado_684293" data-name="Trazado 684293" d="M264,184h3.2v3.2H264Z" transform="translate(-251.183 -169.581)" fill="#b2b1b4"/>
        <path id="Trazado_684294" data-name="Trazado 684294" d="M264,216h19.226v3.2H264Z" transform="translate(-251.183 -195.172)" fill="#b2b1b4"/>
        <path id="Trazado_684295" data-name="Trazado 684295" d="M296,184h12.817v3.2H296Z" transform="translate(-276.774 -169.581)" fill="#b2b1b4"/>
      </g>
      <path id="Trazado_684296" data-name="Trazado 684296" d="M89.678,283.269H32V232H60.839v25.635H89.678Z" transform="translate(0 -166.344)" fill="#f8bc1e"/>
      <path id="Trazado_684297" data-name="Trazado 684297" d="M224,360h9.613v9.613H224Z" transform="translate(-153.548 -268.709)" fill="#f9da62"/>
      <path id="Trazado_684298" data-name="Trazado 684298" d="M211.237,368h-2.4a2.4,2.4,0,0,0-2.4,2.4v4.066a12.757,12.757,0,0,1-12.755,12.756H186.4a2.4,2.4,0,0,0-2.4,2.4v2.4h27.237Z" transform="translate(-121.559 -275.107)" fill="#f5a922"/>
      <path id="Trazado_684299" data-name="Trazado 684299" d="M280,448h3.2v3.2H280Z" transform="translate(-198.333 -339.085)" fill="#f79726"/>
      <path id="Trazado_684300" data-name="Trazado 684300" d="M80,360h9.613v9.613H80Z" transform="translate(-38.387 -268.709)" fill="#f9da62"/>
      <path id="Trazado_684301" data-name="Trazado 684301" d="M67.237,368h-2.4a2.4,2.4,0,0,0-2.4,2.4v4.066a12.757,12.757,0,0,1-12.755,12.756H42.4a2.4,2.4,0,0,0-2.4,2.4v2.4H67.237Z" transform="translate(-6.398 -275.107)" fill="#f5a922"/>
      <path id="Trazado_684302" data-name="Trazado 684302" d="M136,448h3.2v3.2H136Z" transform="translate(-83.172 -339.085)" fill="#f79726"/>
      <path id="Trazado_684303" data-name="Trazado 684303" d="M80,232h9.613v9.613H80Z" transform="translate(-38.387 -166.344)" fill="#f9da62"/>
      <path id="Trazado_684304" data-name="Trazado 684304" d="M67.237,240h-2.4a2.4,2.4,0,0,0-2.4,2.4v4.066a12.757,12.757,0,0,1-12.755,12.756H42.4a2.4,2.4,0,0,0-2.4,2.4v2.4H67.237Z" transform="translate(-6.398 -172.742)" fill="#f5a922"/>
      <path id="Trazado_684305" data-name="Trazado 684305" d="M136,320h3.2v3.2H136Z" transform="translate(-83.172 -236.72)" fill="#f79726"/>
      <path id="Trazado_684306" data-name="Trazado 684306" d="M266.036,236.891,223.058,249.75,216,248.517l5.221-4.907L264.2,230.752a3.2,3.2,0,1,1,1.837,6.139Z" transform="translate(-147.15 -165.237)" fill="#f8bc1e"/>
      <path id="Trazado_684307" data-name="Trazado 684307" d="M374.006,254.687l-.918-3.07,11.081-3.315-.529-11.548,3.164-.947.622,13.6a1.6,1.6,0,0,1-1.142,1.608Z" transform="translate(-272.778 -169.388)" fill="#f79726"/>
      <path id="Trazado_684308" data-name="Trazado 684308" d="M0,0H3.2V6.409H0Z" transform="translate(81.763 76.055) rotate(-16.677)" fill="#f79726"/>
    </g>
  </g>
</svg>
