<svg xmlns="http://www.w3.org/2000/svg" width="124" height="124" viewBox="0 0 124 124">
  <g id="Grupo_979310" data-name="Grupo 979310" transform="translate(-738 -12474)">
    <circle id="Elipse_7678" data-name="Elipse 7678" cx="50.5" cy="50.5" r="50.5" transform="translate(750 12486)" fill="#449c6e"/>
    <rect id="Rectángulo_305813" data-name="Rectángulo 305813" width="124" height="124" transform="translate(738 12474)" fill="none"/>
    <g id="capacity" transform="translate(748.494 12488.223)">
      <g id="Grupo_971860" data-name="Grupo 971860" transform="translate(28.633 9.22)">
        <path id="Trazado_684228" data-name="Trazado 684228" d="M136.168,60.356l-4.36,7.554a3.967,3.967,0,0,1-5.416,1.452l-4.742-2.738a28.357,28.357,0,0,1-11.04,6.387v5.461a3.959,3.959,0,0,1-1.693,3.249,3.914,3.914,0,0,1-2.271.719h-.322V58.659a1.251,1.251,0,0,0-1.956-1.037l-9.8,6.646a1.256,1.256,0,0,1-1.96-1.037V58.659a1.25,1.25,0,0,0-1.956-1.037L86.714,60.3l-5.857,3.971a1.256,1.256,0,0,1-1.96-1.037V58.659a1.252,1.252,0,0,0-1.956-1.037l-7.272,4.931c-.012-.021-1.291-2.229-1.3-2.252A3.963,3.963,0,0,1,69.85,54.94l4.738-2.734a28.282,28.282,0,0,1,0-12.752L69.85,36.72A3.968,3.968,0,0,1,68.4,31.3l4.364-7.554A3.963,3.963,0,0,1,78.178,22.3l4.738,2.738a28.364,28.364,0,0,1,11.04-6.387V13.184A3.964,3.964,0,0,1,97.92,9.22h8.725a3.964,3.964,0,0,1,3.964,3.964v5.464a28.311,28.311,0,0,1,11.04,6.387l4.742-2.738a3.964,3.964,0,0,1,5.416,1.452l4.36,7.554a3.965,3.965,0,0,1-1.452,5.416l-4.735,2.734a28.388,28.388,0,0,1,0,12.752l4.735,2.734A3.964,3.964,0,0,1,136.168,60.356Z" transform="translate(-67.867 -9.22)" fill="#71c1e8"/>
      </g>
      <g id="Grupo_971861" data-name="Grupo 971861" transform="translate(29.135 54.807)">
        <path id="Trazado_684229" data-name="Trazado 684229" d="M85.913,135.747a20.5,20.5,0,0,0,1.652,2.015l-5.857,3.971a1.256,1.256,0,0,1-1.96-1.037v-4.572a1.252,1.252,0,0,0-1.956-1.037l-7.272,4.931c-.012-.021-1.291-2.229-1.3-2.252l7.117-4.824a3.849,3.849,0,0,1,6.005,3.182v2.045Z" transform="translate(-69.22 -132.273)" fill="#4ba4c7"/>
      </g>
      <g id="Grupo_971862" data-name="Grupo 971862" transform="translate(67.089 66.024)">
        <path id="Trazado_684230" data-name="Trazado 684230" d="M174.263,162.55v15.7a3.914,3.914,0,0,1-2.271.719h-.322V163.224A20.8,20.8,0,0,0,174.263,162.55Z" transform="translate(-171.67 -162.55)" fill="#4ba4c7"/>
      </g>
      <g id="Grupo_971863" data-name="Grupo 971863" transform="translate(41.797 24.576)">
        <path id="Trazado_684231" data-name="Trazado 684231" d="M124.654,50.67a21.252,21.252,0,0,0-17.223,33.705,20.5,20.5,0,0,0,1.652,2.015l3.942-2.675a1.25,1.25,0,0,1,1.956,1.037v4.572a1.256,1.256,0,0,0,1.96,1.037l9.8-6.646a1.251,1.251,0,0,1,1.956,1.037v8.039a20.807,20.807,0,0,0,2.593-.674,21.255,21.255,0,0,0-6.631-41.448Z" transform="translate(-103.4 -50.67)" fill="#efbf27"/>
      </g>
      <g id="Grupo_971867" data-name="Grupo 971867" transform="translate(74.096 78.089)">
        <g id="Grupo_971866" data-name="Grupo 971866" transform="translate(3.133 3.686)">
          <g id="Grupo_971865" data-name="Grupo 971865">
            <path id="Trazado_684233" data-name="Trazado 684233" d="M202.333,206.941a4.915,4.915,0,0,0-1.6,1.812,5.143,5.143,0,0,0-1.693-1.8,4.924,4.924,0,0,0,1.675-1.889,5.024,5.024,0,0,0,1.619,1.875Z" transform="translate(-199.04 -205.066)" fill="#f0c020"/>
          </g>
        </g>
      </g>
      <g id="Grupo_971868" data-name="Grupo 971868" transform="translate(72.058 52.9)">
        <path id="Trazado_684234" data-name="Trazado 684234" d="M185.244,135.055a.927.927,0,0,1,.242-1.287,16.6,16.6,0,0,0,5.4-6.138.926.926,0,1,1,1.65.842,18.463,18.463,0,0,1-6,6.825A.926.926,0,0,1,185.244,135.055Z" transform="translate(-185.083 -127.124)" fill="#f7e4b0"/>
      </g>
      <g id="Grupo_971869" data-name="Grupo 971869" transform="translate(46.619 27.354)">
        <path id="Trazado_684235" data-name="Trazado 684235" d="M116.907,69.249A.926.926,0,0,1,116.525,68c.181-.34.377-.682.582-1.014a.926.926,0,1,1,1.577.971c-.184.3-.361.608-.524.914a.926.926,0,0,1-1.253.383Zm30.61-.416a16.609,16.609,0,0,0-26.693-3.654.926.926,0,0,1-1.34-1.278,18.311,18.311,0,0,1,13.363-5.73h0a18.468,18.468,0,0,1,16.3,9.789.926.926,0,1,1-1.633.874Z" transform="translate(-116.416 -58.17)" fill="#f7e4b0"/>
      </g>
      <g id="Grupo_971870" data-name="Grupo 971870" transform="translate(45.828 54.805)">
        <path id="Trazado_684236" data-name="Trazado 684236" d="M138.135,136.12v7.365a20.805,20.805,0,0,1-2.593.674V136.12a1.251,1.251,0,0,0-1.956-1.037l-9.8,6.646a1.256,1.256,0,0,1-1.96-1.037V136.12a1.25,1.25,0,0,0-1.956-1.037l-3.942,2.675a20.5,20.5,0,0,1-1.652-2.015l4.138-2.8a3.846,3.846,0,0,1,6.005,3.182v2.045l7.706-5.227A3.848,3.848,0,0,1,138.135,136.12Z" transform="translate(-114.28 -132.266)" fill="#e7a523"/>
      </g>
      <g id="Grupo_971880" data-name="Grupo 971880" transform="translate(5.545 47.373)">
        <g id="Grupo_971871" data-name="Grupo 971871" transform="translate(0.258 7.599)">
          <path id="Trazado_684237" data-name="Trazado 684237" d="M27.591,176.522H8.941a2.694,2.694,0,0,1-2.7-2.8l1.38-38.08.1-2.926H26.007l.1,2.926.28,7.7Z" transform="translate(-6.243 -132.719)" fill="#fc5d3d"/>
        </g>
        <g id="Grupo_971872" data-name="Grupo 971872" transform="translate(2.826 12.009)">
          <path id="Trazado_684238" data-name="Trazado 684238" d="M14.066,179.341a.926.926,0,0,1-.892-.959l.04-1.111a.926.926,0,1,1,1.851.067l-.04,1.111A.926.926,0,0,1,14.066,179.341Zm.174-4.813a.926.926,0,0,1-.892-.959l1.016-28.055a.926.926,0,1,1,1.851.067L15.2,173.636A.926.926,0,0,1,14.24,174.528Z" transform="translate(-13.173 -144.622)" fill="#ffcac2"/>
        </g>
        <g id="Grupo_971873" data-name="Grupo 971873" transform="translate(1.638 7.601)">
          <path id="Trazado_684239" data-name="Trazado 684239" d="M28.455,135.65H9.967l.1-2.926H28.35Z" transform="translate(-9.967 -132.724)" fill="#b14e34"/>
        </g>
        <g id="Grupo_971874" data-name="Grupo 971874" transform="translate(20.407 10.028)">
          <path id="Trazado_684240" data-name="Trazado 684240" d="M101.767,140.532V178.56a2.089,2.089,0,0,1-2.089,2.089H61.827l-1.2-33.179,2.856-1.941,1.626-1.1,7.272-4.931a1.252,1.252,0,0,1,1.956,1.037V145.1a1.256,1.256,0,0,0,1.96,1.037l5.857-3.971,3.942-2.675a1.25,1.25,0,0,1,1.956,1.037V145.1a1.256,1.256,0,0,0,1.96,1.037l9.8-6.646A1.251,1.251,0,0,1,101.767,140.532Z" transform="translate(-60.63 -139.273)" fill="#eee"/>
        </g>
        <g id="Grupo_971875" data-name="Grupo 971875" transform="translate(20.406 16.284)">
          <path id="Trazado_684241" data-name="Trazado 684241" d="M64.756,191.281H61.826l-1.2-33.18,2.859-1.94Z" transform="translate(-60.626 -156.161)" fill="#aeaeae"/>
        </g>
        <g id="Grupo_971876" data-name="Grupo 971876" transform="translate(0)">
          <path id="Trazado_684242" data-name="Trazado 684242" d="M27.31,113.46v5.092a1.252,1.252,0,0,1-1.254,1.254H6.8a1.252,1.252,0,0,1-1.254-1.254V113.46A1.252,1.252,0,0,1,6.8,112.206H26.056A1.252,1.252,0,0,1,27.31,113.46Z" transform="translate(-5.545 -112.206)" fill="#eee"/>
        </g>
        <g id="Grupo_971877" data-name="Grupo 971877" transform="translate(26.42 27.915)">
          <path id="Trazado_684243" data-name="Trazado 684243" d="M81.632,201.856H77.971a1.111,1.111,0,0,1-1.111-1.111V188.667a1.111,1.111,0,0,1,1.111-1.111h3.661a1.111,1.111,0,0,1,1.111,1.111v12.077A1.111,1.111,0,0,1,81.632,201.856Z" transform="translate(-76.86 -187.556)" fill="#fc5d3d"/>
        </g>
        <g id="Grupo_971878" data-name="Grupo 971878" transform="translate(38.634 27.915)">
          <path id="Trazado_684244" data-name="Trazado 684244" d="M114.6,201.856h-3.661a1.111,1.111,0,0,1-1.111-1.111V188.667a1.111,1.111,0,0,1,1.111-1.111H114.6a1.111,1.111,0,0,1,1.111,1.111v12.077A1.112,1.112,0,0,1,114.6,201.856Z" transform="translate(-109.83 -187.556)" fill="#fc5d3d"/>
        </g>
        <g id="Grupo_971879" data-name="Grupo 971879" transform="translate(50.848 27.915)">
          <path id="Trazado_684245" data-name="Trazado 684245" d="M147.571,201.856H143.91a1.111,1.111,0,0,1-1.111-1.111V188.667a1.111,1.111,0,0,1,1.111-1.111h3.661a1.111,1.111,0,0,1,1.111,1.111v12.077A1.112,1.112,0,0,1,147.571,201.856Z" transform="translate(-142.799 -187.556)" fill="#fc5d3d"/>
        </g>
      </g>
      <g id="Grupo_971881" data-name="Grupo 971881" transform="translate(58.084 40.5)">
        <path id="Trazado_684246" data-name="Trazado 684246" d="M153.17,94.192a.927.927,0,0,0-1.684,0L147.446,103a.926.926,0,1,0,1.683.772l.935-2.039h4.526l.935,2.039a.926.926,0,0,0,1.683-.772c-.63-1.376-2.444-5.33-4.04-8.809Zm-2.255,5.69,1.414-3.082,1.414,3.082Z" transform="translate(-147.361 -93.653)"/>
      </g>
      <g id="Grupo_971882" data-name="Grupo 971882" transform="translate(46.274 40.499)">
        <path id="Trazado_684247" data-name="Trazado 684247" d="M123.713,94.073,120.45,99.1l-3.263-5.032a.927.927,0,0,0-1.7.5v8.809a.926.926,0,1,0,1.852,0V97.707l2.337,3.6a.927.927,0,0,0,1.554,0l2.337-3.6v5.679a.926.926,0,1,0,1.852,0V94.577A.927.927,0,0,0,123.713,94.073Z" transform="translate(-115.483 -93.651)"/>
      </g>
      <g id="Grupo_971883" data-name="Grupo 971883" transform="translate(69.893 40.498)">
        <path id="Trazado_684248" data-name="Trazado 684248" d="M179.538,93.893a.926.926,0,0,0-.056,1.308l3.466,3.778-3.466,3.778a.926.926,0,1,0,1.364,1.252l3.358-3.661,3.358,3.661a.926.926,0,1,0,1.364-1.252l-3.466-3.778,3.466-3.778a.926.926,0,1,0-1.364-1.252L184.2,97.61l-3.358-3.661A.925.925,0,0,0,179.538,93.893Z" transform="translate(-179.239 -93.649)"/>
      </g>
      <g id="Grupo_971891" data-name="Grupo 971891" transform="translate(10.783 38.899)">
        <path id="Trazado_684255" data-name="Trazado 684255" d="M20.609,89.333a.926.926,0,0,0-.926.926v1.359a.926.926,0,1,0,1.852,0V90.259A.927.927,0,0,0,20.609,89.333Z" transform="translate(-19.683 -89.333)"/>
      </g>
      <g id="Grupo_971892" data-name="Grupo 971892" transform="translate(10.783 29.514)">
        <path id="Trazado_684256" data-name="Trazado 684256" d="M21.535,64.926a.926.926,0,0,0-1.852,0v5.866a.926.926,0,1,0,1.852,0Z" transform="translate(-19.683 -64)"/>
      </g>
      <g id="Grupo_971893" data-name="Grupo 971893" transform="translate(15.552 38.899)">
        <path id="Trazado_684257" data-name="Trazado 684257" d="M33.482,89.333a.926.926,0,0,0-.926.926v1.359a.926.926,0,1,0,1.852,0V90.259A.926.926,0,0,0,33.482,89.333Z" transform="translate(-32.556 -89.333)"/>
      </g>
      <g id="Grupo_971894" data-name="Grupo 971894" transform="translate(15.552 29.514)">
        <path id="Trazado_684258" data-name="Trazado 684258" d="M34.408,64.926a.926.926,0,0,0-1.852,0v5.866a.926.926,0,1,0,1.852,0Z" transform="translate(-32.556 -64)"/>
      </g>
      <g id="Grupo_971895" data-name="Grupo 971895" transform="translate(20.321 38.899)">
        <path id="Trazado_684259" data-name="Trazado 684259" d="M46.355,89.333a.926.926,0,0,0-.926.926v1.359a.926.926,0,1,0,1.852,0V90.259A.926.926,0,0,0,46.355,89.333Z" transform="translate(-45.429 -89.333)"/>
      </g>
      <g id="Grupo_971896" data-name="Grupo 971896" transform="translate(20.321 29.514)">
        <path id="Trazado_684260" data-name="Trazado 684260" d="M47.281,64.926a.926.926,0,0,0-1.852,0v5.866a.926.926,0,1,0,1.852,0Z" transform="translate(-45.429 -64)"/>
      </g>
    </g>
  </g>
</svg>
