<svg xmlns="http://www.w3.org/2000/svg" width="124" height="124" viewBox="0 0 124 124">
  <g id="Grupo_979311" data-name="Grupo 979311" transform="translate(-424 -12474)">
    <rect id="Rectángulo_305813" data-name="Rectángulo 305813" width="124" height="124" transform="translate(424 12474)" fill="none"/>
    <g id="defecto" transform="translate(436 12486)">
      <path id="Trazado_684190" data-name="Trazado 684190" d="M101,50.5A50.5,50.5,0,0,1,22.119,92.275c-5.806-3.949,2.363-15.709-1.364-21.673-1.789-2.86-16.4.715-17.6-2.49A50.505,50.505,0,1,1,101,50.5Z" fill="#449c6e"/>
      <g id="Grupo_971827" data-name="Grupo 971827" transform="translate(3.158 47.952)">
        <g id="Grupo_971824" data-name="Grupo 971824" transform="translate(0 0)">
          <g id="Grupo_971823" data-name="Grupo 971823">
            <path id="Trazado_684191" data-name="Trazado 684191" d="M60.286,250.048v32.935a4.424,4.424,0,0,1-4.423,4.425H34.971A50.633,50.633,0,0,1,16.01,263.245v-13.2a4.423,4.423,0,0,1,4.423-4.423h10.3l9.112,2.981,5.77-2.981,4.646-2.54,5.6,2.54A4.423,4.423,0,0,1,60.286,250.048Z" transform="translate(-16.01 -243.085)" fill="#ffe471"/>
            <path id="Trazado_684192" data-name="Trazado 684192" d="M24.926,255.96a4.424,4.424,0,0,0-4.425,4.423V282.7a50.273,50.273,0,0,1-4.492-9.12v-13.2a4.422,4.422,0,0,1,4.423-4.423Z" transform="translate(-16.01 -253.42)" fill="#ffd473"/>
          </g>
          <path id="Trazado_684193" data-name="Trazado 684193" d="M104.93,270.065l-1.278-1.635a.759.759,0,0,0-1.2,0l-1.284,1.643a.759.759,0,0,1-1.2,0l-1.284-1.643a.759.759,0,0,0-1.2,0l-1.284,1.643a.759.759,0,0,1-1.2,0l-1.284-1.643a.759.759,0,0,0-1.2,0l-1.278,1.635a.338.338,0,0,1-.6-.208v-13.9h14.882v13.9A.338.338,0,0,1,104.93,270.065Z" transform="translate(-75.928 -253.418)" fill="#6e9cd3"/>
        </g>
        <g id="Grupo_971826" data-name="Grupo 971826" transform="translate(50.407)">
          <g id="Grupo_971825" data-name="Grupo 971825">
            <path id="Trazado_684194" data-name="Trazado 684194" d="M314.723,254.231a.611.611,0,0,1,1.093.376v28.376a4.424,4.424,0,0,1-4.423,4.425H275.963a4.424,4.424,0,0,1-4.423-4.425V250.048a4.423,4.423,0,0,1,4.423-4.423l7.382-2.54,2.921,2.54,9.11,2.981,5.77-2.981h2.743a2.13,2.13,0,0,1,.69.115l3.815,1.306a.851.851,0,0,1,.328,1.408l-1.652,1.652a.586.586,0,0,0,.414,1H311.4a.851.851,0,0,1,.851.851v3.559a.648.648,0,0,0,1.159.4Z" transform="translate(-271.54 -243.085)" fill="#ffe471"/>
            <path id="Trazado_684195" data-name="Trazado 684195" d="M280.455,297.741h-4.493a4.423,4.423,0,0,1-4.424-4.424V260.381a4.423,4.423,0,0,1,4.424-4.424h4.493a4.424,4.424,0,0,0-4.424,4.424v32.937A4.425,4.425,0,0,0,280.455,297.741Z" transform="translate(-271.539 -253.418)" fill="#ffd473"/>
          </g>
          <path id="Trazado_684196" data-name="Trazado 684196" d="M360.464,270.065l-1.278-1.635a.759.759,0,0,0-1.2,0l-1.284,1.643a.759.759,0,0,1-1.2,0l-1.284-1.643a.759.759,0,0,0-1.2,0l-1.284,1.643a.759.759,0,0,1-1.2,0l-1.284-1.643a.759.759,0,0,0-1.2,0l-1.278,1.635a.338.338,0,0,1-.6-.208v-13.9h14.882v13.9a.338.338,0,0,1-.6.208Z" transform="translate(-331.462 -253.418)" fill="#6e9cd3"/>
        </g>
        <path id="Trazado_684197" data-name="Trazado 684197" d="M351.854,351.744l4.758-4.758a2.269,2.269,0,1,0-3.208-3.208l-4.758,4.758-4.758-4.758a2.269,2.269,0,0,0-3.208,3.208l4.758,4.758-4.758,4.758a2.269,2.269,0,0,0,3.208,3.208l4.758-4.758,4.758,4.758a2.269,2.269,0,1,0,3.208-3.208Z" transform="translate(-276.1 -323.381)" fill="#ff5a66"/>
      </g>
      <g id="Grupo_971829" data-name="Grupo 971829" transform="translate(28.361 8.709)">
        <g id="Grupo_971828" data-name="Grupo 971828">
          <path id="Trazado_684198" data-name="Trazado 684198" d="M183.627,44.15H173.38l-5.77,2.981L158.5,44.15H148.2a4.423,4.423,0,0,0-4.423,4.423V81.509a4.423,4.423,0,0,0,4.423,4.423h35.431a4.423,4.423,0,0,0,4.423-4.423V48.573A4.423,4.423,0,0,0,183.627,44.15Z" transform="translate(-143.773 -44.149)" fill="#ffe471"/>
          <path id="Trazado_684199" data-name="Trazado 684199" d="M152.689,85.931H148.2a4.423,4.423,0,0,1-4.424-4.424V48.571a4.423,4.423,0,0,1,4.424-4.424h4.493a4.424,4.424,0,0,0-4.424,4.424V81.508A4.424,4.424,0,0,0,152.689,85.931Z" transform="translate(-143.773 -44.147)" fill="#ffd473"/>
        </g>
        <path id="Trazado_684200" data-name="Trazado 684200" d="M232.7,58.255l-1.278-1.635a.759.759,0,0,0-1.2,0l-1.284,1.643a.759.759,0,0,1-1.2,0l-1.284-1.643a.759.759,0,0,0-1.2,0l-1.284,1.643a.759.759,0,0,1-1.2,0L221.5,56.62a.759.759,0,0,0-1.2,0l-1.278,1.635a.338.338,0,0,1-.6-.208v-13.9H233.3v13.9a.338.338,0,0,1-.6.208Z" transform="translate(-203.695 -44.147)" fill="#6e9cd3"/>
      </g>
      <g id="Grupo_971830" data-name="Grupo 971830" transform="translate(17.045 22.852)">
        <path id="Trazado_684201" data-name="Trazado 684201" d="M97.457,342.446a2.269,2.269,0,0,1-1.52-.584l-8.784-7.925a2.269,2.269,0,0,1,3.039-3.369l6.651,6,7.936-14.529a2.269,2.269,0,0,1,3.982,2.175l-9.313,17.051a2.269,2.269,0,0,1-1.611,1.149,2.3,2.3,0,0,1-.38.032Z" transform="translate(-86.404 -280.415)" fill="#4dc177"/>
        <path id="Trazado_684202" data-name="Trazado 684202" d="M225.223,137.431a2.27,2.27,0,0,1-1.52-.584l-8.784-7.926a2.269,2.269,0,0,1,3.039-3.369l6.651,6,7.936-14.529a2.268,2.268,0,1,1,3.982,2.175l-9.313,17.051a2.269,2.269,0,0,1-1.991,1.181Z" transform="translate(-188.966 -115.843)" fill="#4dc177"/>
      </g>
    </g>
  </g>
</svg>
