<svg xmlns="http://www.w3.org/2000/svg" width="124" height="124" viewBox="0 0 124 124">
  <g id="Grupo_978927" data-name="Grupo 978927" transform="translate(-424 -16281.055)">
    <circle id="Elipse_7772" data-name="Elipse 7772" cx="50.5" cy="50.5" r="50.5" transform="translate(435 16293)" fill="#449c6e"/>
    <rect id="Rectángulo_341431" data-name="Rectángulo 341431" width="124" height="124" transform="translate(424 16281.055)" fill="none"/>
    <g id="hito" transform="translate(375.252 16302)">
      <path id="Trazado_690643" data-name="Trazado 690643" d="M129.549,7.728A31.2,31.2,0,0,0,108.514,0,27.9,27.9,0,0,0,89.29,7.781a26.532,26.532,0,0,0-8.53,18.476,27.122,27.122,0,0,0,5.78,17.551c4.842,6.155,7.471,12.039,7.793,17.265L109.957,68.8l14.686-7.731c.172-5.127,2.735-10.95,7.642-17.075a27.153,27.153,0,0,0,5.943-16.917,25.805,25.805,0,0,0-8.68-19.353Z" transform="translate(0)" fill="#ffda2c"/>
      <path id="Trazado_690644" data-name="Trazado 690644" d="M276.06,7.8A31.045,31.045,0,0,0,256,.092V68.649l.468.232,14.686-7.731c.172-5.127,2.735-10.95,7.642-17.075a27.153,27.153,0,0,0,5.943-16.917A25.8,25.8,0,0,0,276.06,7.8Z" transform="translate(-146.512 -0.077)" fill="#febf00"/>
      <path id="Trazado_690645" data-name="Trazado 690645" d="M277.306,114.328,263.019,109.4c-.035-.012-.069-.02-.1-.03v15.665a2.507,2.507,0,0,0,.257-.091l14.287-6.019a2.46,2.46,0,0,0-.153-4.593Z" transform="translate(-152.293 -91.431)" fill="#ff0059"/>
      <path id="Trazado_690646" data-name="Trazado 690646" d="M243.457,124.986a2.46,2.46,0,0,1-2.46-2.46V95.466a2.46,2.46,0,1,1,4.921,0v27.06A2.46,2.46,0,0,1,243.457,124.986Z" transform="translate(-133.969 -77.754)" fill="#38336b"/>
      <path id="Trazado_690647" data-name="Trazado 690647" d="M255.931,93h-.014v31.979h.014a2.46,2.46,0,0,0,2.46-2.46V95.466A2.46,2.46,0,0,0,255.931,93Z" transform="translate(-146.442 -77.753)" fill="#2e2654"/>
      <path id="Trazado_690648" data-name="Trazado 690648" d="M170.324,274.106H168a19.078,19.078,0,0,0-15.928,8.561,23.308,23.308,0,0,1,1.888,7.561l15.623,7.731,14.686-7.731a21.641,21.641,0,0,1,1.861-7.739A19.075,19.075,0,0,0,170.324,274.106Z" transform="translate(-59.628 -229.155)" fill="#90d960"/>
      <g id="Grupo_978872" data-name="Grupo 978872" transform="translate(109.488 44.951)">
        <path id="Trazado_690649" data-name="Trazado 690649" d="M257.208,274.106H256v23.621l.468.232,14.686-7.731a21.642,21.642,0,0,1,1.861-7.739A19.075,19.075,0,0,0,257.208,274.106Z" transform="translate(-256 -274.106)" fill="#61c27c"/>
      </g>
      <path id="Trazado_690650" data-name="Trazado 690650" d="M190.877,450.492v7.626a2.46,2.46,0,0,0,2.46,2.46h16.438a2.46,2.46,0,0,0,2.46-2.46v-7.626Z" transform="translate(-92.068 -376.615)" fill="#38336b"/>
      <path id="Trazado_690651" data-name="Trazado 690651" d="M264.219,460.579a2.46,2.46,0,0,0,2.46-2.46v-7.626H256v10.087Z" transform="translate(-146.512 -376.615)" fill="#2e2654"/>
      <path id="Trazado_690652" data-name="Trazado 690652" d="M193.9,372.415h-30.31V384.5a2.46,2.46,0,0,0,2.46,2.46h25.389a2.46,2.46,0,0,0,2.46-2.46Z" transform="translate(-69.253 -311.342)" fill="#5ecbf1"/>
      <path id="Trazado_690653" data-name="Trazado 690653" d="M256,372.415v14.543h12.694a2.46,2.46,0,0,0,2.46-2.46V372.415Z" transform="translate(-146.512 -311.342)" fill="#4793ff"/>
    </g>
  </g>
</svg>
