<svg xmlns="http://www.w3.org/2000/svg" width="124" height="124" viewBox="0 0 124 124">
  <g id="Grupo_978931" data-name="Grupo 978931" transform="translate(6910.01 -4588.151)">
    <circle id="Elipse_7769" data-name="Elipse 7769" cx="50.5" cy="50.5" r="50.5" transform="translate(-6898.01 4600)" fill="#449c6e"/>
    <rect id="Rectángulo_341435" data-name="Rectángulo 341435" width="124" height="124" transform="translate(-6910.01 4588.151)" fill="none"/>
    <g id="implementacion" transform="translate(-6897.379 4607.111)">
      <g id="Grupo_978922" data-name="Grupo 978922" transform="translate(13.514 5.617)">
        <path id="Trazado_690715" data-name="Trazado 690715" d="M17.673,17.674a1.136,1.136,0,0,1-1.139,1.966l-2.453-1.416a1.136,1.136,0,1,1,1.139-1.966ZM33.95,9.588a1.139,1.139,0,1,1-2.278,0V6.756a1.139,1.139,0,1,1,2.278,0Zm8.913,3a1.134,1.134,0,0,1-1.966-1.13L42.313,9a1.134,1.134,0,1,1,1.966,1.13Zm6.221,7.057a1.134,1.134,0,1,1-1.13-1.966l2.453-1.416a1.134,1.134,0,1,1,1.13,1.966ZM24.726,11.453a1.134,1.134,0,0,1-1.966,1.13L21.343,10.13A1.134,1.134,0,0,1,23.31,9Z" transform="translate(-13.514 -5.617)" fill="#ffe177" fill-rule="evenodd"/>
        <path id="Trazado_690716" data-name="Trazado 690716" d="M118.09,302.158h6.891v3.5a2.1,2.1,0,0,1-2.09,2.09H120.18a2.1,2.1,0,0,1-2.09-2.09v-3.5Z" transform="translate(-102.169 -257.01)" fill="#b1b1b5" fill-rule="evenodd"/>
        <path id="Trazado_690717" data-name="Trazado 690717" d="M104.013,269.011H115.19v4.372a2.1,2.1,0,0,1-2.089,2.09h-7a2.1,2.1,0,0,1-2.09-2.09v-4.372Z" transform="translate(-90.235 -228.91)" fill="#d1d1d6" fill-rule="evenodd"/>
        <path id="Trazado_690718" data-name="Trazado 690718" d="M149.806,283.993v2.09a2.074,2.074,0,0,1-.112.675,2.1,2.1,0,0,1-1.977,1.415h2.434a2.1,2.1,0,0,0,2.089-2.09v-2.091h-2.434Z" transform="translate(-127.285 -241.61)" fill="#b1b1b5" fill-rule="evenodd"/>
        <path id="Trazado_690719" data-name="Trazado 690719" d="M89.827,242.839h15.357v4.177a2.1,2.1,0,0,1-2.09,2.09H91.917a2.1,2.1,0,0,1-2.09-2.09v-4.177Z" transform="translate(-78.209 -206.722)" fill="#eceff1" fill-rule="evenodd"/>
        <path id="Trazado_690720" data-name="Trazado 690720" d="M163.073,256.547v2.09a2.1,2.1,0,0,1-2.089,2.09h2.5a2.1,2.1,0,0,0,2.02-2.089v-2.09Z" transform="translate(-138.532 -218.343)" fill="#d1d1d6" fill-rule="evenodd"/>
        <path id="Trazado_690721" data-name="Trazado 690721" d="M68.657,58.829a12.86,12.86,0,0,1,12.86,12.86c0,7.142-4.562,6.715-5.181,17.243H60.978C60.359,78.4,55.8,78.831,55.8,71.689A12.86,12.86,0,0,1,68.657,58.829Z" transform="translate(-49.36 -50.728)" fill="#ffe177" fill-rule="evenodd"/>
        <path id="Trazado_690722" data-name="Trazado 690722" d="M132.268,58.887a12.861,12.861,0,0,1,11.643,12.8c0,6.634-3.936,6.738-4.992,15.156-.081.645-.145,1.338-.189,2.087h2.434c.619-10.527,5.181-10.1,5.181-17.243a12.86,12.86,0,0,0-12.86-12.86Q132.869,58.83,132.268,58.887Z" transform="translate(-114.188 -50.728)" fill="#ffd064" fill-rule="evenodd"/>
        <path id="Trazado_690723" data-name="Trazado 690723" d="M86,139V125.816H83.987a3.958,3.958,0,1,1,3.962-3.962v2.015h2.494v-2.015a3.958,3.958,0,1,1,3.962,3.962H92.39V139H90.443V125.816H87.949V139H86Zm0-15.133v-2.015a2.015,2.015,0,1,0-2.015,2.015Zm6.389,0H94.4a2.015,2.015,0,1,0-2.015-2.015Z" transform="translate(-69.899 -100.798)" fill="#ffc338" fill-rule="evenodd"/>
      </g>
      <g id="Grupo_978923" data-name="Grupo 978923" transform="translate(51.867 46.375)">
        <path id="Trazado_690724" data-name="Trazado 690724" d="M286.39,278.487a12.9,12.9,0,0,1,3.386,1.4l4.238-3.069,3.391,3.391-3.069,4.238a12.91,12.91,0,0,1,1.4,3.386l5.165.827v4.8l-5.165.827a12.9,12.9,0,0,1-1.4,3.386l3.069,4.238-3.391,3.391-4.238-3.069a12.905,12.905,0,0,1-3.386,1.4l-.827,5.165h-4.8l-.827-5.165a12.9,12.9,0,0,1-3.386-1.4l-4.238,3.069-3.391-3.391,3.069-4.238a12.9,12.9,0,0,1-1.4-3.386l-5.165-.827v-4.8l5.166-.827a12.9,12.9,0,0,1,1.4-3.386l-3.069-4.238,3.391-3.391,4.238,3.069a12.9,12.9,0,0,1,3.386-1.4l.827-5.165h4.8Z" transform="translate(-265.423 -273.322)" fill="#837683" fill-rule="evenodd"/>
        <path id="Trazado_690725" data-name="Trazado 690725" d="M446.542,313.781a12.9,12.9,0,0,1-1.4,3.386l3.069,4.238-2.739,2.739.9.652,3.391-3.391-3.069-4.238a12.9,12.9,0,0,0,1.4-3.386l5.165-.827v-4.8l-5.165-.827a12.911,12.911,0,0,0-1.4-3.386l3.069-4.238-3.391-3.391-.9.652,2.739,2.739-3.069,4.238a12.913,12.913,0,0,1,1.4,3.386l5.165.827v4.8Z" transform="translate(-417.777 -292.814)" fill="#685e68" fill-rule="evenodd"/>
        <circle id="Elipse_7779" data-name="Elipse 7779" cx="7.087" cy="7.087" r="7.087" transform="translate(8.912 22.486) rotate(-73.142)" fill="#eceff1"/>
        <path id="Trazado_690726" data-name="Trazado 690726" d="M336.961,350.393a7.088,7.088,0,0,0,6.31,7.045,7.183,7.183,0,0,1-.776.042,7.087,7.087,0,1,1,0-14.173,7.168,7.168,0,0,1,.776.042,7.079,7.079,0,0,0-6.31,7.045Z" transform="translate(-324.753 -332.651)" fill="#d1d1d6" fill-rule="evenodd"/>
      </g>
      <g id="Grupo_978924" data-name="Grupo 978924" transform="translate(21.597 59.261)">
        <path id="Trazado_690727" data-name="Trazado 690727" d="M83.544,367.872v-4.044L94.2,371.644l-10.655,8.918v-3.888c-14.871,0-19.749-10.933-15.428-18.708C70.506,367.272,78.31,367.872,83.544,367.872Z" transform="translate(-66.604 -357.966)" fill="#6cf5c2" fill-rule="evenodd"/>
        <path id="Trazado_690728" data-name="Trazado 690728" d="M93.024,386.552l-8.1,6.78V390.95c-12.483,0-18.325-7.265-17.945-14.383-1.908,7.348,3.431,15.876,16.565,15.876v3.888L94.2,387.413Z" transform="translate(-66.603 -373.735)" fill="#00e499" fill-rule="evenodd"/>
      </g>
      <g id="Grupo_978925" data-name="Grupo 978925" transform="translate(51.057 18.604)">
        <path id="Trazado_690729" data-name="Trazado 690729" d="M271.521,104.522v4.335l-11.42-8.378,11.42-9.558v4.167c15.939,0,21.167,11.718,16.536,20.051C285.5,105.165,277.131,104.522,271.521,104.522Z" transform="translate(-260.101 -90.921)" fill="#fe646f" fill-rule="evenodd"/>
        <path id="Trazado_690730" data-name="Trazado 690730" d="M270.151,151.189V154.5l-8.995-6.6-1.055.883,11.42,8.378v-4.335c5.016,0,12.234.514,15.537,7.753C283.646,152,275.782,151.189,270.151,151.189Z" transform="translate(-260.101 -139.224)" fill="#fd4755" fill-rule="evenodd"/>
      </g>
    </g>
  </g>
</svg>
